G04 #@! TF.GenerationSoftware,KiCad,Pcbnew,(5.1.5)-3*
G04 #@! TF.CreationDate,2020-12-11T17:42:00+02:00*
G04 #@! TF.ProjectId,Led_matrica,4c65645f-6d61-4747-9269-63612e6b6963,rev?*
G04 #@! TF.SameCoordinates,Original*
G04 #@! TF.FileFunction,Legend,Bot*
G04 #@! TF.FilePolarity,Positive*
%FSLAX46Y46*%
G04 Gerber Fmt 4.6, Leading zero omitted, Abs format (unit mm)*
G04 Created by KiCad (PCBNEW (5.1.5)-3) date 2020-12-11 17:42:00*
%MOMM*%
%LPD*%
G04 APERTURE LIST*
%ADD10C,0.120000*%
%ADD11C,0.080000*%
%ADD12C,0.150000*%
G04 APERTURE END LIST*
D10*
X244158578Y-66010000D02*
X243641422Y-66010000D01*
X244158578Y-64590000D02*
X243641422Y-64590000D01*
X243890000Y-41558578D02*
X243890000Y-41041422D01*
X245310000Y-41558578D02*
X245310000Y-41041422D01*
X245090000Y-61741422D02*
X245090000Y-62258578D01*
X246510000Y-61741422D02*
X246510000Y-62258578D01*
X243840000Y-81058578D02*
X243840000Y-80541422D01*
X245260000Y-81058578D02*
X245260000Y-80541422D01*
X237411422Y-34140000D02*
X237928578Y-34140000D01*
X237411422Y-32720000D02*
X237928578Y-32720000D01*
X237361422Y-35060000D02*
X237878578Y-35060000D01*
X237361422Y-36480000D02*
X237878578Y-36480000D01*
X237311422Y-38670000D02*
X237828578Y-38670000D01*
X237311422Y-37250000D02*
X237828578Y-37250000D01*
X237341422Y-39470000D02*
X237858578Y-39470000D01*
X237341422Y-40890000D02*
X237858578Y-40890000D01*
X237331422Y-43310000D02*
X237848578Y-43310000D01*
X237331422Y-41890000D02*
X237848578Y-41890000D01*
X237311422Y-44110000D02*
X237828578Y-44110000D01*
X237311422Y-45530000D02*
X237828578Y-45530000D01*
X237381422Y-48000000D02*
X237898578Y-48000000D01*
X237381422Y-46580000D02*
X237898578Y-46580000D01*
X237351422Y-48760000D02*
X237868578Y-48760000D01*
X237351422Y-50180000D02*
X237868578Y-50180000D01*
X237301422Y-52760000D02*
X237818578Y-52760000D01*
X237301422Y-51340000D02*
X237818578Y-51340000D01*
X237291422Y-53500000D02*
X237808578Y-53500000D01*
X237291422Y-54920000D02*
X237808578Y-54920000D01*
X237231422Y-57340000D02*
X237748578Y-57340000D01*
X237231422Y-55920000D02*
X237748578Y-55920000D01*
X237231422Y-59680000D02*
X237748578Y-59680000D01*
X237231422Y-58260000D02*
X237748578Y-58260000D01*
X237248922Y-62020000D02*
X237766078Y-62020000D01*
X237248922Y-60600000D02*
X237766078Y-60600000D01*
X237231422Y-62770000D02*
X237748578Y-62770000D01*
X237231422Y-64190000D02*
X237748578Y-64190000D01*
X237171422Y-66760000D02*
X237688578Y-66760000D01*
X237171422Y-65340000D02*
X237688578Y-65340000D01*
X237151422Y-67470000D02*
X237668578Y-67470000D01*
X237151422Y-68890000D02*
X237668578Y-68890000D01*
X237121422Y-71490000D02*
X237638578Y-71490000D01*
X237121422Y-70070000D02*
X237638578Y-70070000D01*
X237121422Y-72150000D02*
X237638578Y-72150000D01*
X237121422Y-73570000D02*
X237638578Y-73570000D01*
X237061422Y-76130000D02*
X237578578Y-76130000D01*
X237061422Y-74710000D02*
X237578578Y-74710000D01*
X237061422Y-76800000D02*
X237578578Y-76800000D01*
X237061422Y-78220000D02*
X237578578Y-78220000D01*
X237081422Y-80770000D02*
X237598578Y-80770000D01*
X237081422Y-79350000D02*
X237598578Y-79350000D01*
X237051422Y-81370000D02*
X237568578Y-81370000D01*
X237051422Y-82790000D02*
X237568578Y-82790000D01*
X237081422Y-83820000D02*
X237598578Y-83820000D01*
X237081422Y-85240000D02*
X237598578Y-85240000D01*
X237061422Y-87350000D02*
X237578578Y-87350000D01*
X237061422Y-85930000D02*
X237578578Y-85930000D01*
X244708578Y-45940000D02*
X244191422Y-45940000D01*
X244708578Y-47360000D02*
X244191422Y-47360000D01*
X244746078Y-83890000D02*
X244228922Y-83890000D01*
X244746078Y-85310000D02*
X244228922Y-85310000D01*
D11*
X232650000Y-34720000D02*
X232650000Y-33520000D01*
X232650000Y-33520000D02*
X234050000Y-33520000D01*
X234050000Y-33520000D02*
X234050000Y-34720000D01*
X234050000Y-34720000D02*
X232650000Y-34720000D01*
X233840000Y-38940000D02*
X232440000Y-38940000D01*
X233840000Y-37740000D02*
X233840000Y-38940000D01*
X232440000Y-37740000D02*
X233840000Y-37740000D01*
X232440000Y-38940000D02*
X232440000Y-37740000D01*
X234120000Y-43860000D02*
X232720000Y-43860000D01*
X234120000Y-42660000D02*
X234120000Y-43860000D01*
X232720000Y-42660000D02*
X234120000Y-42660000D01*
X232720000Y-43860000D02*
X232720000Y-42660000D01*
X234080000Y-48440000D02*
X232680000Y-48440000D01*
X234080000Y-47240000D02*
X234080000Y-48440000D01*
X232680000Y-47240000D02*
X234080000Y-47240000D01*
X232680000Y-48440000D02*
X232680000Y-47240000D01*
X232740000Y-53070000D02*
X232740000Y-51870000D01*
X232740000Y-51870000D02*
X234140000Y-51870000D01*
X234140000Y-51870000D02*
X234140000Y-53070000D01*
X234140000Y-53070000D02*
X232740000Y-53070000D01*
X232690000Y-57870000D02*
X232690000Y-56670000D01*
X232690000Y-56670000D02*
X234090000Y-56670000D01*
X234090000Y-56670000D02*
X234090000Y-57870000D01*
X234090000Y-57870000D02*
X232690000Y-57870000D01*
X234130000Y-62590000D02*
X232730000Y-62590000D01*
X234130000Y-61390000D02*
X234130000Y-62590000D01*
X232730000Y-61390000D02*
X234130000Y-61390000D01*
X232730000Y-62590000D02*
X232730000Y-61390000D01*
X232700000Y-66770000D02*
X232700000Y-65570000D01*
X232700000Y-65570000D02*
X234100000Y-65570000D01*
X234100000Y-65570000D02*
X234100000Y-66770000D01*
X234100000Y-66770000D02*
X232700000Y-66770000D01*
X234180000Y-71550000D02*
X232780000Y-71550000D01*
X234180000Y-70350000D02*
X234180000Y-71550000D01*
X232780000Y-70350000D02*
X234180000Y-70350000D01*
X232780000Y-71550000D02*
X232780000Y-70350000D01*
X232750000Y-76390000D02*
X232750000Y-75190000D01*
X232750000Y-75190000D02*
X234150000Y-75190000D01*
X234150000Y-75190000D02*
X234150000Y-76390000D01*
X234150000Y-76390000D02*
X232750000Y-76390000D01*
X234230000Y-80870000D02*
X232830000Y-80870000D01*
X234230000Y-79670000D02*
X234230000Y-80870000D01*
X232830000Y-79670000D02*
X234230000Y-79670000D01*
X232830000Y-80870000D02*
X232830000Y-79670000D01*
X232990000Y-85780000D02*
X232990000Y-84580000D01*
X232990000Y-84580000D02*
X234390000Y-84580000D01*
X234390000Y-84580000D02*
X234390000Y-85780000D01*
X234390000Y-85780000D02*
X232990000Y-85780000D01*
D12*
X244066666Y-64007142D02*
X244114285Y-64054761D01*
X244257142Y-64102380D01*
X244352380Y-64102380D01*
X244495238Y-64054761D01*
X244590476Y-63959523D01*
X244638095Y-63864285D01*
X244685714Y-63673809D01*
X244685714Y-63530952D01*
X244638095Y-63340476D01*
X244590476Y-63245238D01*
X244495238Y-63150000D01*
X244352380Y-63102380D01*
X244257142Y-63102380D01*
X244114285Y-63150000D01*
X244066666Y-63197619D01*
X243209523Y-63102380D02*
X243400000Y-63102380D01*
X243495238Y-63150000D01*
X243542857Y-63197619D01*
X243638095Y-63340476D01*
X243685714Y-63530952D01*
X243685714Y-63911904D01*
X243638095Y-64007142D01*
X243590476Y-64054761D01*
X243495238Y-64102380D01*
X243304761Y-64102380D01*
X243209523Y-64054761D01*
X243161904Y-64007142D01*
X243114285Y-63911904D01*
X243114285Y-63673809D01*
X243161904Y-63578571D01*
X243209523Y-63530952D01*
X243304761Y-63483333D01*
X243495238Y-63483333D01*
X243590476Y-63530952D01*
X243638095Y-63578571D01*
X243685714Y-63673809D01*
X246702380Y-41133333D02*
X246226190Y-40800000D01*
X246702380Y-40561904D02*
X245702380Y-40561904D01*
X245702380Y-40942857D01*
X245750000Y-41038095D01*
X245797619Y-41085714D01*
X245892857Y-41133333D01*
X246035714Y-41133333D01*
X246130952Y-41085714D01*
X246178571Y-41038095D01*
X246226190Y-40942857D01*
X246226190Y-40561904D01*
X245702380Y-42038095D02*
X245702380Y-41561904D01*
X246178571Y-41514285D01*
X246130952Y-41561904D01*
X246083333Y-41657142D01*
X246083333Y-41895238D01*
X246130952Y-41990476D01*
X246178571Y-42038095D01*
X246273809Y-42085714D01*
X246511904Y-42085714D01*
X246607142Y-42038095D01*
X246654761Y-41990476D01*
X246702380Y-41895238D01*
X246702380Y-41657142D01*
X246654761Y-41561904D01*
X246607142Y-41514285D01*
X244602380Y-61833333D02*
X244126190Y-61500000D01*
X244602380Y-61261904D02*
X243602380Y-61261904D01*
X243602380Y-61642857D01*
X243650000Y-61738095D01*
X243697619Y-61785714D01*
X243792857Y-61833333D01*
X243935714Y-61833333D01*
X244030952Y-61785714D01*
X244078571Y-61738095D01*
X244126190Y-61642857D01*
X244126190Y-61261904D01*
X243602380Y-62690476D02*
X243602380Y-62500000D01*
X243650000Y-62404761D01*
X243697619Y-62357142D01*
X243840476Y-62261904D01*
X244030952Y-62214285D01*
X244411904Y-62214285D01*
X244507142Y-62261904D01*
X244554761Y-62309523D01*
X244602380Y-62404761D01*
X244602380Y-62595238D01*
X244554761Y-62690476D01*
X244507142Y-62738095D01*
X244411904Y-62785714D01*
X244173809Y-62785714D01*
X244078571Y-62738095D01*
X244030952Y-62690476D01*
X243983333Y-62595238D01*
X243983333Y-62404761D01*
X244030952Y-62309523D01*
X244078571Y-62261904D01*
X244173809Y-62214285D01*
X246652380Y-80633333D02*
X246176190Y-80300000D01*
X246652380Y-80061904D02*
X245652380Y-80061904D01*
X245652380Y-80442857D01*
X245700000Y-80538095D01*
X245747619Y-80585714D01*
X245842857Y-80633333D01*
X245985714Y-80633333D01*
X246080952Y-80585714D01*
X246128571Y-80538095D01*
X246176190Y-80442857D01*
X246176190Y-80061904D01*
X245652380Y-80966666D02*
X245652380Y-81633333D01*
X246652380Y-81204761D01*
X241875357Y-33882380D02*
X242208690Y-33406190D01*
X242446785Y-33882380D02*
X242446785Y-32882380D01*
X242065833Y-32882380D01*
X241970595Y-32930000D01*
X241922976Y-32977619D01*
X241875357Y-33072857D01*
X241875357Y-33215714D01*
X241922976Y-33310952D01*
X241970595Y-33358571D01*
X242065833Y-33406190D01*
X242446785Y-33406190D01*
X240922976Y-33882380D02*
X241494404Y-33882380D01*
X241208690Y-33882380D02*
X241208690Y-32882380D01*
X241303928Y-33025238D01*
X241399166Y-33120476D01*
X241494404Y-33168095D01*
X240589642Y-32882380D02*
X239922976Y-32882380D01*
X240351547Y-33882380D01*
X241762857Y-36222380D02*
X242096190Y-35746190D01*
X242334285Y-36222380D02*
X242334285Y-35222380D01*
X241953333Y-35222380D01*
X241858095Y-35270000D01*
X241810476Y-35317619D01*
X241762857Y-35412857D01*
X241762857Y-35555714D01*
X241810476Y-35650952D01*
X241858095Y-35698571D01*
X241953333Y-35746190D01*
X242334285Y-35746190D01*
X240810476Y-36222380D02*
X241381904Y-36222380D01*
X241096190Y-36222380D02*
X241096190Y-35222380D01*
X241191428Y-35365238D01*
X241286666Y-35460476D01*
X241381904Y-35508095D01*
X240239047Y-35650952D02*
X240334285Y-35603333D01*
X240381904Y-35555714D01*
X240429523Y-35460476D01*
X240429523Y-35412857D01*
X240381904Y-35317619D01*
X240334285Y-35270000D01*
X240239047Y-35222380D01*
X240048571Y-35222380D01*
X239953333Y-35270000D01*
X239905714Y-35317619D01*
X239858095Y-35412857D01*
X239858095Y-35460476D01*
X239905714Y-35555714D01*
X239953333Y-35603333D01*
X240048571Y-35650952D01*
X240239047Y-35650952D01*
X240334285Y-35698571D01*
X240381904Y-35746190D01*
X240429523Y-35841428D01*
X240429523Y-36031904D01*
X240381904Y-36127142D01*
X240334285Y-36174761D01*
X240239047Y-36222380D01*
X240048571Y-36222380D01*
X239953333Y-36174761D01*
X239905714Y-36127142D01*
X239858095Y-36031904D01*
X239858095Y-35841428D01*
X239905714Y-35746190D01*
X239953333Y-35698571D01*
X240048571Y-35650952D01*
X241712857Y-38412380D02*
X242046190Y-37936190D01*
X242284285Y-38412380D02*
X242284285Y-37412380D01*
X241903333Y-37412380D01*
X241808095Y-37460000D01*
X241760476Y-37507619D01*
X241712857Y-37602857D01*
X241712857Y-37745714D01*
X241760476Y-37840952D01*
X241808095Y-37888571D01*
X241903333Y-37936190D01*
X242284285Y-37936190D01*
X240760476Y-38412380D02*
X241331904Y-38412380D01*
X241046190Y-38412380D02*
X241046190Y-37412380D01*
X241141428Y-37555238D01*
X241236666Y-37650476D01*
X241331904Y-37698095D01*
X240284285Y-38412380D02*
X240093809Y-38412380D01*
X239998571Y-38364761D01*
X239950952Y-38317142D01*
X239855714Y-38174285D01*
X239808095Y-37983809D01*
X239808095Y-37602857D01*
X239855714Y-37507619D01*
X239903333Y-37460000D01*
X239998571Y-37412380D01*
X240189047Y-37412380D01*
X240284285Y-37460000D01*
X240331904Y-37507619D01*
X240379523Y-37602857D01*
X240379523Y-37840952D01*
X240331904Y-37936190D01*
X240284285Y-37983809D01*
X240189047Y-38031428D01*
X239998571Y-38031428D01*
X239903333Y-37983809D01*
X239855714Y-37936190D01*
X239808095Y-37840952D01*
X241742857Y-40632380D02*
X242076190Y-40156190D01*
X242314285Y-40632380D02*
X242314285Y-39632380D01*
X241933333Y-39632380D01*
X241838095Y-39680000D01*
X241790476Y-39727619D01*
X241742857Y-39822857D01*
X241742857Y-39965714D01*
X241790476Y-40060952D01*
X241838095Y-40108571D01*
X241933333Y-40156190D01*
X242314285Y-40156190D01*
X241361904Y-39727619D02*
X241314285Y-39680000D01*
X241219047Y-39632380D01*
X240980952Y-39632380D01*
X240885714Y-39680000D01*
X240838095Y-39727619D01*
X240790476Y-39822857D01*
X240790476Y-39918095D01*
X240838095Y-40060952D01*
X241409523Y-40632380D01*
X240790476Y-40632380D01*
X240171428Y-39632380D02*
X240076190Y-39632380D01*
X239980952Y-39680000D01*
X239933333Y-39727619D01*
X239885714Y-39822857D01*
X239838095Y-40013333D01*
X239838095Y-40251428D01*
X239885714Y-40441904D01*
X239933333Y-40537142D01*
X239980952Y-40584761D01*
X240076190Y-40632380D01*
X240171428Y-40632380D01*
X240266666Y-40584761D01*
X240314285Y-40537142D01*
X240361904Y-40441904D01*
X240409523Y-40251428D01*
X240409523Y-40013333D01*
X240361904Y-39822857D01*
X240314285Y-39727619D01*
X240266666Y-39680000D01*
X240171428Y-39632380D01*
X241732857Y-43052380D02*
X242066190Y-42576190D01*
X242304285Y-43052380D02*
X242304285Y-42052380D01*
X241923333Y-42052380D01*
X241828095Y-42100000D01*
X241780476Y-42147619D01*
X241732857Y-42242857D01*
X241732857Y-42385714D01*
X241780476Y-42480952D01*
X241828095Y-42528571D01*
X241923333Y-42576190D01*
X242304285Y-42576190D01*
X241351904Y-42147619D02*
X241304285Y-42100000D01*
X241209047Y-42052380D01*
X240970952Y-42052380D01*
X240875714Y-42100000D01*
X240828095Y-42147619D01*
X240780476Y-42242857D01*
X240780476Y-42338095D01*
X240828095Y-42480952D01*
X241399523Y-43052380D01*
X240780476Y-43052380D01*
X239828095Y-43052380D02*
X240399523Y-43052380D01*
X240113809Y-43052380D02*
X240113809Y-42052380D01*
X240209047Y-42195238D01*
X240304285Y-42290476D01*
X240399523Y-42338095D01*
X241712857Y-45272380D02*
X242046190Y-44796190D01*
X242284285Y-45272380D02*
X242284285Y-44272380D01*
X241903333Y-44272380D01*
X241808095Y-44320000D01*
X241760476Y-44367619D01*
X241712857Y-44462857D01*
X241712857Y-44605714D01*
X241760476Y-44700952D01*
X241808095Y-44748571D01*
X241903333Y-44796190D01*
X242284285Y-44796190D01*
X241331904Y-44367619D02*
X241284285Y-44320000D01*
X241189047Y-44272380D01*
X240950952Y-44272380D01*
X240855714Y-44320000D01*
X240808095Y-44367619D01*
X240760476Y-44462857D01*
X240760476Y-44558095D01*
X240808095Y-44700952D01*
X241379523Y-45272380D01*
X240760476Y-45272380D01*
X240379523Y-44367619D02*
X240331904Y-44320000D01*
X240236666Y-44272380D01*
X239998571Y-44272380D01*
X239903333Y-44320000D01*
X239855714Y-44367619D01*
X239808095Y-44462857D01*
X239808095Y-44558095D01*
X239855714Y-44700952D01*
X240427142Y-45272380D01*
X239808095Y-45272380D01*
X241782857Y-47742380D02*
X242116190Y-47266190D01*
X242354285Y-47742380D02*
X242354285Y-46742380D01*
X241973333Y-46742380D01*
X241878095Y-46790000D01*
X241830476Y-46837619D01*
X241782857Y-46932857D01*
X241782857Y-47075714D01*
X241830476Y-47170952D01*
X241878095Y-47218571D01*
X241973333Y-47266190D01*
X242354285Y-47266190D01*
X241401904Y-46837619D02*
X241354285Y-46790000D01*
X241259047Y-46742380D01*
X241020952Y-46742380D01*
X240925714Y-46790000D01*
X240878095Y-46837619D01*
X240830476Y-46932857D01*
X240830476Y-47028095D01*
X240878095Y-47170952D01*
X241449523Y-47742380D01*
X240830476Y-47742380D01*
X240497142Y-46742380D02*
X239878095Y-46742380D01*
X240211428Y-47123333D01*
X240068571Y-47123333D01*
X239973333Y-47170952D01*
X239925714Y-47218571D01*
X239878095Y-47313809D01*
X239878095Y-47551904D01*
X239925714Y-47647142D01*
X239973333Y-47694761D01*
X240068571Y-47742380D01*
X240354285Y-47742380D01*
X240449523Y-47694761D01*
X240497142Y-47647142D01*
X241815357Y-49922380D02*
X242148690Y-49446190D01*
X242386785Y-49922380D02*
X242386785Y-48922380D01*
X242005833Y-48922380D01*
X241910595Y-48970000D01*
X241862976Y-49017619D01*
X241815357Y-49112857D01*
X241815357Y-49255714D01*
X241862976Y-49350952D01*
X241910595Y-49398571D01*
X242005833Y-49446190D01*
X242386785Y-49446190D01*
X241434404Y-49017619D02*
X241386785Y-48970000D01*
X241291547Y-48922380D01*
X241053452Y-48922380D01*
X240958214Y-48970000D01*
X240910595Y-49017619D01*
X240862976Y-49112857D01*
X240862976Y-49208095D01*
X240910595Y-49350952D01*
X241482023Y-49922380D01*
X240862976Y-49922380D01*
X240005833Y-49255714D02*
X240005833Y-49922380D01*
X240243928Y-48874761D02*
X240482023Y-49589047D01*
X239862976Y-49589047D01*
X241702857Y-52502380D02*
X242036190Y-52026190D01*
X242274285Y-52502380D02*
X242274285Y-51502380D01*
X241893333Y-51502380D01*
X241798095Y-51550000D01*
X241750476Y-51597619D01*
X241702857Y-51692857D01*
X241702857Y-51835714D01*
X241750476Y-51930952D01*
X241798095Y-51978571D01*
X241893333Y-52026190D01*
X242274285Y-52026190D01*
X241321904Y-51597619D02*
X241274285Y-51550000D01*
X241179047Y-51502380D01*
X240940952Y-51502380D01*
X240845714Y-51550000D01*
X240798095Y-51597619D01*
X240750476Y-51692857D01*
X240750476Y-51788095D01*
X240798095Y-51930952D01*
X241369523Y-52502380D01*
X240750476Y-52502380D01*
X239845714Y-51502380D02*
X240321904Y-51502380D01*
X240369523Y-51978571D01*
X240321904Y-51930952D01*
X240226666Y-51883333D01*
X239988571Y-51883333D01*
X239893333Y-51930952D01*
X239845714Y-51978571D01*
X239798095Y-52073809D01*
X239798095Y-52311904D01*
X239845714Y-52407142D01*
X239893333Y-52454761D01*
X239988571Y-52502380D01*
X240226666Y-52502380D01*
X240321904Y-52454761D01*
X240369523Y-52407142D01*
X241692857Y-54662380D02*
X242026190Y-54186190D01*
X242264285Y-54662380D02*
X242264285Y-53662380D01*
X241883333Y-53662380D01*
X241788095Y-53710000D01*
X241740476Y-53757619D01*
X241692857Y-53852857D01*
X241692857Y-53995714D01*
X241740476Y-54090952D01*
X241788095Y-54138571D01*
X241883333Y-54186190D01*
X242264285Y-54186190D01*
X241311904Y-53757619D02*
X241264285Y-53710000D01*
X241169047Y-53662380D01*
X240930952Y-53662380D01*
X240835714Y-53710000D01*
X240788095Y-53757619D01*
X240740476Y-53852857D01*
X240740476Y-53948095D01*
X240788095Y-54090952D01*
X241359523Y-54662380D01*
X240740476Y-54662380D01*
X239883333Y-53662380D02*
X240073809Y-53662380D01*
X240169047Y-53710000D01*
X240216666Y-53757619D01*
X240311904Y-53900476D01*
X240359523Y-54090952D01*
X240359523Y-54471904D01*
X240311904Y-54567142D01*
X240264285Y-54614761D01*
X240169047Y-54662380D01*
X239978571Y-54662380D01*
X239883333Y-54614761D01*
X239835714Y-54567142D01*
X239788095Y-54471904D01*
X239788095Y-54233809D01*
X239835714Y-54138571D01*
X239883333Y-54090952D01*
X239978571Y-54043333D01*
X240169047Y-54043333D01*
X240264285Y-54090952D01*
X240311904Y-54138571D01*
X240359523Y-54233809D01*
X241632857Y-57082380D02*
X241966190Y-56606190D01*
X242204285Y-57082380D02*
X242204285Y-56082380D01*
X241823333Y-56082380D01*
X241728095Y-56130000D01*
X241680476Y-56177619D01*
X241632857Y-56272857D01*
X241632857Y-56415714D01*
X241680476Y-56510952D01*
X241728095Y-56558571D01*
X241823333Y-56606190D01*
X242204285Y-56606190D01*
X241251904Y-56177619D02*
X241204285Y-56130000D01*
X241109047Y-56082380D01*
X240870952Y-56082380D01*
X240775714Y-56130000D01*
X240728095Y-56177619D01*
X240680476Y-56272857D01*
X240680476Y-56368095D01*
X240728095Y-56510952D01*
X241299523Y-57082380D01*
X240680476Y-57082380D01*
X240347142Y-56082380D02*
X239680476Y-56082380D01*
X240109047Y-57082380D01*
X241632857Y-59422380D02*
X241966190Y-58946190D01*
X242204285Y-59422380D02*
X242204285Y-58422380D01*
X241823333Y-58422380D01*
X241728095Y-58470000D01*
X241680476Y-58517619D01*
X241632857Y-58612857D01*
X241632857Y-58755714D01*
X241680476Y-58850952D01*
X241728095Y-58898571D01*
X241823333Y-58946190D01*
X242204285Y-58946190D01*
X241251904Y-58517619D02*
X241204285Y-58470000D01*
X241109047Y-58422380D01*
X240870952Y-58422380D01*
X240775714Y-58470000D01*
X240728095Y-58517619D01*
X240680476Y-58612857D01*
X240680476Y-58708095D01*
X240728095Y-58850952D01*
X241299523Y-59422380D01*
X240680476Y-59422380D01*
X240109047Y-58850952D02*
X240204285Y-58803333D01*
X240251904Y-58755714D01*
X240299523Y-58660476D01*
X240299523Y-58612857D01*
X240251904Y-58517619D01*
X240204285Y-58470000D01*
X240109047Y-58422380D01*
X239918571Y-58422380D01*
X239823333Y-58470000D01*
X239775714Y-58517619D01*
X239728095Y-58612857D01*
X239728095Y-58660476D01*
X239775714Y-58755714D01*
X239823333Y-58803333D01*
X239918571Y-58850952D01*
X240109047Y-58850952D01*
X240204285Y-58898571D01*
X240251904Y-58946190D01*
X240299523Y-59041428D01*
X240299523Y-59231904D01*
X240251904Y-59327142D01*
X240204285Y-59374761D01*
X240109047Y-59422380D01*
X239918571Y-59422380D01*
X239823333Y-59374761D01*
X239775714Y-59327142D01*
X239728095Y-59231904D01*
X239728095Y-59041428D01*
X239775714Y-58946190D01*
X239823333Y-58898571D01*
X239918571Y-58850952D01*
X241650357Y-61762380D02*
X241983690Y-61286190D01*
X242221785Y-61762380D02*
X242221785Y-60762380D01*
X241840833Y-60762380D01*
X241745595Y-60810000D01*
X241697976Y-60857619D01*
X241650357Y-60952857D01*
X241650357Y-61095714D01*
X241697976Y-61190952D01*
X241745595Y-61238571D01*
X241840833Y-61286190D01*
X242221785Y-61286190D01*
X241269404Y-60857619D02*
X241221785Y-60810000D01*
X241126547Y-60762380D01*
X240888452Y-60762380D01*
X240793214Y-60810000D01*
X240745595Y-60857619D01*
X240697976Y-60952857D01*
X240697976Y-61048095D01*
X240745595Y-61190952D01*
X241317023Y-61762380D01*
X240697976Y-61762380D01*
X240221785Y-61762380D02*
X240031309Y-61762380D01*
X239936071Y-61714761D01*
X239888452Y-61667142D01*
X239793214Y-61524285D01*
X239745595Y-61333809D01*
X239745595Y-60952857D01*
X239793214Y-60857619D01*
X239840833Y-60810000D01*
X239936071Y-60762380D01*
X240126547Y-60762380D01*
X240221785Y-60810000D01*
X240269404Y-60857619D01*
X240317023Y-60952857D01*
X240317023Y-61190952D01*
X240269404Y-61286190D01*
X240221785Y-61333809D01*
X240126547Y-61381428D01*
X239936071Y-61381428D01*
X239840833Y-61333809D01*
X239793214Y-61286190D01*
X239745595Y-61190952D01*
X241632857Y-63932380D02*
X241966190Y-63456190D01*
X242204285Y-63932380D02*
X242204285Y-62932380D01*
X241823333Y-62932380D01*
X241728095Y-62980000D01*
X241680476Y-63027619D01*
X241632857Y-63122857D01*
X241632857Y-63265714D01*
X241680476Y-63360952D01*
X241728095Y-63408571D01*
X241823333Y-63456190D01*
X242204285Y-63456190D01*
X241299523Y-62932380D02*
X240680476Y-62932380D01*
X241013809Y-63313333D01*
X240870952Y-63313333D01*
X240775714Y-63360952D01*
X240728095Y-63408571D01*
X240680476Y-63503809D01*
X240680476Y-63741904D01*
X240728095Y-63837142D01*
X240775714Y-63884761D01*
X240870952Y-63932380D01*
X241156666Y-63932380D01*
X241251904Y-63884761D01*
X241299523Y-63837142D01*
X240061428Y-62932380D02*
X239966190Y-62932380D01*
X239870952Y-62980000D01*
X239823333Y-63027619D01*
X239775714Y-63122857D01*
X239728095Y-63313333D01*
X239728095Y-63551428D01*
X239775714Y-63741904D01*
X239823333Y-63837142D01*
X239870952Y-63884761D01*
X239966190Y-63932380D01*
X240061428Y-63932380D01*
X240156666Y-63884761D01*
X240204285Y-63837142D01*
X240251904Y-63741904D01*
X240299523Y-63551428D01*
X240299523Y-63313333D01*
X240251904Y-63122857D01*
X240204285Y-63027619D01*
X240156666Y-62980000D01*
X240061428Y-62932380D01*
X241572857Y-66502380D02*
X241906190Y-66026190D01*
X242144285Y-66502380D02*
X242144285Y-65502380D01*
X241763333Y-65502380D01*
X241668095Y-65550000D01*
X241620476Y-65597619D01*
X241572857Y-65692857D01*
X241572857Y-65835714D01*
X241620476Y-65930952D01*
X241668095Y-65978571D01*
X241763333Y-66026190D01*
X242144285Y-66026190D01*
X241239523Y-65502380D02*
X240620476Y-65502380D01*
X240953809Y-65883333D01*
X240810952Y-65883333D01*
X240715714Y-65930952D01*
X240668095Y-65978571D01*
X240620476Y-66073809D01*
X240620476Y-66311904D01*
X240668095Y-66407142D01*
X240715714Y-66454761D01*
X240810952Y-66502380D01*
X241096666Y-66502380D01*
X241191904Y-66454761D01*
X241239523Y-66407142D01*
X239668095Y-66502380D02*
X240239523Y-66502380D01*
X239953809Y-66502380D02*
X239953809Y-65502380D01*
X240049047Y-65645238D01*
X240144285Y-65740476D01*
X240239523Y-65788095D01*
X241552857Y-68632380D02*
X241886190Y-68156190D01*
X242124285Y-68632380D02*
X242124285Y-67632380D01*
X241743333Y-67632380D01*
X241648095Y-67680000D01*
X241600476Y-67727619D01*
X241552857Y-67822857D01*
X241552857Y-67965714D01*
X241600476Y-68060952D01*
X241648095Y-68108571D01*
X241743333Y-68156190D01*
X242124285Y-68156190D01*
X241219523Y-67632380D02*
X240600476Y-67632380D01*
X240933809Y-68013333D01*
X240790952Y-68013333D01*
X240695714Y-68060952D01*
X240648095Y-68108571D01*
X240600476Y-68203809D01*
X240600476Y-68441904D01*
X240648095Y-68537142D01*
X240695714Y-68584761D01*
X240790952Y-68632380D01*
X241076666Y-68632380D01*
X241171904Y-68584761D01*
X241219523Y-68537142D01*
X240219523Y-67727619D02*
X240171904Y-67680000D01*
X240076666Y-67632380D01*
X239838571Y-67632380D01*
X239743333Y-67680000D01*
X239695714Y-67727619D01*
X239648095Y-67822857D01*
X239648095Y-67918095D01*
X239695714Y-68060952D01*
X240267142Y-68632380D01*
X239648095Y-68632380D01*
X241460357Y-71232380D02*
X241793690Y-70756190D01*
X242031785Y-71232380D02*
X242031785Y-70232380D01*
X241650833Y-70232380D01*
X241555595Y-70280000D01*
X241507976Y-70327619D01*
X241460357Y-70422857D01*
X241460357Y-70565714D01*
X241507976Y-70660952D01*
X241555595Y-70708571D01*
X241650833Y-70756190D01*
X242031785Y-70756190D01*
X241127023Y-70232380D02*
X240507976Y-70232380D01*
X240841309Y-70613333D01*
X240698452Y-70613333D01*
X240603214Y-70660952D01*
X240555595Y-70708571D01*
X240507976Y-70803809D01*
X240507976Y-71041904D01*
X240555595Y-71137142D01*
X240603214Y-71184761D01*
X240698452Y-71232380D01*
X240984166Y-71232380D01*
X241079404Y-71184761D01*
X241127023Y-71137142D01*
X240174642Y-70232380D02*
X239555595Y-70232380D01*
X239888928Y-70613333D01*
X239746071Y-70613333D01*
X239650833Y-70660952D01*
X239603214Y-70708571D01*
X239555595Y-70803809D01*
X239555595Y-71041904D01*
X239603214Y-71137142D01*
X239650833Y-71184761D01*
X239746071Y-71232380D01*
X240031785Y-71232380D01*
X240127023Y-71184761D01*
X240174642Y-71137142D01*
X241522857Y-73312380D02*
X241856190Y-72836190D01*
X242094285Y-73312380D02*
X242094285Y-72312380D01*
X241713333Y-72312380D01*
X241618095Y-72360000D01*
X241570476Y-72407619D01*
X241522857Y-72502857D01*
X241522857Y-72645714D01*
X241570476Y-72740952D01*
X241618095Y-72788571D01*
X241713333Y-72836190D01*
X242094285Y-72836190D01*
X241189523Y-72312380D02*
X240570476Y-72312380D01*
X240903809Y-72693333D01*
X240760952Y-72693333D01*
X240665714Y-72740952D01*
X240618095Y-72788571D01*
X240570476Y-72883809D01*
X240570476Y-73121904D01*
X240618095Y-73217142D01*
X240665714Y-73264761D01*
X240760952Y-73312380D01*
X241046666Y-73312380D01*
X241141904Y-73264761D01*
X241189523Y-73217142D01*
X239713333Y-72645714D02*
X239713333Y-73312380D01*
X239951428Y-72264761D02*
X240189523Y-72979047D01*
X239570476Y-72979047D01*
X241297856Y-75872380D02*
X241631189Y-75396190D01*
X241869284Y-75872380D02*
X241869284Y-74872380D01*
X241488332Y-74872380D01*
X241393094Y-74920000D01*
X241345475Y-74967619D01*
X241297856Y-75062857D01*
X241297856Y-75205714D01*
X241345475Y-75300952D01*
X241393094Y-75348571D01*
X241488332Y-75396190D01*
X241869284Y-75396190D01*
X240964522Y-74872380D02*
X240345475Y-74872380D01*
X240678808Y-75253333D01*
X240535951Y-75253333D01*
X240440713Y-75300952D01*
X240393094Y-75348571D01*
X240345475Y-75443809D01*
X240345475Y-75681904D01*
X240393094Y-75777142D01*
X240440713Y-75824761D01*
X240535951Y-75872380D01*
X240821665Y-75872380D01*
X240916903Y-75824761D01*
X240964522Y-75777142D01*
X239440713Y-74872380D02*
X239916903Y-74872380D01*
X239964522Y-75348571D01*
X239916903Y-75300952D01*
X239821665Y-75253333D01*
X239583570Y-75253333D01*
X239488332Y-75300952D01*
X239440713Y-75348571D01*
X239393094Y-75443809D01*
X239393094Y-75681904D01*
X239440713Y-75777142D01*
X239488332Y-75824761D01*
X239583570Y-75872380D01*
X239821665Y-75872380D01*
X239916903Y-75824761D01*
X239964522Y-75777142D01*
X241462857Y-77962380D02*
X241796190Y-77486190D01*
X242034285Y-77962380D02*
X242034285Y-76962380D01*
X241653333Y-76962380D01*
X241558095Y-77010000D01*
X241510476Y-77057619D01*
X241462857Y-77152857D01*
X241462857Y-77295714D01*
X241510476Y-77390952D01*
X241558095Y-77438571D01*
X241653333Y-77486190D01*
X242034285Y-77486190D01*
X241129523Y-76962380D02*
X240510476Y-76962380D01*
X240843809Y-77343333D01*
X240700952Y-77343333D01*
X240605714Y-77390952D01*
X240558095Y-77438571D01*
X240510476Y-77533809D01*
X240510476Y-77771904D01*
X240558095Y-77867142D01*
X240605714Y-77914761D01*
X240700952Y-77962380D01*
X240986666Y-77962380D01*
X241081904Y-77914761D01*
X241129523Y-77867142D01*
X239653333Y-76962380D02*
X239843809Y-76962380D01*
X239939047Y-77010000D01*
X239986666Y-77057619D01*
X240081904Y-77200476D01*
X240129523Y-77390952D01*
X240129523Y-77771904D01*
X240081904Y-77867142D01*
X240034285Y-77914761D01*
X239939047Y-77962380D01*
X239748571Y-77962380D01*
X239653333Y-77914761D01*
X239605714Y-77867142D01*
X239558095Y-77771904D01*
X239558095Y-77533809D01*
X239605714Y-77438571D01*
X239653333Y-77390952D01*
X239748571Y-77343333D01*
X239939047Y-77343333D01*
X240034285Y-77390952D01*
X240081904Y-77438571D01*
X240129523Y-77533809D01*
X241482857Y-80512380D02*
X241816190Y-80036190D01*
X242054285Y-80512380D02*
X242054285Y-79512380D01*
X241673333Y-79512380D01*
X241578095Y-79560000D01*
X241530476Y-79607619D01*
X241482857Y-79702857D01*
X241482857Y-79845714D01*
X241530476Y-79940952D01*
X241578095Y-79988571D01*
X241673333Y-80036190D01*
X242054285Y-80036190D01*
X241149523Y-79512380D02*
X240530476Y-79512380D01*
X240863809Y-79893333D01*
X240720952Y-79893333D01*
X240625714Y-79940952D01*
X240578095Y-79988571D01*
X240530476Y-80083809D01*
X240530476Y-80321904D01*
X240578095Y-80417142D01*
X240625714Y-80464761D01*
X240720952Y-80512380D01*
X241006666Y-80512380D01*
X241101904Y-80464761D01*
X241149523Y-80417142D01*
X240197142Y-79512380D02*
X239530476Y-79512380D01*
X239959047Y-80512380D01*
X241287856Y-82377381D02*
X241621189Y-81901191D01*
X241859284Y-82377381D02*
X241859284Y-81377381D01*
X241478332Y-81377381D01*
X241383094Y-81425001D01*
X241335475Y-81472620D01*
X241287856Y-81567858D01*
X241287856Y-81710715D01*
X241335475Y-81805953D01*
X241383094Y-81853572D01*
X241478332Y-81901191D01*
X241859284Y-81901191D01*
X240954522Y-81377381D02*
X240335475Y-81377381D01*
X240668808Y-81758334D01*
X240525951Y-81758334D01*
X240430713Y-81805953D01*
X240383094Y-81853572D01*
X240335475Y-81948810D01*
X240335475Y-82186905D01*
X240383094Y-82282143D01*
X240430713Y-82329762D01*
X240525951Y-82377381D01*
X240811665Y-82377381D01*
X240906903Y-82329762D01*
X240954522Y-82282143D01*
X239764046Y-81805953D02*
X239859284Y-81758334D01*
X239906903Y-81710715D01*
X239954522Y-81615477D01*
X239954522Y-81567858D01*
X239906903Y-81472620D01*
X239859284Y-81425001D01*
X239764046Y-81377381D01*
X239573570Y-81377381D01*
X239478332Y-81425001D01*
X239430713Y-81472620D01*
X239383094Y-81567858D01*
X239383094Y-81615477D01*
X239430713Y-81710715D01*
X239478332Y-81758334D01*
X239573570Y-81805953D01*
X239764046Y-81805953D01*
X239859284Y-81853572D01*
X239906903Y-81901191D01*
X239954522Y-81996429D01*
X239954522Y-82186905D01*
X239906903Y-82282143D01*
X239859284Y-82329762D01*
X239764046Y-82377381D01*
X239573570Y-82377381D01*
X239478332Y-82329762D01*
X239430713Y-82282143D01*
X239383094Y-82186905D01*
X239383094Y-81996429D01*
X239430713Y-81901191D01*
X239478332Y-81853572D01*
X239573570Y-81805953D01*
X241482857Y-84982380D02*
X241816190Y-84506190D01*
X242054285Y-84982380D02*
X242054285Y-83982380D01*
X241673333Y-83982380D01*
X241578095Y-84030000D01*
X241530476Y-84077619D01*
X241482857Y-84172857D01*
X241482857Y-84315714D01*
X241530476Y-84410952D01*
X241578095Y-84458571D01*
X241673333Y-84506190D01*
X242054285Y-84506190D01*
X241149523Y-83982380D02*
X240530476Y-83982380D01*
X240863809Y-84363333D01*
X240720952Y-84363333D01*
X240625714Y-84410952D01*
X240578095Y-84458571D01*
X240530476Y-84553809D01*
X240530476Y-84791904D01*
X240578095Y-84887142D01*
X240625714Y-84934761D01*
X240720952Y-84982380D01*
X241006666Y-84982380D01*
X241101904Y-84934761D01*
X241149523Y-84887142D01*
X240054285Y-84982380D02*
X239863809Y-84982380D01*
X239768571Y-84934761D01*
X239720952Y-84887142D01*
X239625714Y-84744285D01*
X239578095Y-84553809D01*
X239578095Y-84172857D01*
X239625714Y-84077619D01*
X239673333Y-84030000D01*
X239768571Y-83982380D01*
X239959047Y-83982380D01*
X240054285Y-84030000D01*
X240101904Y-84077619D01*
X240149523Y-84172857D01*
X240149523Y-84410952D01*
X240101904Y-84506190D01*
X240054285Y-84553809D01*
X239959047Y-84601428D01*
X239768571Y-84601428D01*
X239673333Y-84553809D01*
X239625714Y-84506190D01*
X239578095Y-84410952D01*
X241400357Y-87092380D02*
X241733690Y-86616190D01*
X241971785Y-87092380D02*
X241971785Y-86092380D01*
X241590833Y-86092380D01*
X241495595Y-86140000D01*
X241447976Y-86187619D01*
X241400357Y-86282857D01*
X241400357Y-86425714D01*
X241447976Y-86520952D01*
X241495595Y-86568571D01*
X241590833Y-86616190D01*
X241971785Y-86616190D01*
X240543214Y-86425714D02*
X240543214Y-87092380D01*
X240781309Y-86044761D02*
X241019404Y-86759047D01*
X240400357Y-86759047D01*
X239828928Y-86092380D02*
X239733690Y-86092380D01*
X239638452Y-86140000D01*
X239590833Y-86187619D01*
X239543214Y-86282857D01*
X239495595Y-86473333D01*
X239495595Y-86711428D01*
X239543214Y-86901904D01*
X239590833Y-86997142D01*
X239638452Y-87044761D01*
X239733690Y-87092380D01*
X239828928Y-87092380D01*
X239924166Y-87044761D01*
X239971785Y-86997142D01*
X240019404Y-86901904D01*
X240067023Y-86711428D01*
X240067023Y-86473333D01*
X240019404Y-86282857D01*
X239971785Y-86187619D01*
X239924166Y-86140000D01*
X239828928Y-86092380D01*
X244616666Y-45357142D02*
X244664285Y-45404761D01*
X244807142Y-45452380D01*
X244902380Y-45452380D01*
X245045238Y-45404761D01*
X245140476Y-45309523D01*
X245188095Y-45214285D01*
X245235714Y-45023809D01*
X245235714Y-44880952D01*
X245188095Y-44690476D01*
X245140476Y-44595238D01*
X245045238Y-44500000D01*
X244902380Y-44452380D01*
X244807142Y-44452380D01*
X244664285Y-44500000D01*
X244616666Y-44547619D01*
X243711904Y-44452380D02*
X244188095Y-44452380D01*
X244235714Y-44928571D01*
X244188095Y-44880952D01*
X244092857Y-44833333D01*
X243854761Y-44833333D01*
X243759523Y-44880952D01*
X243711904Y-44928571D01*
X243664285Y-45023809D01*
X243664285Y-45261904D01*
X243711904Y-45357142D01*
X243759523Y-45404761D01*
X243854761Y-45452380D01*
X244092857Y-45452380D01*
X244188095Y-45404761D01*
X244235714Y-45357142D01*
X247666666Y-85357142D02*
X247714285Y-85404761D01*
X247857142Y-85452380D01*
X247952380Y-85452380D01*
X248095238Y-85404761D01*
X248190476Y-85309523D01*
X248238095Y-85214285D01*
X248285714Y-85023809D01*
X248285714Y-84880952D01*
X248238095Y-84690476D01*
X248190476Y-84595238D01*
X248095238Y-84500000D01*
X247952380Y-84452380D01*
X247857142Y-84452380D01*
X247714285Y-84500000D01*
X247666666Y-84547619D01*
X247333333Y-84452380D02*
X246666666Y-84452380D01*
X247095238Y-85452380D01*
M02*
