M48
; DRILL file {KiCad (5.1.5)-3} date 11.12.2020 17:42:03
; FORMAT={-:-/ absolute / inch / decimal}
; #@! TF.CreationDate,2020-12-11T17:42:03+02:00
; #@! TF.GenerationSoftware,Kicad,Pcbnew,(5.1.5)-3
; #@! TF.FileFunction,Plated,1,2,PTH
FMAT,2
INCH
T1C0.0157
T2C0.0354
T3C0.0394
%
G90
G05
T1
X2.6768Y-1.1035
X2.6772Y-0.852
X2.678Y-1.0543
X2.6783Y-0.9559
X2.6783Y-1.0043
X4.9237Y-0.864
X4.924Y-1.0642
X4.9244Y-1.0146
X4.9244Y-1.115
X5.2028Y-0.8484
X7.0849Y-0.8576
X7.0906Y-1.1083
X7.0925Y-1.0571
X7.0937Y-1.011
X7.4737Y-0.8419
X9.1575Y-2.189
X9.1654Y-1.6339
X9.1654Y-3.2953
X9.1728Y-2.713
X9.2264Y-1.385
X9.2366Y-3.2335
X9.238Y-2.1315
X9.2417Y-1.572
X9.2423Y-1.9396
X9.2425Y-1.7591
X9.2472Y-3.0524
X9.2478Y-2.8673
X9.2504Y-2.5039
X9.2508Y-3.413
X9.2516Y-2.6783
X9.2526Y-2.3045
X9.2972Y-0.998
X9.2993Y-0.8486
X9.3012Y-1.0492
X9.3012Y-1.1024
X9.4079Y-1.2004
X9.5122Y-2.2047
X9.513Y-2.1571
X9.5138Y-1.5583
X9.5138Y-2.2547
X9.5146Y-1.5079
X9.5146Y-2.3043
X9.515Y-2.9531
X9.5154Y-3.1028
X9.5157Y-2.9035
X9.5161Y-1.4075
X9.5161Y-1.6098
X9.5161Y-1.6594
X9.5161Y-1.7079
X9.5161Y-2.3535
X9.5161Y-3.0031
X9.5169Y-1.4602
X9.5169Y-3.152
X9.5169Y-3.202
X9.5173Y-2.4543
X9.5173Y-3.0524
X9.5177Y-2.4059
X9.5551Y-3.3819
X9.5669Y-2.5709
X9.5846Y-3.3346
X9.5866Y-1.8346
X9.626Y-3.1437
X9.628Y-1.5866
X9.6693Y-2.4764
X9.7303Y-1.4091
X9.7323Y-3.1024
X9.7327Y-2.2071
X9.7331Y-2.9543
X9.7335Y-2.1547
X9.7339Y-2.9043
X9.7346Y-1.4594
X9.7352Y-2.3553
X9.9065Y-1.6073
X9.9685Y-1.5551
X9.9862Y-2.1791
X10.0031Y-2.0945
X10.1181Y-1.7008
X10.1437Y-1.4783
T2
X3.0193Y-3.2315
X3.0193Y-3.2815
X3.0193Y-3.3315
X3.0193Y-3.3815
X0.8146Y-1.578
X0.8146Y-1.628
X0.8146Y-1.678
X0.8146Y-1.728
X2.7437Y-1.578
X2.7437Y-1.628
X2.7437Y-1.678
X2.7437Y-1.728
X0.8146Y-2.6803
X0.8146Y-2.7303
X0.8146Y-2.7803
X0.8146Y-2.8303
X8.8067Y-1.578
X8.8067Y-1.628
X8.8067Y-1.678
X8.8067Y-1.728
X1.6413Y-1.3024
X1.6413Y-1.3524
X1.6413Y-1.4024
X1.6413Y-1.4524
X1.9169Y-2.4047
X1.9169Y-2.4547
X1.9169Y-2.5047
X1.9169Y-2.5547
X8.2555Y-1.8535
X8.2555Y-1.9035
X8.2555Y-1.9535
X8.2555Y-2.0035
X1.9169Y-1.8535
X1.9169Y-1.9035
X1.9169Y-1.9535
X1.9169Y-2.0035
X6.602Y-2.4047
X6.602Y-2.4547
X6.602Y-2.5047
X6.602Y-2.5547
X8.2555Y-2.4047
X8.2555Y-2.4547
X8.2555Y-2.5047
X8.2555Y-2.5547
X6.602Y-3.2315
X6.602Y-3.2815
X6.602Y-3.3315
X6.602Y-3.3815
X3.2949Y-1.578
X3.2949Y-1.628
X3.2949Y-1.678
X3.2949Y-1.728
X7.9799Y-2.1291
X7.9799Y-2.1791
X7.9799Y-2.2291
X7.9799Y-2.2791
X6.3264Y-2.4047
X6.3264Y-2.4547
X6.3264Y-2.5047
X6.3264Y-2.5547
X3.5705Y-2.1291
X3.5705Y-2.1791
X3.5705Y-2.2291
X3.5705Y-2.2791
X7.7043Y-2.6803
X7.7043Y-2.7303
X7.7043Y-2.7803
X7.7043Y-2.8303
X1.3657Y-1.8535
X1.3657Y-1.9035
X1.3657Y-1.9535
X1.3657Y-2.0035
X6.8776Y-2.6803
X6.8776Y-2.7303
X6.8776Y-2.7803
X6.8776Y-2.8303
X3.5705Y-3.2315
X3.5705Y-3.2815
X3.5705Y-3.3315
X3.5705Y-3.3815
X7.1531Y-1.8535
X7.1531Y-1.9035
X7.1531Y-1.9535
X7.1531Y-2.0035
X5.224Y-2.1291
X5.224Y-2.1791
X5.224Y-2.2291
X5.224Y-2.2791
X5.7752Y-2.9559
X5.7752Y-3.0059
X5.7752Y-3.0559
X5.7752Y-3.1059
X4.1217Y-2.4047
X4.1217Y-2.4547
X4.1217Y-2.5047
X4.1217Y-2.5547
X4.9484Y-2.6803
X4.9484Y-2.7303
X4.9484Y-2.7803
X4.9484Y-2.8303
X3.8461Y-2.9559
X3.8461Y-3.0059
X3.8461Y-3.0559
X3.8461Y-3.1059
X5.7752Y-1.8535
X5.7752Y-1.9035
X5.7752Y-1.9535
X5.7752Y-2.0035
X1.9169Y-2.6803
X1.9169Y-2.7303
X1.9169Y-2.7803
X1.9169Y-2.8303
X4.6728Y-3.2315
X4.6728Y-3.2815
X4.6728Y-3.3315
X4.6728Y-3.3815
X2.1925Y-1.8535
X2.1925Y-1.9035
X2.1925Y-1.9535
X2.1925Y-2.0035
X5.224Y-1.8535
X5.224Y-1.9035
X5.224Y-1.9535
X5.224Y-2.0035
X2.1925Y-2.1291
X2.1925Y-2.1791
X2.1925Y-2.2291
X2.1925Y-2.2791
X3.0193Y-2.4047
X3.0193Y-2.4547
X3.0193Y-2.5047
X3.0193Y-2.5547
X8.8067Y-2.1291
X8.8067Y-2.1791
X8.8067Y-2.2291
X8.8067Y-2.2791
X9.0823Y-1.8535
X9.0823Y-1.9035
X9.0823Y-1.9535
X9.0823Y-2.0035
X3.0193Y-1.3024
X3.0193Y-1.3524
X3.0193Y-1.4024
X3.0193Y-1.4524
X4.1217Y-1.578
X4.1217Y-1.628
X4.1217Y-1.678
X4.1217Y-1.728
X0.539Y-2.6803
X0.539Y-2.7303
X0.539Y-2.7803
X0.539Y-2.8303
X3.0193Y-1.578
X3.0193Y-1.628
X3.0193Y-1.678
X3.0193Y-1.728
X9.0823Y-2.4047
X9.0823Y-2.4547
X9.0823Y-2.5047
X9.0823Y-2.5547
X0.539Y-2.9559
X0.539Y-3.0059
X0.539Y-3.0559
X0.539Y-3.1059
X8.8067Y-1.3024
X8.8067Y-1.3524
X8.8067Y-1.4024
X8.8067Y-1.4524
X1.3657Y-2.4047
X1.3657Y-2.4547
X1.3657Y-2.5047
X1.3657Y-2.5547
X8.8067Y-3.2315
X8.8067Y-3.2815
X8.8067Y-3.3315
X8.8067Y-3.3815
X1.9169Y-1.3024
X1.9169Y-1.3524
X1.9169Y-1.4024
X1.9169Y-1.4524
X7.9799Y-2.4047
X7.9799Y-2.4547
X7.9799Y-2.5047
X7.9799Y-2.5547
X1.9169Y-1.578
X1.9169Y-1.628
X1.9169Y-1.678
X1.9169Y-1.728
X6.3264Y-2.1291
X6.3264Y-2.1791
X6.3264Y-2.2291
X6.3264Y-2.2791
X8.2555Y-2.1291
X8.2555Y-2.1791
X8.2555Y-2.2291
X8.2555Y-2.2791
X6.602Y-2.9559
X6.602Y-3.0059
X6.602Y-3.0559
X6.602Y-3.1059
X3.8461Y-1.578
X3.8461Y-1.628
X3.8461Y-1.678
X3.8461Y-1.728
X7.9799Y-1.8535
X7.9799Y-1.9035
X7.9799Y-1.9535
X7.9799Y-2.0035
X6.3264Y-2.6803
X6.3264Y-2.7303
X6.3264Y-2.7803
X6.3264Y-2.8303
X4.1217Y-2.1291
X4.1217Y-2.1791
X4.1217Y-2.2291
X4.1217Y-2.2791
X7.7043Y-1.3024
X7.7043Y-1.3524
X7.7043Y-1.4024
X7.7043Y-1.4524
X1.3657Y-1.3024
X1.3657Y-1.3524
X1.3657Y-1.4024
X1.3657Y-1.4524
X6.602Y-2.1291
X6.602Y-2.1791
X6.602Y-2.2291
X6.602Y-2.2791
X3.2949Y-2.6803
X3.2949Y-2.7303
X3.2949Y-2.7803
X3.2949Y-2.8303
X7.4287Y-2.6803
X7.4287Y-2.7303
X7.4287Y-2.7803
X7.4287Y-2.8303
X4.9484Y-2.1291
X4.9484Y-2.1791
X4.9484Y-2.2291
X4.9484Y-2.2791
X6.3264Y-1.8535
X6.3264Y-1.9035
X6.3264Y-1.9535
X6.3264Y-2.0035
X4.1217Y-1.8535
X4.1217Y-1.9035
X4.1217Y-1.9535
X4.1217Y-2.0035
X4.6728Y-2.6803
X4.6728Y-2.7303
X4.6728Y-2.7803
X4.6728Y-2.8303
X3.8461Y-2.6803
X3.8461Y-2.7303
X3.8461Y-2.7803
X3.8461Y-2.8303
X5.224Y-1.3024
X5.224Y-1.3524
X5.224Y-1.4024
X5.224Y-1.4524
X1.9169Y-3.2315
X1.9169Y-3.2815
X1.9169Y-3.3315
X1.9169Y-3.3815
X5.4996Y-3.2315
X5.4996Y-3.2815
X5.4996Y-3.3315
X5.4996Y-3.3815
X2.4681Y-2.4047
X2.4681Y-2.4547
X2.4681Y-2.5047
X2.4681Y-2.5547
X5.4996Y-1.578
X5.4996Y-1.628
X5.4996Y-1.678
X5.4996Y-1.728
X2.1925Y-2.9559
X2.1925Y-3.0059
X2.1925Y-3.0559
X2.1925Y-3.1059
X2.4681Y-3.2315
X2.4681Y-3.2815
X2.4681Y-3.3315
X2.4681Y-3.3815
X8.5311Y-2.9559
X8.5311Y-3.0059
X8.5311Y-3.0559
X8.5311Y-3.1059
X0.539Y-2.4047
X0.539Y-2.4547
X0.539Y-2.5047
X0.539Y-2.5547
X3.0193Y-2.9559
X3.0193Y-3.0059
X3.0193Y-3.0559
X3.0193Y-3.1059
X9.0823Y-2.1291
X9.0823Y-2.1791
X9.0823Y-2.2291
X9.0823Y-2.2791
X0.8146Y-1.8535
X0.8146Y-1.9035
X0.8146Y-1.9535
X0.8146Y-2.0035
X2.7437Y-2.9559
X2.7437Y-3.0059
X2.7437Y-3.0559
X2.7437Y-3.1059
X9.0823Y-1.578
X9.0823Y-1.628
X9.0823Y-1.678
X9.0823Y-1.728
X0.539Y-2.1291
X0.539Y-2.1791
X0.539Y-2.2291
X0.539Y-2.2791
X8.5311Y-3.2315
X8.5311Y-3.2815
X8.5311Y-3.3315
X8.5311Y-3.3815
X1.3657Y-2.6803
X1.3657Y-2.7303
X1.3657Y-2.7803
X1.3657Y-2.8303
X1.6413Y-2.1291
X1.6413Y-2.1791
X1.6413Y-2.2291
X1.6413Y-2.2791
X7.9799Y-1.3024
X7.9799Y-1.3524
X7.9799Y-1.4024
X7.9799Y-1.4524
X1.6413Y-2.9559
X1.6413Y-3.0059
X1.6413Y-3.0559
X1.6413Y-3.1059
X6.0508Y-1.8535
X6.0508Y-1.9035
X6.0508Y-1.9535
X6.0508Y-2.0035
X3.2949Y-2.1291
X3.2949Y-2.1791
X3.2949Y-2.2291
X3.2949Y-2.2791
X8.2555Y-1.578
X8.2555Y-1.628
X8.2555Y-1.678
X8.2555Y-1.728
X6.602Y-2.6803
X6.602Y-2.7303
X6.602Y-2.7803
X6.602Y-2.8303
X3.5705Y-1.578
X3.5705Y-1.628
X3.5705Y-1.678
X3.5705Y-1.728
X7.7043Y-2.9559
X7.7043Y-3.0059
X7.7043Y-3.0559
X7.7043Y-3.1059
X6.0508Y-2.1291
X6.0508Y-2.1791
X6.0508Y-2.2291
X6.0508Y-2.2791
X3.2949Y-1.8535
X3.2949Y-1.9035
X3.2949Y-1.9535
X3.2949Y-2.0035
X7.4287Y-2.9559
X7.4287Y-3.0059
X7.4287Y-3.0559
X7.4287Y-3.1059
X1.3657Y-1.578
X1.3657Y-1.628
X1.3657Y-1.678
X1.3657Y-1.728
X6.602Y-1.578
X6.602Y-1.628
X6.602Y-1.678
X6.602Y-1.728
X3.5705Y-2.9559
X3.5705Y-3.0059
X3.5705Y-3.0559
X3.5705Y-3.1059
X7.4287Y-1.578
X7.4287Y-1.628
X7.4287Y-1.678
X7.4287Y-1.728
X4.9484Y-1.578
X4.9484Y-1.628
X4.9484Y-1.678
X4.9484Y-1.728
X6.0508Y-2.4047
X6.0508Y-2.4547
X6.0508Y-2.5047
X6.0508Y-2.5547
X4.1217Y-1.3024
X4.1217Y-1.3524
X4.1217Y-1.4024
X4.1217Y-1.4524
X5.4996Y-1.3024
X5.4996Y-1.3524
X5.4996Y-1.4024
X5.4996Y-1.4524
X3.8461Y-2.4047
X3.8461Y-2.4547
X3.8461Y-2.5047
X3.8461Y-2.5547
X5.224Y-3.2315
X5.224Y-3.2815
X5.224Y-3.3315
X5.224Y-3.3815
X2.1925Y-1.578
X2.1925Y-1.628
X2.1925Y-1.678
X2.1925Y-1.728
X5.4996Y-2.6803
X5.4996Y-2.7303
X5.4996Y-2.7803
X5.4996Y-2.8303
X2.4681Y-2.1291
X2.4681Y-2.1791
X2.4681Y-2.2291
X2.4681Y-2.2791
X5.224Y-2.6803
X5.224Y-2.7303
X5.224Y-2.7803
X5.224Y-2.8303
X2.1925Y-2.4047
X2.1925Y-2.4547
X2.1925Y-2.5047
X2.1925Y-2.5547
X2.7437Y-2.6803
X2.7437Y-2.7303
X2.7437Y-2.7803
X2.7437Y-2.8303
X8.2555Y-2.9559
X8.2555Y-3.0059
X8.2555Y-3.0559
X8.2555Y-3.1059
X1.0902Y-1.3024
X1.0902Y-1.3524
X1.0902Y-1.4024
X1.0902Y-1.4524
X3.0193Y-1.8535
X3.0193Y-1.9035
X3.0193Y-1.9535
X3.0193Y-2.0035
X8.5311Y-2.4047
X8.5311Y-2.4547
X8.5311Y-2.5047
X8.5311Y-2.5547
X0.539Y-1.8535
X0.539Y-1.9035
X0.539Y-1.9535
X0.539Y-2.0035
X2.7437Y-2.4047
X2.7437Y-2.4547
X2.7437Y-2.5047
X2.7437Y-2.5547
X8.2555Y-3.2315
X8.2555Y-3.2815
X8.2555Y-3.3315
X8.2555Y-3.3815
X0.539Y-1.3024
X0.539Y-1.3524
X0.539Y-1.4024
X0.539Y-1.4524
X8.5311Y-2.1291
X8.5311Y-2.1791
X8.5311Y-2.2291
X8.5311Y-2.2791
X1.6413Y-3.2315
X1.6413Y-3.2815
X1.6413Y-3.3315
X1.6413Y-3.3815
X1.3657Y-2.1291
X1.3657Y-2.1791
X1.3657Y-2.2291
X1.3657Y-2.2791
X7.4287Y-2.1291
X7.4287Y-2.1791
X7.4287Y-2.2291
X7.4287Y-2.2791
X5.7752Y-3.2315
X5.7752Y-3.2815
X5.7752Y-3.3315
X5.7752Y-3.3815
X3.8461Y-1.8535
X3.8461Y-1.9035
X3.8461Y-1.9535
X3.8461Y-2.0035
X8.2555Y-1.3024
X8.2555Y-1.3524
X8.2555Y-1.4024
X8.2555Y-1.4524
X5.7752Y-2.4047
X5.7752Y-2.4547
X5.7752Y-2.5047
X5.7752Y-2.5547
X4.3972Y-2.9559
X4.3972Y-3.0059
X4.3972Y-3.0559
X4.3972Y-3.1059
X7.1531Y-2.1291
X7.1531Y-2.1791
X7.1531Y-2.2291
X7.1531Y-2.2791
X1.0902Y-2.1291
X1.0902Y-2.1791
X1.0902Y-2.2291
X1.0902Y-2.2791
X6.3264Y-2.9559
X6.3264Y-3.0059
X6.3264Y-3.0559
X6.3264Y-3.1059
X4.3972Y-1.578
X4.3972Y-1.628
X4.3972Y-1.678
X4.3972Y-1.728
X7.1531Y-1.578
X7.1531Y-1.628
X7.1531Y-1.678
X7.1531Y-1.728
X1.0902Y-3.2315
X1.0902Y-3.2815
X1.0902Y-3.3315
X1.0902Y-3.3815
X6.0508Y-1.3024
X6.0508Y-1.3524
X6.0508Y-1.4024
X6.0508Y-1.4524
X3.5705Y-1.8535
X3.5705Y-1.9035
X3.5705Y-1.9535
X3.5705Y-2.0035
X7.1531Y-1.3024
X7.1531Y-1.3524
X7.1531Y-1.4024
X7.1531Y-1.4524
X4.6728Y-1.3024
X4.6728Y-1.3524
X4.6728Y-1.4024
X4.6728Y-1.4524
X6.3264Y-1.3024
X6.3264Y-1.3524
X6.3264Y-1.4024
X6.3264Y-1.4524
X3.8461Y-3.2315
X3.8461Y-3.2815
X3.8461Y-3.3315
X3.8461Y-3.3815
X5.4996Y-2.9559
X5.4996Y-3.0059
X5.4996Y-3.0559
X5.4996Y-3.1059
X5.7752Y-1.578
X5.7752Y-1.628
X5.7752Y-1.678
X5.7752Y-1.728
X2.4681Y-2.6803
X2.4681Y-2.7303
X2.4681Y-2.7803
X2.4681Y-2.8303
X4.6728Y-2.9559
X4.6728Y-3.0059
X4.6728Y-3.0559
X4.6728Y-3.1059
X2.4681Y-1.8535
X2.4681Y-1.9035
X2.4681Y-1.9535
X2.4681Y-2.0035
X5.224Y-2.4047
X5.224Y-2.4547
X5.224Y-2.5047
X5.224Y-2.5547
X2.1925Y-2.6803
X2.1925Y-2.7303
X2.1925Y-2.7803
X2.1925Y-2.8303
X9.0823Y-3.2315
X9.0823Y-3.2815
X9.0823Y-3.3315
X9.0823Y-3.3815
X3.0193Y-2.1291
X3.0193Y-2.1791
X3.0193Y-2.2291
X3.0193Y-2.2791
X7.1531Y-2.4047
X7.1531Y-2.4547
X7.1531Y-2.5047
X7.1531Y-2.5547
X0.8146Y-3.2315
X0.8146Y-3.2815
X0.8146Y-3.3315
X0.8146Y-3.3815
X3.0193Y-2.6803
X3.0193Y-2.7303
X3.0193Y-2.7803
X3.0193Y-2.8303
X8.5311Y-2.6803
X8.5311Y-2.7303
X8.5311Y-2.7803
X8.5311Y-2.8303
X0.8146Y-2.9559
X0.8146Y-3.0059
X0.8146Y-3.0559
X0.8146Y-3.1059
X8.8067Y-2.6803
X8.8067Y-2.7303
X8.8067Y-2.7803
X8.8067Y-2.8303
X0.8146Y-2.4047
X0.8146Y-2.4547
X0.8146Y-2.5047
X0.8146Y-2.5547
X8.5311Y-1.578
X8.5311Y-1.628
X8.5311Y-1.678
X8.5311Y-1.728
X1.6413Y-1.578
X1.6413Y-1.628
X1.6413Y-1.678
X1.6413Y-1.728
X1.3657Y-2.9559
X1.3657Y-3.0059
X1.3657Y-3.0559
X1.3657Y-3.1059
X7.1531Y-3.2315
X7.1531Y-3.2815
X7.1531Y-3.3315
X7.1531Y-3.3815
X5.7752Y-2.1291
X5.7752Y-2.1791
X5.7752Y-2.2291
X5.7752Y-2.2791
X3.8461Y-1.3024
X3.8461Y-1.3524
X3.8461Y-1.4024
X3.8461Y-1.4524
X7.9799Y-1.578
X7.9799Y-1.628
X7.9799Y-1.678
X7.9799Y-1.728
X6.602Y-1.3024
X6.602Y-1.3524
X6.602Y-1.4024
X6.602Y-1.4524
X4.3972Y-2.6803
X4.3972Y-2.7303
X4.3972Y-2.7803
X4.3972Y-2.8303
X7.7043Y-1.578
X7.7043Y-1.628
X7.7043Y-1.678
X7.7043Y-1.728
X1.0902Y-2.4047
X1.0902Y-2.4547
X1.0902Y-2.5047
X1.0902Y-2.5547
X6.8776Y-1.3024
X6.8776Y-1.3524
X6.8776Y-1.4024
X6.8776Y-1.4524
X3.2949Y-2.9559
X3.2949Y-3.0059
X3.2949Y-3.0559
X3.2949Y-3.1059
X7.1531Y-2.9559
X7.1531Y-3.0059
X7.1531Y-3.0559
X7.1531Y-3.1059
X1.0902Y-2.9559
X1.0902Y-3.0059
X1.0902Y-3.0559
X1.0902Y-3.1059
X6.602Y-1.8535
X6.602Y-1.9035
X6.602Y-1.9535
X6.602Y-2.0035
X4.3972Y-2.1291
X4.3972Y-2.1791
X4.3972Y-2.2291
X4.3972Y-2.2791
X7.7043Y-3.2315
X7.7043Y-3.2815
X7.7043Y-3.3315
X7.7043Y-3.3815
X4.3972Y-3.2315
X4.3972Y-3.2815
X4.3972Y-3.3315
X4.3972Y-3.3815
X6.8776Y-2.4047
X6.8776Y-2.4547
X6.8776Y-2.5047
X6.8776Y-2.5547
X3.5705Y-2.4047
X3.5705Y-2.4547
X3.5705Y-2.5047
X3.5705Y-2.5547
X4.9484Y-2.4047
X4.9484Y-2.4547
X4.9484Y-2.5047
X4.9484Y-2.5547
X4.9484Y-2.9559
X4.9484Y-3.0059
X4.9484Y-3.0559
X4.9484Y-3.1059
X2.4681Y-2.9559
X2.4681Y-3.0059
X2.4681Y-3.0559
X2.4681Y-3.1059
X5.4996Y-2.1291
X5.4996Y-2.1791
X5.4996Y-2.2291
X5.4996Y-2.2791
X2.1925Y-1.3024
X2.1925Y-1.3524
X2.1925Y-1.4024
X2.1925Y-1.4524
X4.9484Y-1.3024
X4.9484Y-1.3524
X4.9484Y-1.4024
X4.9484Y-1.4524
X9.0823Y-2.9559
X9.0823Y-3.0059
X9.0823Y-3.0559
X9.0823Y-3.1059
X3.2949Y-1.3024
X3.2949Y-1.3524
X3.2949Y-1.4024
X3.2949Y-1.4524
X5.7752Y-2.6803
X5.7752Y-2.7303
X5.7752Y-2.7803
X5.7752Y-2.8303
X0.539Y-3.2315
X0.539Y-3.2815
X0.539Y-3.3315
X0.539Y-3.3815
X2.7437Y-3.2315
X2.7437Y-3.2815
X2.7437Y-3.3315
X2.7437Y-3.3815
X8.5311Y-1.3024
X8.5311Y-1.3524
X8.5311Y-1.4024
X8.5311Y-1.4524
X9.0823Y-2.6803
X9.0823Y-2.7303
X9.0823Y-2.7803
X9.0823Y-2.8303
X0.8146Y-2.1291
X0.8146Y-2.1791
X0.8146Y-2.2291
X0.8146Y-2.2791
X8.8067Y-2.4047
X8.8067Y-2.4547
X8.8067Y-2.5047
X8.8067Y-2.5547
X0.8146Y-1.3024
X0.8146Y-1.3524
X0.8146Y-1.4024
X0.8146Y-1.4524
X8.2555Y-2.6803
X8.2555Y-2.7303
X8.2555Y-2.7803
X8.2555Y-2.8303
X1.6413Y-2.4047
X1.6413Y-2.4547
X1.6413Y-2.5047
X1.6413Y-2.5547
X7.7043Y-1.8535
X7.7043Y-1.9035
X7.7043Y-1.9535
X7.7043Y-2.0035
X1.9169Y-2.1291
X1.9169Y-2.1791
X1.9169Y-2.2291
X1.9169Y-2.2791
X6.8776Y-1.8535
X6.8776Y-1.9035
X6.8776Y-1.9535
X6.8776Y-2.0035
X7.9799Y-2.9559
X7.9799Y-3.0059
X7.9799Y-3.0559
X7.9799Y-3.1059
X6.0508Y-1.578
X6.0508Y-1.628
X6.0508Y-1.678
X6.0508Y-1.728
X3.5705Y-2.6803
X3.5705Y-2.7303
X3.5705Y-2.7803
X3.5705Y-2.8303
X7.4287Y-3.2315
X7.4287Y-3.2815
X7.4287Y-3.3315
X7.4287Y-3.3815
X6.0508Y-3.2315
X6.0508Y-3.2815
X6.0508Y-3.3315
X6.0508Y-3.3815
X4.3972Y-1.3024
X4.3972Y-1.3524
X4.3972Y-1.4024
X4.3972Y-1.4524
X7.4287Y-2.4047
X7.4287Y-2.4547
X7.4287Y-2.5047
X7.4287Y-2.5547
X1.0902Y-1.8535
X1.0902Y-1.9035
X1.0902Y-1.9535
X1.0902Y-2.0035
X6.8776Y-3.2315
X6.8776Y-3.2815
X6.8776Y-3.3315
X6.8776Y-3.3815
X4.3972Y-2.4047
X4.3972Y-2.4547
X4.3972Y-2.5047
X4.3972Y-2.5547
X7.9799Y-2.6803
X7.9799Y-2.7303
X7.9799Y-2.7803
X7.9799Y-2.8303
X6.0508Y-2.6803
X6.0508Y-2.7303
X6.0508Y-2.7803
X6.0508Y-2.8303
X4.3972Y-1.8535
X4.3972Y-1.9035
X4.3972Y-1.9535
X4.3972Y-2.0035
X7.7043Y-2.1291
X7.7043Y-2.1791
X7.7043Y-2.2291
X7.7043Y-2.2791
X5.4996Y-2.4047
X5.4996Y-2.4547
X5.4996Y-2.5047
X5.4996Y-2.5547
X6.8776Y-2.1291
X6.8776Y-2.1791
X6.8776Y-2.2291
X6.8776Y-2.2791
X3.8461Y-2.1291
X3.8461Y-2.1791
X3.8461Y-2.2291
X3.8461Y-2.2791
X4.9484Y-3.2315
X4.9484Y-3.2815
X4.9484Y-3.3315
X4.9484Y-3.3815
X5.7752Y-1.3024
X5.7752Y-1.3524
X5.7752Y-1.4024
X5.7752Y-1.4524
X2.1925Y-3.2315
X2.1925Y-3.2815
X2.1925Y-3.3315
X2.1925Y-3.3815
X5.224Y-2.9559
X5.224Y-3.0059
X5.224Y-3.0559
X5.224Y-3.1059
X2.4681Y-1.578
X2.4681Y-1.628
X2.4681Y-1.678
X2.4681Y-1.728
X5.224Y-1.578
X5.224Y-1.628
X5.224Y-1.678
X5.224Y-1.728
X9.0823Y-1.3024
X9.0823Y-1.3524
X9.0823Y-1.4024
X9.0823Y-1.4524
X2.7437Y-2.1291
X2.7437Y-2.1791
X2.7437Y-2.2291
X2.7437Y-2.2791
X3.5705Y-1.3024
X3.5705Y-1.3524
X3.5705Y-1.4024
X3.5705Y-1.4524
X0.539Y-1.578
X0.539Y-1.628
X0.539Y-1.678
X0.539Y-1.728
X2.7437Y-1.8535
X2.7437Y-1.9035
X2.7437Y-1.9535
X2.7437Y-2.0035
X8.5311Y-1.8535
X8.5311Y-1.9035
X8.5311Y-1.9535
X8.5311Y-2.0035
X1.0902Y-1.578
X1.0902Y-1.628
X1.0902Y-1.678
X1.0902Y-1.728
X8.8067Y-1.8535
X8.8067Y-1.9035
X8.8067Y-1.9535
X8.8067Y-2.0035
X1.6413Y-2.6803
X1.6413Y-2.7303
X1.6413Y-2.7803
X1.6413Y-2.8303
X1.3657Y-3.2315
X1.3657Y-3.2815
X1.3657Y-3.3315
X1.3657Y-3.3815
X7.1531Y-2.6803
X7.1531Y-2.7303
X7.1531Y-2.7803
X7.1531Y-2.8303
X1.6413Y-1.8535
X1.6413Y-1.9035
X1.6413Y-1.9535
X1.6413Y-2.0035
X6.8776Y-1.578
X6.8776Y-1.628
X6.8776Y-1.678
X6.8776Y-1.728
X7.4287Y-1.3024
X7.4287Y-1.3524
X7.4287Y-1.4024
X7.4287Y-1.4524
X6.3264Y-1.578
X6.3264Y-1.628
X6.3264Y-1.678
X6.3264Y-1.728
X3.2949Y-2.4047
X3.2949Y-2.4547
X3.2949Y-2.5047
X3.2949Y-2.5547
X7.9799Y-3.2315
X7.9799Y-3.2815
X7.9799Y-3.3315
X7.9799Y-3.3815
X6.3264Y-3.2315
X6.3264Y-3.2815
X6.3264Y-3.3315
X6.3264Y-3.3815
X4.1217Y-2.9559
X4.1217Y-3.0059
X4.1217Y-3.0559
X4.1217Y-3.1059
X7.4287Y-1.8535
X7.4287Y-1.9035
X7.4287Y-1.9535
X7.4287Y-2.0035
X1.0902Y-2.6803
X1.0902Y-2.7303
X1.0902Y-2.7803
X1.0902Y-2.8303
X6.8776Y-2.9559
X6.8776Y-3.0059
X6.8776Y-3.0559
X6.8776Y-3.1059
X4.1217Y-3.2315
X4.1217Y-3.2815
X4.1217Y-3.3315
X4.1217Y-3.3815
X7.7043Y-2.4047
X7.7043Y-2.4547
X7.7043Y-2.5047
X7.7043Y-2.5547
X4.6728Y-1.578
X4.6728Y-1.628
X4.6728Y-1.678
X4.6728Y-1.728
X6.0508Y-2.9559
X6.0508Y-3.0059
X6.0508Y-3.0559
X6.0508Y-3.1059
X4.1217Y-2.6803
X4.1217Y-2.7303
X4.1217Y-2.7803
X4.1217Y-2.8303
X5.4996Y-1.8535
X5.4996Y-1.9035
X5.4996Y-1.9535
X5.4996Y-2.0035
X3.2949Y-3.2315
X3.2949Y-3.2815
X3.2949Y-3.3315
X3.2949Y-3.3815
X4.6728Y-1.8535
X4.6728Y-1.9035
X4.6728Y-1.9535
X4.6728Y-2.0035
X4.9484Y-1.8535
X4.9484Y-1.9035
X4.9484Y-1.9535
X4.9484Y-2.0035
X1.9169Y-2.9559
X1.9169Y-3.0059
X1.9169Y-3.0559
X1.9169Y-3.1059
X4.6728Y-2.1291
X4.6728Y-2.1791
X4.6728Y-2.2291
X4.6728Y-2.2791
X2.4681Y-1.3024
X2.4681Y-1.3524
X2.4681Y-1.4024
X2.4681Y-1.4524
X4.6728Y-2.4047
X4.6728Y-2.4547
X4.6728Y-2.5047
X4.6728Y-2.5547
X2.7437Y-1.3024
X2.7437Y-1.3524
X2.7437Y-1.4024
X2.7437Y-1.4524
X8.8067Y-2.9559
X8.8067Y-3.0059
X8.8067Y-3.0559
X8.8067Y-3.1059
T3
X10.1142Y-1.9126
X10.1142Y-2.0126
X10.1142Y-2.1126
X10.1142Y-2.2126
X10.1142Y-2.3126
X10.1142Y-2.4126
X10.1142Y-2.5126
X10.1142Y-2.6126
T0
M30
