G04 #@! TF.GenerationSoftware,KiCad,Pcbnew,(5.1.5)-3*
G04 #@! TF.CreationDate,2020-12-09T18:09:46+02:00*
G04 #@! TF.ProjectId,Single_tranzistor_AMP,53696e67-6c65-45f7-9472-616e7a697374,V1.0*
G04 #@! TF.SameCoordinates,Original*
G04 #@! TF.FileFunction,Profile,NP*
%FSLAX46Y46*%
G04 Gerber Fmt 4.6, Leading zero omitted, Abs format (unit mm)*
G04 Created by KiCad (PCBNEW (5.1.5)-3) date 2020-12-09 18:09:46*
%MOMM*%
%LPD*%
G04 APERTURE LIST*
%ADD10C,0.050000*%
%ADD11C,0.120000*%
G04 APERTURE END LIST*
D10*
X47000000Y-33000000D02*
X54000000Y-33000000D01*
X47000000Y-40000000D02*
X47000000Y-33000000D01*
X26000000Y-42000000D02*
X45000000Y-42000000D01*
X24000000Y-33000000D02*
X24000000Y-40000000D01*
X17000000Y-33000000D02*
X24000000Y-33000000D01*
X15000000Y-22000000D02*
X15000000Y-31000000D01*
X24000000Y-20000000D02*
X17000000Y-20000000D01*
X24000000Y-15000000D02*
X24000000Y-20000000D01*
X46000000Y-13000000D02*
X26000000Y-13000000D01*
X48000000Y-20000000D02*
X48000000Y-15000000D01*
X54000000Y-20000000D02*
X48000000Y-20000000D01*
X56000000Y-31000000D02*
X56000000Y-22000000D01*
D11*
X46000000Y-13000000D02*
G75*
G02X48000000Y-15000000I0J-2000000D01*
G01*
X24000000Y-15000000D02*
G75*
G02X26000000Y-13000000I2000000J0D01*
G01*
X15000000Y-22000000D02*
G75*
G02X17000000Y-20000000I2000000J0D01*
G01*
X17000000Y-33000000D02*
G75*
G02X15000000Y-31000000I0J2000000D01*
G01*
X26000000Y-42000000D02*
G75*
G02X24000000Y-40000000I0J2000000D01*
G01*
X47000000Y-40000000D02*
G75*
G02X45000000Y-42000000I-2000000J0D01*
G01*
X56000000Y-31000000D02*
G75*
G02X54000000Y-33000000I-2000000J0D01*
G01*
X54000000Y-20000000D02*
G75*
G02X56000000Y-22000000I0J-2000000D01*
G01*
M02*
