G04 #@! TF.GenerationSoftware,KiCad,Pcbnew,(5.1.5)-3*
G04 #@! TF.CreationDate,2020-12-09T18:09:46+02:00*
G04 #@! TF.ProjectId,Single_tranzistor_AMP,53696e67-6c65-45f7-9472-616e7a697374,V1.0*
G04 #@! TF.SameCoordinates,Original*
G04 #@! TF.FileFunction,Copper,L2,Bot*
G04 #@! TF.FilePolarity,Positive*
%FSLAX46Y46*%
G04 Gerber Fmt 4.6, Leading zero omitted, Abs format (unit mm)*
G04 Created by KiCad (PCBNEW (5.1.5)-3) date 2020-12-09 18:09:46*
%MOMM*%
%LPD*%
G04 APERTURE LIST*
%ADD10O,2.400000X2.400000*%
%ADD11R,2.400000X2.400000*%
%ADD12R,3.000000X3.000000*%
%ADD13C,3.000000*%
%ADD14R,1.000000X1.000000*%
%ADD15O,1.000000X1.000000*%
%ADD16C,0.254000*%
G04 APERTURE END LIST*
D10*
X26688000Y-38084000D03*
D11*
X44688000Y-38084000D03*
X27416000Y-15478000D03*
D10*
X27416000Y-33478000D03*
D11*
X44046000Y-33512000D03*
D10*
X44046000Y-15512000D03*
D12*
X20000000Y-29000000D03*
D13*
X20000000Y-23920000D03*
X51292000Y-29080000D03*
D12*
X51292000Y-24000000D03*
D14*
X34782000Y-27670000D03*
D15*
X36052000Y-27670000D03*
X37322000Y-27670000D03*
D12*
X33258000Y-18018000D03*
D13*
X38338000Y-18018000D03*
D16*
G36*
X45789852Y-13662468D02*
G01*
X45922528Y-13690668D01*
X45932179Y-13691683D01*
X46252829Y-13723123D01*
X46496026Y-13796549D01*
X46720331Y-13915814D01*
X46917199Y-14076375D01*
X47079131Y-14272117D01*
X47199957Y-14495580D01*
X47275080Y-14738264D01*
X47308758Y-15058684D01*
X47312639Y-15077592D01*
X47318714Y-15137385D01*
X47340001Y-15207006D01*
X47340000Y-19967581D01*
X47336807Y-20000000D01*
X47349550Y-20129383D01*
X47387290Y-20253793D01*
X47448575Y-20368450D01*
X47506149Y-20438604D01*
X47531052Y-20468948D01*
X47631550Y-20551425D01*
X47746207Y-20612710D01*
X47870617Y-20650450D01*
X48000000Y-20663193D01*
X48032419Y-20660000D01*
X53784094Y-20660000D01*
X53789852Y-20662468D01*
X53922528Y-20690668D01*
X53932179Y-20691683D01*
X54252829Y-20723123D01*
X54496026Y-20796549D01*
X54720331Y-20915814D01*
X54917199Y-21076375D01*
X55079131Y-21272117D01*
X55199957Y-21495580D01*
X55275080Y-21738264D01*
X55308758Y-22058684D01*
X55312639Y-22077592D01*
X55318714Y-22137385D01*
X55340001Y-22207006D01*
X55340000Y-30784094D01*
X55337532Y-30789852D01*
X55309332Y-30922528D01*
X55308317Y-30932179D01*
X55276877Y-31252831D01*
X55203451Y-31496028D01*
X55084185Y-31720333D01*
X54923625Y-31917198D01*
X54727881Y-32079132D01*
X54504416Y-32199959D01*
X54261737Y-32275080D01*
X53941315Y-32308758D01*
X53922407Y-32312639D01*
X53862615Y-32318714D01*
X53792997Y-32340000D01*
X47032419Y-32340000D01*
X47000000Y-32336807D01*
X46967581Y-32340000D01*
X46870617Y-32349550D01*
X46746207Y-32387290D01*
X46631550Y-32448575D01*
X46531052Y-32531052D01*
X46448575Y-32631550D01*
X46387290Y-32746207D01*
X46349550Y-32870617D01*
X46336807Y-33000000D01*
X46340001Y-33032429D01*
X46340001Y-36433809D01*
X46339185Y-36432815D01*
X46242494Y-36353463D01*
X46132180Y-36294498D01*
X46012482Y-36258188D01*
X45888000Y-36245928D01*
X43488000Y-36245928D01*
X43363518Y-36258188D01*
X43243820Y-36294498D01*
X43133506Y-36353463D01*
X43036815Y-36432815D01*
X42957463Y-36529506D01*
X42898498Y-36639820D01*
X42862188Y-36759518D01*
X42849928Y-36884000D01*
X42849928Y-39284000D01*
X42862188Y-39408482D01*
X42898498Y-39528180D01*
X42957463Y-39638494D01*
X43036815Y-39735185D01*
X43133506Y-39814537D01*
X43243820Y-39873502D01*
X43363518Y-39909812D01*
X43488000Y-39922072D01*
X45888000Y-39922072D01*
X46012482Y-39909812D01*
X46132180Y-39873502D01*
X46242494Y-39814537D01*
X46339185Y-39735185D01*
X46340000Y-39734192D01*
X46340000Y-39784094D01*
X46337532Y-39789852D01*
X46309332Y-39922528D01*
X46308317Y-39932179D01*
X46276877Y-40252831D01*
X46203451Y-40496028D01*
X46084185Y-40720333D01*
X45923625Y-40917198D01*
X45727881Y-41079132D01*
X45504416Y-41199959D01*
X45261737Y-41275080D01*
X44941315Y-41308758D01*
X44922407Y-41312639D01*
X44862615Y-41318714D01*
X44792997Y-41340000D01*
X26215906Y-41340000D01*
X26210148Y-41337532D01*
X26077472Y-41309332D01*
X26067821Y-41308317D01*
X25747169Y-41276877D01*
X25503972Y-41203451D01*
X25279667Y-41084185D01*
X25082802Y-40923625D01*
X24920868Y-40727881D01*
X24800041Y-40504416D01*
X24724920Y-40261737D01*
X24691242Y-39941315D01*
X24687361Y-39922407D01*
X24681286Y-39862615D01*
X24660000Y-39792997D01*
X24660000Y-38495805D01*
X24899805Y-38495805D01*
X24972379Y-38735066D01*
X25132361Y-39057257D01*
X25352125Y-39342046D01*
X25623226Y-39578489D01*
X25935246Y-39757500D01*
X26276194Y-39872199D01*
X26561000Y-39755854D01*
X26561000Y-38211000D01*
X26815000Y-38211000D01*
X26815000Y-39755854D01*
X27099806Y-39872199D01*
X27440754Y-39757500D01*
X27752774Y-39578489D01*
X28023875Y-39342046D01*
X28243639Y-39057257D01*
X28403621Y-38735066D01*
X28476195Y-38495805D01*
X28359432Y-38211000D01*
X26815000Y-38211000D01*
X26561000Y-38211000D01*
X25016568Y-38211000D01*
X24899805Y-38495805D01*
X24660000Y-38495805D01*
X24660000Y-37672195D01*
X24899805Y-37672195D01*
X25016568Y-37957000D01*
X26561000Y-37957000D01*
X26561000Y-36412146D01*
X26815000Y-36412146D01*
X26815000Y-37957000D01*
X28359432Y-37957000D01*
X28476195Y-37672195D01*
X28403621Y-37432934D01*
X28243639Y-37110743D01*
X28023875Y-36825954D01*
X27752774Y-36589511D01*
X27440754Y-36410500D01*
X27099806Y-36295801D01*
X26815000Y-36412146D01*
X26561000Y-36412146D01*
X26276194Y-36295801D01*
X25935246Y-36410500D01*
X25623226Y-36589511D01*
X25352125Y-36825954D01*
X25132361Y-37110743D01*
X24972379Y-37432934D01*
X24899805Y-37672195D01*
X24660000Y-37672195D01*
X24660000Y-33297268D01*
X25581000Y-33297268D01*
X25581000Y-33658732D01*
X25651518Y-34013250D01*
X25789844Y-34347199D01*
X25990662Y-34647744D01*
X26246256Y-34903338D01*
X26546801Y-35104156D01*
X26880750Y-35242482D01*
X27235268Y-35313000D01*
X27596732Y-35313000D01*
X27951250Y-35242482D01*
X28285199Y-35104156D01*
X28585744Y-34903338D01*
X28841338Y-34647744D01*
X29042156Y-34347199D01*
X29180482Y-34013250D01*
X29251000Y-33658732D01*
X29251000Y-33297268D01*
X29180482Y-32942750D01*
X29042156Y-32608801D01*
X28843840Y-32312000D01*
X42207928Y-32312000D01*
X42207928Y-34712000D01*
X42220188Y-34836482D01*
X42256498Y-34956180D01*
X42315463Y-35066494D01*
X42394815Y-35163185D01*
X42491506Y-35242537D01*
X42601820Y-35301502D01*
X42721518Y-35337812D01*
X42846000Y-35350072D01*
X45246000Y-35350072D01*
X45370482Y-35337812D01*
X45490180Y-35301502D01*
X45600494Y-35242537D01*
X45697185Y-35163185D01*
X45776537Y-35066494D01*
X45835502Y-34956180D01*
X45871812Y-34836482D01*
X45884072Y-34712000D01*
X45884072Y-32312000D01*
X45871812Y-32187518D01*
X45835502Y-32067820D01*
X45776537Y-31957506D01*
X45697185Y-31860815D01*
X45600494Y-31781463D01*
X45490180Y-31722498D01*
X45370482Y-31686188D01*
X45246000Y-31673928D01*
X42846000Y-31673928D01*
X42721518Y-31686188D01*
X42601820Y-31722498D01*
X42491506Y-31781463D01*
X42394815Y-31860815D01*
X42315463Y-31957506D01*
X42256498Y-32067820D01*
X42220188Y-32187518D01*
X42207928Y-32312000D01*
X28843840Y-32312000D01*
X28841338Y-32308256D01*
X28585744Y-32052662D01*
X28285199Y-31851844D01*
X27951250Y-31713518D01*
X27596732Y-31643000D01*
X27235268Y-31643000D01*
X26880750Y-31713518D01*
X26546801Y-31851844D01*
X26246256Y-32052662D01*
X25990662Y-32308256D01*
X25789844Y-32608801D01*
X25651518Y-32942750D01*
X25581000Y-33297268D01*
X24660000Y-33297268D01*
X24660000Y-33032419D01*
X24663193Y-33000000D01*
X24650450Y-32870617D01*
X24612710Y-32746207D01*
X24551425Y-32631550D01*
X24468948Y-32531052D01*
X24368450Y-32448575D01*
X24253793Y-32387290D01*
X24129383Y-32349550D01*
X24032419Y-32340000D01*
X24000000Y-32336807D01*
X23967581Y-32340000D01*
X17215906Y-32340000D01*
X17210148Y-32337532D01*
X17077472Y-32309332D01*
X17067821Y-32308317D01*
X16747169Y-32276877D01*
X16503972Y-32203451D01*
X16279667Y-32084185D01*
X16082802Y-31923625D01*
X15920868Y-31727881D01*
X15800041Y-31504416D01*
X15724920Y-31261737D01*
X15691242Y-30941315D01*
X15687361Y-30922407D01*
X15681286Y-30862615D01*
X15660000Y-30792997D01*
X15660000Y-30500000D01*
X17861928Y-30500000D01*
X17874188Y-30624482D01*
X17910498Y-30744180D01*
X17969463Y-30854494D01*
X18048815Y-30951185D01*
X18145506Y-31030537D01*
X18255820Y-31089502D01*
X18375518Y-31125812D01*
X18500000Y-31138072D01*
X19714250Y-31135000D01*
X19873000Y-30976250D01*
X19873000Y-29127000D01*
X20127000Y-29127000D01*
X20127000Y-30976250D01*
X20285750Y-31135000D01*
X21500000Y-31138072D01*
X21624482Y-31125812D01*
X21744180Y-31089502D01*
X21854494Y-31030537D01*
X21951185Y-30951185D01*
X22030537Y-30854494D01*
X22089502Y-30744180D01*
X22125812Y-30624482D01*
X22131015Y-30571653D01*
X49979952Y-30571653D01*
X50135962Y-30887214D01*
X50510745Y-31078020D01*
X50915551Y-31192044D01*
X51334824Y-31224902D01*
X51752451Y-31175334D01*
X52152383Y-31045243D01*
X52448038Y-30887214D01*
X52604048Y-30571653D01*
X51292000Y-29259605D01*
X49979952Y-30571653D01*
X22131015Y-30571653D01*
X22138072Y-30500000D01*
X22135000Y-29285750D01*
X21976250Y-29127000D01*
X20127000Y-29127000D01*
X19873000Y-29127000D01*
X18023750Y-29127000D01*
X17865000Y-29285750D01*
X17861928Y-30500000D01*
X15660000Y-30500000D01*
X15660000Y-29122824D01*
X49147098Y-29122824D01*
X49196666Y-29540451D01*
X49326757Y-29940383D01*
X49484786Y-30236038D01*
X49800347Y-30392048D01*
X51112395Y-29080000D01*
X51471605Y-29080000D01*
X52783653Y-30392048D01*
X53099214Y-30236038D01*
X53290020Y-29861255D01*
X53404044Y-29456449D01*
X53436902Y-29037176D01*
X53387334Y-28619549D01*
X53257243Y-28219617D01*
X53099214Y-27923962D01*
X52783653Y-27767952D01*
X51471605Y-29080000D01*
X51112395Y-29080000D01*
X49800347Y-27767952D01*
X49484786Y-27923962D01*
X49293980Y-28298745D01*
X49179956Y-28703551D01*
X49147098Y-29122824D01*
X15660000Y-29122824D01*
X15660000Y-27500000D01*
X17861928Y-27500000D01*
X17865000Y-28714250D01*
X18023750Y-28873000D01*
X19873000Y-28873000D01*
X19873000Y-27023750D01*
X20127000Y-27023750D01*
X20127000Y-28873000D01*
X21976250Y-28873000D01*
X22135000Y-28714250D01*
X22138072Y-27500000D01*
X22125812Y-27375518D01*
X22089502Y-27255820D01*
X22043630Y-27170000D01*
X33643928Y-27170000D01*
X33643928Y-28170000D01*
X33656188Y-28294482D01*
X33692498Y-28414180D01*
X33751463Y-28524494D01*
X33830815Y-28621185D01*
X33927506Y-28700537D01*
X34037820Y-28759502D01*
X34157518Y-28795812D01*
X34282000Y-28808072D01*
X35282000Y-28808072D01*
X35406482Y-28795812D01*
X35526180Y-28759502D01*
X35609226Y-28715112D01*
X35720933Y-28761383D01*
X35940212Y-28805000D01*
X36163788Y-28805000D01*
X36383067Y-28761383D01*
X36589624Y-28675824D01*
X36687000Y-28610759D01*
X36784376Y-28675824D01*
X36990933Y-28761383D01*
X37210212Y-28805000D01*
X37433788Y-28805000D01*
X37653067Y-28761383D01*
X37859624Y-28675824D01*
X38045520Y-28551612D01*
X38203612Y-28393520D01*
X38327824Y-28207624D01*
X38413383Y-28001067D01*
X38457000Y-27781788D01*
X38457000Y-27588347D01*
X49979952Y-27588347D01*
X51292000Y-28900395D01*
X52604048Y-27588347D01*
X52448038Y-27272786D01*
X52073255Y-27081980D01*
X51668449Y-26967956D01*
X51249176Y-26935098D01*
X50831549Y-26984666D01*
X50431617Y-27114757D01*
X50135962Y-27272786D01*
X49979952Y-27588347D01*
X38457000Y-27588347D01*
X38457000Y-27558212D01*
X38413383Y-27338933D01*
X38327824Y-27132376D01*
X38203612Y-26946480D01*
X38045520Y-26788388D01*
X37859624Y-26664176D01*
X37653067Y-26578617D01*
X37433788Y-26535000D01*
X37210212Y-26535000D01*
X36990933Y-26578617D01*
X36784376Y-26664176D01*
X36687000Y-26729241D01*
X36589624Y-26664176D01*
X36383067Y-26578617D01*
X36163788Y-26535000D01*
X35940212Y-26535000D01*
X35720933Y-26578617D01*
X35609226Y-26624888D01*
X35526180Y-26580498D01*
X35406482Y-26544188D01*
X35282000Y-26531928D01*
X34282000Y-26531928D01*
X34157518Y-26544188D01*
X34037820Y-26580498D01*
X33927506Y-26639463D01*
X33830815Y-26718815D01*
X33751463Y-26815506D01*
X33692498Y-26925820D01*
X33656188Y-27045518D01*
X33643928Y-27170000D01*
X22043630Y-27170000D01*
X22030537Y-27145506D01*
X21951185Y-27048815D01*
X21854494Y-26969463D01*
X21744180Y-26910498D01*
X21624482Y-26874188D01*
X21500000Y-26861928D01*
X20285750Y-26865000D01*
X20127000Y-27023750D01*
X19873000Y-27023750D01*
X19714250Y-26865000D01*
X18500000Y-26861928D01*
X18375518Y-26874188D01*
X18255820Y-26910498D01*
X18145506Y-26969463D01*
X18048815Y-27048815D01*
X17969463Y-27145506D01*
X17910498Y-27255820D01*
X17874188Y-27375518D01*
X17861928Y-27500000D01*
X15660000Y-27500000D01*
X15660000Y-23709721D01*
X17865000Y-23709721D01*
X17865000Y-24130279D01*
X17947047Y-24542756D01*
X18107988Y-24931302D01*
X18341637Y-25280983D01*
X18639017Y-25578363D01*
X18988698Y-25812012D01*
X19377244Y-25972953D01*
X19789721Y-26055000D01*
X20210279Y-26055000D01*
X20622756Y-25972953D01*
X21011302Y-25812012D01*
X21360983Y-25578363D01*
X21658363Y-25280983D01*
X21892012Y-24931302D01*
X22052953Y-24542756D01*
X22135000Y-24130279D01*
X22135000Y-23709721D01*
X22052953Y-23297244D01*
X21892012Y-22908698D01*
X21658363Y-22559017D01*
X21599346Y-22500000D01*
X49153928Y-22500000D01*
X49153928Y-25500000D01*
X49166188Y-25624482D01*
X49202498Y-25744180D01*
X49261463Y-25854494D01*
X49340815Y-25951185D01*
X49437506Y-26030537D01*
X49547820Y-26089502D01*
X49667518Y-26125812D01*
X49792000Y-26138072D01*
X52792000Y-26138072D01*
X52916482Y-26125812D01*
X53036180Y-26089502D01*
X53146494Y-26030537D01*
X53243185Y-25951185D01*
X53322537Y-25854494D01*
X53381502Y-25744180D01*
X53417812Y-25624482D01*
X53430072Y-25500000D01*
X53430072Y-22500000D01*
X53417812Y-22375518D01*
X53381502Y-22255820D01*
X53322537Y-22145506D01*
X53243185Y-22048815D01*
X53146494Y-21969463D01*
X53036180Y-21910498D01*
X52916482Y-21874188D01*
X52792000Y-21861928D01*
X49792000Y-21861928D01*
X49667518Y-21874188D01*
X49547820Y-21910498D01*
X49437506Y-21969463D01*
X49340815Y-22048815D01*
X49261463Y-22145506D01*
X49202498Y-22255820D01*
X49166188Y-22375518D01*
X49153928Y-22500000D01*
X21599346Y-22500000D01*
X21360983Y-22261637D01*
X21011302Y-22027988D01*
X20622756Y-21867047D01*
X20210279Y-21785000D01*
X19789721Y-21785000D01*
X19377244Y-21867047D01*
X18988698Y-22027988D01*
X18639017Y-22261637D01*
X18341637Y-22559017D01*
X18107988Y-22908698D01*
X17947047Y-23297244D01*
X17865000Y-23709721D01*
X15660000Y-23709721D01*
X15660000Y-22215906D01*
X15662468Y-22210148D01*
X15690668Y-22077472D01*
X15691683Y-22067821D01*
X15723123Y-21747171D01*
X15796549Y-21503974D01*
X15915814Y-21279669D01*
X16076375Y-21082801D01*
X16272117Y-20920869D01*
X16495580Y-20800043D01*
X16738264Y-20724920D01*
X17058684Y-20691242D01*
X17077592Y-20687361D01*
X17137385Y-20681286D01*
X17207003Y-20660000D01*
X23967581Y-20660000D01*
X24000000Y-20663193D01*
X24032419Y-20660000D01*
X24129383Y-20650450D01*
X24253793Y-20612710D01*
X24368450Y-20551425D01*
X24468948Y-20468948D01*
X24551425Y-20368450D01*
X24612710Y-20253793D01*
X24650450Y-20129383D01*
X24663193Y-20000000D01*
X24660000Y-19967581D01*
X24660000Y-15215906D01*
X24662468Y-15210148D01*
X24690668Y-15077472D01*
X24691683Y-15067821D01*
X24723123Y-14747171D01*
X24796549Y-14503974D01*
X24915814Y-14279669D01*
X25076375Y-14082801D01*
X25272117Y-13920869D01*
X25495580Y-13800043D01*
X25738264Y-13724920D01*
X25944169Y-13703278D01*
X25861506Y-13747463D01*
X25764815Y-13826815D01*
X25685463Y-13923506D01*
X25626498Y-14033820D01*
X25590188Y-14153518D01*
X25577928Y-14278000D01*
X25577928Y-16678000D01*
X25590188Y-16802482D01*
X25626498Y-16922180D01*
X25685463Y-17032494D01*
X25764815Y-17129185D01*
X25861506Y-17208537D01*
X25971820Y-17267502D01*
X26091518Y-17303812D01*
X26216000Y-17316072D01*
X28616000Y-17316072D01*
X28740482Y-17303812D01*
X28860180Y-17267502D01*
X28970494Y-17208537D01*
X29067185Y-17129185D01*
X29146537Y-17032494D01*
X29205502Y-16922180D01*
X29241812Y-16802482D01*
X29254072Y-16678000D01*
X29254072Y-16518000D01*
X31119928Y-16518000D01*
X31119928Y-19518000D01*
X31132188Y-19642482D01*
X31168498Y-19762180D01*
X31227463Y-19872494D01*
X31306815Y-19969185D01*
X31403506Y-20048537D01*
X31513820Y-20107502D01*
X31633518Y-20143812D01*
X31758000Y-20156072D01*
X34758000Y-20156072D01*
X34882482Y-20143812D01*
X35002180Y-20107502D01*
X35112494Y-20048537D01*
X35209185Y-19969185D01*
X35288537Y-19872494D01*
X35347502Y-19762180D01*
X35383812Y-19642482D01*
X35396072Y-19518000D01*
X35396072Y-19509653D01*
X37025952Y-19509653D01*
X37181962Y-19825214D01*
X37556745Y-20016020D01*
X37961551Y-20130044D01*
X38380824Y-20162902D01*
X38798451Y-20113334D01*
X39198383Y-19983243D01*
X39494038Y-19825214D01*
X39650048Y-19509653D01*
X38338000Y-18197605D01*
X37025952Y-19509653D01*
X35396072Y-19509653D01*
X35396072Y-18060824D01*
X36193098Y-18060824D01*
X36242666Y-18478451D01*
X36372757Y-18878383D01*
X36530786Y-19174038D01*
X36846347Y-19330048D01*
X38158395Y-18018000D01*
X38517605Y-18018000D01*
X39829653Y-19330048D01*
X40145214Y-19174038D01*
X40336020Y-18799255D01*
X40450044Y-18394449D01*
X40482902Y-17975176D01*
X40433334Y-17557549D01*
X40303243Y-17157617D01*
X40145214Y-16861962D01*
X39829653Y-16705952D01*
X38517605Y-18018000D01*
X38158395Y-18018000D01*
X36846347Y-16705952D01*
X36530786Y-16861962D01*
X36339980Y-17236745D01*
X36225956Y-17641551D01*
X36193098Y-18060824D01*
X35396072Y-18060824D01*
X35396072Y-16526347D01*
X37025952Y-16526347D01*
X38338000Y-17838395D01*
X39650048Y-16526347D01*
X39494038Y-16210786D01*
X39119255Y-16019980D01*
X38714449Y-15905956D01*
X38295176Y-15873098D01*
X37877549Y-15922666D01*
X37477617Y-16052757D01*
X37181962Y-16210786D01*
X37025952Y-16526347D01*
X35396072Y-16526347D01*
X35396072Y-16518000D01*
X35383812Y-16393518D01*
X35347502Y-16273820D01*
X35288537Y-16163506D01*
X35209185Y-16066815D01*
X35112494Y-15987463D01*
X35002180Y-15928498D01*
X34882482Y-15892188D01*
X34758000Y-15879928D01*
X31758000Y-15879928D01*
X31633518Y-15892188D01*
X31513820Y-15928498D01*
X31403506Y-15987463D01*
X31306815Y-16066815D01*
X31227463Y-16163506D01*
X31168498Y-16273820D01*
X31132188Y-16393518D01*
X31119928Y-16518000D01*
X29254072Y-16518000D01*
X29254072Y-15331268D01*
X42211000Y-15331268D01*
X42211000Y-15692732D01*
X42281518Y-16047250D01*
X42419844Y-16381199D01*
X42620662Y-16681744D01*
X42876256Y-16937338D01*
X43176801Y-17138156D01*
X43510750Y-17276482D01*
X43865268Y-17347000D01*
X44226732Y-17347000D01*
X44581250Y-17276482D01*
X44915199Y-17138156D01*
X45215744Y-16937338D01*
X45471338Y-16681744D01*
X45672156Y-16381199D01*
X45810482Y-16047250D01*
X45881000Y-15692732D01*
X45881000Y-15331268D01*
X45810482Y-14976750D01*
X45672156Y-14642801D01*
X45471338Y-14342256D01*
X45215744Y-14086662D01*
X44915199Y-13885844D01*
X44581250Y-13747518D01*
X44226732Y-13677000D01*
X43865268Y-13677000D01*
X43510750Y-13747518D01*
X43176801Y-13885844D01*
X42876256Y-14086662D01*
X42620662Y-14342256D01*
X42419844Y-14642801D01*
X42281518Y-14976750D01*
X42211000Y-15331268D01*
X29254072Y-15331268D01*
X29254072Y-14278000D01*
X29241812Y-14153518D01*
X29205502Y-14033820D01*
X29146537Y-13923506D01*
X29067185Y-13826815D01*
X28970494Y-13747463D01*
X28860180Y-13688498D01*
X28766235Y-13660000D01*
X45784094Y-13660000D01*
X45789852Y-13662468D01*
G37*
X45789852Y-13662468D02*
X45922528Y-13690668D01*
X45932179Y-13691683D01*
X46252829Y-13723123D01*
X46496026Y-13796549D01*
X46720331Y-13915814D01*
X46917199Y-14076375D01*
X47079131Y-14272117D01*
X47199957Y-14495580D01*
X47275080Y-14738264D01*
X47308758Y-15058684D01*
X47312639Y-15077592D01*
X47318714Y-15137385D01*
X47340001Y-15207006D01*
X47340000Y-19967581D01*
X47336807Y-20000000D01*
X47349550Y-20129383D01*
X47387290Y-20253793D01*
X47448575Y-20368450D01*
X47506149Y-20438604D01*
X47531052Y-20468948D01*
X47631550Y-20551425D01*
X47746207Y-20612710D01*
X47870617Y-20650450D01*
X48000000Y-20663193D01*
X48032419Y-20660000D01*
X53784094Y-20660000D01*
X53789852Y-20662468D01*
X53922528Y-20690668D01*
X53932179Y-20691683D01*
X54252829Y-20723123D01*
X54496026Y-20796549D01*
X54720331Y-20915814D01*
X54917199Y-21076375D01*
X55079131Y-21272117D01*
X55199957Y-21495580D01*
X55275080Y-21738264D01*
X55308758Y-22058684D01*
X55312639Y-22077592D01*
X55318714Y-22137385D01*
X55340001Y-22207006D01*
X55340000Y-30784094D01*
X55337532Y-30789852D01*
X55309332Y-30922528D01*
X55308317Y-30932179D01*
X55276877Y-31252831D01*
X55203451Y-31496028D01*
X55084185Y-31720333D01*
X54923625Y-31917198D01*
X54727881Y-32079132D01*
X54504416Y-32199959D01*
X54261737Y-32275080D01*
X53941315Y-32308758D01*
X53922407Y-32312639D01*
X53862615Y-32318714D01*
X53792997Y-32340000D01*
X47032419Y-32340000D01*
X47000000Y-32336807D01*
X46967581Y-32340000D01*
X46870617Y-32349550D01*
X46746207Y-32387290D01*
X46631550Y-32448575D01*
X46531052Y-32531052D01*
X46448575Y-32631550D01*
X46387290Y-32746207D01*
X46349550Y-32870617D01*
X46336807Y-33000000D01*
X46340001Y-33032429D01*
X46340001Y-36433809D01*
X46339185Y-36432815D01*
X46242494Y-36353463D01*
X46132180Y-36294498D01*
X46012482Y-36258188D01*
X45888000Y-36245928D01*
X43488000Y-36245928D01*
X43363518Y-36258188D01*
X43243820Y-36294498D01*
X43133506Y-36353463D01*
X43036815Y-36432815D01*
X42957463Y-36529506D01*
X42898498Y-36639820D01*
X42862188Y-36759518D01*
X42849928Y-36884000D01*
X42849928Y-39284000D01*
X42862188Y-39408482D01*
X42898498Y-39528180D01*
X42957463Y-39638494D01*
X43036815Y-39735185D01*
X43133506Y-39814537D01*
X43243820Y-39873502D01*
X43363518Y-39909812D01*
X43488000Y-39922072D01*
X45888000Y-39922072D01*
X46012482Y-39909812D01*
X46132180Y-39873502D01*
X46242494Y-39814537D01*
X46339185Y-39735185D01*
X46340000Y-39734192D01*
X46340000Y-39784094D01*
X46337532Y-39789852D01*
X46309332Y-39922528D01*
X46308317Y-39932179D01*
X46276877Y-40252831D01*
X46203451Y-40496028D01*
X46084185Y-40720333D01*
X45923625Y-40917198D01*
X45727881Y-41079132D01*
X45504416Y-41199959D01*
X45261737Y-41275080D01*
X44941315Y-41308758D01*
X44922407Y-41312639D01*
X44862615Y-41318714D01*
X44792997Y-41340000D01*
X26215906Y-41340000D01*
X26210148Y-41337532D01*
X26077472Y-41309332D01*
X26067821Y-41308317D01*
X25747169Y-41276877D01*
X25503972Y-41203451D01*
X25279667Y-41084185D01*
X25082802Y-40923625D01*
X24920868Y-40727881D01*
X24800041Y-40504416D01*
X24724920Y-40261737D01*
X24691242Y-39941315D01*
X24687361Y-39922407D01*
X24681286Y-39862615D01*
X24660000Y-39792997D01*
X24660000Y-38495805D01*
X24899805Y-38495805D01*
X24972379Y-38735066D01*
X25132361Y-39057257D01*
X25352125Y-39342046D01*
X25623226Y-39578489D01*
X25935246Y-39757500D01*
X26276194Y-39872199D01*
X26561000Y-39755854D01*
X26561000Y-38211000D01*
X26815000Y-38211000D01*
X26815000Y-39755854D01*
X27099806Y-39872199D01*
X27440754Y-39757500D01*
X27752774Y-39578489D01*
X28023875Y-39342046D01*
X28243639Y-39057257D01*
X28403621Y-38735066D01*
X28476195Y-38495805D01*
X28359432Y-38211000D01*
X26815000Y-38211000D01*
X26561000Y-38211000D01*
X25016568Y-38211000D01*
X24899805Y-38495805D01*
X24660000Y-38495805D01*
X24660000Y-37672195D01*
X24899805Y-37672195D01*
X25016568Y-37957000D01*
X26561000Y-37957000D01*
X26561000Y-36412146D01*
X26815000Y-36412146D01*
X26815000Y-37957000D01*
X28359432Y-37957000D01*
X28476195Y-37672195D01*
X28403621Y-37432934D01*
X28243639Y-37110743D01*
X28023875Y-36825954D01*
X27752774Y-36589511D01*
X27440754Y-36410500D01*
X27099806Y-36295801D01*
X26815000Y-36412146D01*
X26561000Y-36412146D01*
X26276194Y-36295801D01*
X25935246Y-36410500D01*
X25623226Y-36589511D01*
X25352125Y-36825954D01*
X25132361Y-37110743D01*
X24972379Y-37432934D01*
X24899805Y-37672195D01*
X24660000Y-37672195D01*
X24660000Y-33297268D01*
X25581000Y-33297268D01*
X25581000Y-33658732D01*
X25651518Y-34013250D01*
X25789844Y-34347199D01*
X25990662Y-34647744D01*
X26246256Y-34903338D01*
X26546801Y-35104156D01*
X26880750Y-35242482D01*
X27235268Y-35313000D01*
X27596732Y-35313000D01*
X27951250Y-35242482D01*
X28285199Y-35104156D01*
X28585744Y-34903338D01*
X28841338Y-34647744D01*
X29042156Y-34347199D01*
X29180482Y-34013250D01*
X29251000Y-33658732D01*
X29251000Y-33297268D01*
X29180482Y-32942750D01*
X29042156Y-32608801D01*
X28843840Y-32312000D01*
X42207928Y-32312000D01*
X42207928Y-34712000D01*
X42220188Y-34836482D01*
X42256498Y-34956180D01*
X42315463Y-35066494D01*
X42394815Y-35163185D01*
X42491506Y-35242537D01*
X42601820Y-35301502D01*
X42721518Y-35337812D01*
X42846000Y-35350072D01*
X45246000Y-35350072D01*
X45370482Y-35337812D01*
X45490180Y-35301502D01*
X45600494Y-35242537D01*
X45697185Y-35163185D01*
X45776537Y-35066494D01*
X45835502Y-34956180D01*
X45871812Y-34836482D01*
X45884072Y-34712000D01*
X45884072Y-32312000D01*
X45871812Y-32187518D01*
X45835502Y-32067820D01*
X45776537Y-31957506D01*
X45697185Y-31860815D01*
X45600494Y-31781463D01*
X45490180Y-31722498D01*
X45370482Y-31686188D01*
X45246000Y-31673928D01*
X42846000Y-31673928D01*
X42721518Y-31686188D01*
X42601820Y-31722498D01*
X42491506Y-31781463D01*
X42394815Y-31860815D01*
X42315463Y-31957506D01*
X42256498Y-32067820D01*
X42220188Y-32187518D01*
X42207928Y-32312000D01*
X28843840Y-32312000D01*
X28841338Y-32308256D01*
X28585744Y-32052662D01*
X28285199Y-31851844D01*
X27951250Y-31713518D01*
X27596732Y-31643000D01*
X27235268Y-31643000D01*
X26880750Y-31713518D01*
X26546801Y-31851844D01*
X26246256Y-32052662D01*
X25990662Y-32308256D01*
X25789844Y-32608801D01*
X25651518Y-32942750D01*
X25581000Y-33297268D01*
X24660000Y-33297268D01*
X24660000Y-33032419D01*
X24663193Y-33000000D01*
X24650450Y-32870617D01*
X24612710Y-32746207D01*
X24551425Y-32631550D01*
X24468948Y-32531052D01*
X24368450Y-32448575D01*
X24253793Y-32387290D01*
X24129383Y-32349550D01*
X24032419Y-32340000D01*
X24000000Y-32336807D01*
X23967581Y-32340000D01*
X17215906Y-32340000D01*
X17210148Y-32337532D01*
X17077472Y-32309332D01*
X17067821Y-32308317D01*
X16747169Y-32276877D01*
X16503972Y-32203451D01*
X16279667Y-32084185D01*
X16082802Y-31923625D01*
X15920868Y-31727881D01*
X15800041Y-31504416D01*
X15724920Y-31261737D01*
X15691242Y-30941315D01*
X15687361Y-30922407D01*
X15681286Y-30862615D01*
X15660000Y-30792997D01*
X15660000Y-30500000D01*
X17861928Y-30500000D01*
X17874188Y-30624482D01*
X17910498Y-30744180D01*
X17969463Y-30854494D01*
X18048815Y-30951185D01*
X18145506Y-31030537D01*
X18255820Y-31089502D01*
X18375518Y-31125812D01*
X18500000Y-31138072D01*
X19714250Y-31135000D01*
X19873000Y-30976250D01*
X19873000Y-29127000D01*
X20127000Y-29127000D01*
X20127000Y-30976250D01*
X20285750Y-31135000D01*
X21500000Y-31138072D01*
X21624482Y-31125812D01*
X21744180Y-31089502D01*
X21854494Y-31030537D01*
X21951185Y-30951185D01*
X22030537Y-30854494D01*
X22089502Y-30744180D01*
X22125812Y-30624482D01*
X22131015Y-30571653D01*
X49979952Y-30571653D01*
X50135962Y-30887214D01*
X50510745Y-31078020D01*
X50915551Y-31192044D01*
X51334824Y-31224902D01*
X51752451Y-31175334D01*
X52152383Y-31045243D01*
X52448038Y-30887214D01*
X52604048Y-30571653D01*
X51292000Y-29259605D01*
X49979952Y-30571653D01*
X22131015Y-30571653D01*
X22138072Y-30500000D01*
X22135000Y-29285750D01*
X21976250Y-29127000D01*
X20127000Y-29127000D01*
X19873000Y-29127000D01*
X18023750Y-29127000D01*
X17865000Y-29285750D01*
X17861928Y-30500000D01*
X15660000Y-30500000D01*
X15660000Y-29122824D01*
X49147098Y-29122824D01*
X49196666Y-29540451D01*
X49326757Y-29940383D01*
X49484786Y-30236038D01*
X49800347Y-30392048D01*
X51112395Y-29080000D01*
X51471605Y-29080000D01*
X52783653Y-30392048D01*
X53099214Y-30236038D01*
X53290020Y-29861255D01*
X53404044Y-29456449D01*
X53436902Y-29037176D01*
X53387334Y-28619549D01*
X53257243Y-28219617D01*
X53099214Y-27923962D01*
X52783653Y-27767952D01*
X51471605Y-29080000D01*
X51112395Y-29080000D01*
X49800347Y-27767952D01*
X49484786Y-27923962D01*
X49293980Y-28298745D01*
X49179956Y-28703551D01*
X49147098Y-29122824D01*
X15660000Y-29122824D01*
X15660000Y-27500000D01*
X17861928Y-27500000D01*
X17865000Y-28714250D01*
X18023750Y-28873000D01*
X19873000Y-28873000D01*
X19873000Y-27023750D01*
X20127000Y-27023750D01*
X20127000Y-28873000D01*
X21976250Y-28873000D01*
X22135000Y-28714250D01*
X22138072Y-27500000D01*
X22125812Y-27375518D01*
X22089502Y-27255820D01*
X22043630Y-27170000D01*
X33643928Y-27170000D01*
X33643928Y-28170000D01*
X33656188Y-28294482D01*
X33692498Y-28414180D01*
X33751463Y-28524494D01*
X33830815Y-28621185D01*
X33927506Y-28700537D01*
X34037820Y-28759502D01*
X34157518Y-28795812D01*
X34282000Y-28808072D01*
X35282000Y-28808072D01*
X35406482Y-28795812D01*
X35526180Y-28759502D01*
X35609226Y-28715112D01*
X35720933Y-28761383D01*
X35940212Y-28805000D01*
X36163788Y-28805000D01*
X36383067Y-28761383D01*
X36589624Y-28675824D01*
X36687000Y-28610759D01*
X36784376Y-28675824D01*
X36990933Y-28761383D01*
X37210212Y-28805000D01*
X37433788Y-28805000D01*
X37653067Y-28761383D01*
X37859624Y-28675824D01*
X38045520Y-28551612D01*
X38203612Y-28393520D01*
X38327824Y-28207624D01*
X38413383Y-28001067D01*
X38457000Y-27781788D01*
X38457000Y-27588347D01*
X49979952Y-27588347D01*
X51292000Y-28900395D01*
X52604048Y-27588347D01*
X52448038Y-27272786D01*
X52073255Y-27081980D01*
X51668449Y-26967956D01*
X51249176Y-26935098D01*
X50831549Y-26984666D01*
X50431617Y-27114757D01*
X50135962Y-27272786D01*
X49979952Y-27588347D01*
X38457000Y-27588347D01*
X38457000Y-27558212D01*
X38413383Y-27338933D01*
X38327824Y-27132376D01*
X38203612Y-26946480D01*
X38045520Y-26788388D01*
X37859624Y-26664176D01*
X37653067Y-26578617D01*
X37433788Y-26535000D01*
X37210212Y-26535000D01*
X36990933Y-26578617D01*
X36784376Y-26664176D01*
X36687000Y-26729241D01*
X36589624Y-26664176D01*
X36383067Y-26578617D01*
X36163788Y-26535000D01*
X35940212Y-26535000D01*
X35720933Y-26578617D01*
X35609226Y-26624888D01*
X35526180Y-26580498D01*
X35406482Y-26544188D01*
X35282000Y-26531928D01*
X34282000Y-26531928D01*
X34157518Y-26544188D01*
X34037820Y-26580498D01*
X33927506Y-26639463D01*
X33830815Y-26718815D01*
X33751463Y-26815506D01*
X33692498Y-26925820D01*
X33656188Y-27045518D01*
X33643928Y-27170000D01*
X22043630Y-27170000D01*
X22030537Y-27145506D01*
X21951185Y-27048815D01*
X21854494Y-26969463D01*
X21744180Y-26910498D01*
X21624482Y-26874188D01*
X21500000Y-26861928D01*
X20285750Y-26865000D01*
X20127000Y-27023750D01*
X19873000Y-27023750D01*
X19714250Y-26865000D01*
X18500000Y-26861928D01*
X18375518Y-26874188D01*
X18255820Y-26910498D01*
X18145506Y-26969463D01*
X18048815Y-27048815D01*
X17969463Y-27145506D01*
X17910498Y-27255820D01*
X17874188Y-27375518D01*
X17861928Y-27500000D01*
X15660000Y-27500000D01*
X15660000Y-23709721D01*
X17865000Y-23709721D01*
X17865000Y-24130279D01*
X17947047Y-24542756D01*
X18107988Y-24931302D01*
X18341637Y-25280983D01*
X18639017Y-25578363D01*
X18988698Y-25812012D01*
X19377244Y-25972953D01*
X19789721Y-26055000D01*
X20210279Y-26055000D01*
X20622756Y-25972953D01*
X21011302Y-25812012D01*
X21360983Y-25578363D01*
X21658363Y-25280983D01*
X21892012Y-24931302D01*
X22052953Y-24542756D01*
X22135000Y-24130279D01*
X22135000Y-23709721D01*
X22052953Y-23297244D01*
X21892012Y-22908698D01*
X21658363Y-22559017D01*
X21599346Y-22500000D01*
X49153928Y-22500000D01*
X49153928Y-25500000D01*
X49166188Y-25624482D01*
X49202498Y-25744180D01*
X49261463Y-25854494D01*
X49340815Y-25951185D01*
X49437506Y-26030537D01*
X49547820Y-26089502D01*
X49667518Y-26125812D01*
X49792000Y-26138072D01*
X52792000Y-26138072D01*
X52916482Y-26125812D01*
X53036180Y-26089502D01*
X53146494Y-26030537D01*
X53243185Y-25951185D01*
X53322537Y-25854494D01*
X53381502Y-25744180D01*
X53417812Y-25624482D01*
X53430072Y-25500000D01*
X53430072Y-22500000D01*
X53417812Y-22375518D01*
X53381502Y-22255820D01*
X53322537Y-22145506D01*
X53243185Y-22048815D01*
X53146494Y-21969463D01*
X53036180Y-21910498D01*
X52916482Y-21874188D01*
X52792000Y-21861928D01*
X49792000Y-21861928D01*
X49667518Y-21874188D01*
X49547820Y-21910498D01*
X49437506Y-21969463D01*
X49340815Y-22048815D01*
X49261463Y-22145506D01*
X49202498Y-22255820D01*
X49166188Y-22375518D01*
X49153928Y-22500000D01*
X21599346Y-22500000D01*
X21360983Y-22261637D01*
X21011302Y-22027988D01*
X20622756Y-21867047D01*
X20210279Y-21785000D01*
X19789721Y-21785000D01*
X19377244Y-21867047D01*
X18988698Y-22027988D01*
X18639017Y-22261637D01*
X18341637Y-22559017D01*
X18107988Y-22908698D01*
X17947047Y-23297244D01*
X17865000Y-23709721D01*
X15660000Y-23709721D01*
X15660000Y-22215906D01*
X15662468Y-22210148D01*
X15690668Y-22077472D01*
X15691683Y-22067821D01*
X15723123Y-21747171D01*
X15796549Y-21503974D01*
X15915814Y-21279669D01*
X16076375Y-21082801D01*
X16272117Y-20920869D01*
X16495580Y-20800043D01*
X16738264Y-20724920D01*
X17058684Y-20691242D01*
X17077592Y-20687361D01*
X17137385Y-20681286D01*
X17207003Y-20660000D01*
X23967581Y-20660000D01*
X24000000Y-20663193D01*
X24032419Y-20660000D01*
X24129383Y-20650450D01*
X24253793Y-20612710D01*
X24368450Y-20551425D01*
X24468948Y-20468948D01*
X24551425Y-20368450D01*
X24612710Y-20253793D01*
X24650450Y-20129383D01*
X24663193Y-20000000D01*
X24660000Y-19967581D01*
X24660000Y-15215906D01*
X24662468Y-15210148D01*
X24690668Y-15077472D01*
X24691683Y-15067821D01*
X24723123Y-14747171D01*
X24796549Y-14503974D01*
X24915814Y-14279669D01*
X25076375Y-14082801D01*
X25272117Y-13920869D01*
X25495580Y-13800043D01*
X25738264Y-13724920D01*
X25944169Y-13703278D01*
X25861506Y-13747463D01*
X25764815Y-13826815D01*
X25685463Y-13923506D01*
X25626498Y-14033820D01*
X25590188Y-14153518D01*
X25577928Y-14278000D01*
X25577928Y-16678000D01*
X25590188Y-16802482D01*
X25626498Y-16922180D01*
X25685463Y-17032494D01*
X25764815Y-17129185D01*
X25861506Y-17208537D01*
X25971820Y-17267502D01*
X26091518Y-17303812D01*
X26216000Y-17316072D01*
X28616000Y-17316072D01*
X28740482Y-17303812D01*
X28860180Y-17267502D01*
X28970494Y-17208537D01*
X29067185Y-17129185D01*
X29146537Y-17032494D01*
X29205502Y-16922180D01*
X29241812Y-16802482D01*
X29254072Y-16678000D01*
X29254072Y-16518000D01*
X31119928Y-16518000D01*
X31119928Y-19518000D01*
X31132188Y-19642482D01*
X31168498Y-19762180D01*
X31227463Y-19872494D01*
X31306815Y-19969185D01*
X31403506Y-20048537D01*
X31513820Y-20107502D01*
X31633518Y-20143812D01*
X31758000Y-20156072D01*
X34758000Y-20156072D01*
X34882482Y-20143812D01*
X35002180Y-20107502D01*
X35112494Y-20048537D01*
X35209185Y-19969185D01*
X35288537Y-19872494D01*
X35347502Y-19762180D01*
X35383812Y-19642482D01*
X35396072Y-19518000D01*
X35396072Y-19509653D01*
X37025952Y-19509653D01*
X37181962Y-19825214D01*
X37556745Y-20016020D01*
X37961551Y-20130044D01*
X38380824Y-20162902D01*
X38798451Y-20113334D01*
X39198383Y-19983243D01*
X39494038Y-19825214D01*
X39650048Y-19509653D01*
X38338000Y-18197605D01*
X37025952Y-19509653D01*
X35396072Y-19509653D01*
X35396072Y-18060824D01*
X36193098Y-18060824D01*
X36242666Y-18478451D01*
X36372757Y-18878383D01*
X36530786Y-19174038D01*
X36846347Y-19330048D01*
X38158395Y-18018000D01*
X38517605Y-18018000D01*
X39829653Y-19330048D01*
X40145214Y-19174038D01*
X40336020Y-18799255D01*
X40450044Y-18394449D01*
X40482902Y-17975176D01*
X40433334Y-17557549D01*
X40303243Y-17157617D01*
X40145214Y-16861962D01*
X39829653Y-16705952D01*
X38517605Y-18018000D01*
X38158395Y-18018000D01*
X36846347Y-16705952D01*
X36530786Y-16861962D01*
X36339980Y-17236745D01*
X36225956Y-17641551D01*
X36193098Y-18060824D01*
X35396072Y-18060824D01*
X35396072Y-16526347D01*
X37025952Y-16526347D01*
X38338000Y-17838395D01*
X39650048Y-16526347D01*
X39494038Y-16210786D01*
X39119255Y-16019980D01*
X38714449Y-15905956D01*
X38295176Y-15873098D01*
X37877549Y-15922666D01*
X37477617Y-16052757D01*
X37181962Y-16210786D01*
X37025952Y-16526347D01*
X35396072Y-16526347D01*
X35396072Y-16518000D01*
X35383812Y-16393518D01*
X35347502Y-16273820D01*
X35288537Y-16163506D01*
X35209185Y-16066815D01*
X35112494Y-15987463D01*
X35002180Y-15928498D01*
X34882482Y-15892188D01*
X34758000Y-15879928D01*
X31758000Y-15879928D01*
X31633518Y-15892188D01*
X31513820Y-15928498D01*
X31403506Y-15987463D01*
X31306815Y-16066815D01*
X31227463Y-16163506D01*
X31168498Y-16273820D01*
X31132188Y-16393518D01*
X31119928Y-16518000D01*
X29254072Y-16518000D01*
X29254072Y-15331268D01*
X42211000Y-15331268D01*
X42211000Y-15692732D01*
X42281518Y-16047250D01*
X42419844Y-16381199D01*
X42620662Y-16681744D01*
X42876256Y-16937338D01*
X43176801Y-17138156D01*
X43510750Y-17276482D01*
X43865268Y-17347000D01*
X44226732Y-17347000D01*
X44581250Y-17276482D01*
X44915199Y-17138156D01*
X45215744Y-16937338D01*
X45471338Y-16681744D01*
X45672156Y-16381199D01*
X45810482Y-16047250D01*
X45881000Y-15692732D01*
X45881000Y-15331268D01*
X45810482Y-14976750D01*
X45672156Y-14642801D01*
X45471338Y-14342256D01*
X45215744Y-14086662D01*
X44915199Y-13885844D01*
X44581250Y-13747518D01*
X44226732Y-13677000D01*
X43865268Y-13677000D01*
X43510750Y-13747518D01*
X43176801Y-13885844D01*
X42876256Y-14086662D01*
X42620662Y-14342256D01*
X42419844Y-14642801D01*
X42281518Y-14976750D01*
X42211000Y-15331268D01*
X29254072Y-15331268D01*
X29254072Y-14278000D01*
X29241812Y-14153518D01*
X29205502Y-14033820D01*
X29146537Y-13923506D01*
X29067185Y-13826815D01*
X28970494Y-13747463D01*
X28860180Y-13688498D01*
X28766235Y-13660000D01*
X45784094Y-13660000D01*
X45789852Y-13662468D01*
M02*
