G04 #@! TF.GenerationSoftware,KiCad,Pcbnew,(5.1.5)-3*
G04 #@! TF.CreationDate,2020-12-09T18:09:46+02:00*
G04 #@! TF.ProjectId,Single_tranzistor_AMP,53696e67-6c65-45f7-9472-616e7a697374,V1.0*
G04 #@! TF.SameCoordinates,Original*
G04 #@! TF.FileFunction,Copper,L1,Top*
G04 #@! TF.FilePolarity,Positive*
%FSLAX46Y46*%
G04 Gerber Fmt 4.6, Leading zero omitted, Abs format (unit mm)*
G04 Created by KiCad (PCBNEW (5.1.5)-3) date 2020-12-09 18:09:46*
%MOMM*%
%LPD*%
G04 APERTURE LIST*
%ADD10O,2.400000X2.400000*%
%ADD11R,2.400000X2.400000*%
%ADD12R,3.000000X3.000000*%
%ADD13C,3.000000*%
%ADD14R,1.000000X1.000000*%
%ADD15O,1.000000X1.000000*%
%ADD16C,0.100000*%
%ADD17C,0.500000*%
%ADD18C,0.750000*%
%ADD19C,0.254000*%
G04 APERTURE END LIST*
D10*
X26688000Y-38084000D03*
D11*
X44688000Y-38084000D03*
X27416000Y-15478000D03*
D10*
X27416000Y-33478000D03*
D11*
X44046000Y-33512000D03*
D10*
X44046000Y-15512000D03*
D12*
X20000000Y-29000000D03*
D13*
X20000000Y-23920000D03*
X51292000Y-29080000D03*
D12*
X51292000Y-24000000D03*
D14*
X34782000Y-27670000D03*
D15*
X36052000Y-27670000D03*
X37322000Y-27670000D03*
G04 #@! TA.AperFunction,SMDPad,CuDef*
D16*
G36*
X35276142Y-22586174D02*
G01*
X35299803Y-22589684D01*
X35323007Y-22595496D01*
X35345529Y-22603554D01*
X35367153Y-22613782D01*
X35387670Y-22626079D01*
X35406883Y-22640329D01*
X35424607Y-22656393D01*
X35440671Y-22674117D01*
X35454921Y-22693330D01*
X35467218Y-22713847D01*
X35477446Y-22735471D01*
X35485504Y-22757993D01*
X35491316Y-22781197D01*
X35494826Y-22804858D01*
X35496000Y-22828750D01*
X35496000Y-23316250D01*
X35494826Y-23340142D01*
X35491316Y-23363803D01*
X35485504Y-23387007D01*
X35477446Y-23409529D01*
X35467218Y-23431153D01*
X35454921Y-23451670D01*
X35440671Y-23470883D01*
X35424607Y-23488607D01*
X35406883Y-23504671D01*
X35387670Y-23518921D01*
X35367153Y-23531218D01*
X35345529Y-23541446D01*
X35323007Y-23549504D01*
X35299803Y-23555316D01*
X35276142Y-23558826D01*
X35252250Y-23560000D01*
X34339750Y-23560000D01*
X34315858Y-23558826D01*
X34292197Y-23555316D01*
X34268993Y-23549504D01*
X34246471Y-23541446D01*
X34224847Y-23531218D01*
X34204330Y-23518921D01*
X34185117Y-23504671D01*
X34167393Y-23488607D01*
X34151329Y-23470883D01*
X34137079Y-23451670D01*
X34124782Y-23431153D01*
X34114554Y-23409529D01*
X34106496Y-23387007D01*
X34100684Y-23363803D01*
X34097174Y-23340142D01*
X34096000Y-23316250D01*
X34096000Y-22828750D01*
X34097174Y-22804858D01*
X34100684Y-22781197D01*
X34106496Y-22757993D01*
X34114554Y-22735471D01*
X34124782Y-22713847D01*
X34137079Y-22693330D01*
X34151329Y-22674117D01*
X34167393Y-22656393D01*
X34185117Y-22640329D01*
X34204330Y-22626079D01*
X34224847Y-22613782D01*
X34246471Y-22603554D01*
X34268993Y-22595496D01*
X34292197Y-22589684D01*
X34315858Y-22586174D01*
X34339750Y-22585000D01*
X35252250Y-22585000D01*
X35276142Y-22586174D01*
G37*
G04 #@! TD.AperFunction*
G04 #@! TA.AperFunction,SMDPad,CuDef*
G36*
X35276142Y-24461174D02*
G01*
X35299803Y-24464684D01*
X35323007Y-24470496D01*
X35345529Y-24478554D01*
X35367153Y-24488782D01*
X35387670Y-24501079D01*
X35406883Y-24515329D01*
X35424607Y-24531393D01*
X35440671Y-24549117D01*
X35454921Y-24568330D01*
X35467218Y-24588847D01*
X35477446Y-24610471D01*
X35485504Y-24632993D01*
X35491316Y-24656197D01*
X35494826Y-24679858D01*
X35496000Y-24703750D01*
X35496000Y-25191250D01*
X35494826Y-25215142D01*
X35491316Y-25238803D01*
X35485504Y-25262007D01*
X35477446Y-25284529D01*
X35467218Y-25306153D01*
X35454921Y-25326670D01*
X35440671Y-25345883D01*
X35424607Y-25363607D01*
X35406883Y-25379671D01*
X35387670Y-25393921D01*
X35367153Y-25406218D01*
X35345529Y-25416446D01*
X35323007Y-25424504D01*
X35299803Y-25430316D01*
X35276142Y-25433826D01*
X35252250Y-25435000D01*
X34339750Y-25435000D01*
X34315858Y-25433826D01*
X34292197Y-25430316D01*
X34268993Y-25424504D01*
X34246471Y-25416446D01*
X34224847Y-25406218D01*
X34204330Y-25393921D01*
X34185117Y-25379671D01*
X34167393Y-25363607D01*
X34151329Y-25345883D01*
X34137079Y-25326670D01*
X34124782Y-25306153D01*
X34114554Y-25284529D01*
X34106496Y-25262007D01*
X34100684Y-25238803D01*
X34097174Y-25215142D01*
X34096000Y-25191250D01*
X34096000Y-24703750D01*
X34097174Y-24679858D01*
X34100684Y-24656197D01*
X34106496Y-24632993D01*
X34114554Y-24610471D01*
X34124782Y-24588847D01*
X34137079Y-24568330D01*
X34151329Y-24549117D01*
X34167393Y-24531393D01*
X34185117Y-24515329D01*
X34204330Y-24501079D01*
X34224847Y-24488782D01*
X34246471Y-24478554D01*
X34268993Y-24470496D01*
X34292197Y-24464684D01*
X34315858Y-24461174D01*
X34339750Y-24460000D01*
X35252250Y-24460000D01*
X35276142Y-24461174D01*
G37*
G04 #@! TD.AperFunction*
G04 #@! TA.AperFunction,SMDPad,CuDef*
G36*
X32666642Y-30019174D02*
G01*
X32690303Y-30022684D01*
X32713507Y-30028496D01*
X32736029Y-30036554D01*
X32757653Y-30046782D01*
X32778170Y-30059079D01*
X32797383Y-30073329D01*
X32815107Y-30089393D01*
X32831171Y-30107117D01*
X32845421Y-30126330D01*
X32857718Y-30146847D01*
X32867946Y-30168471D01*
X32876004Y-30190993D01*
X32881816Y-30214197D01*
X32885326Y-30237858D01*
X32886500Y-30261750D01*
X32886500Y-31174250D01*
X32885326Y-31198142D01*
X32881816Y-31221803D01*
X32876004Y-31245007D01*
X32867946Y-31267529D01*
X32857718Y-31289153D01*
X32845421Y-31309670D01*
X32831171Y-31328883D01*
X32815107Y-31346607D01*
X32797383Y-31362671D01*
X32778170Y-31376921D01*
X32757653Y-31389218D01*
X32736029Y-31399446D01*
X32713507Y-31407504D01*
X32690303Y-31413316D01*
X32666642Y-31416826D01*
X32642750Y-31418000D01*
X32155250Y-31418000D01*
X32131358Y-31416826D01*
X32107697Y-31413316D01*
X32084493Y-31407504D01*
X32061971Y-31399446D01*
X32040347Y-31389218D01*
X32019830Y-31376921D01*
X32000617Y-31362671D01*
X31982893Y-31346607D01*
X31966829Y-31328883D01*
X31952579Y-31309670D01*
X31940282Y-31289153D01*
X31930054Y-31267529D01*
X31921996Y-31245007D01*
X31916184Y-31221803D01*
X31912674Y-31198142D01*
X31911500Y-31174250D01*
X31911500Y-30261750D01*
X31912674Y-30237858D01*
X31916184Y-30214197D01*
X31921996Y-30190993D01*
X31930054Y-30168471D01*
X31940282Y-30146847D01*
X31952579Y-30126330D01*
X31966829Y-30107117D01*
X31982893Y-30089393D01*
X32000617Y-30073329D01*
X32019830Y-30059079D01*
X32040347Y-30046782D01*
X32061971Y-30036554D01*
X32084493Y-30028496D01*
X32107697Y-30022684D01*
X32131358Y-30019174D01*
X32155250Y-30018000D01*
X32642750Y-30018000D01*
X32666642Y-30019174D01*
G37*
G04 #@! TD.AperFunction*
G04 #@! TA.AperFunction,SMDPad,CuDef*
G36*
X34541642Y-30019174D02*
G01*
X34565303Y-30022684D01*
X34588507Y-30028496D01*
X34611029Y-30036554D01*
X34632653Y-30046782D01*
X34653170Y-30059079D01*
X34672383Y-30073329D01*
X34690107Y-30089393D01*
X34706171Y-30107117D01*
X34720421Y-30126330D01*
X34732718Y-30146847D01*
X34742946Y-30168471D01*
X34751004Y-30190993D01*
X34756816Y-30214197D01*
X34760326Y-30237858D01*
X34761500Y-30261750D01*
X34761500Y-31174250D01*
X34760326Y-31198142D01*
X34756816Y-31221803D01*
X34751004Y-31245007D01*
X34742946Y-31267529D01*
X34732718Y-31289153D01*
X34720421Y-31309670D01*
X34706171Y-31328883D01*
X34690107Y-31346607D01*
X34672383Y-31362671D01*
X34653170Y-31376921D01*
X34632653Y-31389218D01*
X34611029Y-31399446D01*
X34588507Y-31407504D01*
X34565303Y-31413316D01*
X34541642Y-31416826D01*
X34517750Y-31418000D01*
X34030250Y-31418000D01*
X34006358Y-31416826D01*
X33982697Y-31413316D01*
X33959493Y-31407504D01*
X33936971Y-31399446D01*
X33915347Y-31389218D01*
X33894830Y-31376921D01*
X33875617Y-31362671D01*
X33857893Y-31346607D01*
X33841829Y-31328883D01*
X33827579Y-31309670D01*
X33815282Y-31289153D01*
X33805054Y-31267529D01*
X33796996Y-31245007D01*
X33791184Y-31221803D01*
X33787674Y-31198142D01*
X33786500Y-31174250D01*
X33786500Y-30261750D01*
X33787674Y-30237858D01*
X33791184Y-30214197D01*
X33796996Y-30190993D01*
X33805054Y-30168471D01*
X33815282Y-30146847D01*
X33827579Y-30126330D01*
X33841829Y-30107117D01*
X33857893Y-30089393D01*
X33875617Y-30073329D01*
X33894830Y-30059079D01*
X33915347Y-30046782D01*
X33936971Y-30036554D01*
X33959493Y-30028496D01*
X33982697Y-30022684D01*
X34006358Y-30019174D01*
X34030250Y-30018000D01*
X34517750Y-30018000D01*
X34541642Y-30019174D01*
G37*
G04 #@! TD.AperFunction*
G04 #@! TA.AperFunction,SMDPad,CuDef*
G36*
X37676142Y-22586174D02*
G01*
X37699803Y-22589684D01*
X37723007Y-22595496D01*
X37745529Y-22603554D01*
X37767153Y-22613782D01*
X37787670Y-22626079D01*
X37806883Y-22640329D01*
X37824607Y-22656393D01*
X37840671Y-22674117D01*
X37854921Y-22693330D01*
X37867218Y-22713847D01*
X37877446Y-22735471D01*
X37885504Y-22757993D01*
X37891316Y-22781197D01*
X37894826Y-22804858D01*
X37896000Y-22828750D01*
X37896000Y-23316250D01*
X37894826Y-23340142D01*
X37891316Y-23363803D01*
X37885504Y-23387007D01*
X37877446Y-23409529D01*
X37867218Y-23431153D01*
X37854921Y-23451670D01*
X37840671Y-23470883D01*
X37824607Y-23488607D01*
X37806883Y-23504671D01*
X37787670Y-23518921D01*
X37767153Y-23531218D01*
X37745529Y-23541446D01*
X37723007Y-23549504D01*
X37699803Y-23555316D01*
X37676142Y-23558826D01*
X37652250Y-23560000D01*
X36739750Y-23560000D01*
X36715858Y-23558826D01*
X36692197Y-23555316D01*
X36668993Y-23549504D01*
X36646471Y-23541446D01*
X36624847Y-23531218D01*
X36604330Y-23518921D01*
X36585117Y-23504671D01*
X36567393Y-23488607D01*
X36551329Y-23470883D01*
X36537079Y-23451670D01*
X36524782Y-23431153D01*
X36514554Y-23409529D01*
X36506496Y-23387007D01*
X36500684Y-23363803D01*
X36497174Y-23340142D01*
X36496000Y-23316250D01*
X36496000Y-22828750D01*
X36497174Y-22804858D01*
X36500684Y-22781197D01*
X36506496Y-22757993D01*
X36514554Y-22735471D01*
X36524782Y-22713847D01*
X36537079Y-22693330D01*
X36551329Y-22674117D01*
X36567393Y-22656393D01*
X36585117Y-22640329D01*
X36604330Y-22626079D01*
X36624847Y-22613782D01*
X36646471Y-22603554D01*
X36668993Y-22595496D01*
X36692197Y-22589684D01*
X36715858Y-22586174D01*
X36739750Y-22585000D01*
X37652250Y-22585000D01*
X37676142Y-22586174D01*
G37*
G04 #@! TD.AperFunction*
G04 #@! TA.AperFunction,SMDPad,CuDef*
G36*
X37676142Y-24461174D02*
G01*
X37699803Y-24464684D01*
X37723007Y-24470496D01*
X37745529Y-24478554D01*
X37767153Y-24488782D01*
X37787670Y-24501079D01*
X37806883Y-24515329D01*
X37824607Y-24531393D01*
X37840671Y-24549117D01*
X37854921Y-24568330D01*
X37867218Y-24588847D01*
X37877446Y-24610471D01*
X37885504Y-24632993D01*
X37891316Y-24656197D01*
X37894826Y-24679858D01*
X37896000Y-24703750D01*
X37896000Y-25191250D01*
X37894826Y-25215142D01*
X37891316Y-25238803D01*
X37885504Y-25262007D01*
X37877446Y-25284529D01*
X37867218Y-25306153D01*
X37854921Y-25326670D01*
X37840671Y-25345883D01*
X37824607Y-25363607D01*
X37806883Y-25379671D01*
X37787670Y-25393921D01*
X37767153Y-25406218D01*
X37745529Y-25416446D01*
X37723007Y-25424504D01*
X37699803Y-25430316D01*
X37676142Y-25433826D01*
X37652250Y-25435000D01*
X36739750Y-25435000D01*
X36715858Y-25433826D01*
X36692197Y-25430316D01*
X36668993Y-25424504D01*
X36646471Y-25416446D01*
X36624847Y-25406218D01*
X36604330Y-25393921D01*
X36585117Y-25379671D01*
X36567393Y-25363607D01*
X36551329Y-25345883D01*
X36537079Y-25326670D01*
X36524782Y-25306153D01*
X36514554Y-25284529D01*
X36506496Y-25262007D01*
X36500684Y-25238803D01*
X36497174Y-25215142D01*
X36496000Y-25191250D01*
X36496000Y-24703750D01*
X36497174Y-24679858D01*
X36500684Y-24656197D01*
X36506496Y-24632993D01*
X36514554Y-24610471D01*
X36524782Y-24588847D01*
X36537079Y-24568330D01*
X36551329Y-24549117D01*
X36567393Y-24531393D01*
X36585117Y-24515329D01*
X36604330Y-24501079D01*
X36624847Y-24488782D01*
X36646471Y-24478554D01*
X36668993Y-24470496D01*
X36692197Y-24464684D01*
X36715858Y-24461174D01*
X36739750Y-24460000D01*
X37652250Y-24460000D01*
X37676142Y-24461174D01*
G37*
G04 #@! TD.AperFunction*
G04 #@! TA.AperFunction,SMDPad,CuDef*
G36*
X37282691Y-30244053D02*
G01*
X37303926Y-30247203D01*
X37324750Y-30252419D01*
X37344962Y-30259651D01*
X37364368Y-30268830D01*
X37382781Y-30279866D01*
X37400024Y-30292654D01*
X37415930Y-30307070D01*
X37430346Y-30322976D01*
X37443134Y-30340219D01*
X37454170Y-30358632D01*
X37463349Y-30378038D01*
X37470581Y-30398250D01*
X37475797Y-30419074D01*
X37478947Y-30440309D01*
X37480000Y-30461750D01*
X37480000Y-30974250D01*
X37478947Y-30995691D01*
X37475797Y-31016926D01*
X37470581Y-31037750D01*
X37463349Y-31057962D01*
X37454170Y-31077368D01*
X37443134Y-31095781D01*
X37430346Y-31113024D01*
X37415930Y-31128930D01*
X37400024Y-31143346D01*
X37382781Y-31156134D01*
X37364368Y-31167170D01*
X37344962Y-31176349D01*
X37324750Y-31183581D01*
X37303926Y-31188797D01*
X37282691Y-31191947D01*
X37261250Y-31193000D01*
X36823750Y-31193000D01*
X36802309Y-31191947D01*
X36781074Y-31188797D01*
X36760250Y-31183581D01*
X36740038Y-31176349D01*
X36720632Y-31167170D01*
X36702219Y-31156134D01*
X36684976Y-31143346D01*
X36669070Y-31128930D01*
X36654654Y-31113024D01*
X36641866Y-31095781D01*
X36630830Y-31077368D01*
X36621651Y-31057962D01*
X36614419Y-31037750D01*
X36609203Y-31016926D01*
X36606053Y-30995691D01*
X36605000Y-30974250D01*
X36605000Y-30461750D01*
X36606053Y-30440309D01*
X36609203Y-30419074D01*
X36614419Y-30398250D01*
X36621651Y-30378038D01*
X36630830Y-30358632D01*
X36641866Y-30340219D01*
X36654654Y-30322976D01*
X36669070Y-30307070D01*
X36684976Y-30292654D01*
X36702219Y-30279866D01*
X36720632Y-30268830D01*
X36740038Y-30259651D01*
X36760250Y-30252419D01*
X36781074Y-30247203D01*
X36802309Y-30244053D01*
X36823750Y-30243000D01*
X37261250Y-30243000D01*
X37282691Y-30244053D01*
G37*
G04 #@! TD.AperFunction*
G04 #@! TA.AperFunction,SMDPad,CuDef*
G36*
X38857691Y-30244053D02*
G01*
X38878926Y-30247203D01*
X38899750Y-30252419D01*
X38919962Y-30259651D01*
X38939368Y-30268830D01*
X38957781Y-30279866D01*
X38975024Y-30292654D01*
X38990930Y-30307070D01*
X39005346Y-30322976D01*
X39018134Y-30340219D01*
X39029170Y-30358632D01*
X39038349Y-30378038D01*
X39045581Y-30398250D01*
X39050797Y-30419074D01*
X39053947Y-30440309D01*
X39055000Y-30461750D01*
X39055000Y-30974250D01*
X39053947Y-30995691D01*
X39050797Y-31016926D01*
X39045581Y-31037750D01*
X39038349Y-31057962D01*
X39029170Y-31077368D01*
X39018134Y-31095781D01*
X39005346Y-31113024D01*
X38990930Y-31128930D01*
X38975024Y-31143346D01*
X38957781Y-31156134D01*
X38939368Y-31167170D01*
X38919962Y-31176349D01*
X38899750Y-31183581D01*
X38878926Y-31188797D01*
X38857691Y-31191947D01*
X38836250Y-31193000D01*
X38398750Y-31193000D01*
X38377309Y-31191947D01*
X38356074Y-31188797D01*
X38335250Y-31183581D01*
X38315038Y-31176349D01*
X38295632Y-31167170D01*
X38277219Y-31156134D01*
X38259976Y-31143346D01*
X38244070Y-31128930D01*
X38229654Y-31113024D01*
X38216866Y-31095781D01*
X38205830Y-31077368D01*
X38196651Y-31057962D01*
X38189419Y-31037750D01*
X38184203Y-31016926D01*
X38181053Y-30995691D01*
X38180000Y-30974250D01*
X38180000Y-30461750D01*
X38181053Y-30440309D01*
X38184203Y-30419074D01*
X38189419Y-30398250D01*
X38196651Y-30378038D01*
X38205830Y-30358632D01*
X38216866Y-30340219D01*
X38229654Y-30322976D01*
X38244070Y-30307070D01*
X38259976Y-30292654D01*
X38277219Y-30279866D01*
X38295632Y-30268830D01*
X38315038Y-30259651D01*
X38335250Y-30252419D01*
X38356074Y-30247203D01*
X38377309Y-30244053D01*
X38398750Y-30243000D01*
X38836250Y-30243000D01*
X38857691Y-30244053D01*
G37*
G04 #@! TD.AperFunction*
G04 #@! TA.AperFunction,SMDPad,CuDef*
G36*
X37160142Y-32051174D02*
G01*
X37183803Y-32054684D01*
X37207007Y-32060496D01*
X37229529Y-32068554D01*
X37251153Y-32078782D01*
X37271670Y-32091079D01*
X37290883Y-32105329D01*
X37308607Y-32121393D01*
X37324671Y-32139117D01*
X37338921Y-32158330D01*
X37351218Y-32178847D01*
X37361446Y-32200471D01*
X37369504Y-32222993D01*
X37375316Y-32246197D01*
X37378826Y-32269858D01*
X37380000Y-32293750D01*
X37380000Y-33206250D01*
X37378826Y-33230142D01*
X37375316Y-33253803D01*
X37369504Y-33277007D01*
X37361446Y-33299529D01*
X37351218Y-33321153D01*
X37338921Y-33341670D01*
X37324671Y-33360883D01*
X37308607Y-33378607D01*
X37290883Y-33394671D01*
X37271670Y-33408921D01*
X37251153Y-33421218D01*
X37229529Y-33431446D01*
X37207007Y-33439504D01*
X37183803Y-33445316D01*
X37160142Y-33448826D01*
X37136250Y-33450000D01*
X36648750Y-33450000D01*
X36624858Y-33448826D01*
X36601197Y-33445316D01*
X36577993Y-33439504D01*
X36555471Y-33431446D01*
X36533847Y-33421218D01*
X36513330Y-33408921D01*
X36494117Y-33394671D01*
X36476393Y-33378607D01*
X36460329Y-33360883D01*
X36446079Y-33341670D01*
X36433782Y-33321153D01*
X36423554Y-33299529D01*
X36415496Y-33277007D01*
X36409684Y-33253803D01*
X36406174Y-33230142D01*
X36405000Y-33206250D01*
X36405000Y-32293750D01*
X36406174Y-32269858D01*
X36409684Y-32246197D01*
X36415496Y-32222993D01*
X36423554Y-32200471D01*
X36433782Y-32178847D01*
X36446079Y-32158330D01*
X36460329Y-32139117D01*
X36476393Y-32121393D01*
X36494117Y-32105329D01*
X36513330Y-32091079D01*
X36533847Y-32078782D01*
X36555471Y-32068554D01*
X36577993Y-32060496D01*
X36601197Y-32054684D01*
X36624858Y-32051174D01*
X36648750Y-32050000D01*
X37136250Y-32050000D01*
X37160142Y-32051174D01*
G37*
G04 #@! TD.AperFunction*
G04 #@! TA.AperFunction,SMDPad,CuDef*
G36*
X39035142Y-32051174D02*
G01*
X39058803Y-32054684D01*
X39082007Y-32060496D01*
X39104529Y-32068554D01*
X39126153Y-32078782D01*
X39146670Y-32091079D01*
X39165883Y-32105329D01*
X39183607Y-32121393D01*
X39199671Y-32139117D01*
X39213921Y-32158330D01*
X39226218Y-32178847D01*
X39236446Y-32200471D01*
X39244504Y-32222993D01*
X39250316Y-32246197D01*
X39253826Y-32269858D01*
X39255000Y-32293750D01*
X39255000Y-33206250D01*
X39253826Y-33230142D01*
X39250316Y-33253803D01*
X39244504Y-33277007D01*
X39236446Y-33299529D01*
X39226218Y-33321153D01*
X39213921Y-33341670D01*
X39199671Y-33360883D01*
X39183607Y-33378607D01*
X39165883Y-33394671D01*
X39146670Y-33408921D01*
X39126153Y-33421218D01*
X39104529Y-33431446D01*
X39082007Y-33439504D01*
X39058803Y-33445316D01*
X39035142Y-33448826D01*
X39011250Y-33450000D01*
X38523750Y-33450000D01*
X38499858Y-33448826D01*
X38476197Y-33445316D01*
X38452993Y-33439504D01*
X38430471Y-33431446D01*
X38408847Y-33421218D01*
X38388330Y-33408921D01*
X38369117Y-33394671D01*
X38351393Y-33378607D01*
X38335329Y-33360883D01*
X38321079Y-33341670D01*
X38308782Y-33321153D01*
X38298554Y-33299529D01*
X38290496Y-33277007D01*
X38284684Y-33253803D01*
X38281174Y-33230142D01*
X38280000Y-33206250D01*
X38280000Y-32293750D01*
X38281174Y-32269858D01*
X38284684Y-32246197D01*
X38290496Y-32222993D01*
X38298554Y-32200471D01*
X38308782Y-32178847D01*
X38321079Y-32158330D01*
X38335329Y-32139117D01*
X38351393Y-32121393D01*
X38369117Y-32105329D01*
X38388330Y-32091079D01*
X38408847Y-32078782D01*
X38430471Y-32068554D01*
X38452993Y-32060496D01*
X38476197Y-32054684D01*
X38499858Y-32051174D01*
X38523750Y-32050000D01*
X39011250Y-32050000D01*
X39035142Y-32051174D01*
G37*
G04 #@! TD.AperFunction*
D12*
X33258000Y-18018000D03*
D13*
X38338000Y-18018000D03*
D17*
X27416000Y-17255765D02*
X27500000Y-17339765D01*
X27416000Y-15478000D02*
X27416000Y-17255765D01*
X27500000Y-17339765D02*
X27500000Y-20500000D01*
X27500000Y-20500000D02*
X24000000Y-24000000D01*
X24000000Y-24000000D02*
X20000000Y-24000000D01*
X34796000Y-24947500D02*
X34796000Y-27696000D01*
X34796000Y-27696000D02*
X34800000Y-27700000D01*
X34782000Y-27670000D02*
X34782000Y-30218000D01*
X34782000Y-30218000D02*
X34300000Y-30700000D01*
X34274000Y-30718000D02*
X34274000Y-32326000D01*
X34274000Y-32326000D02*
X33100000Y-33500000D01*
X33100000Y-33500000D02*
X27200000Y-33500000D01*
X27200000Y-33500000D02*
X27300000Y-33500000D01*
X38617500Y-31193000D02*
X38800000Y-31375500D01*
X38617500Y-30718000D02*
X38617500Y-31193000D01*
X38800000Y-31375500D02*
X38800000Y-32900000D01*
X38800000Y-32900000D02*
X38800000Y-36100000D01*
X38800000Y-36100000D02*
X40800000Y-38100000D01*
X40800000Y-38100000D02*
X44700000Y-38100000D01*
X44046000Y-31812000D02*
X39300000Y-27066000D01*
X44046000Y-33512000D02*
X44046000Y-31812000D01*
X39300000Y-26000000D02*
X38300000Y-25000000D01*
X38300000Y-25000000D02*
X37300000Y-25000000D01*
X36100000Y-26900000D02*
X36100000Y-27600000D01*
X39300000Y-26500000D02*
X39300000Y-26000000D01*
X39300000Y-27066000D02*
X39300000Y-26500000D01*
X36052000Y-26962894D02*
X37014894Y-26000000D01*
X36052000Y-27670000D02*
X36052000Y-26962894D01*
X37014894Y-26000000D02*
X37014894Y-25014894D01*
X44046000Y-17209056D02*
X44100000Y-17263056D01*
X44046000Y-15512000D02*
X44046000Y-17209056D01*
X44100000Y-17263056D02*
X44100000Y-22600000D01*
X44100000Y-22600000D02*
X44100000Y-23200000D01*
X44100000Y-23200000D02*
X44900000Y-24000000D01*
X44900000Y-24000000D02*
X51100000Y-24000000D01*
X37322000Y-27670000D02*
X37322000Y-28978000D01*
X37322000Y-28978000D02*
X37000000Y-29300000D01*
X37000000Y-29300000D02*
X37000000Y-30800000D01*
D18*
X33258000Y-20268000D02*
X34800000Y-21810000D01*
X33258000Y-18018000D02*
X33258000Y-20268000D01*
X34800000Y-21810000D02*
X34800000Y-23100000D01*
X34800000Y-23100000D02*
X37300000Y-23100000D01*
D19*
G36*
X45789852Y-13662468D02*
G01*
X45922528Y-13690668D01*
X45932179Y-13691683D01*
X46252829Y-13723123D01*
X46496026Y-13796549D01*
X46720331Y-13915814D01*
X46917199Y-14076375D01*
X47079131Y-14272117D01*
X47199957Y-14495580D01*
X47275080Y-14738264D01*
X47308758Y-15058684D01*
X47312639Y-15077592D01*
X47318714Y-15137385D01*
X47340001Y-15207006D01*
X47340000Y-19967581D01*
X47336807Y-20000000D01*
X47349550Y-20129383D01*
X47387290Y-20253793D01*
X47448575Y-20368450D01*
X47506149Y-20438604D01*
X47531052Y-20468948D01*
X47631550Y-20551425D01*
X47746207Y-20612710D01*
X47870617Y-20650450D01*
X48000000Y-20663193D01*
X48032419Y-20660000D01*
X53784094Y-20660000D01*
X53789852Y-20662468D01*
X53922528Y-20690668D01*
X53932179Y-20691683D01*
X54252829Y-20723123D01*
X54496026Y-20796549D01*
X54720331Y-20915814D01*
X54917199Y-21076375D01*
X55079131Y-21272117D01*
X55199957Y-21495580D01*
X55275080Y-21738264D01*
X55308758Y-22058684D01*
X55312639Y-22077592D01*
X55318714Y-22137385D01*
X55340001Y-22207006D01*
X55340000Y-30784094D01*
X55337532Y-30789852D01*
X55309332Y-30922528D01*
X55308317Y-30932179D01*
X55276877Y-31252831D01*
X55203451Y-31496028D01*
X55084185Y-31720333D01*
X54923625Y-31917198D01*
X54727881Y-32079132D01*
X54504416Y-32199959D01*
X54261737Y-32275080D01*
X53941315Y-32308758D01*
X53922407Y-32312639D01*
X53862615Y-32318714D01*
X53792997Y-32340000D01*
X47032419Y-32340000D01*
X47000000Y-32336807D01*
X46967581Y-32340000D01*
X46870617Y-32349550D01*
X46746207Y-32387290D01*
X46631550Y-32448575D01*
X46531052Y-32531052D01*
X46448575Y-32631550D01*
X46387290Y-32746207D01*
X46349550Y-32870617D01*
X46336807Y-33000000D01*
X46340001Y-33032429D01*
X46340001Y-36433809D01*
X46339185Y-36432815D01*
X46242494Y-36353463D01*
X46132180Y-36294498D01*
X46012482Y-36258188D01*
X45888000Y-36245928D01*
X43488000Y-36245928D01*
X43363518Y-36258188D01*
X43243820Y-36294498D01*
X43133506Y-36353463D01*
X43036815Y-36432815D01*
X42957463Y-36529506D01*
X42898498Y-36639820D01*
X42862188Y-36759518D01*
X42849928Y-36884000D01*
X42849928Y-37215000D01*
X41166579Y-37215000D01*
X39685000Y-35733422D01*
X39685000Y-33768614D01*
X39744458Y-33696164D01*
X39825947Y-33543709D01*
X39876128Y-33378285D01*
X39893072Y-33206250D01*
X39893072Y-32293750D01*
X39876128Y-32121715D01*
X39825947Y-31956291D01*
X39744458Y-31803836D01*
X39685000Y-31731386D01*
X39685000Y-31418969D01*
X39689281Y-31375500D01*
X39685000Y-31332031D01*
X39685000Y-31332023D01*
X39672195Y-31202010D01*
X39665210Y-31178983D01*
X39676608Y-31141408D01*
X39693072Y-30974250D01*
X39693072Y-30461750D01*
X39676608Y-30294592D01*
X39627850Y-30133858D01*
X39548671Y-29985725D01*
X39442115Y-29855885D01*
X39312275Y-29749329D01*
X39164142Y-29670150D01*
X39003408Y-29621392D01*
X38836250Y-29604928D01*
X38398750Y-29604928D01*
X38231592Y-29621392D01*
X38070858Y-29670150D01*
X37922725Y-29749329D01*
X37885000Y-29780289D01*
X37885000Y-29666578D01*
X37917044Y-29634534D01*
X37950817Y-29606817D01*
X38061411Y-29472059D01*
X38143589Y-29318313D01*
X38194195Y-29151490D01*
X38207000Y-29021477D01*
X38207000Y-29021469D01*
X38211281Y-28978000D01*
X38207000Y-28934531D01*
X38207000Y-28388450D01*
X38327824Y-28207624D01*
X38413383Y-28001067D01*
X38457000Y-27781788D01*
X38457000Y-27558212D01*
X38413383Y-27338933D01*
X38327824Y-27132376D01*
X38203612Y-26946480D01*
X38045520Y-26788388D01*
X37859624Y-26664176D01*
X37676831Y-26588460D01*
X37684910Y-26578617D01*
X37754305Y-26494059D01*
X37774368Y-26456523D01*
X37836483Y-26340313D01*
X37887089Y-26173490D01*
X37899894Y-26043477D01*
X37899894Y-26043469D01*
X37900937Y-26032876D01*
X37989709Y-26005947D01*
X38031846Y-25983424D01*
X38415000Y-26366579D01*
X38415000Y-27022531D01*
X38410719Y-27066000D01*
X38415000Y-27109469D01*
X38415000Y-27109476D01*
X38427805Y-27239489D01*
X38478411Y-27406312D01*
X38560589Y-27560058D01*
X38671183Y-27694817D01*
X38704956Y-27722534D01*
X42680923Y-31698502D01*
X42601820Y-31722498D01*
X42491506Y-31781463D01*
X42394815Y-31860815D01*
X42315463Y-31957506D01*
X42256498Y-32067820D01*
X42220188Y-32187518D01*
X42207928Y-32312000D01*
X42207928Y-34712000D01*
X42220188Y-34836482D01*
X42256498Y-34956180D01*
X42315463Y-35066494D01*
X42394815Y-35163185D01*
X42491506Y-35242537D01*
X42601820Y-35301502D01*
X42721518Y-35337812D01*
X42846000Y-35350072D01*
X45246000Y-35350072D01*
X45370482Y-35337812D01*
X45490180Y-35301502D01*
X45600494Y-35242537D01*
X45697185Y-35163185D01*
X45776537Y-35066494D01*
X45835502Y-34956180D01*
X45871812Y-34836482D01*
X45884072Y-34712000D01*
X45884072Y-32312000D01*
X45871812Y-32187518D01*
X45835502Y-32067820D01*
X45776537Y-31957506D01*
X45697185Y-31860815D01*
X45600494Y-31781463D01*
X45490180Y-31722498D01*
X45370482Y-31686188D01*
X45246000Y-31673928D01*
X44921683Y-31673928D01*
X44918195Y-31638510D01*
X44908841Y-31607673D01*
X44867589Y-31471686D01*
X44785411Y-31317941D01*
X44702532Y-31216953D01*
X44702530Y-31216951D01*
X44674817Y-31183183D01*
X44641049Y-31155470D01*
X44057232Y-30571653D01*
X49979952Y-30571653D01*
X50135962Y-30887214D01*
X50510745Y-31078020D01*
X50915551Y-31192044D01*
X51334824Y-31224902D01*
X51752451Y-31175334D01*
X52152383Y-31045243D01*
X52448038Y-30887214D01*
X52604048Y-30571653D01*
X51292000Y-29259605D01*
X49979952Y-30571653D01*
X44057232Y-30571653D01*
X42608403Y-29122824D01*
X49147098Y-29122824D01*
X49196666Y-29540451D01*
X49326757Y-29940383D01*
X49484786Y-30236038D01*
X49800347Y-30392048D01*
X51112395Y-29080000D01*
X51471605Y-29080000D01*
X52783653Y-30392048D01*
X53099214Y-30236038D01*
X53290020Y-29861255D01*
X53404044Y-29456449D01*
X53436902Y-29037176D01*
X53387334Y-28619549D01*
X53257243Y-28219617D01*
X53099214Y-27923962D01*
X52783653Y-27767952D01*
X51471605Y-29080000D01*
X51112395Y-29080000D01*
X49800347Y-27767952D01*
X49484786Y-27923962D01*
X49293980Y-28298745D01*
X49179956Y-28703551D01*
X49147098Y-29122824D01*
X42608403Y-29122824D01*
X41073926Y-27588347D01*
X49979952Y-27588347D01*
X51292000Y-28900395D01*
X52604048Y-27588347D01*
X52448038Y-27272786D01*
X52073255Y-27081980D01*
X51668449Y-26967956D01*
X51249176Y-26935098D01*
X50831549Y-26984666D01*
X50431617Y-27114757D01*
X50135962Y-27272786D01*
X49979952Y-27588347D01*
X41073926Y-27588347D01*
X40185000Y-26699422D01*
X40185000Y-26043469D01*
X40189281Y-26000000D01*
X40185000Y-25956531D01*
X40185000Y-25956523D01*
X40172195Y-25826510D01*
X40147220Y-25744180D01*
X40121589Y-25659686D01*
X40039411Y-25505941D01*
X39956532Y-25404953D01*
X39956530Y-25404951D01*
X39928817Y-25371183D01*
X39895049Y-25343470D01*
X38956534Y-24404956D01*
X38928817Y-24371183D01*
X38794059Y-24260589D01*
X38640313Y-24178411D01*
X38473490Y-24127805D01*
X38343477Y-24115000D01*
X38343469Y-24115000D01*
X38300905Y-24110808D01*
X38275792Y-24080208D01*
X38190244Y-24010000D01*
X38275792Y-23939792D01*
X38385458Y-23806164D01*
X38466947Y-23653709D01*
X38517128Y-23488285D01*
X38534072Y-23316250D01*
X38534072Y-22828750D01*
X38517128Y-22656715D01*
X38466947Y-22491291D01*
X38385458Y-22338836D01*
X38275792Y-22205208D01*
X38142164Y-22095542D01*
X37989709Y-22014053D01*
X37824285Y-21963872D01*
X37652250Y-21946928D01*
X36739750Y-21946928D01*
X36567715Y-21963872D01*
X36402291Y-22014053D01*
X36260204Y-22090000D01*
X35810000Y-22090000D01*
X35810000Y-21859604D01*
X35814886Y-21809999D01*
X35805107Y-21710718D01*
X35795385Y-21612006D01*
X35737632Y-21421620D01*
X35643847Y-21246160D01*
X35517633Y-21092367D01*
X35479094Y-21060739D01*
X34574427Y-20156072D01*
X34758000Y-20156072D01*
X34882482Y-20143812D01*
X35002180Y-20107502D01*
X35112494Y-20048537D01*
X35209185Y-19969185D01*
X35288537Y-19872494D01*
X35347502Y-19762180D01*
X35383812Y-19642482D01*
X35396072Y-19518000D01*
X35396072Y-19509653D01*
X37025952Y-19509653D01*
X37181962Y-19825214D01*
X37556745Y-20016020D01*
X37961551Y-20130044D01*
X38380824Y-20162902D01*
X38798451Y-20113334D01*
X39198383Y-19983243D01*
X39494038Y-19825214D01*
X39650048Y-19509653D01*
X38338000Y-18197605D01*
X37025952Y-19509653D01*
X35396072Y-19509653D01*
X35396072Y-18060824D01*
X36193098Y-18060824D01*
X36242666Y-18478451D01*
X36372757Y-18878383D01*
X36530786Y-19174038D01*
X36846347Y-19330048D01*
X38158395Y-18018000D01*
X38517605Y-18018000D01*
X39829653Y-19330048D01*
X40145214Y-19174038D01*
X40336020Y-18799255D01*
X40450044Y-18394449D01*
X40482902Y-17975176D01*
X40433334Y-17557549D01*
X40303243Y-17157617D01*
X40145214Y-16861962D01*
X39829653Y-16705952D01*
X38517605Y-18018000D01*
X38158395Y-18018000D01*
X36846347Y-16705952D01*
X36530786Y-16861962D01*
X36339980Y-17236745D01*
X36225956Y-17641551D01*
X36193098Y-18060824D01*
X35396072Y-18060824D01*
X35396072Y-16526347D01*
X37025952Y-16526347D01*
X38338000Y-17838395D01*
X39650048Y-16526347D01*
X39494038Y-16210786D01*
X39119255Y-16019980D01*
X38714449Y-15905956D01*
X38295176Y-15873098D01*
X37877549Y-15922666D01*
X37477617Y-16052757D01*
X37181962Y-16210786D01*
X37025952Y-16526347D01*
X35396072Y-16526347D01*
X35396072Y-16518000D01*
X35383812Y-16393518D01*
X35347502Y-16273820D01*
X35288537Y-16163506D01*
X35209185Y-16066815D01*
X35112494Y-15987463D01*
X35002180Y-15928498D01*
X34882482Y-15892188D01*
X34758000Y-15879928D01*
X31758000Y-15879928D01*
X31633518Y-15892188D01*
X31513820Y-15928498D01*
X31403506Y-15987463D01*
X31306815Y-16066815D01*
X31227463Y-16163506D01*
X31168498Y-16273820D01*
X31132188Y-16393518D01*
X31119928Y-16518000D01*
X31119928Y-19518000D01*
X31132188Y-19642482D01*
X31168498Y-19762180D01*
X31227463Y-19872494D01*
X31306815Y-19969185D01*
X31403506Y-20048537D01*
X31513820Y-20107502D01*
X31633518Y-20143812D01*
X31758000Y-20156072D01*
X32248001Y-20156072D01*
X32248001Y-20218383D01*
X32243114Y-20268000D01*
X32262615Y-20465994D01*
X32320368Y-20656379D01*
X32379833Y-20767630D01*
X32414154Y-20831840D01*
X32540368Y-20985633D01*
X32578901Y-21017256D01*
X33744025Y-22182380D01*
X33716208Y-22205208D01*
X33606542Y-22338836D01*
X33525053Y-22491291D01*
X33474872Y-22656715D01*
X33457928Y-22828750D01*
X33457928Y-23316250D01*
X33474872Y-23488285D01*
X33525053Y-23653709D01*
X33606542Y-23806164D01*
X33716208Y-23939792D01*
X33801756Y-24010000D01*
X33716208Y-24080208D01*
X33606542Y-24213836D01*
X33525053Y-24366291D01*
X33474872Y-24531715D01*
X33457928Y-24703750D01*
X33457928Y-25191250D01*
X33474872Y-25363285D01*
X33525053Y-25528709D01*
X33606542Y-25681164D01*
X33716208Y-25814792D01*
X33849836Y-25924458D01*
X33911000Y-25957151D01*
X33911001Y-26653009D01*
X33830815Y-26718815D01*
X33751463Y-26815506D01*
X33692498Y-26925820D01*
X33656188Y-27045518D01*
X33643928Y-27170000D01*
X33643928Y-28170000D01*
X33656188Y-28294482D01*
X33692498Y-28414180D01*
X33751463Y-28524494D01*
X33830815Y-28621185D01*
X33897000Y-28675502D01*
X33897001Y-29393052D01*
X33858215Y-29396872D01*
X33692791Y-29447053D01*
X33540336Y-29528542D01*
X33406708Y-29638208D01*
X33401492Y-29644564D01*
X33337685Y-29566815D01*
X33240994Y-29487463D01*
X33130680Y-29428498D01*
X33010982Y-29392188D01*
X32886500Y-29379928D01*
X32684750Y-29383000D01*
X32526000Y-29541750D01*
X32526000Y-30591000D01*
X32546000Y-30591000D01*
X32546000Y-30845000D01*
X32526000Y-30845000D01*
X32526000Y-31894250D01*
X32684750Y-32053000D01*
X32886500Y-32056072D01*
X33010982Y-32043812D01*
X33130680Y-32007502D01*
X33240994Y-31948537D01*
X33337685Y-31869185D01*
X33389001Y-31806656D01*
X33389001Y-31959420D01*
X32733422Y-32615000D01*
X29044724Y-32615000D01*
X29042156Y-32608801D01*
X28841338Y-32308256D01*
X28585744Y-32052662D01*
X28285199Y-31851844D01*
X27951250Y-31713518D01*
X27596732Y-31643000D01*
X27235268Y-31643000D01*
X26880750Y-31713518D01*
X26546801Y-31851844D01*
X26246256Y-32052662D01*
X25990662Y-32308256D01*
X25789844Y-32608801D01*
X25651518Y-32942750D01*
X25581000Y-33297268D01*
X25581000Y-33658732D01*
X25651518Y-34013250D01*
X25789844Y-34347199D01*
X25990662Y-34647744D01*
X26246256Y-34903338D01*
X26546801Y-35104156D01*
X26880750Y-35242482D01*
X27235268Y-35313000D01*
X27596732Y-35313000D01*
X27951250Y-35242482D01*
X28285199Y-35104156D01*
X28585744Y-34903338D01*
X28841338Y-34647744D01*
X29016898Y-34385000D01*
X33056531Y-34385000D01*
X33100000Y-34389281D01*
X33143469Y-34385000D01*
X33143477Y-34385000D01*
X33273490Y-34372195D01*
X33440313Y-34321589D01*
X33594059Y-34239411D01*
X33728817Y-34128817D01*
X33756534Y-34095044D01*
X34401578Y-33450000D01*
X35766928Y-33450000D01*
X35779188Y-33574482D01*
X35815498Y-33694180D01*
X35874463Y-33804494D01*
X35953815Y-33901185D01*
X36050506Y-33980537D01*
X36160820Y-34039502D01*
X36280518Y-34075812D01*
X36405000Y-34088072D01*
X36606750Y-34085000D01*
X36765500Y-33926250D01*
X36765500Y-32877000D01*
X35928750Y-32877000D01*
X35770000Y-33035750D01*
X35766928Y-33450000D01*
X34401578Y-33450000D01*
X34869049Y-32982530D01*
X34902817Y-32954817D01*
X34966681Y-32877000D01*
X35013411Y-32820059D01*
X35037011Y-32775906D01*
X35095589Y-32666313D01*
X35146195Y-32499490D01*
X35159000Y-32369477D01*
X35159000Y-32369469D01*
X35163281Y-32326000D01*
X35159000Y-32282531D01*
X35159000Y-31776215D01*
X35250958Y-31664164D01*
X35332447Y-31511709D01*
X35382628Y-31346285D01*
X35399572Y-31174250D01*
X35399572Y-30856046D01*
X35410817Y-30846817D01*
X35521411Y-30712059D01*
X35603589Y-30558313D01*
X35654195Y-30391490D01*
X35667000Y-30261477D01*
X35667000Y-30261469D01*
X35671281Y-30218000D01*
X35667000Y-30174531D01*
X35667000Y-28739043D01*
X35720933Y-28761383D01*
X35940212Y-28805000D01*
X36163788Y-28805000D01*
X36280398Y-28781805D01*
X36260589Y-28805942D01*
X36178411Y-28959688D01*
X36127805Y-29126511D01*
X36115000Y-29256524D01*
X36115000Y-29256531D01*
X36110719Y-29300000D01*
X36115000Y-29343470D01*
X36115000Y-29981251D01*
X36111329Y-29985725D01*
X36032150Y-30133858D01*
X35983392Y-30294592D01*
X35966928Y-30461750D01*
X35966928Y-30974250D01*
X35983392Y-31141408D01*
X36032150Y-31302142D01*
X36111329Y-31450275D01*
X36132251Y-31475769D01*
X36050506Y-31519463D01*
X35953815Y-31598815D01*
X35874463Y-31695506D01*
X35815498Y-31805820D01*
X35779188Y-31925518D01*
X35766928Y-32050000D01*
X35770000Y-32464250D01*
X35928750Y-32623000D01*
X36765500Y-32623000D01*
X36765500Y-32603000D01*
X37019500Y-32603000D01*
X37019500Y-32623000D01*
X37039500Y-32623000D01*
X37039500Y-32877000D01*
X37019500Y-32877000D01*
X37019500Y-33926250D01*
X37178250Y-34085000D01*
X37380000Y-34088072D01*
X37504482Y-34075812D01*
X37624180Y-34039502D01*
X37734494Y-33980537D01*
X37831185Y-33901185D01*
X37894992Y-33823436D01*
X37900208Y-33829792D01*
X37915000Y-33841932D01*
X37915001Y-36056521D01*
X37910719Y-36100000D01*
X37927805Y-36273490D01*
X37978412Y-36440313D01*
X38060590Y-36594059D01*
X38143468Y-36695046D01*
X38143471Y-36695049D01*
X38171184Y-36728817D01*
X38204951Y-36756529D01*
X40143470Y-38695049D01*
X40171183Y-38728817D01*
X40204951Y-38756530D01*
X40204953Y-38756532D01*
X40276452Y-38815210D01*
X40305941Y-38839411D01*
X40459687Y-38921589D01*
X40626510Y-38972195D01*
X40756523Y-38985000D01*
X40756533Y-38985000D01*
X40799999Y-38989281D01*
X40843465Y-38985000D01*
X42849928Y-38985000D01*
X42849928Y-39284000D01*
X42862188Y-39408482D01*
X42898498Y-39528180D01*
X42957463Y-39638494D01*
X43036815Y-39735185D01*
X43133506Y-39814537D01*
X43243820Y-39873502D01*
X43363518Y-39909812D01*
X43488000Y-39922072D01*
X45888000Y-39922072D01*
X46012482Y-39909812D01*
X46132180Y-39873502D01*
X46242494Y-39814537D01*
X46339185Y-39735185D01*
X46340000Y-39734192D01*
X46340000Y-39784094D01*
X46337532Y-39789852D01*
X46309332Y-39922528D01*
X46308317Y-39932179D01*
X46276877Y-40252831D01*
X46203451Y-40496028D01*
X46084185Y-40720333D01*
X45923625Y-40917198D01*
X45727881Y-41079132D01*
X45504416Y-41199959D01*
X45261737Y-41275080D01*
X44941315Y-41308758D01*
X44922407Y-41312639D01*
X44862615Y-41318714D01*
X44792997Y-41340000D01*
X26215906Y-41340000D01*
X26210148Y-41337532D01*
X26077472Y-41309332D01*
X26067821Y-41308317D01*
X25747169Y-41276877D01*
X25503972Y-41203451D01*
X25279667Y-41084185D01*
X25082802Y-40923625D01*
X24920868Y-40727881D01*
X24800041Y-40504416D01*
X24724920Y-40261737D01*
X24691242Y-39941315D01*
X24687361Y-39922407D01*
X24681286Y-39862615D01*
X24660000Y-39792997D01*
X24660000Y-38495805D01*
X24899805Y-38495805D01*
X24972379Y-38735066D01*
X25132361Y-39057257D01*
X25352125Y-39342046D01*
X25623226Y-39578489D01*
X25935246Y-39757500D01*
X26276194Y-39872199D01*
X26561000Y-39755854D01*
X26561000Y-38211000D01*
X26815000Y-38211000D01*
X26815000Y-39755854D01*
X27099806Y-39872199D01*
X27440754Y-39757500D01*
X27752774Y-39578489D01*
X28023875Y-39342046D01*
X28243639Y-39057257D01*
X28403621Y-38735066D01*
X28476195Y-38495805D01*
X28359432Y-38211000D01*
X26815000Y-38211000D01*
X26561000Y-38211000D01*
X25016568Y-38211000D01*
X24899805Y-38495805D01*
X24660000Y-38495805D01*
X24660000Y-37672195D01*
X24899805Y-37672195D01*
X25016568Y-37957000D01*
X26561000Y-37957000D01*
X26561000Y-36412146D01*
X26815000Y-36412146D01*
X26815000Y-37957000D01*
X28359432Y-37957000D01*
X28476195Y-37672195D01*
X28403621Y-37432934D01*
X28243639Y-37110743D01*
X28023875Y-36825954D01*
X27752774Y-36589511D01*
X27440754Y-36410500D01*
X27099806Y-36295801D01*
X26815000Y-36412146D01*
X26561000Y-36412146D01*
X26276194Y-36295801D01*
X25935246Y-36410500D01*
X25623226Y-36589511D01*
X25352125Y-36825954D01*
X25132361Y-37110743D01*
X24972379Y-37432934D01*
X24899805Y-37672195D01*
X24660000Y-37672195D01*
X24660000Y-33032419D01*
X24663193Y-33000000D01*
X24650450Y-32870617D01*
X24612710Y-32746207D01*
X24551425Y-32631550D01*
X24468948Y-32531052D01*
X24368450Y-32448575D01*
X24253793Y-32387290D01*
X24129383Y-32349550D01*
X24032419Y-32340000D01*
X24000000Y-32336807D01*
X23967581Y-32340000D01*
X17215906Y-32340000D01*
X17210148Y-32337532D01*
X17077472Y-32309332D01*
X17067821Y-32308317D01*
X16747169Y-32276877D01*
X16503972Y-32203451D01*
X16279667Y-32084185D01*
X16082802Y-31923625D01*
X15920868Y-31727881D01*
X15800041Y-31504416D01*
X15773292Y-31418000D01*
X31273428Y-31418000D01*
X31285688Y-31542482D01*
X31321998Y-31662180D01*
X31380963Y-31772494D01*
X31460315Y-31869185D01*
X31557006Y-31948537D01*
X31667320Y-32007502D01*
X31787018Y-32043812D01*
X31911500Y-32056072D01*
X32113250Y-32053000D01*
X32272000Y-31894250D01*
X32272000Y-30845000D01*
X31435250Y-30845000D01*
X31276500Y-31003750D01*
X31273428Y-31418000D01*
X15773292Y-31418000D01*
X15724920Y-31261737D01*
X15691242Y-30941315D01*
X15687361Y-30922407D01*
X15681286Y-30862615D01*
X15660000Y-30792997D01*
X15660000Y-30500000D01*
X17861928Y-30500000D01*
X17874188Y-30624482D01*
X17910498Y-30744180D01*
X17969463Y-30854494D01*
X18048815Y-30951185D01*
X18145506Y-31030537D01*
X18255820Y-31089502D01*
X18375518Y-31125812D01*
X18500000Y-31138072D01*
X19714250Y-31135000D01*
X19873000Y-30976250D01*
X19873000Y-29127000D01*
X20127000Y-29127000D01*
X20127000Y-30976250D01*
X20285750Y-31135000D01*
X21500000Y-31138072D01*
X21624482Y-31125812D01*
X21744180Y-31089502D01*
X21854494Y-31030537D01*
X21951185Y-30951185D01*
X22030537Y-30854494D01*
X22089502Y-30744180D01*
X22125812Y-30624482D01*
X22138072Y-30500000D01*
X22136853Y-30018000D01*
X31273428Y-30018000D01*
X31276500Y-30432250D01*
X31435250Y-30591000D01*
X32272000Y-30591000D01*
X32272000Y-29541750D01*
X32113250Y-29383000D01*
X31911500Y-29379928D01*
X31787018Y-29392188D01*
X31667320Y-29428498D01*
X31557006Y-29487463D01*
X31460315Y-29566815D01*
X31380963Y-29663506D01*
X31321998Y-29773820D01*
X31285688Y-29893518D01*
X31273428Y-30018000D01*
X22136853Y-30018000D01*
X22135000Y-29285750D01*
X21976250Y-29127000D01*
X20127000Y-29127000D01*
X19873000Y-29127000D01*
X18023750Y-29127000D01*
X17865000Y-29285750D01*
X17861928Y-30500000D01*
X15660000Y-30500000D01*
X15660000Y-27500000D01*
X17861928Y-27500000D01*
X17865000Y-28714250D01*
X18023750Y-28873000D01*
X19873000Y-28873000D01*
X19873000Y-27023750D01*
X20127000Y-27023750D01*
X20127000Y-28873000D01*
X21976250Y-28873000D01*
X22135000Y-28714250D01*
X22138072Y-27500000D01*
X22125812Y-27375518D01*
X22089502Y-27255820D01*
X22030537Y-27145506D01*
X21951185Y-27048815D01*
X21854494Y-26969463D01*
X21744180Y-26910498D01*
X21624482Y-26874188D01*
X21500000Y-26861928D01*
X20285750Y-26865000D01*
X20127000Y-27023750D01*
X19873000Y-27023750D01*
X19714250Y-26865000D01*
X18500000Y-26861928D01*
X18375518Y-26874188D01*
X18255820Y-26910498D01*
X18145506Y-26969463D01*
X18048815Y-27048815D01*
X17969463Y-27145506D01*
X17910498Y-27255820D01*
X17874188Y-27375518D01*
X17861928Y-27500000D01*
X15660000Y-27500000D01*
X15660000Y-22215906D01*
X15662468Y-22210148D01*
X15690668Y-22077472D01*
X15691683Y-22067821D01*
X15723123Y-21747171D01*
X15796549Y-21503974D01*
X15915814Y-21279669D01*
X16076375Y-21082801D01*
X16272117Y-20920869D01*
X16495580Y-20800043D01*
X16738264Y-20724920D01*
X17058684Y-20691242D01*
X17077592Y-20687361D01*
X17137385Y-20681286D01*
X17207003Y-20660000D01*
X23967581Y-20660000D01*
X24000000Y-20663193D01*
X24032419Y-20660000D01*
X24129383Y-20650450D01*
X24253793Y-20612710D01*
X24368450Y-20551425D01*
X24468948Y-20468948D01*
X24551425Y-20368450D01*
X24612710Y-20253793D01*
X24650450Y-20129383D01*
X24663193Y-20000000D01*
X24660000Y-19967581D01*
X24660000Y-15215906D01*
X24662468Y-15210148D01*
X24690668Y-15077472D01*
X24691683Y-15067821D01*
X24723123Y-14747171D01*
X24796549Y-14503974D01*
X24915814Y-14279669D01*
X25076375Y-14082801D01*
X25272117Y-13920869D01*
X25495580Y-13800043D01*
X25738264Y-13724920D01*
X25944169Y-13703278D01*
X25861506Y-13747463D01*
X25764815Y-13826815D01*
X25685463Y-13923506D01*
X25626498Y-14033820D01*
X25590188Y-14153518D01*
X25577928Y-14278000D01*
X25577928Y-16678000D01*
X25590188Y-16802482D01*
X25626498Y-16922180D01*
X25685463Y-17032494D01*
X25764815Y-17129185D01*
X25861506Y-17208537D01*
X25971820Y-17267502D01*
X26091518Y-17303812D01*
X26216000Y-17316072D01*
X26532658Y-17316072D01*
X26543805Y-17429255D01*
X26594412Y-17596078D01*
X26615000Y-17634596D01*
X26615001Y-20133420D01*
X23633422Y-23115000D01*
X21977465Y-23115000D01*
X21892012Y-22908698D01*
X21658363Y-22559017D01*
X21360983Y-22261637D01*
X21011302Y-22027988D01*
X20622756Y-21867047D01*
X20210279Y-21785000D01*
X19789721Y-21785000D01*
X19377244Y-21867047D01*
X18988698Y-22027988D01*
X18639017Y-22261637D01*
X18341637Y-22559017D01*
X18107988Y-22908698D01*
X17947047Y-23297244D01*
X17865000Y-23709721D01*
X17865000Y-24130279D01*
X17947047Y-24542756D01*
X18107988Y-24931302D01*
X18341637Y-25280983D01*
X18639017Y-25578363D01*
X18988698Y-25812012D01*
X19377244Y-25972953D01*
X19789721Y-26055000D01*
X20210279Y-26055000D01*
X20622756Y-25972953D01*
X21011302Y-25812012D01*
X21360983Y-25578363D01*
X21658363Y-25280983D01*
X21892012Y-24931302D01*
X21911191Y-24885000D01*
X23956531Y-24885000D01*
X24000000Y-24889281D01*
X24043469Y-24885000D01*
X24043477Y-24885000D01*
X24173490Y-24872195D01*
X24340313Y-24821589D01*
X24494059Y-24739411D01*
X24628817Y-24628817D01*
X24656534Y-24595044D01*
X28095049Y-21156530D01*
X28128817Y-21128817D01*
X28170653Y-21077841D01*
X28239410Y-20994060D01*
X28239411Y-20994059D01*
X28321589Y-20840313D01*
X28372195Y-20673490D01*
X28385000Y-20543477D01*
X28385000Y-20543467D01*
X28389281Y-20500001D01*
X28385000Y-20456535D01*
X28385000Y-17383234D01*
X28389281Y-17339765D01*
X28386948Y-17316072D01*
X28616000Y-17316072D01*
X28740482Y-17303812D01*
X28860180Y-17267502D01*
X28970494Y-17208537D01*
X29067185Y-17129185D01*
X29146537Y-17032494D01*
X29205502Y-16922180D01*
X29241812Y-16802482D01*
X29254072Y-16678000D01*
X29254072Y-15331268D01*
X42211000Y-15331268D01*
X42211000Y-15692732D01*
X42281518Y-16047250D01*
X42419844Y-16381199D01*
X42620662Y-16681744D01*
X42876256Y-16937338D01*
X43161001Y-17127599D01*
X43161001Y-17165577D01*
X43156719Y-17209056D01*
X43173805Y-17382546D01*
X43215000Y-17518343D01*
X43215001Y-22556514D01*
X43215000Y-22556524D01*
X43215000Y-23156531D01*
X43210719Y-23200000D01*
X43215000Y-23243469D01*
X43215000Y-23243477D01*
X43227805Y-23373490D01*
X43278411Y-23540313D01*
X43342217Y-23659686D01*
X43360590Y-23694059D01*
X43443468Y-23795046D01*
X43443471Y-23795049D01*
X43471184Y-23828817D01*
X43504951Y-23856529D01*
X44243470Y-24595049D01*
X44271183Y-24628817D01*
X44304951Y-24656530D01*
X44304953Y-24656532D01*
X44326946Y-24674581D01*
X44405941Y-24739411D01*
X44559687Y-24821589D01*
X44726510Y-24872195D01*
X44856523Y-24885000D01*
X44856531Y-24885000D01*
X44900000Y-24889281D01*
X44943469Y-24885000D01*
X49153928Y-24885000D01*
X49153928Y-25500000D01*
X49166188Y-25624482D01*
X49202498Y-25744180D01*
X49261463Y-25854494D01*
X49340815Y-25951185D01*
X49437506Y-26030537D01*
X49547820Y-26089502D01*
X49667518Y-26125812D01*
X49792000Y-26138072D01*
X52792000Y-26138072D01*
X52916482Y-26125812D01*
X53036180Y-26089502D01*
X53146494Y-26030537D01*
X53243185Y-25951185D01*
X53322537Y-25854494D01*
X53381502Y-25744180D01*
X53417812Y-25624482D01*
X53430072Y-25500000D01*
X53430072Y-22500000D01*
X53417812Y-22375518D01*
X53381502Y-22255820D01*
X53322537Y-22145506D01*
X53243185Y-22048815D01*
X53146494Y-21969463D01*
X53036180Y-21910498D01*
X52916482Y-21874188D01*
X52792000Y-21861928D01*
X49792000Y-21861928D01*
X49667518Y-21874188D01*
X49547820Y-21910498D01*
X49437506Y-21969463D01*
X49340815Y-22048815D01*
X49261463Y-22145506D01*
X49202498Y-22255820D01*
X49166188Y-22375518D01*
X49153928Y-22500000D01*
X49153928Y-23115000D01*
X45266579Y-23115000D01*
X44985000Y-22833422D01*
X44985000Y-17306525D01*
X44989281Y-17263056D01*
X44985000Y-17219587D01*
X44985000Y-17219579D01*
X44973166Y-17099424D01*
X45215744Y-16937338D01*
X45471338Y-16681744D01*
X45672156Y-16381199D01*
X45810482Y-16047250D01*
X45881000Y-15692732D01*
X45881000Y-15331268D01*
X45810482Y-14976750D01*
X45672156Y-14642801D01*
X45471338Y-14342256D01*
X45215744Y-14086662D01*
X44915199Y-13885844D01*
X44581250Y-13747518D01*
X44226732Y-13677000D01*
X43865268Y-13677000D01*
X43510750Y-13747518D01*
X43176801Y-13885844D01*
X42876256Y-14086662D01*
X42620662Y-14342256D01*
X42419844Y-14642801D01*
X42281518Y-14976750D01*
X42211000Y-15331268D01*
X29254072Y-15331268D01*
X29254072Y-14278000D01*
X29241812Y-14153518D01*
X29205502Y-14033820D01*
X29146537Y-13923506D01*
X29067185Y-13826815D01*
X28970494Y-13747463D01*
X28860180Y-13688498D01*
X28766235Y-13660000D01*
X45784094Y-13660000D01*
X45789852Y-13662468D01*
G37*
X45789852Y-13662468D02*
X45922528Y-13690668D01*
X45932179Y-13691683D01*
X46252829Y-13723123D01*
X46496026Y-13796549D01*
X46720331Y-13915814D01*
X46917199Y-14076375D01*
X47079131Y-14272117D01*
X47199957Y-14495580D01*
X47275080Y-14738264D01*
X47308758Y-15058684D01*
X47312639Y-15077592D01*
X47318714Y-15137385D01*
X47340001Y-15207006D01*
X47340000Y-19967581D01*
X47336807Y-20000000D01*
X47349550Y-20129383D01*
X47387290Y-20253793D01*
X47448575Y-20368450D01*
X47506149Y-20438604D01*
X47531052Y-20468948D01*
X47631550Y-20551425D01*
X47746207Y-20612710D01*
X47870617Y-20650450D01*
X48000000Y-20663193D01*
X48032419Y-20660000D01*
X53784094Y-20660000D01*
X53789852Y-20662468D01*
X53922528Y-20690668D01*
X53932179Y-20691683D01*
X54252829Y-20723123D01*
X54496026Y-20796549D01*
X54720331Y-20915814D01*
X54917199Y-21076375D01*
X55079131Y-21272117D01*
X55199957Y-21495580D01*
X55275080Y-21738264D01*
X55308758Y-22058684D01*
X55312639Y-22077592D01*
X55318714Y-22137385D01*
X55340001Y-22207006D01*
X55340000Y-30784094D01*
X55337532Y-30789852D01*
X55309332Y-30922528D01*
X55308317Y-30932179D01*
X55276877Y-31252831D01*
X55203451Y-31496028D01*
X55084185Y-31720333D01*
X54923625Y-31917198D01*
X54727881Y-32079132D01*
X54504416Y-32199959D01*
X54261737Y-32275080D01*
X53941315Y-32308758D01*
X53922407Y-32312639D01*
X53862615Y-32318714D01*
X53792997Y-32340000D01*
X47032419Y-32340000D01*
X47000000Y-32336807D01*
X46967581Y-32340000D01*
X46870617Y-32349550D01*
X46746207Y-32387290D01*
X46631550Y-32448575D01*
X46531052Y-32531052D01*
X46448575Y-32631550D01*
X46387290Y-32746207D01*
X46349550Y-32870617D01*
X46336807Y-33000000D01*
X46340001Y-33032429D01*
X46340001Y-36433809D01*
X46339185Y-36432815D01*
X46242494Y-36353463D01*
X46132180Y-36294498D01*
X46012482Y-36258188D01*
X45888000Y-36245928D01*
X43488000Y-36245928D01*
X43363518Y-36258188D01*
X43243820Y-36294498D01*
X43133506Y-36353463D01*
X43036815Y-36432815D01*
X42957463Y-36529506D01*
X42898498Y-36639820D01*
X42862188Y-36759518D01*
X42849928Y-36884000D01*
X42849928Y-37215000D01*
X41166579Y-37215000D01*
X39685000Y-35733422D01*
X39685000Y-33768614D01*
X39744458Y-33696164D01*
X39825947Y-33543709D01*
X39876128Y-33378285D01*
X39893072Y-33206250D01*
X39893072Y-32293750D01*
X39876128Y-32121715D01*
X39825947Y-31956291D01*
X39744458Y-31803836D01*
X39685000Y-31731386D01*
X39685000Y-31418969D01*
X39689281Y-31375500D01*
X39685000Y-31332031D01*
X39685000Y-31332023D01*
X39672195Y-31202010D01*
X39665210Y-31178983D01*
X39676608Y-31141408D01*
X39693072Y-30974250D01*
X39693072Y-30461750D01*
X39676608Y-30294592D01*
X39627850Y-30133858D01*
X39548671Y-29985725D01*
X39442115Y-29855885D01*
X39312275Y-29749329D01*
X39164142Y-29670150D01*
X39003408Y-29621392D01*
X38836250Y-29604928D01*
X38398750Y-29604928D01*
X38231592Y-29621392D01*
X38070858Y-29670150D01*
X37922725Y-29749329D01*
X37885000Y-29780289D01*
X37885000Y-29666578D01*
X37917044Y-29634534D01*
X37950817Y-29606817D01*
X38061411Y-29472059D01*
X38143589Y-29318313D01*
X38194195Y-29151490D01*
X38207000Y-29021477D01*
X38207000Y-29021469D01*
X38211281Y-28978000D01*
X38207000Y-28934531D01*
X38207000Y-28388450D01*
X38327824Y-28207624D01*
X38413383Y-28001067D01*
X38457000Y-27781788D01*
X38457000Y-27558212D01*
X38413383Y-27338933D01*
X38327824Y-27132376D01*
X38203612Y-26946480D01*
X38045520Y-26788388D01*
X37859624Y-26664176D01*
X37676831Y-26588460D01*
X37684910Y-26578617D01*
X37754305Y-26494059D01*
X37774368Y-26456523D01*
X37836483Y-26340313D01*
X37887089Y-26173490D01*
X37899894Y-26043477D01*
X37899894Y-26043469D01*
X37900937Y-26032876D01*
X37989709Y-26005947D01*
X38031846Y-25983424D01*
X38415000Y-26366579D01*
X38415000Y-27022531D01*
X38410719Y-27066000D01*
X38415000Y-27109469D01*
X38415000Y-27109476D01*
X38427805Y-27239489D01*
X38478411Y-27406312D01*
X38560589Y-27560058D01*
X38671183Y-27694817D01*
X38704956Y-27722534D01*
X42680923Y-31698502D01*
X42601820Y-31722498D01*
X42491506Y-31781463D01*
X42394815Y-31860815D01*
X42315463Y-31957506D01*
X42256498Y-32067820D01*
X42220188Y-32187518D01*
X42207928Y-32312000D01*
X42207928Y-34712000D01*
X42220188Y-34836482D01*
X42256498Y-34956180D01*
X42315463Y-35066494D01*
X42394815Y-35163185D01*
X42491506Y-35242537D01*
X42601820Y-35301502D01*
X42721518Y-35337812D01*
X42846000Y-35350072D01*
X45246000Y-35350072D01*
X45370482Y-35337812D01*
X45490180Y-35301502D01*
X45600494Y-35242537D01*
X45697185Y-35163185D01*
X45776537Y-35066494D01*
X45835502Y-34956180D01*
X45871812Y-34836482D01*
X45884072Y-34712000D01*
X45884072Y-32312000D01*
X45871812Y-32187518D01*
X45835502Y-32067820D01*
X45776537Y-31957506D01*
X45697185Y-31860815D01*
X45600494Y-31781463D01*
X45490180Y-31722498D01*
X45370482Y-31686188D01*
X45246000Y-31673928D01*
X44921683Y-31673928D01*
X44918195Y-31638510D01*
X44908841Y-31607673D01*
X44867589Y-31471686D01*
X44785411Y-31317941D01*
X44702532Y-31216953D01*
X44702530Y-31216951D01*
X44674817Y-31183183D01*
X44641049Y-31155470D01*
X44057232Y-30571653D01*
X49979952Y-30571653D01*
X50135962Y-30887214D01*
X50510745Y-31078020D01*
X50915551Y-31192044D01*
X51334824Y-31224902D01*
X51752451Y-31175334D01*
X52152383Y-31045243D01*
X52448038Y-30887214D01*
X52604048Y-30571653D01*
X51292000Y-29259605D01*
X49979952Y-30571653D01*
X44057232Y-30571653D01*
X42608403Y-29122824D01*
X49147098Y-29122824D01*
X49196666Y-29540451D01*
X49326757Y-29940383D01*
X49484786Y-30236038D01*
X49800347Y-30392048D01*
X51112395Y-29080000D01*
X51471605Y-29080000D01*
X52783653Y-30392048D01*
X53099214Y-30236038D01*
X53290020Y-29861255D01*
X53404044Y-29456449D01*
X53436902Y-29037176D01*
X53387334Y-28619549D01*
X53257243Y-28219617D01*
X53099214Y-27923962D01*
X52783653Y-27767952D01*
X51471605Y-29080000D01*
X51112395Y-29080000D01*
X49800347Y-27767952D01*
X49484786Y-27923962D01*
X49293980Y-28298745D01*
X49179956Y-28703551D01*
X49147098Y-29122824D01*
X42608403Y-29122824D01*
X41073926Y-27588347D01*
X49979952Y-27588347D01*
X51292000Y-28900395D01*
X52604048Y-27588347D01*
X52448038Y-27272786D01*
X52073255Y-27081980D01*
X51668449Y-26967956D01*
X51249176Y-26935098D01*
X50831549Y-26984666D01*
X50431617Y-27114757D01*
X50135962Y-27272786D01*
X49979952Y-27588347D01*
X41073926Y-27588347D01*
X40185000Y-26699422D01*
X40185000Y-26043469D01*
X40189281Y-26000000D01*
X40185000Y-25956531D01*
X40185000Y-25956523D01*
X40172195Y-25826510D01*
X40147220Y-25744180D01*
X40121589Y-25659686D01*
X40039411Y-25505941D01*
X39956532Y-25404953D01*
X39956530Y-25404951D01*
X39928817Y-25371183D01*
X39895049Y-25343470D01*
X38956534Y-24404956D01*
X38928817Y-24371183D01*
X38794059Y-24260589D01*
X38640313Y-24178411D01*
X38473490Y-24127805D01*
X38343477Y-24115000D01*
X38343469Y-24115000D01*
X38300905Y-24110808D01*
X38275792Y-24080208D01*
X38190244Y-24010000D01*
X38275792Y-23939792D01*
X38385458Y-23806164D01*
X38466947Y-23653709D01*
X38517128Y-23488285D01*
X38534072Y-23316250D01*
X38534072Y-22828750D01*
X38517128Y-22656715D01*
X38466947Y-22491291D01*
X38385458Y-22338836D01*
X38275792Y-22205208D01*
X38142164Y-22095542D01*
X37989709Y-22014053D01*
X37824285Y-21963872D01*
X37652250Y-21946928D01*
X36739750Y-21946928D01*
X36567715Y-21963872D01*
X36402291Y-22014053D01*
X36260204Y-22090000D01*
X35810000Y-22090000D01*
X35810000Y-21859604D01*
X35814886Y-21809999D01*
X35805107Y-21710718D01*
X35795385Y-21612006D01*
X35737632Y-21421620D01*
X35643847Y-21246160D01*
X35517633Y-21092367D01*
X35479094Y-21060739D01*
X34574427Y-20156072D01*
X34758000Y-20156072D01*
X34882482Y-20143812D01*
X35002180Y-20107502D01*
X35112494Y-20048537D01*
X35209185Y-19969185D01*
X35288537Y-19872494D01*
X35347502Y-19762180D01*
X35383812Y-19642482D01*
X35396072Y-19518000D01*
X35396072Y-19509653D01*
X37025952Y-19509653D01*
X37181962Y-19825214D01*
X37556745Y-20016020D01*
X37961551Y-20130044D01*
X38380824Y-20162902D01*
X38798451Y-20113334D01*
X39198383Y-19983243D01*
X39494038Y-19825214D01*
X39650048Y-19509653D01*
X38338000Y-18197605D01*
X37025952Y-19509653D01*
X35396072Y-19509653D01*
X35396072Y-18060824D01*
X36193098Y-18060824D01*
X36242666Y-18478451D01*
X36372757Y-18878383D01*
X36530786Y-19174038D01*
X36846347Y-19330048D01*
X38158395Y-18018000D01*
X38517605Y-18018000D01*
X39829653Y-19330048D01*
X40145214Y-19174038D01*
X40336020Y-18799255D01*
X40450044Y-18394449D01*
X40482902Y-17975176D01*
X40433334Y-17557549D01*
X40303243Y-17157617D01*
X40145214Y-16861962D01*
X39829653Y-16705952D01*
X38517605Y-18018000D01*
X38158395Y-18018000D01*
X36846347Y-16705952D01*
X36530786Y-16861962D01*
X36339980Y-17236745D01*
X36225956Y-17641551D01*
X36193098Y-18060824D01*
X35396072Y-18060824D01*
X35396072Y-16526347D01*
X37025952Y-16526347D01*
X38338000Y-17838395D01*
X39650048Y-16526347D01*
X39494038Y-16210786D01*
X39119255Y-16019980D01*
X38714449Y-15905956D01*
X38295176Y-15873098D01*
X37877549Y-15922666D01*
X37477617Y-16052757D01*
X37181962Y-16210786D01*
X37025952Y-16526347D01*
X35396072Y-16526347D01*
X35396072Y-16518000D01*
X35383812Y-16393518D01*
X35347502Y-16273820D01*
X35288537Y-16163506D01*
X35209185Y-16066815D01*
X35112494Y-15987463D01*
X35002180Y-15928498D01*
X34882482Y-15892188D01*
X34758000Y-15879928D01*
X31758000Y-15879928D01*
X31633518Y-15892188D01*
X31513820Y-15928498D01*
X31403506Y-15987463D01*
X31306815Y-16066815D01*
X31227463Y-16163506D01*
X31168498Y-16273820D01*
X31132188Y-16393518D01*
X31119928Y-16518000D01*
X31119928Y-19518000D01*
X31132188Y-19642482D01*
X31168498Y-19762180D01*
X31227463Y-19872494D01*
X31306815Y-19969185D01*
X31403506Y-20048537D01*
X31513820Y-20107502D01*
X31633518Y-20143812D01*
X31758000Y-20156072D01*
X32248001Y-20156072D01*
X32248001Y-20218383D01*
X32243114Y-20268000D01*
X32262615Y-20465994D01*
X32320368Y-20656379D01*
X32379833Y-20767630D01*
X32414154Y-20831840D01*
X32540368Y-20985633D01*
X32578901Y-21017256D01*
X33744025Y-22182380D01*
X33716208Y-22205208D01*
X33606542Y-22338836D01*
X33525053Y-22491291D01*
X33474872Y-22656715D01*
X33457928Y-22828750D01*
X33457928Y-23316250D01*
X33474872Y-23488285D01*
X33525053Y-23653709D01*
X33606542Y-23806164D01*
X33716208Y-23939792D01*
X33801756Y-24010000D01*
X33716208Y-24080208D01*
X33606542Y-24213836D01*
X33525053Y-24366291D01*
X33474872Y-24531715D01*
X33457928Y-24703750D01*
X33457928Y-25191250D01*
X33474872Y-25363285D01*
X33525053Y-25528709D01*
X33606542Y-25681164D01*
X33716208Y-25814792D01*
X33849836Y-25924458D01*
X33911000Y-25957151D01*
X33911001Y-26653009D01*
X33830815Y-26718815D01*
X33751463Y-26815506D01*
X33692498Y-26925820D01*
X33656188Y-27045518D01*
X33643928Y-27170000D01*
X33643928Y-28170000D01*
X33656188Y-28294482D01*
X33692498Y-28414180D01*
X33751463Y-28524494D01*
X33830815Y-28621185D01*
X33897000Y-28675502D01*
X33897001Y-29393052D01*
X33858215Y-29396872D01*
X33692791Y-29447053D01*
X33540336Y-29528542D01*
X33406708Y-29638208D01*
X33401492Y-29644564D01*
X33337685Y-29566815D01*
X33240994Y-29487463D01*
X33130680Y-29428498D01*
X33010982Y-29392188D01*
X32886500Y-29379928D01*
X32684750Y-29383000D01*
X32526000Y-29541750D01*
X32526000Y-30591000D01*
X32546000Y-30591000D01*
X32546000Y-30845000D01*
X32526000Y-30845000D01*
X32526000Y-31894250D01*
X32684750Y-32053000D01*
X32886500Y-32056072D01*
X33010982Y-32043812D01*
X33130680Y-32007502D01*
X33240994Y-31948537D01*
X33337685Y-31869185D01*
X33389001Y-31806656D01*
X33389001Y-31959420D01*
X32733422Y-32615000D01*
X29044724Y-32615000D01*
X29042156Y-32608801D01*
X28841338Y-32308256D01*
X28585744Y-32052662D01*
X28285199Y-31851844D01*
X27951250Y-31713518D01*
X27596732Y-31643000D01*
X27235268Y-31643000D01*
X26880750Y-31713518D01*
X26546801Y-31851844D01*
X26246256Y-32052662D01*
X25990662Y-32308256D01*
X25789844Y-32608801D01*
X25651518Y-32942750D01*
X25581000Y-33297268D01*
X25581000Y-33658732D01*
X25651518Y-34013250D01*
X25789844Y-34347199D01*
X25990662Y-34647744D01*
X26246256Y-34903338D01*
X26546801Y-35104156D01*
X26880750Y-35242482D01*
X27235268Y-35313000D01*
X27596732Y-35313000D01*
X27951250Y-35242482D01*
X28285199Y-35104156D01*
X28585744Y-34903338D01*
X28841338Y-34647744D01*
X29016898Y-34385000D01*
X33056531Y-34385000D01*
X33100000Y-34389281D01*
X33143469Y-34385000D01*
X33143477Y-34385000D01*
X33273490Y-34372195D01*
X33440313Y-34321589D01*
X33594059Y-34239411D01*
X33728817Y-34128817D01*
X33756534Y-34095044D01*
X34401578Y-33450000D01*
X35766928Y-33450000D01*
X35779188Y-33574482D01*
X35815498Y-33694180D01*
X35874463Y-33804494D01*
X35953815Y-33901185D01*
X36050506Y-33980537D01*
X36160820Y-34039502D01*
X36280518Y-34075812D01*
X36405000Y-34088072D01*
X36606750Y-34085000D01*
X36765500Y-33926250D01*
X36765500Y-32877000D01*
X35928750Y-32877000D01*
X35770000Y-33035750D01*
X35766928Y-33450000D01*
X34401578Y-33450000D01*
X34869049Y-32982530D01*
X34902817Y-32954817D01*
X34966681Y-32877000D01*
X35013411Y-32820059D01*
X35037011Y-32775906D01*
X35095589Y-32666313D01*
X35146195Y-32499490D01*
X35159000Y-32369477D01*
X35159000Y-32369469D01*
X35163281Y-32326000D01*
X35159000Y-32282531D01*
X35159000Y-31776215D01*
X35250958Y-31664164D01*
X35332447Y-31511709D01*
X35382628Y-31346285D01*
X35399572Y-31174250D01*
X35399572Y-30856046D01*
X35410817Y-30846817D01*
X35521411Y-30712059D01*
X35603589Y-30558313D01*
X35654195Y-30391490D01*
X35667000Y-30261477D01*
X35667000Y-30261469D01*
X35671281Y-30218000D01*
X35667000Y-30174531D01*
X35667000Y-28739043D01*
X35720933Y-28761383D01*
X35940212Y-28805000D01*
X36163788Y-28805000D01*
X36280398Y-28781805D01*
X36260589Y-28805942D01*
X36178411Y-28959688D01*
X36127805Y-29126511D01*
X36115000Y-29256524D01*
X36115000Y-29256531D01*
X36110719Y-29300000D01*
X36115000Y-29343470D01*
X36115000Y-29981251D01*
X36111329Y-29985725D01*
X36032150Y-30133858D01*
X35983392Y-30294592D01*
X35966928Y-30461750D01*
X35966928Y-30974250D01*
X35983392Y-31141408D01*
X36032150Y-31302142D01*
X36111329Y-31450275D01*
X36132251Y-31475769D01*
X36050506Y-31519463D01*
X35953815Y-31598815D01*
X35874463Y-31695506D01*
X35815498Y-31805820D01*
X35779188Y-31925518D01*
X35766928Y-32050000D01*
X35770000Y-32464250D01*
X35928750Y-32623000D01*
X36765500Y-32623000D01*
X36765500Y-32603000D01*
X37019500Y-32603000D01*
X37019500Y-32623000D01*
X37039500Y-32623000D01*
X37039500Y-32877000D01*
X37019500Y-32877000D01*
X37019500Y-33926250D01*
X37178250Y-34085000D01*
X37380000Y-34088072D01*
X37504482Y-34075812D01*
X37624180Y-34039502D01*
X37734494Y-33980537D01*
X37831185Y-33901185D01*
X37894992Y-33823436D01*
X37900208Y-33829792D01*
X37915000Y-33841932D01*
X37915001Y-36056521D01*
X37910719Y-36100000D01*
X37927805Y-36273490D01*
X37978412Y-36440313D01*
X38060590Y-36594059D01*
X38143468Y-36695046D01*
X38143471Y-36695049D01*
X38171184Y-36728817D01*
X38204951Y-36756529D01*
X40143470Y-38695049D01*
X40171183Y-38728817D01*
X40204951Y-38756530D01*
X40204953Y-38756532D01*
X40276452Y-38815210D01*
X40305941Y-38839411D01*
X40459687Y-38921589D01*
X40626510Y-38972195D01*
X40756523Y-38985000D01*
X40756533Y-38985000D01*
X40799999Y-38989281D01*
X40843465Y-38985000D01*
X42849928Y-38985000D01*
X42849928Y-39284000D01*
X42862188Y-39408482D01*
X42898498Y-39528180D01*
X42957463Y-39638494D01*
X43036815Y-39735185D01*
X43133506Y-39814537D01*
X43243820Y-39873502D01*
X43363518Y-39909812D01*
X43488000Y-39922072D01*
X45888000Y-39922072D01*
X46012482Y-39909812D01*
X46132180Y-39873502D01*
X46242494Y-39814537D01*
X46339185Y-39735185D01*
X46340000Y-39734192D01*
X46340000Y-39784094D01*
X46337532Y-39789852D01*
X46309332Y-39922528D01*
X46308317Y-39932179D01*
X46276877Y-40252831D01*
X46203451Y-40496028D01*
X46084185Y-40720333D01*
X45923625Y-40917198D01*
X45727881Y-41079132D01*
X45504416Y-41199959D01*
X45261737Y-41275080D01*
X44941315Y-41308758D01*
X44922407Y-41312639D01*
X44862615Y-41318714D01*
X44792997Y-41340000D01*
X26215906Y-41340000D01*
X26210148Y-41337532D01*
X26077472Y-41309332D01*
X26067821Y-41308317D01*
X25747169Y-41276877D01*
X25503972Y-41203451D01*
X25279667Y-41084185D01*
X25082802Y-40923625D01*
X24920868Y-40727881D01*
X24800041Y-40504416D01*
X24724920Y-40261737D01*
X24691242Y-39941315D01*
X24687361Y-39922407D01*
X24681286Y-39862615D01*
X24660000Y-39792997D01*
X24660000Y-38495805D01*
X24899805Y-38495805D01*
X24972379Y-38735066D01*
X25132361Y-39057257D01*
X25352125Y-39342046D01*
X25623226Y-39578489D01*
X25935246Y-39757500D01*
X26276194Y-39872199D01*
X26561000Y-39755854D01*
X26561000Y-38211000D01*
X26815000Y-38211000D01*
X26815000Y-39755854D01*
X27099806Y-39872199D01*
X27440754Y-39757500D01*
X27752774Y-39578489D01*
X28023875Y-39342046D01*
X28243639Y-39057257D01*
X28403621Y-38735066D01*
X28476195Y-38495805D01*
X28359432Y-38211000D01*
X26815000Y-38211000D01*
X26561000Y-38211000D01*
X25016568Y-38211000D01*
X24899805Y-38495805D01*
X24660000Y-38495805D01*
X24660000Y-37672195D01*
X24899805Y-37672195D01*
X25016568Y-37957000D01*
X26561000Y-37957000D01*
X26561000Y-36412146D01*
X26815000Y-36412146D01*
X26815000Y-37957000D01*
X28359432Y-37957000D01*
X28476195Y-37672195D01*
X28403621Y-37432934D01*
X28243639Y-37110743D01*
X28023875Y-36825954D01*
X27752774Y-36589511D01*
X27440754Y-36410500D01*
X27099806Y-36295801D01*
X26815000Y-36412146D01*
X26561000Y-36412146D01*
X26276194Y-36295801D01*
X25935246Y-36410500D01*
X25623226Y-36589511D01*
X25352125Y-36825954D01*
X25132361Y-37110743D01*
X24972379Y-37432934D01*
X24899805Y-37672195D01*
X24660000Y-37672195D01*
X24660000Y-33032419D01*
X24663193Y-33000000D01*
X24650450Y-32870617D01*
X24612710Y-32746207D01*
X24551425Y-32631550D01*
X24468948Y-32531052D01*
X24368450Y-32448575D01*
X24253793Y-32387290D01*
X24129383Y-32349550D01*
X24032419Y-32340000D01*
X24000000Y-32336807D01*
X23967581Y-32340000D01*
X17215906Y-32340000D01*
X17210148Y-32337532D01*
X17077472Y-32309332D01*
X17067821Y-32308317D01*
X16747169Y-32276877D01*
X16503972Y-32203451D01*
X16279667Y-32084185D01*
X16082802Y-31923625D01*
X15920868Y-31727881D01*
X15800041Y-31504416D01*
X15773292Y-31418000D01*
X31273428Y-31418000D01*
X31285688Y-31542482D01*
X31321998Y-31662180D01*
X31380963Y-31772494D01*
X31460315Y-31869185D01*
X31557006Y-31948537D01*
X31667320Y-32007502D01*
X31787018Y-32043812D01*
X31911500Y-32056072D01*
X32113250Y-32053000D01*
X32272000Y-31894250D01*
X32272000Y-30845000D01*
X31435250Y-30845000D01*
X31276500Y-31003750D01*
X31273428Y-31418000D01*
X15773292Y-31418000D01*
X15724920Y-31261737D01*
X15691242Y-30941315D01*
X15687361Y-30922407D01*
X15681286Y-30862615D01*
X15660000Y-30792997D01*
X15660000Y-30500000D01*
X17861928Y-30500000D01*
X17874188Y-30624482D01*
X17910498Y-30744180D01*
X17969463Y-30854494D01*
X18048815Y-30951185D01*
X18145506Y-31030537D01*
X18255820Y-31089502D01*
X18375518Y-31125812D01*
X18500000Y-31138072D01*
X19714250Y-31135000D01*
X19873000Y-30976250D01*
X19873000Y-29127000D01*
X20127000Y-29127000D01*
X20127000Y-30976250D01*
X20285750Y-31135000D01*
X21500000Y-31138072D01*
X21624482Y-31125812D01*
X21744180Y-31089502D01*
X21854494Y-31030537D01*
X21951185Y-30951185D01*
X22030537Y-30854494D01*
X22089502Y-30744180D01*
X22125812Y-30624482D01*
X22138072Y-30500000D01*
X22136853Y-30018000D01*
X31273428Y-30018000D01*
X31276500Y-30432250D01*
X31435250Y-30591000D01*
X32272000Y-30591000D01*
X32272000Y-29541750D01*
X32113250Y-29383000D01*
X31911500Y-29379928D01*
X31787018Y-29392188D01*
X31667320Y-29428498D01*
X31557006Y-29487463D01*
X31460315Y-29566815D01*
X31380963Y-29663506D01*
X31321998Y-29773820D01*
X31285688Y-29893518D01*
X31273428Y-30018000D01*
X22136853Y-30018000D01*
X22135000Y-29285750D01*
X21976250Y-29127000D01*
X20127000Y-29127000D01*
X19873000Y-29127000D01*
X18023750Y-29127000D01*
X17865000Y-29285750D01*
X17861928Y-30500000D01*
X15660000Y-30500000D01*
X15660000Y-27500000D01*
X17861928Y-27500000D01*
X17865000Y-28714250D01*
X18023750Y-28873000D01*
X19873000Y-28873000D01*
X19873000Y-27023750D01*
X20127000Y-27023750D01*
X20127000Y-28873000D01*
X21976250Y-28873000D01*
X22135000Y-28714250D01*
X22138072Y-27500000D01*
X22125812Y-27375518D01*
X22089502Y-27255820D01*
X22030537Y-27145506D01*
X21951185Y-27048815D01*
X21854494Y-26969463D01*
X21744180Y-26910498D01*
X21624482Y-26874188D01*
X21500000Y-26861928D01*
X20285750Y-26865000D01*
X20127000Y-27023750D01*
X19873000Y-27023750D01*
X19714250Y-26865000D01*
X18500000Y-26861928D01*
X18375518Y-26874188D01*
X18255820Y-26910498D01*
X18145506Y-26969463D01*
X18048815Y-27048815D01*
X17969463Y-27145506D01*
X17910498Y-27255820D01*
X17874188Y-27375518D01*
X17861928Y-27500000D01*
X15660000Y-27500000D01*
X15660000Y-22215906D01*
X15662468Y-22210148D01*
X15690668Y-22077472D01*
X15691683Y-22067821D01*
X15723123Y-21747171D01*
X15796549Y-21503974D01*
X15915814Y-21279669D01*
X16076375Y-21082801D01*
X16272117Y-20920869D01*
X16495580Y-20800043D01*
X16738264Y-20724920D01*
X17058684Y-20691242D01*
X17077592Y-20687361D01*
X17137385Y-20681286D01*
X17207003Y-20660000D01*
X23967581Y-20660000D01*
X24000000Y-20663193D01*
X24032419Y-20660000D01*
X24129383Y-20650450D01*
X24253793Y-20612710D01*
X24368450Y-20551425D01*
X24468948Y-20468948D01*
X24551425Y-20368450D01*
X24612710Y-20253793D01*
X24650450Y-20129383D01*
X24663193Y-20000000D01*
X24660000Y-19967581D01*
X24660000Y-15215906D01*
X24662468Y-15210148D01*
X24690668Y-15077472D01*
X24691683Y-15067821D01*
X24723123Y-14747171D01*
X24796549Y-14503974D01*
X24915814Y-14279669D01*
X25076375Y-14082801D01*
X25272117Y-13920869D01*
X25495580Y-13800043D01*
X25738264Y-13724920D01*
X25944169Y-13703278D01*
X25861506Y-13747463D01*
X25764815Y-13826815D01*
X25685463Y-13923506D01*
X25626498Y-14033820D01*
X25590188Y-14153518D01*
X25577928Y-14278000D01*
X25577928Y-16678000D01*
X25590188Y-16802482D01*
X25626498Y-16922180D01*
X25685463Y-17032494D01*
X25764815Y-17129185D01*
X25861506Y-17208537D01*
X25971820Y-17267502D01*
X26091518Y-17303812D01*
X26216000Y-17316072D01*
X26532658Y-17316072D01*
X26543805Y-17429255D01*
X26594412Y-17596078D01*
X26615000Y-17634596D01*
X26615001Y-20133420D01*
X23633422Y-23115000D01*
X21977465Y-23115000D01*
X21892012Y-22908698D01*
X21658363Y-22559017D01*
X21360983Y-22261637D01*
X21011302Y-22027988D01*
X20622756Y-21867047D01*
X20210279Y-21785000D01*
X19789721Y-21785000D01*
X19377244Y-21867047D01*
X18988698Y-22027988D01*
X18639017Y-22261637D01*
X18341637Y-22559017D01*
X18107988Y-22908698D01*
X17947047Y-23297244D01*
X17865000Y-23709721D01*
X17865000Y-24130279D01*
X17947047Y-24542756D01*
X18107988Y-24931302D01*
X18341637Y-25280983D01*
X18639017Y-25578363D01*
X18988698Y-25812012D01*
X19377244Y-25972953D01*
X19789721Y-26055000D01*
X20210279Y-26055000D01*
X20622756Y-25972953D01*
X21011302Y-25812012D01*
X21360983Y-25578363D01*
X21658363Y-25280983D01*
X21892012Y-24931302D01*
X21911191Y-24885000D01*
X23956531Y-24885000D01*
X24000000Y-24889281D01*
X24043469Y-24885000D01*
X24043477Y-24885000D01*
X24173490Y-24872195D01*
X24340313Y-24821589D01*
X24494059Y-24739411D01*
X24628817Y-24628817D01*
X24656534Y-24595044D01*
X28095049Y-21156530D01*
X28128817Y-21128817D01*
X28170653Y-21077841D01*
X28239410Y-20994060D01*
X28239411Y-20994059D01*
X28321589Y-20840313D01*
X28372195Y-20673490D01*
X28385000Y-20543477D01*
X28385000Y-20543467D01*
X28389281Y-20500001D01*
X28385000Y-20456535D01*
X28385000Y-17383234D01*
X28389281Y-17339765D01*
X28386948Y-17316072D01*
X28616000Y-17316072D01*
X28740482Y-17303812D01*
X28860180Y-17267502D01*
X28970494Y-17208537D01*
X29067185Y-17129185D01*
X29146537Y-17032494D01*
X29205502Y-16922180D01*
X29241812Y-16802482D01*
X29254072Y-16678000D01*
X29254072Y-15331268D01*
X42211000Y-15331268D01*
X42211000Y-15692732D01*
X42281518Y-16047250D01*
X42419844Y-16381199D01*
X42620662Y-16681744D01*
X42876256Y-16937338D01*
X43161001Y-17127599D01*
X43161001Y-17165577D01*
X43156719Y-17209056D01*
X43173805Y-17382546D01*
X43215000Y-17518343D01*
X43215001Y-22556514D01*
X43215000Y-22556524D01*
X43215000Y-23156531D01*
X43210719Y-23200000D01*
X43215000Y-23243469D01*
X43215000Y-23243477D01*
X43227805Y-23373490D01*
X43278411Y-23540313D01*
X43342217Y-23659686D01*
X43360590Y-23694059D01*
X43443468Y-23795046D01*
X43443471Y-23795049D01*
X43471184Y-23828817D01*
X43504951Y-23856529D01*
X44243470Y-24595049D01*
X44271183Y-24628817D01*
X44304951Y-24656530D01*
X44304953Y-24656532D01*
X44326946Y-24674581D01*
X44405941Y-24739411D01*
X44559687Y-24821589D01*
X44726510Y-24872195D01*
X44856523Y-24885000D01*
X44856531Y-24885000D01*
X44900000Y-24889281D01*
X44943469Y-24885000D01*
X49153928Y-24885000D01*
X49153928Y-25500000D01*
X49166188Y-25624482D01*
X49202498Y-25744180D01*
X49261463Y-25854494D01*
X49340815Y-25951185D01*
X49437506Y-26030537D01*
X49547820Y-26089502D01*
X49667518Y-26125812D01*
X49792000Y-26138072D01*
X52792000Y-26138072D01*
X52916482Y-26125812D01*
X53036180Y-26089502D01*
X53146494Y-26030537D01*
X53243185Y-25951185D01*
X53322537Y-25854494D01*
X53381502Y-25744180D01*
X53417812Y-25624482D01*
X53430072Y-25500000D01*
X53430072Y-22500000D01*
X53417812Y-22375518D01*
X53381502Y-22255820D01*
X53322537Y-22145506D01*
X53243185Y-22048815D01*
X53146494Y-21969463D01*
X53036180Y-21910498D01*
X52916482Y-21874188D01*
X52792000Y-21861928D01*
X49792000Y-21861928D01*
X49667518Y-21874188D01*
X49547820Y-21910498D01*
X49437506Y-21969463D01*
X49340815Y-22048815D01*
X49261463Y-22145506D01*
X49202498Y-22255820D01*
X49166188Y-22375518D01*
X49153928Y-22500000D01*
X49153928Y-23115000D01*
X45266579Y-23115000D01*
X44985000Y-22833422D01*
X44985000Y-17306525D01*
X44989281Y-17263056D01*
X44985000Y-17219587D01*
X44985000Y-17219579D01*
X44973166Y-17099424D01*
X45215744Y-16937338D01*
X45471338Y-16681744D01*
X45672156Y-16381199D01*
X45810482Y-16047250D01*
X45881000Y-15692732D01*
X45881000Y-15331268D01*
X45810482Y-14976750D01*
X45672156Y-14642801D01*
X45471338Y-14342256D01*
X45215744Y-14086662D01*
X44915199Y-13885844D01*
X44581250Y-13747518D01*
X44226732Y-13677000D01*
X43865268Y-13677000D01*
X43510750Y-13747518D01*
X43176801Y-13885844D01*
X42876256Y-14086662D01*
X42620662Y-14342256D01*
X42419844Y-14642801D01*
X42281518Y-14976750D01*
X42211000Y-15331268D01*
X29254072Y-15331268D01*
X29254072Y-14278000D01*
X29241812Y-14153518D01*
X29205502Y-14033820D01*
X29146537Y-13923506D01*
X29067185Y-13826815D01*
X28970494Y-13747463D01*
X28860180Y-13688498D01*
X28766235Y-13660000D01*
X45784094Y-13660000D01*
X45789852Y-13662468D01*
M02*
