M48
; DRILL file {KiCad (5.1.5)-3} date 11.12.2020 17:28:04
; FORMAT={-:-/ absolute / inch / decimal}
; #@! TF.CreationDate,2020-12-11T17:28:04+02:00
; #@! TF.GenerationSoftware,Kicad,Pcbnew,(5.1.5)-3
; #@! TF.FileFunction,Plated,1,2,PTH
FMAT,2
INCH
T1C0.0079
T2C0.0157
T3C0.0315
T4C0.0354
T5C0.0394
T6C0.0787
%
G90
G05
T1
X1.8711Y-1.5
X1.8937Y-1.4626
X1.8937Y-1.5374
X1.9163Y-1.5
T2
X1.0827Y-1.5217
X2.0709Y-1.7146
X2.2244Y-2.3228
T3
X1.0969Y-0.5764
X1.1969Y-0.5764
X1.2969Y-0.5764
X1.3969Y-0.5764
X1.4567Y-2.4764
X1.4969Y-0.5764
X1.5567Y-2.4764
X1.5969Y-0.5764
X1.6567Y-2.4764
X1.6969Y-0.5764
X1.7567Y-2.4764
X1.7969Y-0.5764
X1.8567Y-2.4764
X1.8969Y-0.5764
X1.9567Y-2.4764
X1.9969Y-0.5764
X2.0567Y-2.4764
X2.1567Y-0.5764
X2.1567Y-2.4764
X2.2567Y-0.5764
X2.3567Y-0.5764
X2.3567Y-2.4764
X2.4567Y-0.5764
X2.4567Y-2.4764
X2.5567Y-0.5764
X2.5567Y-2.4764
X2.6567Y-0.5764
X2.6567Y-2.4764
X2.7567Y-0.5764
X2.7567Y-2.4764
X2.8567Y-0.5764
X2.8567Y-2.4764
X0.748Y-2.4803
X1.048Y-2.4803
T4
X0.4724Y-2.4803
X0.5724Y-2.4803
T5
X3.2283Y-0.5512
X3.2283Y-0.6512
X3.2283Y-0.7512
X3.2283Y-0.8512
X3.2283Y-1.063
X3.2283Y-1.163
X3.2283Y-1.263
X3.2283Y-1.363
X3.2283Y-1.463
X3.2283Y-1.563
X3.2283Y-1.663
X3.2283Y-1.763
X0.8465Y-2.2441
X0.9465Y-2.2441
T6
X1.8504Y-2.2717
X1.7165Y-1.8307
X2.7323Y-1.8071
T0
M30
