G04 #@! TF.GenerationSoftware,KiCad,Pcbnew,(5.1.5)-3*
G04 #@! TF.CreationDate,2020-12-11T17:28:03+02:00*
G04 #@! TF.ProjectId,led_02,6c65645f-3032-42e6-9b69-6361645f7063,rev?*
G04 #@! TF.SameCoordinates,Original*
G04 #@! TF.FileFunction,Legend,Bot*
G04 #@! TF.FilePolarity,Positive*
%FSLAX46Y46*%
G04 Gerber Fmt 4.6, Leading zero omitted, Abs format (unit mm)*
G04 Created by KiCad (PCBNEW (5.1.5)-3) date 2020-12-11 17:28:03*
%MOMM*%
%LPD*%
G04 APERTURE LIST*
%ADD10C,0.120000*%
%ADD11C,0.150000*%
G04 APERTURE END LIST*
D10*
X77770000Y-27590000D02*
X77770000Y-60360000D01*
X77770000Y-60360000D02*
X75230000Y-62900000D01*
X75230000Y-62900000D02*
X75230000Y-65570000D01*
X75230000Y-65570000D02*
X8930000Y-65570000D01*
X8930000Y-65570000D02*
X8930000Y-62390000D01*
X8930000Y-62390000D02*
X7030000Y-62390000D01*
X7030000Y-62390000D02*
X7030000Y-53250000D01*
X7030000Y-53250000D02*
X8930000Y-53250000D01*
X8930000Y-53250000D02*
X8930000Y-33180000D01*
X8930000Y-33180000D02*
X2580000Y-33180000D01*
X2580000Y-33180000D02*
X2580000Y-21500000D01*
X2580000Y-21500000D02*
X8930000Y-21500000D01*
X8930000Y-21500000D02*
X8930000Y-11970000D01*
X8930000Y-11970000D02*
X73580000Y-11970000D01*
X73580000Y-11970000D02*
X75230000Y-13620000D01*
X75230000Y-13620000D02*
X75230000Y-25050000D01*
X75230000Y-25050000D02*
X77770000Y-27590000D01*
D11*
X38984285Y-66876666D02*
X38508095Y-66876666D01*
X39079523Y-67162380D02*
X38746190Y-66162380D01*
X38412857Y-67162380D01*
X37555714Y-67162380D02*
X38127142Y-67162380D01*
X37841428Y-67162380D02*
X37841428Y-66162380D01*
X37936666Y-66305238D01*
X38031904Y-66400476D01*
X38127142Y-66448095D01*
M02*
