G04 #@! TF.GenerationSoftware,KiCad,Pcbnew,(5.1.5)-3*
G04 #@! TF.CreationDate,2020-12-11T17:28:03+02:00*
G04 #@! TF.ProjectId,led_02,6c65645f-3032-42e6-9b69-6361645f7063,rev?*
G04 #@! TF.SameCoordinates,Original*
G04 #@! TF.FileFunction,Legend,Top*
G04 #@! TF.FilePolarity,Positive*
%FSLAX46Y46*%
G04 Gerber Fmt 4.6, Leading zero omitted, Abs format (unit mm)*
G04 Created by KiCad (PCBNEW (5.1.5)-3) date 2020-12-11 17:28:03*
%MOMM*%
%LPD*%
G04 APERTURE LIST*
%ADD10C,0.150000*%
%ADD11C,0.120000*%
G04 APERTURE END LIST*
D10*
X78209523Y-21052380D02*
X78542857Y-22052380D01*
X78876190Y-21052380D01*
X79638095Y-22004761D02*
X79542857Y-22052380D01*
X79352380Y-22052380D01*
X79257142Y-22004761D01*
X79209523Y-21957142D01*
X79161904Y-21861904D01*
X79161904Y-21576190D01*
X79209523Y-21480952D01*
X79257142Y-21433333D01*
X79352380Y-21385714D01*
X79542857Y-21385714D01*
X79638095Y-21433333D01*
X80495238Y-22004761D02*
X80400000Y-22052380D01*
X80209523Y-22052380D01*
X80114285Y-22004761D01*
X80066666Y-21957142D01*
X80019047Y-21861904D01*
X80019047Y-21576190D01*
X80066666Y-21480952D01*
X80114285Y-21433333D01*
X80209523Y-21385714D01*
X80400000Y-21385714D01*
X80495238Y-21433333D01*
X78338095Y-18800000D02*
X78242857Y-18752380D01*
X78100000Y-18752380D01*
X77957142Y-18800000D01*
X77861904Y-18895238D01*
X77814285Y-18990476D01*
X77766666Y-19180952D01*
X77766666Y-19323809D01*
X77814285Y-19514285D01*
X77861904Y-19609523D01*
X77957142Y-19704761D01*
X78100000Y-19752380D01*
X78195238Y-19752380D01*
X78338095Y-19704761D01*
X78385714Y-19657142D01*
X78385714Y-19323809D01*
X78195238Y-19323809D01*
X78814285Y-19752380D02*
X78814285Y-18752380D01*
X79385714Y-19752380D01*
X79385714Y-18752380D01*
X79861904Y-19752380D02*
X79861904Y-18752380D01*
X80100000Y-18752380D01*
X80242857Y-18800000D01*
X80338095Y-18895238D01*
X80385714Y-18990476D01*
X80433333Y-19180952D01*
X80433333Y-19323809D01*
X80385714Y-19514285D01*
X80338095Y-19609523D01*
X80242857Y-19704761D01*
X80100000Y-19752380D01*
X79861904Y-19752380D01*
X78938095Y-16052380D02*
X79509523Y-16052380D01*
X79223809Y-17052380D02*
X79223809Y-16052380D01*
X79747619Y-16052380D02*
X80414285Y-17052380D01*
X80414285Y-16052380D02*
X79747619Y-17052380D01*
X79333333Y-14452380D02*
X79000000Y-13976190D01*
X78761904Y-14452380D02*
X78761904Y-13452380D01*
X79142857Y-13452380D01*
X79238095Y-13500000D01*
X79285714Y-13547619D01*
X79333333Y-13642857D01*
X79333333Y-13785714D01*
X79285714Y-13880952D01*
X79238095Y-13928571D01*
X79142857Y-13976190D01*
X78761904Y-13976190D01*
X79666666Y-13452380D02*
X80333333Y-14452380D01*
X80333333Y-13452380D02*
X79666666Y-14452380D01*
X77433333Y-45157142D02*
X77385714Y-45204761D01*
X77242857Y-45252380D01*
X77147619Y-45252380D01*
X77004761Y-45204761D01*
X76909523Y-45109523D01*
X76861904Y-45014285D01*
X76814285Y-44823809D01*
X76814285Y-44680952D01*
X76861904Y-44490476D01*
X76909523Y-44395238D01*
X77004761Y-44300000D01*
X77147619Y-44252380D01*
X77242857Y-44252380D01*
X77385714Y-44300000D01*
X77433333Y-44347619D01*
X78004761Y-45252380D02*
X77909523Y-45204761D01*
X77861904Y-45157142D01*
X77814285Y-45061904D01*
X77814285Y-44776190D01*
X77861904Y-44680952D01*
X77909523Y-44633333D01*
X78004761Y-44585714D01*
X78147619Y-44585714D01*
X78242857Y-44633333D01*
X78290476Y-44680952D01*
X78338095Y-44776190D01*
X78338095Y-45061904D01*
X78290476Y-45157142D01*
X78242857Y-45204761D01*
X78147619Y-45252380D01*
X78004761Y-45252380D01*
X78909523Y-45252380D02*
X78814285Y-45204761D01*
X78766666Y-45109523D01*
X78766666Y-44252380D01*
X79433333Y-45252380D02*
X79338095Y-45204761D01*
X79290476Y-45157142D01*
X79242857Y-45061904D01*
X79242857Y-44776190D01*
X79290476Y-44680952D01*
X79338095Y-44633333D01*
X79433333Y-44585714D01*
X79576190Y-44585714D01*
X79671428Y-44633333D01*
X79719047Y-44680952D01*
X79766666Y-44776190D01*
X79766666Y-45061904D01*
X79719047Y-45157142D01*
X79671428Y-45204761D01*
X79576190Y-45252380D01*
X79433333Y-45252380D01*
X80195238Y-45252380D02*
X80195238Y-44585714D01*
X80195238Y-44776190D02*
X80242857Y-44680952D01*
X80290476Y-44633333D01*
X80385714Y-44585714D01*
X80480952Y-44585714D01*
X76385714Y-42657142D02*
X76338095Y-42704761D01*
X76195238Y-42752380D01*
X76100000Y-42752380D01*
X75957142Y-42704761D01*
X75861904Y-42609523D01*
X75814285Y-42514285D01*
X75766666Y-42323809D01*
X75766666Y-42180952D01*
X75814285Y-41990476D01*
X75861904Y-41895238D01*
X75957142Y-41800000D01*
X76100000Y-41752380D01*
X76195238Y-41752380D01*
X76338095Y-41800000D01*
X76385714Y-41847619D01*
X76957142Y-42752380D02*
X76861904Y-42704761D01*
X76814285Y-42609523D01*
X76814285Y-41752380D01*
X77480952Y-42752380D02*
X77385714Y-42704761D01*
X77338095Y-42657142D01*
X77290476Y-42561904D01*
X77290476Y-42276190D01*
X77338095Y-42180952D01*
X77385714Y-42133333D01*
X77480952Y-42085714D01*
X77623809Y-42085714D01*
X77719047Y-42133333D01*
X77766666Y-42180952D01*
X77814285Y-42276190D01*
X77814285Y-42561904D01*
X77766666Y-42657142D01*
X77719047Y-42704761D01*
X77623809Y-42752380D01*
X77480952Y-42752380D01*
X78671428Y-42704761D02*
X78576190Y-42752380D01*
X78385714Y-42752380D01*
X78290476Y-42704761D01*
X78242857Y-42657142D01*
X78195238Y-42561904D01*
X78195238Y-42276190D01*
X78242857Y-42180952D01*
X78290476Y-42133333D01*
X78385714Y-42085714D01*
X78576190Y-42085714D01*
X78671428Y-42133333D01*
X79100000Y-42752380D02*
X79100000Y-41752380D01*
X79195238Y-42371428D02*
X79480952Y-42752380D01*
X79480952Y-42085714D02*
X79100000Y-42466666D01*
X79861904Y-41847619D02*
X79909523Y-41800000D01*
X80004761Y-41752380D01*
X80242857Y-41752380D01*
X80338095Y-41800000D01*
X80385714Y-41847619D01*
X80433333Y-41942857D01*
X80433333Y-42038095D01*
X80385714Y-42180952D01*
X79814285Y-42752380D01*
X80433333Y-42752380D01*
X76385714Y-40057142D02*
X76338095Y-40104761D01*
X76195238Y-40152380D01*
X76100000Y-40152380D01*
X75957142Y-40104761D01*
X75861904Y-40009523D01*
X75814285Y-39914285D01*
X75766666Y-39723809D01*
X75766666Y-39580952D01*
X75814285Y-39390476D01*
X75861904Y-39295238D01*
X75957142Y-39200000D01*
X76100000Y-39152380D01*
X76195238Y-39152380D01*
X76338095Y-39200000D01*
X76385714Y-39247619D01*
X76957142Y-40152380D02*
X76861904Y-40104761D01*
X76814285Y-40009523D01*
X76814285Y-39152380D01*
X77480952Y-40152380D02*
X77385714Y-40104761D01*
X77338095Y-40057142D01*
X77290476Y-39961904D01*
X77290476Y-39676190D01*
X77338095Y-39580952D01*
X77385714Y-39533333D01*
X77480952Y-39485714D01*
X77623809Y-39485714D01*
X77719047Y-39533333D01*
X77766666Y-39580952D01*
X77814285Y-39676190D01*
X77814285Y-39961904D01*
X77766666Y-40057142D01*
X77719047Y-40104761D01*
X77623809Y-40152380D01*
X77480952Y-40152380D01*
X78671428Y-40104761D02*
X78576190Y-40152380D01*
X78385714Y-40152380D01*
X78290476Y-40104761D01*
X78242857Y-40057142D01*
X78195238Y-39961904D01*
X78195238Y-39676190D01*
X78242857Y-39580952D01*
X78290476Y-39533333D01*
X78385714Y-39485714D01*
X78576190Y-39485714D01*
X78671428Y-39533333D01*
X79100000Y-40152380D02*
X79100000Y-39152380D01*
X79195238Y-39771428D02*
X79480952Y-40152380D01*
X79480952Y-39485714D02*
X79100000Y-39866666D01*
X80433333Y-40152380D02*
X79861904Y-40152380D01*
X80147619Y-40152380D02*
X80147619Y-39152380D01*
X80052380Y-39295238D01*
X79957142Y-39390476D01*
X79861904Y-39438095D01*
X77504761Y-37752380D02*
X77171428Y-37276190D01*
X76933333Y-37752380D02*
X76933333Y-36752380D01*
X77314285Y-36752380D01*
X77409523Y-36800000D01*
X77457142Y-36847619D01*
X77504761Y-36942857D01*
X77504761Y-37085714D01*
X77457142Y-37180952D01*
X77409523Y-37228571D01*
X77314285Y-37276190D01*
X76933333Y-37276190D01*
X78504761Y-37657142D02*
X78457142Y-37704761D01*
X78314285Y-37752380D01*
X78219047Y-37752380D01*
X78076190Y-37704761D01*
X77980952Y-37609523D01*
X77933333Y-37514285D01*
X77885714Y-37323809D01*
X77885714Y-37180952D01*
X77933333Y-36990476D01*
X77980952Y-36895238D01*
X78076190Y-36800000D01*
X78219047Y-36752380D01*
X78314285Y-36752380D01*
X78457142Y-36800000D01*
X78504761Y-36847619D01*
X78933333Y-37752380D02*
X78933333Y-36752380D01*
X79504761Y-37752380D02*
X79076190Y-37180952D01*
X79504761Y-36752380D02*
X78933333Y-37323809D01*
X80409523Y-37752380D02*
X79933333Y-37752380D01*
X79933333Y-36752380D01*
X79152380Y-34152380D02*
X79342857Y-34152380D01*
X79438095Y-34200000D01*
X79533333Y-34295238D01*
X79580952Y-34485714D01*
X79580952Y-34819047D01*
X79533333Y-35009523D01*
X79438095Y-35104761D01*
X79342857Y-35152380D01*
X79152380Y-35152380D01*
X79057142Y-35104761D01*
X78961904Y-35009523D01*
X78914285Y-34819047D01*
X78914285Y-34485714D01*
X78961904Y-34295238D01*
X79057142Y-34200000D01*
X79152380Y-34152380D01*
X80009523Y-34628571D02*
X80342857Y-34628571D01*
X80485714Y-35152380D02*
X80009523Y-35152380D01*
X80009523Y-34152380D01*
X80485714Y-34152380D01*
X75047619Y-32304761D02*
X74952380Y-32352380D01*
X74761904Y-32352380D01*
X74666666Y-32304761D01*
X74619047Y-32257142D01*
X74571428Y-32161904D01*
X74571428Y-31876190D01*
X74619047Y-31780952D01*
X74666666Y-31733333D01*
X74761904Y-31685714D01*
X74952380Y-31685714D01*
X75047619Y-31733333D01*
X75619047Y-32352380D02*
X75523809Y-32304761D01*
X75476190Y-32257142D01*
X75428571Y-32161904D01*
X75428571Y-31876190D01*
X75476190Y-31780952D01*
X75523809Y-31733333D01*
X75619047Y-31685714D01*
X75761904Y-31685714D01*
X75857142Y-31733333D01*
X75904761Y-31780952D01*
X75952380Y-31876190D01*
X75952380Y-32161904D01*
X75904761Y-32257142D01*
X75857142Y-32304761D01*
X75761904Y-32352380D01*
X75619047Y-32352380D01*
X76523809Y-32352380D02*
X76428571Y-32304761D01*
X76380952Y-32209523D01*
X76380952Y-31352380D01*
X77333333Y-31685714D02*
X77333333Y-32352380D01*
X76904761Y-31685714D02*
X76904761Y-32209523D01*
X76952380Y-32304761D01*
X77047619Y-32352380D01*
X77190476Y-32352380D01*
X77285714Y-32304761D01*
X77333333Y-32257142D01*
X77809523Y-32352380D02*
X77809523Y-31685714D01*
X77809523Y-31780952D02*
X77857142Y-31733333D01*
X77952380Y-31685714D01*
X78095238Y-31685714D01*
X78190476Y-31733333D01*
X78238095Y-31828571D01*
X78238095Y-32352380D01*
X78238095Y-31828571D02*
X78285714Y-31733333D01*
X78380952Y-31685714D01*
X78523809Y-31685714D01*
X78619047Y-31733333D01*
X78666666Y-31828571D01*
X78666666Y-32352380D01*
X79142857Y-31685714D02*
X79142857Y-32352380D01*
X79142857Y-31780952D02*
X79190476Y-31733333D01*
X79285714Y-31685714D01*
X79428571Y-31685714D01*
X79523809Y-31733333D01*
X79571428Y-31828571D01*
X79571428Y-32352380D01*
X80000000Y-32304761D02*
X80095238Y-32352380D01*
X80285714Y-32352380D01*
X80380952Y-32304761D01*
X80428571Y-32209523D01*
X80428571Y-32161904D01*
X80380952Y-32066666D01*
X80285714Y-32019047D01*
X80142857Y-32019047D01*
X80047619Y-31971428D01*
X80000000Y-31876190D01*
X80000000Y-31828571D01*
X80047619Y-31733333D01*
X80142857Y-31685714D01*
X80285714Y-31685714D01*
X80380952Y-31733333D01*
X78009523Y-28852380D02*
X78342857Y-29852380D01*
X78676190Y-28852380D01*
X79438095Y-29804761D02*
X79342857Y-29852380D01*
X79152380Y-29852380D01*
X79057142Y-29804761D01*
X79009523Y-29757142D01*
X78961904Y-29661904D01*
X78961904Y-29376190D01*
X79009523Y-29280952D01*
X79057142Y-29233333D01*
X79152380Y-29185714D01*
X79342857Y-29185714D01*
X79438095Y-29233333D01*
X80295238Y-29804761D02*
X80200000Y-29852380D01*
X80009523Y-29852380D01*
X79914285Y-29804761D01*
X79866666Y-29757142D01*
X79819047Y-29661904D01*
X79819047Y-29376190D01*
X79866666Y-29280952D01*
X79914285Y-29233333D01*
X80009523Y-29185714D01*
X80200000Y-29185714D01*
X80295238Y-29233333D01*
X78338095Y-26600000D02*
X78242857Y-26552380D01*
X78100000Y-26552380D01*
X77957142Y-26600000D01*
X77861904Y-26695238D01*
X77814285Y-26790476D01*
X77766666Y-26980952D01*
X77766666Y-27123809D01*
X77814285Y-27314285D01*
X77861904Y-27409523D01*
X77957142Y-27504761D01*
X78100000Y-27552380D01*
X78195238Y-27552380D01*
X78338095Y-27504761D01*
X78385714Y-27457142D01*
X78385714Y-27123809D01*
X78195238Y-27123809D01*
X78814285Y-27552380D02*
X78814285Y-26552380D01*
X79385714Y-27552380D01*
X79385714Y-26552380D01*
X79861904Y-27552380D02*
X79861904Y-26552380D01*
X80100000Y-26552380D01*
X80242857Y-26600000D01*
X80338095Y-26695238D01*
X80385714Y-26790476D01*
X80433333Y-26980952D01*
X80433333Y-27123809D01*
X80385714Y-27314285D01*
X80338095Y-27409523D01*
X80242857Y-27504761D01*
X80100000Y-27552380D01*
X79861904Y-27552380D01*
D11*
X59030000Y-57440000D02*
X59030000Y-58900000D01*
X55870000Y-57440000D02*
X55870000Y-59600000D01*
X55870000Y-57440000D02*
X56800000Y-57440000D01*
X59030000Y-57440000D02*
X58100000Y-57440000D01*
X25370000Y-58330000D02*
X25370000Y-55670000D01*
X22770000Y-58330000D02*
X25370000Y-58330000D01*
X22770000Y-55670000D02*
X25370000Y-55670000D01*
X22770000Y-58330000D02*
X22770000Y-55670000D01*
X21500000Y-58330000D02*
X20170000Y-58330000D01*
X20170000Y-58330000D02*
X20170000Y-57000000D01*
X24800000Y-32500000D02*
X26800000Y-32500000D01*
X26800000Y-32500000D02*
X26800000Y-28650000D01*
X24800000Y-32500000D02*
X24800000Y-28650000D01*
X80670000Y-22950000D02*
X83330000Y-22950000D01*
X80670000Y-15270000D02*
X80670000Y-22950000D01*
X83330000Y-15270000D02*
X83330000Y-22950000D01*
X80670000Y-15270000D02*
X83330000Y-15270000D01*
X80670000Y-14000000D02*
X80670000Y-12670000D01*
X80670000Y-12670000D02*
X82000000Y-12670000D01*
X80670000Y-46110000D02*
X83330000Y-46110000D01*
X80670000Y-28270000D02*
X80670000Y-46110000D01*
X83330000Y-28270000D02*
X83330000Y-46110000D01*
X80670000Y-28270000D02*
X83330000Y-28270000D01*
X80670000Y-27000000D02*
X80670000Y-25670000D01*
X80670000Y-25670000D02*
X82000000Y-25670000D01*
X34880000Y-29540000D02*
X33950000Y-29540000D01*
X31720000Y-29540000D02*
X32650000Y-29540000D01*
X31720000Y-29540000D02*
X31720000Y-31700000D01*
X34880000Y-29540000D02*
X34880000Y-31000000D01*
X33250000Y-41250000D02*
X33250000Y-39750000D01*
X33250000Y-39750000D02*
X33150000Y-39750000D01*
X33150000Y-39750000D02*
X33150000Y-37850000D01*
X26350000Y-41250000D02*
X26350000Y-39750000D01*
X26350000Y-39750000D02*
X26450000Y-39750000D01*
X26450000Y-39750000D02*
X26450000Y-38650000D01*
X26121078Y-36010000D02*
X25603922Y-36010000D01*
X26121078Y-34590000D02*
X25603922Y-34590000D01*
X30010000Y-30558578D02*
X30010000Y-30041422D01*
X28590000Y-30558578D02*
X28590000Y-30041422D01*
X30010000Y-34541422D02*
X30010000Y-35058578D01*
X28590000Y-34541422D02*
X28590000Y-35058578D01*
X33510000Y-35121078D02*
X33510000Y-34603922D01*
X32090000Y-35121078D02*
X32090000Y-34603922D01*
X17860000Y-60580000D02*
X27760000Y-60580000D01*
X17860000Y-65420000D02*
X27760000Y-65420000D01*
X17860000Y-60580000D02*
X17860000Y-65420000D01*
X27760000Y-60580000D02*
X27760000Y-65420000D01*
X17620000Y-60340000D02*
X19004000Y-60340000D01*
X17620000Y-60340000D02*
X17620000Y-61723000D01*
X20780000Y-62365000D02*
X20780000Y-63635000D01*
X20780000Y-63635000D02*
X24840000Y-63635000D01*
X24840000Y-63635000D02*
X24840000Y-62365000D01*
X24840000Y-62365000D02*
X20780000Y-62365000D01*
X20780000Y-62485000D02*
X22133333Y-62485000D01*
X20780000Y-62605000D02*
X22133333Y-62605000D01*
X20780000Y-62725000D02*
X22133333Y-62725000D01*
X20780000Y-62845000D02*
X22133333Y-62845000D01*
X20780000Y-62965000D02*
X22133333Y-62965000D01*
X20780000Y-63085000D02*
X22133333Y-63085000D01*
X20780000Y-63205000D02*
X22133333Y-63205000D01*
X20780000Y-63325000D02*
X22133333Y-63325000D01*
X20780000Y-63445000D02*
X22133333Y-63445000D01*
X20780000Y-63565000D02*
X22133333Y-63565000D01*
X22133333Y-62365000D02*
X22133333Y-63635000D01*
X15513242Y-61919276D02*
G75*
G03X11210000Y-61601251I-2243242J-1080724D01*
G01*
X15513242Y-64080724D02*
G75*
G02X11210000Y-64398749I-2243242J1080724D01*
G01*
X14952713Y-61919039D02*
G75*
G03X11586670Y-61920000I-1682713J-1080961D01*
G01*
X14952713Y-64080961D02*
G75*
G02X11586670Y-64080000I-1682713J1080961D01*
G01*
X11210000Y-61601000D02*
X11210000Y-61920000D01*
X11210000Y-64080000D02*
X11210000Y-64399000D01*
X44310000Y-36858578D02*
X44310000Y-36341422D01*
X42890000Y-36858578D02*
X42890000Y-36341422D01*
X53310000Y-42341422D02*
X53310000Y-42858578D01*
X51890000Y-42341422D02*
X51890000Y-42858578D01*
X52810000Y-33841422D02*
X52810000Y-34358578D01*
X51390000Y-33841422D02*
X51390000Y-34358578D01*
X64600000Y-28700000D02*
X65200000Y-28700000D01*
X65200000Y-28700000D02*
X70300000Y-35600000D01*
X70300000Y-35600000D02*
X70300000Y-40500000D01*
X70300000Y-40500000D02*
X65200000Y-47500000D01*
X60000000Y-28700000D02*
X60600000Y-28700000D01*
X64600000Y-47500000D02*
X65200000Y-47500000D01*
X54800000Y-35800000D02*
X54800000Y-40500000D01*
X54800000Y-40500000D02*
X60000000Y-47500000D01*
X60000000Y-28700000D02*
X54800000Y-35800000D01*
X60000000Y-47500000D02*
X60600000Y-47500000D01*
X11710000Y-57758578D02*
X11710000Y-57241422D01*
X10290000Y-57758578D02*
X10290000Y-57241422D01*
X48421078Y-42390000D02*
X47903922Y-42390000D01*
X48421078Y-43810000D02*
X47903922Y-43810000D01*
X42890000Y-41358578D02*
X42890000Y-40841422D01*
X44310000Y-41358578D02*
X44310000Y-40841422D01*
X48358578Y-34310000D02*
X47841422Y-34310000D01*
X48358578Y-32890000D02*
X47841422Y-32890000D01*
X49710000Y-36720000D02*
X49710000Y-36490000D01*
X49710000Y-36490000D02*
X48735000Y-36490000D01*
X46490000Y-36720000D02*
X46490000Y-36490000D01*
X47465000Y-36490000D02*
X46490000Y-36490000D01*
X47465000Y-39710000D02*
X46490000Y-39710000D01*
X46490000Y-39710000D02*
X46490000Y-39480000D01*
X49740000Y-39710000D02*
X48735000Y-39710000D01*
X71100000Y-45900000D02*
G75*
G03X71100000Y-45900000I-1700000J0D01*
G01*
X48700000Y-57700000D02*
G75*
G03X48700000Y-57700000I-1700000J0D01*
G01*
X45300000Y-46500000D02*
G75*
G03X45300000Y-46500000I-1700000J0D01*
G01*
D10*
X56838095Y-60152380D02*
X56838095Y-60961904D01*
X56885714Y-61057142D01*
X56933333Y-61104761D01*
X57028571Y-61152380D01*
X57219047Y-61152380D01*
X57314285Y-61104761D01*
X57361904Y-61057142D01*
X57409523Y-60961904D01*
X57409523Y-60152380D01*
X58409523Y-61152380D02*
X57838095Y-61152380D01*
X58123809Y-61152380D02*
X58123809Y-60152380D01*
X58028571Y-60295238D01*
X57933333Y-60390476D01*
X57838095Y-60438095D01*
X19098571Y-57785714D02*
X19146190Y-57642857D01*
X19193809Y-57595238D01*
X19289047Y-57547619D01*
X19431904Y-57547619D01*
X19527142Y-57595238D01*
X19574761Y-57642857D01*
X19622380Y-57738095D01*
X19622380Y-58119047D01*
X18622380Y-58119047D01*
X18622380Y-57785714D01*
X18670000Y-57690476D01*
X18717619Y-57642857D01*
X18812857Y-57595238D01*
X18908095Y-57595238D01*
X19003333Y-57642857D01*
X19050952Y-57690476D01*
X19098571Y-57785714D01*
X19098571Y-58119047D01*
X18622380Y-57261904D02*
X18622380Y-56690476D01*
X19622380Y-56976190D02*
X18622380Y-56976190D01*
X19622380Y-55833333D02*
X19622380Y-56404761D01*
X19622380Y-56119047D02*
X18622380Y-56119047D01*
X18765238Y-56214285D01*
X18860476Y-56309523D01*
X18908095Y-56404761D01*
X24452380Y-30838095D02*
X23452380Y-30838095D01*
X23452380Y-30600000D01*
X23500000Y-30457142D01*
X23595238Y-30361904D01*
X23690476Y-30314285D01*
X23880952Y-30266666D01*
X24023809Y-30266666D01*
X24214285Y-30314285D01*
X24309523Y-30361904D01*
X24404761Y-30457142D01*
X24452380Y-30600000D01*
X24452380Y-30838095D01*
X24452380Y-29314285D02*
X24452380Y-29885714D01*
X24452380Y-29600000D02*
X23452380Y-29600000D01*
X23595238Y-29695238D01*
X23690476Y-29790476D01*
X23738095Y-29885714D01*
X81666666Y-10952380D02*
X81666666Y-11666666D01*
X81619047Y-11809523D01*
X81523809Y-11904761D01*
X81380952Y-11952380D01*
X81285714Y-11952380D01*
X82095238Y-11047619D02*
X82142857Y-11000000D01*
X82238095Y-10952380D01*
X82476190Y-10952380D01*
X82571428Y-11000000D01*
X82619047Y-11047619D01*
X82666666Y-11142857D01*
X82666666Y-11238095D01*
X82619047Y-11380952D01*
X82047619Y-11952380D01*
X82666666Y-11952380D01*
X81666666Y-24352380D02*
X81666666Y-25066666D01*
X81619047Y-25209523D01*
X81523809Y-25304761D01*
X81380952Y-25352380D01*
X81285714Y-25352380D01*
X82047619Y-24352380D02*
X82666666Y-24352380D01*
X82333333Y-24733333D01*
X82476190Y-24733333D01*
X82571428Y-24780952D01*
X82619047Y-24828571D01*
X82666666Y-24923809D01*
X82666666Y-25161904D01*
X82619047Y-25257142D01*
X82571428Y-25304761D01*
X82476190Y-25352380D01*
X82190476Y-25352380D01*
X82095238Y-25304761D01*
X82047619Y-25257142D01*
X36347619Y-30795238D02*
X36300000Y-30890476D01*
X36204761Y-30985714D01*
X36061904Y-31128571D01*
X36014285Y-31223809D01*
X36014285Y-31319047D01*
X36252380Y-31271428D02*
X36204761Y-31366666D01*
X36109523Y-31461904D01*
X35919047Y-31509523D01*
X35585714Y-31509523D01*
X35395238Y-31461904D01*
X35300000Y-31366666D01*
X35252380Y-31271428D01*
X35252380Y-31080952D01*
X35300000Y-30985714D01*
X35395238Y-30890476D01*
X35585714Y-30842857D01*
X35919047Y-30842857D01*
X36109523Y-30890476D01*
X36204761Y-30985714D01*
X36252380Y-31080952D01*
X36252380Y-31271428D01*
X36252380Y-29890476D02*
X36252380Y-30461904D01*
X36252380Y-30176190D02*
X35252380Y-30176190D01*
X35395238Y-30271428D01*
X35490476Y-30366666D01*
X35538095Y-30461904D01*
X34847619Y-40595238D02*
X34800000Y-40690476D01*
X34704761Y-40785714D01*
X34561904Y-40928571D01*
X34514285Y-41023809D01*
X34514285Y-41119047D01*
X34752380Y-41071428D02*
X34704761Y-41166666D01*
X34609523Y-41261904D01*
X34419047Y-41309523D01*
X34085714Y-41309523D01*
X33895238Y-41261904D01*
X33800000Y-41166666D01*
X33752380Y-41071428D01*
X33752380Y-40880952D01*
X33800000Y-40785714D01*
X33895238Y-40690476D01*
X34085714Y-40642857D01*
X34419047Y-40642857D01*
X34609523Y-40690476D01*
X34704761Y-40785714D01*
X34752380Y-40880952D01*
X34752380Y-41071428D01*
X33847619Y-40261904D02*
X33800000Y-40214285D01*
X33752380Y-40119047D01*
X33752380Y-39880952D01*
X33800000Y-39785714D01*
X33847619Y-39738095D01*
X33942857Y-39690476D01*
X34038095Y-39690476D01*
X34180952Y-39738095D01*
X34752380Y-40309523D01*
X34752380Y-39690476D01*
X23033333Y-35852380D02*
X22700000Y-35376190D01*
X22461904Y-35852380D02*
X22461904Y-34852380D01*
X22842857Y-34852380D01*
X22938095Y-34900000D01*
X22985714Y-34947619D01*
X23033333Y-35042857D01*
X23033333Y-35185714D01*
X22985714Y-35280952D01*
X22938095Y-35328571D01*
X22842857Y-35376190D01*
X22461904Y-35376190D01*
X23985714Y-35852380D02*
X23414285Y-35852380D01*
X23700000Y-35852380D02*
X23700000Y-34852380D01*
X23604761Y-34995238D01*
X23509523Y-35090476D01*
X23414285Y-35138095D01*
X29233333Y-28152380D02*
X28900000Y-27676190D01*
X28661904Y-28152380D02*
X28661904Y-27152380D01*
X29042857Y-27152380D01*
X29138095Y-27200000D01*
X29185714Y-27247619D01*
X29233333Y-27342857D01*
X29233333Y-27485714D01*
X29185714Y-27580952D01*
X29138095Y-27628571D01*
X29042857Y-27676190D01*
X28661904Y-27676190D01*
X29614285Y-27247619D02*
X29661904Y-27200000D01*
X29757142Y-27152380D01*
X29995238Y-27152380D01*
X30090476Y-27200000D01*
X30138095Y-27247619D01*
X30185714Y-27342857D01*
X30185714Y-27438095D01*
X30138095Y-27580952D01*
X29566666Y-28152380D01*
X30185714Y-28152380D01*
X31452380Y-34966666D02*
X30976190Y-35300000D01*
X31452380Y-35538095D02*
X30452380Y-35538095D01*
X30452380Y-35157142D01*
X30500000Y-35061904D01*
X30547619Y-35014285D01*
X30642857Y-34966666D01*
X30785714Y-34966666D01*
X30880952Y-35014285D01*
X30928571Y-35061904D01*
X30976190Y-35157142D01*
X30976190Y-35538095D01*
X30452380Y-34633333D02*
X30452380Y-34014285D01*
X30833333Y-34347619D01*
X30833333Y-34204761D01*
X30880952Y-34109523D01*
X30928571Y-34061904D01*
X31023809Y-34014285D01*
X31261904Y-34014285D01*
X31357142Y-34061904D01*
X31404761Y-34109523D01*
X31452380Y-34204761D01*
X31452380Y-34490476D01*
X31404761Y-34585714D01*
X31357142Y-34633333D01*
X35152380Y-35066666D02*
X34676190Y-35400000D01*
X35152380Y-35638095D02*
X34152380Y-35638095D01*
X34152380Y-35257142D01*
X34200000Y-35161904D01*
X34247619Y-35114285D01*
X34342857Y-35066666D01*
X34485714Y-35066666D01*
X34580952Y-35114285D01*
X34628571Y-35161904D01*
X34676190Y-35257142D01*
X34676190Y-35638095D01*
X34485714Y-34209523D02*
X35152380Y-34209523D01*
X34104761Y-34447619D02*
X34819047Y-34685714D01*
X34819047Y-34066666D01*
X21476666Y-59984761D02*
X21619523Y-60032380D01*
X21857619Y-60032380D01*
X21952857Y-59984761D01*
X22000476Y-59937142D01*
X22048095Y-59841904D01*
X22048095Y-59746666D01*
X22000476Y-59651428D01*
X21952857Y-59603809D01*
X21857619Y-59556190D01*
X21667142Y-59508571D01*
X21571904Y-59460952D01*
X21524285Y-59413333D01*
X21476666Y-59318095D01*
X21476666Y-59222857D01*
X21524285Y-59127619D01*
X21571904Y-59080000D01*
X21667142Y-59032380D01*
X21905238Y-59032380D01*
X22048095Y-59080000D01*
X22381428Y-59032380D02*
X22619523Y-60032380D01*
X22810000Y-59318095D01*
X23000476Y-60032380D01*
X23238571Y-59032380D01*
X24143333Y-60032380D02*
X23571904Y-60032380D01*
X23857619Y-60032380D02*
X23857619Y-59032380D01*
X23762380Y-59175238D01*
X23667142Y-59270476D01*
X23571904Y-59318095D01*
X12531904Y-59992380D02*
X12531904Y-58992380D01*
X12770000Y-58992380D01*
X12912857Y-59040000D01*
X13008095Y-59135238D01*
X13055714Y-59230476D01*
X13103333Y-59420952D01*
X13103333Y-59563809D01*
X13055714Y-59754285D01*
X13008095Y-59849523D01*
X12912857Y-59944761D01*
X12770000Y-59992380D01*
X12531904Y-59992380D01*
X13484285Y-59087619D02*
X13531904Y-59040000D01*
X13627142Y-58992380D01*
X13865238Y-58992380D01*
X13960476Y-59040000D01*
X14008095Y-59087619D01*
X14055714Y-59182857D01*
X14055714Y-59278095D01*
X14008095Y-59420952D01*
X13436666Y-59992380D01*
X14055714Y-59992380D01*
X42157142Y-36766666D02*
X42204761Y-36814285D01*
X42252380Y-36957142D01*
X42252380Y-37052380D01*
X42204761Y-37195238D01*
X42109523Y-37290476D01*
X42014285Y-37338095D01*
X41823809Y-37385714D01*
X41680952Y-37385714D01*
X41490476Y-37338095D01*
X41395238Y-37290476D01*
X41300000Y-37195238D01*
X41252380Y-37052380D01*
X41252380Y-36957142D01*
X41300000Y-36814285D01*
X41347619Y-36766666D01*
X42252380Y-35814285D02*
X42252380Y-36385714D01*
X42252380Y-36100000D02*
X41252380Y-36100000D01*
X41395238Y-36195238D01*
X41490476Y-36290476D01*
X41538095Y-36385714D01*
X54957142Y-42766666D02*
X55004761Y-42814285D01*
X55052380Y-42957142D01*
X55052380Y-43052380D01*
X55004761Y-43195238D01*
X54909523Y-43290476D01*
X54814285Y-43338095D01*
X54623809Y-43385714D01*
X54480952Y-43385714D01*
X54290476Y-43338095D01*
X54195238Y-43290476D01*
X54100000Y-43195238D01*
X54052380Y-43052380D01*
X54052380Y-42957142D01*
X54100000Y-42814285D01*
X54147619Y-42766666D01*
X54147619Y-42385714D02*
X54100000Y-42338095D01*
X54052380Y-42242857D01*
X54052380Y-42004761D01*
X54100000Y-41909523D01*
X54147619Y-41861904D01*
X54242857Y-41814285D01*
X54338095Y-41814285D01*
X54480952Y-41861904D01*
X55052380Y-42433333D01*
X55052380Y-41814285D01*
X54557142Y-34266666D02*
X54604761Y-34314285D01*
X54652380Y-34457142D01*
X54652380Y-34552380D01*
X54604761Y-34695238D01*
X54509523Y-34790476D01*
X54414285Y-34838095D01*
X54223809Y-34885714D01*
X54080952Y-34885714D01*
X53890476Y-34838095D01*
X53795238Y-34790476D01*
X53700000Y-34695238D01*
X53652380Y-34552380D01*
X53652380Y-34457142D01*
X53700000Y-34314285D01*
X53747619Y-34266666D01*
X53652380Y-33361904D02*
X53652380Y-33838095D01*
X54128571Y-33885714D01*
X54080952Y-33838095D01*
X54033333Y-33742857D01*
X54033333Y-33504761D01*
X54080952Y-33409523D01*
X54128571Y-33361904D01*
X54223809Y-33314285D01*
X54461904Y-33314285D01*
X54557142Y-33361904D01*
X54604761Y-33409523D01*
X54652380Y-33504761D01*
X54652380Y-33742857D01*
X54604761Y-33838095D01*
X54557142Y-33885714D01*
X71752380Y-38366666D02*
X71752380Y-38842857D01*
X70752380Y-38842857D01*
X71752380Y-37509523D02*
X71752380Y-38080952D01*
X71752380Y-37795238D02*
X70752380Y-37795238D01*
X70895238Y-37890476D01*
X70990476Y-37985714D01*
X71038095Y-38080952D01*
X13352380Y-57666666D02*
X12876190Y-58000000D01*
X13352380Y-58238095D02*
X12352380Y-58238095D01*
X12352380Y-57857142D01*
X12400000Y-57761904D01*
X12447619Y-57714285D01*
X12542857Y-57666666D01*
X12685714Y-57666666D01*
X12780952Y-57714285D01*
X12828571Y-57761904D01*
X12876190Y-57857142D01*
X12876190Y-58238095D01*
X12352380Y-56761904D02*
X12352380Y-57238095D01*
X12828571Y-57285714D01*
X12780952Y-57238095D01*
X12733333Y-57142857D01*
X12733333Y-56904761D01*
X12780952Y-56809523D01*
X12828571Y-56761904D01*
X12923809Y-56714285D01*
X13161904Y-56714285D01*
X13257142Y-56761904D01*
X13304761Y-56809523D01*
X13352380Y-56904761D01*
X13352380Y-57142857D01*
X13304761Y-57238095D01*
X13257142Y-57285714D01*
X47995833Y-45452380D02*
X47662500Y-44976190D01*
X47424404Y-45452380D02*
X47424404Y-44452380D01*
X47805357Y-44452380D01*
X47900595Y-44500000D01*
X47948214Y-44547619D01*
X47995833Y-44642857D01*
X47995833Y-44785714D01*
X47948214Y-44880952D01*
X47900595Y-44928571D01*
X47805357Y-44976190D01*
X47424404Y-44976190D01*
X48329166Y-44452380D02*
X48995833Y-44452380D01*
X48567261Y-45452380D01*
X42252380Y-41366666D02*
X41776190Y-41700000D01*
X42252380Y-41938095D02*
X41252380Y-41938095D01*
X41252380Y-41557142D01*
X41300000Y-41461904D01*
X41347619Y-41414285D01*
X41442857Y-41366666D01*
X41585714Y-41366666D01*
X41680952Y-41414285D01*
X41728571Y-41461904D01*
X41776190Y-41557142D01*
X41776190Y-41938095D01*
X41680952Y-40795238D02*
X41633333Y-40890476D01*
X41585714Y-40938095D01*
X41490476Y-40985714D01*
X41442857Y-40985714D01*
X41347619Y-40938095D01*
X41300000Y-40890476D01*
X41252380Y-40795238D01*
X41252380Y-40604761D01*
X41300000Y-40509523D01*
X41347619Y-40461904D01*
X41442857Y-40414285D01*
X41490476Y-40414285D01*
X41585714Y-40461904D01*
X41633333Y-40509523D01*
X41680952Y-40604761D01*
X41680952Y-40795238D01*
X41728571Y-40890476D01*
X41776190Y-40938095D01*
X41871428Y-40985714D01*
X42061904Y-40985714D01*
X42157142Y-40938095D01*
X42204761Y-40890476D01*
X42252380Y-40795238D01*
X42252380Y-40604761D01*
X42204761Y-40509523D01*
X42157142Y-40461904D01*
X42061904Y-40414285D01*
X41871428Y-40414285D01*
X41776190Y-40461904D01*
X41728571Y-40509523D01*
X41680952Y-40604761D01*
X47833333Y-32252380D02*
X47500000Y-31776190D01*
X47261904Y-32252380D02*
X47261904Y-31252380D01*
X47642857Y-31252380D01*
X47738095Y-31300000D01*
X47785714Y-31347619D01*
X47833333Y-31442857D01*
X47833333Y-31585714D01*
X47785714Y-31680952D01*
X47738095Y-31728571D01*
X47642857Y-31776190D01*
X47261904Y-31776190D01*
X48309523Y-32252380D02*
X48500000Y-32252380D01*
X48595238Y-32204761D01*
X48642857Y-32157142D01*
X48738095Y-32014285D01*
X48785714Y-31823809D01*
X48785714Y-31442857D01*
X48738095Y-31347619D01*
X48690476Y-31300000D01*
X48595238Y-31252380D01*
X48404761Y-31252380D01*
X48309523Y-31300000D01*
X48261904Y-31347619D01*
X48214285Y-31442857D01*
X48214285Y-31680952D01*
X48261904Y-31776190D01*
X48309523Y-31823809D01*
X48404761Y-31871428D01*
X48595238Y-31871428D01*
X48690476Y-31823809D01*
X48738095Y-31776190D01*
X48785714Y-31680952D01*
X50338095Y-37452380D02*
X50338095Y-38261904D01*
X50385714Y-38357142D01*
X50433333Y-38404761D01*
X50528571Y-38452380D01*
X50719047Y-38452380D01*
X50814285Y-38404761D01*
X50861904Y-38357142D01*
X50909523Y-38261904D01*
X50909523Y-37452380D01*
X51338095Y-37547619D02*
X51385714Y-37500000D01*
X51480952Y-37452380D01*
X51719047Y-37452380D01*
X51814285Y-37500000D01*
X51861904Y-37547619D01*
X51909523Y-37642857D01*
X51909523Y-37738095D01*
X51861904Y-37880952D01*
X51290476Y-38452380D01*
X51909523Y-38452380D01*
X69709523Y-43854380D02*
X69233333Y-43854380D01*
X69233333Y-42854380D01*
X45666666Y-55652380D02*
X45666666Y-54652380D01*
X46047619Y-54652380D01*
X46142857Y-54700000D01*
X46190476Y-54747619D01*
X46238095Y-54842857D01*
X46238095Y-54985714D01*
X46190476Y-55080952D01*
X46142857Y-55128571D01*
X46047619Y-55176190D01*
X45666666Y-55176190D01*
X46571428Y-54652380D02*
X46809523Y-55652380D01*
X47000000Y-54938095D01*
X47190476Y-55652380D01*
X47428571Y-54652380D01*
X48380952Y-55652380D02*
X48047619Y-55176190D01*
X47809523Y-55652380D02*
X47809523Y-54652380D01*
X48190476Y-54652380D01*
X48285714Y-54700000D01*
X48333333Y-54747619D01*
X48380952Y-54842857D01*
X48380952Y-54985714D01*
X48333333Y-55080952D01*
X48285714Y-55128571D01*
X48190476Y-55176190D01*
X47809523Y-55176190D01*
X42076190Y-48352380D02*
X42409523Y-49352380D01*
X42742857Y-48352380D01*
X43219047Y-49352380D02*
X43123809Y-49304761D01*
X43076190Y-49257142D01*
X43028571Y-49161904D01*
X43028571Y-48876190D01*
X43076190Y-48780952D01*
X43123809Y-48733333D01*
X43219047Y-48685714D01*
X43361904Y-48685714D01*
X43457142Y-48733333D01*
X43504761Y-48780952D01*
X43552380Y-48876190D01*
X43552380Y-49161904D01*
X43504761Y-49257142D01*
X43457142Y-49304761D01*
X43361904Y-49352380D01*
X43219047Y-49352380D01*
X44409523Y-48685714D02*
X44409523Y-49352380D01*
X43980952Y-48685714D02*
X43980952Y-49209523D01*
X44028571Y-49304761D01*
X44123809Y-49352380D01*
X44266666Y-49352380D01*
X44361904Y-49304761D01*
X44409523Y-49257142D01*
X44742857Y-48685714D02*
X45123809Y-48685714D01*
X44885714Y-48352380D02*
X44885714Y-49209523D01*
X44933333Y-49304761D01*
X45028571Y-49352380D01*
X45123809Y-49352380D01*
M02*
