G04 #@! TF.GenerationSoftware,KiCad,Pcbnew,(5.1.5)-3*
G04 #@! TF.CreationDate,2020-12-11T17:28:03+02:00*
G04 #@! TF.ProjectId,led_02,6c65645f-3032-42e6-9b69-6361645f7063,rev?*
G04 #@! TF.SameCoordinates,Original*
G04 #@! TF.FileFunction,Paste,Top*
G04 #@! TF.FilePolarity,Positive*
%FSLAX46Y46*%
G04 Gerber Fmt 4.6, Leading zero omitted, Abs format (unit mm)*
G04 Created by KiCad (PCBNEW (5.1.5)-3) date 2020-12-11 17:28:03*
%MOMM*%
%LPD*%
G04 APERTURE LIST*
%ADD10R,0.800000X0.900000*%
%ADD11R,1.100000X1.100000*%
%ADD12R,1.500000X1.600000*%
%ADD13R,3.100000X3.200000*%
%ADD14C,0.100000*%
%ADD15R,2.790000X2.920000*%
%ADD16R,0.600000X0.240000*%
G04 APERTURE END LIST*
D10*
X57450000Y-57200000D03*
X58400000Y-59200000D03*
X56500000Y-59200000D03*
D11*
X25800000Y-31700000D03*
X25800000Y-28900000D03*
D10*
X32350000Y-31300000D03*
X34250000Y-31300000D03*
X33300000Y-29300000D03*
D12*
X32100000Y-38650000D03*
X27500000Y-38650000D03*
D13*
X28100000Y-46550000D03*
X31500000Y-43050000D03*
X31500000Y-46550000D03*
X28100000Y-43050000D03*
D14*
G36*
X27067642Y-34601174D02*
G01*
X27091303Y-34604684D01*
X27114507Y-34610496D01*
X27137029Y-34618554D01*
X27158653Y-34628782D01*
X27179170Y-34641079D01*
X27198383Y-34655329D01*
X27216107Y-34671393D01*
X27232171Y-34689117D01*
X27246421Y-34708330D01*
X27258718Y-34728847D01*
X27268946Y-34750471D01*
X27277004Y-34772993D01*
X27282816Y-34796197D01*
X27286326Y-34819858D01*
X27287500Y-34843750D01*
X27287500Y-35756250D01*
X27286326Y-35780142D01*
X27282816Y-35803803D01*
X27277004Y-35827007D01*
X27268946Y-35849529D01*
X27258718Y-35871153D01*
X27246421Y-35891670D01*
X27232171Y-35910883D01*
X27216107Y-35928607D01*
X27198383Y-35944671D01*
X27179170Y-35958921D01*
X27158653Y-35971218D01*
X27137029Y-35981446D01*
X27114507Y-35989504D01*
X27091303Y-35995316D01*
X27067642Y-35998826D01*
X27043750Y-36000000D01*
X26556250Y-36000000D01*
X26532358Y-35998826D01*
X26508697Y-35995316D01*
X26485493Y-35989504D01*
X26462971Y-35981446D01*
X26441347Y-35971218D01*
X26420830Y-35958921D01*
X26401617Y-35944671D01*
X26383893Y-35928607D01*
X26367829Y-35910883D01*
X26353579Y-35891670D01*
X26341282Y-35871153D01*
X26331054Y-35849529D01*
X26322996Y-35827007D01*
X26317184Y-35803803D01*
X26313674Y-35780142D01*
X26312500Y-35756250D01*
X26312500Y-34843750D01*
X26313674Y-34819858D01*
X26317184Y-34796197D01*
X26322996Y-34772993D01*
X26331054Y-34750471D01*
X26341282Y-34728847D01*
X26353579Y-34708330D01*
X26367829Y-34689117D01*
X26383893Y-34671393D01*
X26401617Y-34655329D01*
X26420830Y-34641079D01*
X26441347Y-34628782D01*
X26462971Y-34618554D01*
X26485493Y-34610496D01*
X26508697Y-34604684D01*
X26532358Y-34601174D01*
X26556250Y-34600000D01*
X27043750Y-34600000D01*
X27067642Y-34601174D01*
G37*
G36*
X25192642Y-34601174D02*
G01*
X25216303Y-34604684D01*
X25239507Y-34610496D01*
X25262029Y-34618554D01*
X25283653Y-34628782D01*
X25304170Y-34641079D01*
X25323383Y-34655329D01*
X25341107Y-34671393D01*
X25357171Y-34689117D01*
X25371421Y-34708330D01*
X25383718Y-34728847D01*
X25393946Y-34750471D01*
X25402004Y-34772993D01*
X25407816Y-34796197D01*
X25411326Y-34819858D01*
X25412500Y-34843750D01*
X25412500Y-35756250D01*
X25411326Y-35780142D01*
X25407816Y-35803803D01*
X25402004Y-35827007D01*
X25393946Y-35849529D01*
X25383718Y-35871153D01*
X25371421Y-35891670D01*
X25357171Y-35910883D01*
X25341107Y-35928607D01*
X25323383Y-35944671D01*
X25304170Y-35958921D01*
X25283653Y-35971218D01*
X25262029Y-35981446D01*
X25239507Y-35989504D01*
X25216303Y-35995316D01*
X25192642Y-35998826D01*
X25168750Y-36000000D01*
X24681250Y-36000000D01*
X24657358Y-35998826D01*
X24633697Y-35995316D01*
X24610493Y-35989504D01*
X24587971Y-35981446D01*
X24566347Y-35971218D01*
X24545830Y-35958921D01*
X24526617Y-35944671D01*
X24508893Y-35928607D01*
X24492829Y-35910883D01*
X24478579Y-35891670D01*
X24466282Y-35871153D01*
X24456054Y-35849529D01*
X24447996Y-35827007D01*
X24442184Y-35803803D01*
X24438674Y-35780142D01*
X24437500Y-35756250D01*
X24437500Y-34843750D01*
X24438674Y-34819858D01*
X24442184Y-34796197D01*
X24447996Y-34772993D01*
X24456054Y-34750471D01*
X24466282Y-34728847D01*
X24478579Y-34708330D01*
X24492829Y-34689117D01*
X24508893Y-34671393D01*
X24526617Y-34655329D01*
X24545830Y-34641079D01*
X24566347Y-34628782D01*
X24587971Y-34618554D01*
X24610493Y-34610496D01*
X24633697Y-34604684D01*
X24657358Y-34601174D01*
X24681250Y-34600000D01*
X25168750Y-34600000D01*
X25192642Y-34601174D01*
G37*
G36*
X29780142Y-28876174D02*
G01*
X29803803Y-28879684D01*
X29827007Y-28885496D01*
X29849529Y-28893554D01*
X29871153Y-28903782D01*
X29891670Y-28916079D01*
X29910883Y-28930329D01*
X29928607Y-28946393D01*
X29944671Y-28964117D01*
X29958921Y-28983330D01*
X29971218Y-29003847D01*
X29981446Y-29025471D01*
X29989504Y-29047993D01*
X29995316Y-29071197D01*
X29998826Y-29094858D01*
X30000000Y-29118750D01*
X30000000Y-29606250D01*
X29998826Y-29630142D01*
X29995316Y-29653803D01*
X29989504Y-29677007D01*
X29981446Y-29699529D01*
X29971218Y-29721153D01*
X29958921Y-29741670D01*
X29944671Y-29760883D01*
X29928607Y-29778607D01*
X29910883Y-29794671D01*
X29891670Y-29808921D01*
X29871153Y-29821218D01*
X29849529Y-29831446D01*
X29827007Y-29839504D01*
X29803803Y-29845316D01*
X29780142Y-29848826D01*
X29756250Y-29850000D01*
X28843750Y-29850000D01*
X28819858Y-29848826D01*
X28796197Y-29845316D01*
X28772993Y-29839504D01*
X28750471Y-29831446D01*
X28728847Y-29821218D01*
X28708330Y-29808921D01*
X28689117Y-29794671D01*
X28671393Y-29778607D01*
X28655329Y-29760883D01*
X28641079Y-29741670D01*
X28628782Y-29721153D01*
X28618554Y-29699529D01*
X28610496Y-29677007D01*
X28604684Y-29653803D01*
X28601174Y-29630142D01*
X28600000Y-29606250D01*
X28600000Y-29118750D01*
X28601174Y-29094858D01*
X28604684Y-29071197D01*
X28610496Y-29047993D01*
X28618554Y-29025471D01*
X28628782Y-29003847D01*
X28641079Y-28983330D01*
X28655329Y-28964117D01*
X28671393Y-28946393D01*
X28689117Y-28930329D01*
X28708330Y-28916079D01*
X28728847Y-28903782D01*
X28750471Y-28893554D01*
X28772993Y-28885496D01*
X28796197Y-28879684D01*
X28819858Y-28876174D01*
X28843750Y-28875000D01*
X29756250Y-28875000D01*
X29780142Y-28876174D01*
G37*
G36*
X29780142Y-30751174D02*
G01*
X29803803Y-30754684D01*
X29827007Y-30760496D01*
X29849529Y-30768554D01*
X29871153Y-30778782D01*
X29891670Y-30791079D01*
X29910883Y-30805329D01*
X29928607Y-30821393D01*
X29944671Y-30839117D01*
X29958921Y-30858330D01*
X29971218Y-30878847D01*
X29981446Y-30900471D01*
X29989504Y-30922993D01*
X29995316Y-30946197D01*
X29998826Y-30969858D01*
X30000000Y-30993750D01*
X30000000Y-31481250D01*
X29998826Y-31505142D01*
X29995316Y-31528803D01*
X29989504Y-31552007D01*
X29981446Y-31574529D01*
X29971218Y-31596153D01*
X29958921Y-31616670D01*
X29944671Y-31635883D01*
X29928607Y-31653607D01*
X29910883Y-31669671D01*
X29891670Y-31683921D01*
X29871153Y-31696218D01*
X29849529Y-31706446D01*
X29827007Y-31714504D01*
X29803803Y-31720316D01*
X29780142Y-31723826D01*
X29756250Y-31725000D01*
X28843750Y-31725000D01*
X28819858Y-31723826D01*
X28796197Y-31720316D01*
X28772993Y-31714504D01*
X28750471Y-31706446D01*
X28728847Y-31696218D01*
X28708330Y-31683921D01*
X28689117Y-31669671D01*
X28671393Y-31653607D01*
X28655329Y-31635883D01*
X28641079Y-31616670D01*
X28628782Y-31596153D01*
X28618554Y-31574529D01*
X28610496Y-31552007D01*
X28604684Y-31528803D01*
X28601174Y-31505142D01*
X28600000Y-31481250D01*
X28600000Y-30993750D01*
X28601174Y-30969858D01*
X28604684Y-30946197D01*
X28610496Y-30922993D01*
X28618554Y-30900471D01*
X28628782Y-30878847D01*
X28641079Y-30858330D01*
X28655329Y-30839117D01*
X28671393Y-30821393D01*
X28689117Y-30805329D01*
X28708330Y-30791079D01*
X28728847Y-30778782D01*
X28750471Y-30768554D01*
X28772993Y-30760496D01*
X28796197Y-30754684D01*
X28819858Y-30751174D01*
X28843750Y-30750000D01*
X29756250Y-30750000D01*
X29780142Y-30751174D01*
G37*
G36*
X29780142Y-33376174D02*
G01*
X29803803Y-33379684D01*
X29827007Y-33385496D01*
X29849529Y-33393554D01*
X29871153Y-33403782D01*
X29891670Y-33416079D01*
X29910883Y-33430329D01*
X29928607Y-33446393D01*
X29944671Y-33464117D01*
X29958921Y-33483330D01*
X29971218Y-33503847D01*
X29981446Y-33525471D01*
X29989504Y-33547993D01*
X29995316Y-33571197D01*
X29998826Y-33594858D01*
X30000000Y-33618750D01*
X30000000Y-34106250D01*
X29998826Y-34130142D01*
X29995316Y-34153803D01*
X29989504Y-34177007D01*
X29981446Y-34199529D01*
X29971218Y-34221153D01*
X29958921Y-34241670D01*
X29944671Y-34260883D01*
X29928607Y-34278607D01*
X29910883Y-34294671D01*
X29891670Y-34308921D01*
X29871153Y-34321218D01*
X29849529Y-34331446D01*
X29827007Y-34339504D01*
X29803803Y-34345316D01*
X29780142Y-34348826D01*
X29756250Y-34350000D01*
X28843750Y-34350000D01*
X28819858Y-34348826D01*
X28796197Y-34345316D01*
X28772993Y-34339504D01*
X28750471Y-34331446D01*
X28728847Y-34321218D01*
X28708330Y-34308921D01*
X28689117Y-34294671D01*
X28671393Y-34278607D01*
X28655329Y-34260883D01*
X28641079Y-34241670D01*
X28628782Y-34221153D01*
X28618554Y-34199529D01*
X28610496Y-34177007D01*
X28604684Y-34153803D01*
X28601174Y-34130142D01*
X28600000Y-34106250D01*
X28600000Y-33618750D01*
X28601174Y-33594858D01*
X28604684Y-33571197D01*
X28610496Y-33547993D01*
X28618554Y-33525471D01*
X28628782Y-33503847D01*
X28641079Y-33483330D01*
X28655329Y-33464117D01*
X28671393Y-33446393D01*
X28689117Y-33430329D01*
X28708330Y-33416079D01*
X28728847Y-33403782D01*
X28750471Y-33393554D01*
X28772993Y-33385496D01*
X28796197Y-33379684D01*
X28819858Y-33376174D01*
X28843750Y-33375000D01*
X29756250Y-33375000D01*
X29780142Y-33376174D01*
G37*
G36*
X29780142Y-35251174D02*
G01*
X29803803Y-35254684D01*
X29827007Y-35260496D01*
X29849529Y-35268554D01*
X29871153Y-35278782D01*
X29891670Y-35291079D01*
X29910883Y-35305329D01*
X29928607Y-35321393D01*
X29944671Y-35339117D01*
X29958921Y-35358330D01*
X29971218Y-35378847D01*
X29981446Y-35400471D01*
X29989504Y-35422993D01*
X29995316Y-35446197D01*
X29998826Y-35469858D01*
X30000000Y-35493750D01*
X30000000Y-35981250D01*
X29998826Y-36005142D01*
X29995316Y-36028803D01*
X29989504Y-36052007D01*
X29981446Y-36074529D01*
X29971218Y-36096153D01*
X29958921Y-36116670D01*
X29944671Y-36135883D01*
X29928607Y-36153607D01*
X29910883Y-36169671D01*
X29891670Y-36183921D01*
X29871153Y-36196218D01*
X29849529Y-36206446D01*
X29827007Y-36214504D01*
X29803803Y-36220316D01*
X29780142Y-36223826D01*
X29756250Y-36225000D01*
X28843750Y-36225000D01*
X28819858Y-36223826D01*
X28796197Y-36220316D01*
X28772993Y-36214504D01*
X28750471Y-36206446D01*
X28728847Y-36196218D01*
X28708330Y-36183921D01*
X28689117Y-36169671D01*
X28671393Y-36153607D01*
X28655329Y-36135883D01*
X28641079Y-36116670D01*
X28628782Y-36096153D01*
X28618554Y-36074529D01*
X28610496Y-36052007D01*
X28604684Y-36028803D01*
X28601174Y-36005142D01*
X28600000Y-35981250D01*
X28600000Y-35493750D01*
X28601174Y-35469858D01*
X28604684Y-35446197D01*
X28610496Y-35422993D01*
X28618554Y-35400471D01*
X28628782Y-35378847D01*
X28641079Y-35358330D01*
X28655329Y-35339117D01*
X28671393Y-35321393D01*
X28689117Y-35305329D01*
X28708330Y-35291079D01*
X28728847Y-35278782D01*
X28750471Y-35268554D01*
X28772993Y-35260496D01*
X28796197Y-35254684D01*
X28819858Y-35251174D01*
X28843750Y-35250000D01*
X29756250Y-35250000D01*
X29780142Y-35251174D01*
G37*
G36*
X33280142Y-33438674D02*
G01*
X33303803Y-33442184D01*
X33327007Y-33447996D01*
X33349529Y-33456054D01*
X33371153Y-33466282D01*
X33391670Y-33478579D01*
X33410883Y-33492829D01*
X33428607Y-33508893D01*
X33444671Y-33526617D01*
X33458921Y-33545830D01*
X33471218Y-33566347D01*
X33481446Y-33587971D01*
X33489504Y-33610493D01*
X33495316Y-33633697D01*
X33498826Y-33657358D01*
X33500000Y-33681250D01*
X33500000Y-34168750D01*
X33498826Y-34192642D01*
X33495316Y-34216303D01*
X33489504Y-34239507D01*
X33481446Y-34262029D01*
X33471218Y-34283653D01*
X33458921Y-34304170D01*
X33444671Y-34323383D01*
X33428607Y-34341107D01*
X33410883Y-34357171D01*
X33391670Y-34371421D01*
X33371153Y-34383718D01*
X33349529Y-34393946D01*
X33327007Y-34402004D01*
X33303803Y-34407816D01*
X33280142Y-34411326D01*
X33256250Y-34412500D01*
X32343750Y-34412500D01*
X32319858Y-34411326D01*
X32296197Y-34407816D01*
X32272993Y-34402004D01*
X32250471Y-34393946D01*
X32228847Y-34383718D01*
X32208330Y-34371421D01*
X32189117Y-34357171D01*
X32171393Y-34341107D01*
X32155329Y-34323383D01*
X32141079Y-34304170D01*
X32128782Y-34283653D01*
X32118554Y-34262029D01*
X32110496Y-34239507D01*
X32104684Y-34216303D01*
X32101174Y-34192642D01*
X32100000Y-34168750D01*
X32100000Y-33681250D01*
X32101174Y-33657358D01*
X32104684Y-33633697D01*
X32110496Y-33610493D01*
X32118554Y-33587971D01*
X32128782Y-33566347D01*
X32141079Y-33545830D01*
X32155329Y-33526617D01*
X32171393Y-33508893D01*
X32189117Y-33492829D01*
X32208330Y-33478579D01*
X32228847Y-33466282D01*
X32250471Y-33456054D01*
X32272993Y-33447996D01*
X32296197Y-33442184D01*
X32319858Y-33438674D01*
X32343750Y-33437500D01*
X33256250Y-33437500D01*
X33280142Y-33438674D01*
G37*
G36*
X33280142Y-35313674D02*
G01*
X33303803Y-35317184D01*
X33327007Y-35322996D01*
X33349529Y-35331054D01*
X33371153Y-35341282D01*
X33391670Y-35353579D01*
X33410883Y-35367829D01*
X33428607Y-35383893D01*
X33444671Y-35401617D01*
X33458921Y-35420830D01*
X33471218Y-35441347D01*
X33481446Y-35462971D01*
X33489504Y-35485493D01*
X33495316Y-35508697D01*
X33498826Y-35532358D01*
X33500000Y-35556250D01*
X33500000Y-36043750D01*
X33498826Y-36067642D01*
X33495316Y-36091303D01*
X33489504Y-36114507D01*
X33481446Y-36137029D01*
X33471218Y-36158653D01*
X33458921Y-36179170D01*
X33444671Y-36198383D01*
X33428607Y-36216107D01*
X33410883Y-36232171D01*
X33391670Y-36246421D01*
X33371153Y-36258718D01*
X33349529Y-36268946D01*
X33327007Y-36277004D01*
X33303803Y-36282816D01*
X33280142Y-36286326D01*
X33256250Y-36287500D01*
X32343750Y-36287500D01*
X32319858Y-36286326D01*
X32296197Y-36282816D01*
X32272993Y-36277004D01*
X32250471Y-36268946D01*
X32228847Y-36258718D01*
X32208330Y-36246421D01*
X32189117Y-36232171D01*
X32171393Y-36216107D01*
X32155329Y-36198383D01*
X32141079Y-36179170D01*
X32128782Y-36158653D01*
X32118554Y-36137029D01*
X32110496Y-36114507D01*
X32104684Y-36091303D01*
X32101174Y-36067642D01*
X32100000Y-36043750D01*
X32100000Y-35556250D01*
X32101174Y-35532358D01*
X32104684Y-35508697D01*
X32110496Y-35485493D01*
X32118554Y-35462971D01*
X32128782Y-35441347D01*
X32141079Y-35420830D01*
X32155329Y-35401617D01*
X32171393Y-35383893D01*
X32189117Y-35367829D01*
X32208330Y-35353579D01*
X32228847Y-35341282D01*
X32250471Y-35331054D01*
X32272993Y-35322996D01*
X32296197Y-35317184D01*
X32319858Y-35313674D01*
X32343750Y-35312500D01*
X33256250Y-35312500D01*
X33280142Y-35313674D01*
G37*
G36*
X44080142Y-35176174D02*
G01*
X44103803Y-35179684D01*
X44127007Y-35185496D01*
X44149529Y-35193554D01*
X44171153Y-35203782D01*
X44191670Y-35216079D01*
X44210883Y-35230329D01*
X44228607Y-35246393D01*
X44244671Y-35264117D01*
X44258921Y-35283330D01*
X44271218Y-35303847D01*
X44281446Y-35325471D01*
X44289504Y-35347993D01*
X44295316Y-35371197D01*
X44298826Y-35394858D01*
X44300000Y-35418750D01*
X44300000Y-35906250D01*
X44298826Y-35930142D01*
X44295316Y-35953803D01*
X44289504Y-35977007D01*
X44281446Y-35999529D01*
X44271218Y-36021153D01*
X44258921Y-36041670D01*
X44244671Y-36060883D01*
X44228607Y-36078607D01*
X44210883Y-36094671D01*
X44191670Y-36108921D01*
X44171153Y-36121218D01*
X44149529Y-36131446D01*
X44127007Y-36139504D01*
X44103803Y-36145316D01*
X44080142Y-36148826D01*
X44056250Y-36150000D01*
X43143750Y-36150000D01*
X43119858Y-36148826D01*
X43096197Y-36145316D01*
X43072993Y-36139504D01*
X43050471Y-36131446D01*
X43028847Y-36121218D01*
X43008330Y-36108921D01*
X42989117Y-36094671D01*
X42971393Y-36078607D01*
X42955329Y-36060883D01*
X42941079Y-36041670D01*
X42928782Y-36021153D01*
X42918554Y-35999529D01*
X42910496Y-35977007D01*
X42904684Y-35953803D01*
X42901174Y-35930142D01*
X42900000Y-35906250D01*
X42900000Y-35418750D01*
X42901174Y-35394858D01*
X42904684Y-35371197D01*
X42910496Y-35347993D01*
X42918554Y-35325471D01*
X42928782Y-35303847D01*
X42941079Y-35283330D01*
X42955329Y-35264117D01*
X42971393Y-35246393D01*
X42989117Y-35230329D01*
X43008330Y-35216079D01*
X43028847Y-35203782D01*
X43050471Y-35193554D01*
X43072993Y-35185496D01*
X43096197Y-35179684D01*
X43119858Y-35176174D01*
X43143750Y-35175000D01*
X44056250Y-35175000D01*
X44080142Y-35176174D01*
G37*
G36*
X44080142Y-37051174D02*
G01*
X44103803Y-37054684D01*
X44127007Y-37060496D01*
X44149529Y-37068554D01*
X44171153Y-37078782D01*
X44191670Y-37091079D01*
X44210883Y-37105329D01*
X44228607Y-37121393D01*
X44244671Y-37139117D01*
X44258921Y-37158330D01*
X44271218Y-37178847D01*
X44281446Y-37200471D01*
X44289504Y-37222993D01*
X44295316Y-37246197D01*
X44298826Y-37269858D01*
X44300000Y-37293750D01*
X44300000Y-37781250D01*
X44298826Y-37805142D01*
X44295316Y-37828803D01*
X44289504Y-37852007D01*
X44281446Y-37874529D01*
X44271218Y-37896153D01*
X44258921Y-37916670D01*
X44244671Y-37935883D01*
X44228607Y-37953607D01*
X44210883Y-37969671D01*
X44191670Y-37983921D01*
X44171153Y-37996218D01*
X44149529Y-38006446D01*
X44127007Y-38014504D01*
X44103803Y-38020316D01*
X44080142Y-38023826D01*
X44056250Y-38025000D01*
X43143750Y-38025000D01*
X43119858Y-38023826D01*
X43096197Y-38020316D01*
X43072993Y-38014504D01*
X43050471Y-38006446D01*
X43028847Y-37996218D01*
X43008330Y-37983921D01*
X42989117Y-37969671D01*
X42971393Y-37953607D01*
X42955329Y-37935883D01*
X42941079Y-37916670D01*
X42928782Y-37896153D01*
X42918554Y-37874529D01*
X42910496Y-37852007D01*
X42904684Y-37828803D01*
X42901174Y-37805142D01*
X42900000Y-37781250D01*
X42900000Y-37293750D01*
X42901174Y-37269858D01*
X42904684Y-37246197D01*
X42910496Y-37222993D01*
X42918554Y-37200471D01*
X42928782Y-37178847D01*
X42941079Y-37158330D01*
X42955329Y-37139117D01*
X42971393Y-37121393D01*
X42989117Y-37105329D01*
X43008330Y-37091079D01*
X43028847Y-37078782D01*
X43050471Y-37068554D01*
X43072993Y-37060496D01*
X43096197Y-37054684D01*
X43119858Y-37051174D01*
X43143750Y-37050000D01*
X44056250Y-37050000D01*
X44080142Y-37051174D01*
G37*
G36*
X53080142Y-41176174D02*
G01*
X53103803Y-41179684D01*
X53127007Y-41185496D01*
X53149529Y-41193554D01*
X53171153Y-41203782D01*
X53191670Y-41216079D01*
X53210883Y-41230329D01*
X53228607Y-41246393D01*
X53244671Y-41264117D01*
X53258921Y-41283330D01*
X53271218Y-41303847D01*
X53281446Y-41325471D01*
X53289504Y-41347993D01*
X53295316Y-41371197D01*
X53298826Y-41394858D01*
X53300000Y-41418750D01*
X53300000Y-41906250D01*
X53298826Y-41930142D01*
X53295316Y-41953803D01*
X53289504Y-41977007D01*
X53281446Y-41999529D01*
X53271218Y-42021153D01*
X53258921Y-42041670D01*
X53244671Y-42060883D01*
X53228607Y-42078607D01*
X53210883Y-42094671D01*
X53191670Y-42108921D01*
X53171153Y-42121218D01*
X53149529Y-42131446D01*
X53127007Y-42139504D01*
X53103803Y-42145316D01*
X53080142Y-42148826D01*
X53056250Y-42150000D01*
X52143750Y-42150000D01*
X52119858Y-42148826D01*
X52096197Y-42145316D01*
X52072993Y-42139504D01*
X52050471Y-42131446D01*
X52028847Y-42121218D01*
X52008330Y-42108921D01*
X51989117Y-42094671D01*
X51971393Y-42078607D01*
X51955329Y-42060883D01*
X51941079Y-42041670D01*
X51928782Y-42021153D01*
X51918554Y-41999529D01*
X51910496Y-41977007D01*
X51904684Y-41953803D01*
X51901174Y-41930142D01*
X51900000Y-41906250D01*
X51900000Y-41418750D01*
X51901174Y-41394858D01*
X51904684Y-41371197D01*
X51910496Y-41347993D01*
X51918554Y-41325471D01*
X51928782Y-41303847D01*
X51941079Y-41283330D01*
X51955329Y-41264117D01*
X51971393Y-41246393D01*
X51989117Y-41230329D01*
X52008330Y-41216079D01*
X52028847Y-41203782D01*
X52050471Y-41193554D01*
X52072993Y-41185496D01*
X52096197Y-41179684D01*
X52119858Y-41176174D01*
X52143750Y-41175000D01*
X53056250Y-41175000D01*
X53080142Y-41176174D01*
G37*
G36*
X53080142Y-43051174D02*
G01*
X53103803Y-43054684D01*
X53127007Y-43060496D01*
X53149529Y-43068554D01*
X53171153Y-43078782D01*
X53191670Y-43091079D01*
X53210883Y-43105329D01*
X53228607Y-43121393D01*
X53244671Y-43139117D01*
X53258921Y-43158330D01*
X53271218Y-43178847D01*
X53281446Y-43200471D01*
X53289504Y-43222993D01*
X53295316Y-43246197D01*
X53298826Y-43269858D01*
X53300000Y-43293750D01*
X53300000Y-43781250D01*
X53298826Y-43805142D01*
X53295316Y-43828803D01*
X53289504Y-43852007D01*
X53281446Y-43874529D01*
X53271218Y-43896153D01*
X53258921Y-43916670D01*
X53244671Y-43935883D01*
X53228607Y-43953607D01*
X53210883Y-43969671D01*
X53191670Y-43983921D01*
X53171153Y-43996218D01*
X53149529Y-44006446D01*
X53127007Y-44014504D01*
X53103803Y-44020316D01*
X53080142Y-44023826D01*
X53056250Y-44025000D01*
X52143750Y-44025000D01*
X52119858Y-44023826D01*
X52096197Y-44020316D01*
X52072993Y-44014504D01*
X52050471Y-44006446D01*
X52028847Y-43996218D01*
X52008330Y-43983921D01*
X51989117Y-43969671D01*
X51971393Y-43953607D01*
X51955329Y-43935883D01*
X51941079Y-43916670D01*
X51928782Y-43896153D01*
X51918554Y-43874529D01*
X51910496Y-43852007D01*
X51904684Y-43828803D01*
X51901174Y-43805142D01*
X51900000Y-43781250D01*
X51900000Y-43293750D01*
X51901174Y-43269858D01*
X51904684Y-43246197D01*
X51910496Y-43222993D01*
X51918554Y-43200471D01*
X51928782Y-43178847D01*
X51941079Y-43158330D01*
X51955329Y-43139117D01*
X51971393Y-43121393D01*
X51989117Y-43105329D01*
X52008330Y-43091079D01*
X52028847Y-43078782D01*
X52050471Y-43068554D01*
X52072993Y-43060496D01*
X52096197Y-43054684D01*
X52119858Y-43051174D01*
X52143750Y-43050000D01*
X53056250Y-43050000D01*
X53080142Y-43051174D01*
G37*
G36*
X52580142Y-32676174D02*
G01*
X52603803Y-32679684D01*
X52627007Y-32685496D01*
X52649529Y-32693554D01*
X52671153Y-32703782D01*
X52691670Y-32716079D01*
X52710883Y-32730329D01*
X52728607Y-32746393D01*
X52744671Y-32764117D01*
X52758921Y-32783330D01*
X52771218Y-32803847D01*
X52781446Y-32825471D01*
X52789504Y-32847993D01*
X52795316Y-32871197D01*
X52798826Y-32894858D01*
X52800000Y-32918750D01*
X52800000Y-33406250D01*
X52798826Y-33430142D01*
X52795316Y-33453803D01*
X52789504Y-33477007D01*
X52781446Y-33499529D01*
X52771218Y-33521153D01*
X52758921Y-33541670D01*
X52744671Y-33560883D01*
X52728607Y-33578607D01*
X52710883Y-33594671D01*
X52691670Y-33608921D01*
X52671153Y-33621218D01*
X52649529Y-33631446D01*
X52627007Y-33639504D01*
X52603803Y-33645316D01*
X52580142Y-33648826D01*
X52556250Y-33650000D01*
X51643750Y-33650000D01*
X51619858Y-33648826D01*
X51596197Y-33645316D01*
X51572993Y-33639504D01*
X51550471Y-33631446D01*
X51528847Y-33621218D01*
X51508330Y-33608921D01*
X51489117Y-33594671D01*
X51471393Y-33578607D01*
X51455329Y-33560883D01*
X51441079Y-33541670D01*
X51428782Y-33521153D01*
X51418554Y-33499529D01*
X51410496Y-33477007D01*
X51404684Y-33453803D01*
X51401174Y-33430142D01*
X51400000Y-33406250D01*
X51400000Y-32918750D01*
X51401174Y-32894858D01*
X51404684Y-32871197D01*
X51410496Y-32847993D01*
X51418554Y-32825471D01*
X51428782Y-32803847D01*
X51441079Y-32783330D01*
X51455329Y-32764117D01*
X51471393Y-32746393D01*
X51489117Y-32730329D01*
X51508330Y-32716079D01*
X51528847Y-32703782D01*
X51550471Y-32693554D01*
X51572993Y-32685496D01*
X51596197Y-32679684D01*
X51619858Y-32676174D01*
X51643750Y-32675000D01*
X52556250Y-32675000D01*
X52580142Y-32676174D01*
G37*
G36*
X52580142Y-34551174D02*
G01*
X52603803Y-34554684D01*
X52627007Y-34560496D01*
X52649529Y-34568554D01*
X52671153Y-34578782D01*
X52691670Y-34591079D01*
X52710883Y-34605329D01*
X52728607Y-34621393D01*
X52744671Y-34639117D01*
X52758921Y-34658330D01*
X52771218Y-34678847D01*
X52781446Y-34700471D01*
X52789504Y-34722993D01*
X52795316Y-34746197D01*
X52798826Y-34769858D01*
X52800000Y-34793750D01*
X52800000Y-35281250D01*
X52798826Y-35305142D01*
X52795316Y-35328803D01*
X52789504Y-35352007D01*
X52781446Y-35374529D01*
X52771218Y-35396153D01*
X52758921Y-35416670D01*
X52744671Y-35435883D01*
X52728607Y-35453607D01*
X52710883Y-35469671D01*
X52691670Y-35483921D01*
X52671153Y-35496218D01*
X52649529Y-35506446D01*
X52627007Y-35514504D01*
X52603803Y-35520316D01*
X52580142Y-35523826D01*
X52556250Y-35525000D01*
X51643750Y-35525000D01*
X51619858Y-35523826D01*
X51596197Y-35520316D01*
X51572993Y-35514504D01*
X51550471Y-35506446D01*
X51528847Y-35496218D01*
X51508330Y-35483921D01*
X51489117Y-35469671D01*
X51471393Y-35453607D01*
X51455329Y-35435883D01*
X51441079Y-35416670D01*
X51428782Y-35396153D01*
X51418554Y-35374529D01*
X51410496Y-35352007D01*
X51404684Y-35328803D01*
X51401174Y-35305142D01*
X51400000Y-35281250D01*
X51400000Y-34793750D01*
X51401174Y-34769858D01*
X51404684Y-34746197D01*
X51410496Y-34722993D01*
X51418554Y-34700471D01*
X51428782Y-34678847D01*
X51441079Y-34658330D01*
X51455329Y-34639117D01*
X51471393Y-34621393D01*
X51489117Y-34605329D01*
X51508330Y-34591079D01*
X51528847Y-34578782D01*
X51550471Y-34568554D01*
X51572993Y-34560496D01*
X51596197Y-34554684D01*
X51619858Y-34551174D01*
X51643750Y-34550000D01*
X52556250Y-34550000D01*
X52580142Y-34551174D01*
G37*
D15*
X62600000Y-30400000D03*
X62600000Y-45800000D03*
D14*
G36*
X11480142Y-56076174D02*
G01*
X11503803Y-56079684D01*
X11527007Y-56085496D01*
X11549529Y-56093554D01*
X11571153Y-56103782D01*
X11591670Y-56116079D01*
X11610883Y-56130329D01*
X11628607Y-56146393D01*
X11644671Y-56164117D01*
X11658921Y-56183330D01*
X11671218Y-56203847D01*
X11681446Y-56225471D01*
X11689504Y-56247993D01*
X11695316Y-56271197D01*
X11698826Y-56294858D01*
X11700000Y-56318750D01*
X11700000Y-56806250D01*
X11698826Y-56830142D01*
X11695316Y-56853803D01*
X11689504Y-56877007D01*
X11681446Y-56899529D01*
X11671218Y-56921153D01*
X11658921Y-56941670D01*
X11644671Y-56960883D01*
X11628607Y-56978607D01*
X11610883Y-56994671D01*
X11591670Y-57008921D01*
X11571153Y-57021218D01*
X11549529Y-57031446D01*
X11527007Y-57039504D01*
X11503803Y-57045316D01*
X11480142Y-57048826D01*
X11456250Y-57050000D01*
X10543750Y-57050000D01*
X10519858Y-57048826D01*
X10496197Y-57045316D01*
X10472993Y-57039504D01*
X10450471Y-57031446D01*
X10428847Y-57021218D01*
X10408330Y-57008921D01*
X10389117Y-56994671D01*
X10371393Y-56978607D01*
X10355329Y-56960883D01*
X10341079Y-56941670D01*
X10328782Y-56921153D01*
X10318554Y-56899529D01*
X10310496Y-56877007D01*
X10304684Y-56853803D01*
X10301174Y-56830142D01*
X10300000Y-56806250D01*
X10300000Y-56318750D01*
X10301174Y-56294858D01*
X10304684Y-56271197D01*
X10310496Y-56247993D01*
X10318554Y-56225471D01*
X10328782Y-56203847D01*
X10341079Y-56183330D01*
X10355329Y-56164117D01*
X10371393Y-56146393D01*
X10389117Y-56130329D01*
X10408330Y-56116079D01*
X10428847Y-56103782D01*
X10450471Y-56093554D01*
X10472993Y-56085496D01*
X10496197Y-56079684D01*
X10519858Y-56076174D01*
X10543750Y-56075000D01*
X11456250Y-56075000D01*
X11480142Y-56076174D01*
G37*
G36*
X11480142Y-57951174D02*
G01*
X11503803Y-57954684D01*
X11527007Y-57960496D01*
X11549529Y-57968554D01*
X11571153Y-57978782D01*
X11591670Y-57991079D01*
X11610883Y-58005329D01*
X11628607Y-58021393D01*
X11644671Y-58039117D01*
X11658921Y-58058330D01*
X11671218Y-58078847D01*
X11681446Y-58100471D01*
X11689504Y-58122993D01*
X11695316Y-58146197D01*
X11698826Y-58169858D01*
X11700000Y-58193750D01*
X11700000Y-58681250D01*
X11698826Y-58705142D01*
X11695316Y-58728803D01*
X11689504Y-58752007D01*
X11681446Y-58774529D01*
X11671218Y-58796153D01*
X11658921Y-58816670D01*
X11644671Y-58835883D01*
X11628607Y-58853607D01*
X11610883Y-58869671D01*
X11591670Y-58883921D01*
X11571153Y-58896218D01*
X11549529Y-58906446D01*
X11527007Y-58914504D01*
X11503803Y-58920316D01*
X11480142Y-58923826D01*
X11456250Y-58925000D01*
X10543750Y-58925000D01*
X10519858Y-58923826D01*
X10496197Y-58920316D01*
X10472993Y-58914504D01*
X10450471Y-58906446D01*
X10428847Y-58896218D01*
X10408330Y-58883921D01*
X10389117Y-58869671D01*
X10371393Y-58853607D01*
X10355329Y-58835883D01*
X10341079Y-58816670D01*
X10328782Y-58796153D01*
X10318554Y-58774529D01*
X10310496Y-58752007D01*
X10304684Y-58728803D01*
X10301174Y-58705142D01*
X10300000Y-58681250D01*
X10300000Y-58193750D01*
X10301174Y-58169858D01*
X10304684Y-58146197D01*
X10310496Y-58122993D01*
X10318554Y-58100471D01*
X10328782Y-58078847D01*
X10341079Y-58058330D01*
X10355329Y-58039117D01*
X10371393Y-58021393D01*
X10389117Y-58005329D01*
X10408330Y-57991079D01*
X10428847Y-57978782D01*
X10450471Y-57968554D01*
X10472993Y-57960496D01*
X10496197Y-57954684D01*
X10519858Y-57951174D01*
X10543750Y-57950000D01*
X11456250Y-57950000D01*
X11480142Y-57951174D01*
G37*
G36*
X47492642Y-42401174D02*
G01*
X47516303Y-42404684D01*
X47539507Y-42410496D01*
X47562029Y-42418554D01*
X47583653Y-42428782D01*
X47604170Y-42441079D01*
X47623383Y-42455329D01*
X47641107Y-42471393D01*
X47657171Y-42489117D01*
X47671421Y-42508330D01*
X47683718Y-42528847D01*
X47693946Y-42550471D01*
X47702004Y-42572993D01*
X47707816Y-42596197D01*
X47711326Y-42619858D01*
X47712500Y-42643750D01*
X47712500Y-43556250D01*
X47711326Y-43580142D01*
X47707816Y-43603803D01*
X47702004Y-43627007D01*
X47693946Y-43649529D01*
X47683718Y-43671153D01*
X47671421Y-43691670D01*
X47657171Y-43710883D01*
X47641107Y-43728607D01*
X47623383Y-43744671D01*
X47604170Y-43758921D01*
X47583653Y-43771218D01*
X47562029Y-43781446D01*
X47539507Y-43789504D01*
X47516303Y-43795316D01*
X47492642Y-43798826D01*
X47468750Y-43800000D01*
X46981250Y-43800000D01*
X46957358Y-43798826D01*
X46933697Y-43795316D01*
X46910493Y-43789504D01*
X46887971Y-43781446D01*
X46866347Y-43771218D01*
X46845830Y-43758921D01*
X46826617Y-43744671D01*
X46808893Y-43728607D01*
X46792829Y-43710883D01*
X46778579Y-43691670D01*
X46766282Y-43671153D01*
X46756054Y-43649529D01*
X46747996Y-43627007D01*
X46742184Y-43603803D01*
X46738674Y-43580142D01*
X46737500Y-43556250D01*
X46737500Y-42643750D01*
X46738674Y-42619858D01*
X46742184Y-42596197D01*
X46747996Y-42572993D01*
X46756054Y-42550471D01*
X46766282Y-42528847D01*
X46778579Y-42508330D01*
X46792829Y-42489117D01*
X46808893Y-42471393D01*
X46826617Y-42455329D01*
X46845830Y-42441079D01*
X46866347Y-42428782D01*
X46887971Y-42418554D01*
X46910493Y-42410496D01*
X46933697Y-42404684D01*
X46957358Y-42401174D01*
X46981250Y-42400000D01*
X47468750Y-42400000D01*
X47492642Y-42401174D01*
G37*
G36*
X49367642Y-42401174D02*
G01*
X49391303Y-42404684D01*
X49414507Y-42410496D01*
X49437029Y-42418554D01*
X49458653Y-42428782D01*
X49479170Y-42441079D01*
X49498383Y-42455329D01*
X49516107Y-42471393D01*
X49532171Y-42489117D01*
X49546421Y-42508330D01*
X49558718Y-42528847D01*
X49568946Y-42550471D01*
X49577004Y-42572993D01*
X49582816Y-42596197D01*
X49586326Y-42619858D01*
X49587500Y-42643750D01*
X49587500Y-43556250D01*
X49586326Y-43580142D01*
X49582816Y-43603803D01*
X49577004Y-43627007D01*
X49568946Y-43649529D01*
X49558718Y-43671153D01*
X49546421Y-43691670D01*
X49532171Y-43710883D01*
X49516107Y-43728607D01*
X49498383Y-43744671D01*
X49479170Y-43758921D01*
X49458653Y-43771218D01*
X49437029Y-43781446D01*
X49414507Y-43789504D01*
X49391303Y-43795316D01*
X49367642Y-43798826D01*
X49343750Y-43800000D01*
X48856250Y-43800000D01*
X48832358Y-43798826D01*
X48808697Y-43795316D01*
X48785493Y-43789504D01*
X48762971Y-43781446D01*
X48741347Y-43771218D01*
X48720830Y-43758921D01*
X48701617Y-43744671D01*
X48683893Y-43728607D01*
X48667829Y-43710883D01*
X48653579Y-43691670D01*
X48641282Y-43671153D01*
X48631054Y-43649529D01*
X48622996Y-43627007D01*
X48617184Y-43603803D01*
X48613674Y-43580142D01*
X48612500Y-43556250D01*
X48612500Y-42643750D01*
X48613674Y-42619858D01*
X48617184Y-42596197D01*
X48622996Y-42572993D01*
X48631054Y-42550471D01*
X48641282Y-42528847D01*
X48653579Y-42508330D01*
X48667829Y-42489117D01*
X48683893Y-42471393D01*
X48701617Y-42455329D01*
X48720830Y-42441079D01*
X48741347Y-42428782D01*
X48762971Y-42418554D01*
X48785493Y-42410496D01*
X48808697Y-42404684D01*
X48832358Y-42401174D01*
X48856250Y-42400000D01*
X49343750Y-42400000D01*
X49367642Y-42401174D01*
G37*
G36*
X44080142Y-41551174D02*
G01*
X44103803Y-41554684D01*
X44127007Y-41560496D01*
X44149529Y-41568554D01*
X44171153Y-41578782D01*
X44191670Y-41591079D01*
X44210883Y-41605329D01*
X44228607Y-41621393D01*
X44244671Y-41639117D01*
X44258921Y-41658330D01*
X44271218Y-41678847D01*
X44281446Y-41700471D01*
X44289504Y-41722993D01*
X44295316Y-41746197D01*
X44298826Y-41769858D01*
X44300000Y-41793750D01*
X44300000Y-42281250D01*
X44298826Y-42305142D01*
X44295316Y-42328803D01*
X44289504Y-42352007D01*
X44281446Y-42374529D01*
X44271218Y-42396153D01*
X44258921Y-42416670D01*
X44244671Y-42435883D01*
X44228607Y-42453607D01*
X44210883Y-42469671D01*
X44191670Y-42483921D01*
X44171153Y-42496218D01*
X44149529Y-42506446D01*
X44127007Y-42514504D01*
X44103803Y-42520316D01*
X44080142Y-42523826D01*
X44056250Y-42525000D01*
X43143750Y-42525000D01*
X43119858Y-42523826D01*
X43096197Y-42520316D01*
X43072993Y-42514504D01*
X43050471Y-42506446D01*
X43028847Y-42496218D01*
X43008330Y-42483921D01*
X42989117Y-42469671D01*
X42971393Y-42453607D01*
X42955329Y-42435883D01*
X42941079Y-42416670D01*
X42928782Y-42396153D01*
X42918554Y-42374529D01*
X42910496Y-42352007D01*
X42904684Y-42328803D01*
X42901174Y-42305142D01*
X42900000Y-42281250D01*
X42900000Y-41793750D01*
X42901174Y-41769858D01*
X42904684Y-41746197D01*
X42910496Y-41722993D01*
X42918554Y-41700471D01*
X42928782Y-41678847D01*
X42941079Y-41658330D01*
X42955329Y-41639117D01*
X42971393Y-41621393D01*
X42989117Y-41605329D01*
X43008330Y-41591079D01*
X43028847Y-41578782D01*
X43050471Y-41568554D01*
X43072993Y-41560496D01*
X43096197Y-41554684D01*
X43119858Y-41551174D01*
X43143750Y-41550000D01*
X44056250Y-41550000D01*
X44080142Y-41551174D01*
G37*
G36*
X44080142Y-39676174D02*
G01*
X44103803Y-39679684D01*
X44127007Y-39685496D01*
X44149529Y-39693554D01*
X44171153Y-39703782D01*
X44191670Y-39716079D01*
X44210883Y-39730329D01*
X44228607Y-39746393D01*
X44244671Y-39764117D01*
X44258921Y-39783330D01*
X44271218Y-39803847D01*
X44281446Y-39825471D01*
X44289504Y-39847993D01*
X44295316Y-39871197D01*
X44298826Y-39894858D01*
X44300000Y-39918750D01*
X44300000Y-40406250D01*
X44298826Y-40430142D01*
X44295316Y-40453803D01*
X44289504Y-40477007D01*
X44281446Y-40499529D01*
X44271218Y-40521153D01*
X44258921Y-40541670D01*
X44244671Y-40560883D01*
X44228607Y-40578607D01*
X44210883Y-40594671D01*
X44191670Y-40608921D01*
X44171153Y-40621218D01*
X44149529Y-40631446D01*
X44127007Y-40639504D01*
X44103803Y-40645316D01*
X44080142Y-40648826D01*
X44056250Y-40650000D01*
X43143750Y-40650000D01*
X43119858Y-40648826D01*
X43096197Y-40645316D01*
X43072993Y-40639504D01*
X43050471Y-40631446D01*
X43028847Y-40621218D01*
X43008330Y-40608921D01*
X42989117Y-40594671D01*
X42971393Y-40578607D01*
X42955329Y-40560883D01*
X42941079Y-40541670D01*
X42928782Y-40521153D01*
X42918554Y-40499529D01*
X42910496Y-40477007D01*
X42904684Y-40453803D01*
X42901174Y-40430142D01*
X42900000Y-40406250D01*
X42900000Y-39918750D01*
X42901174Y-39894858D01*
X42904684Y-39871197D01*
X42910496Y-39847993D01*
X42918554Y-39825471D01*
X42928782Y-39803847D01*
X42941079Y-39783330D01*
X42955329Y-39764117D01*
X42971393Y-39746393D01*
X42989117Y-39730329D01*
X43008330Y-39716079D01*
X43028847Y-39703782D01*
X43050471Y-39693554D01*
X43072993Y-39685496D01*
X43096197Y-39679684D01*
X43119858Y-39676174D01*
X43143750Y-39675000D01*
X44056250Y-39675000D01*
X44080142Y-39676174D01*
G37*
G36*
X49305142Y-32901174D02*
G01*
X49328803Y-32904684D01*
X49352007Y-32910496D01*
X49374529Y-32918554D01*
X49396153Y-32928782D01*
X49416670Y-32941079D01*
X49435883Y-32955329D01*
X49453607Y-32971393D01*
X49469671Y-32989117D01*
X49483921Y-33008330D01*
X49496218Y-33028847D01*
X49506446Y-33050471D01*
X49514504Y-33072993D01*
X49520316Y-33096197D01*
X49523826Y-33119858D01*
X49525000Y-33143750D01*
X49525000Y-34056250D01*
X49523826Y-34080142D01*
X49520316Y-34103803D01*
X49514504Y-34127007D01*
X49506446Y-34149529D01*
X49496218Y-34171153D01*
X49483921Y-34191670D01*
X49469671Y-34210883D01*
X49453607Y-34228607D01*
X49435883Y-34244671D01*
X49416670Y-34258921D01*
X49396153Y-34271218D01*
X49374529Y-34281446D01*
X49352007Y-34289504D01*
X49328803Y-34295316D01*
X49305142Y-34298826D01*
X49281250Y-34300000D01*
X48793750Y-34300000D01*
X48769858Y-34298826D01*
X48746197Y-34295316D01*
X48722993Y-34289504D01*
X48700471Y-34281446D01*
X48678847Y-34271218D01*
X48658330Y-34258921D01*
X48639117Y-34244671D01*
X48621393Y-34228607D01*
X48605329Y-34210883D01*
X48591079Y-34191670D01*
X48578782Y-34171153D01*
X48568554Y-34149529D01*
X48560496Y-34127007D01*
X48554684Y-34103803D01*
X48551174Y-34080142D01*
X48550000Y-34056250D01*
X48550000Y-33143750D01*
X48551174Y-33119858D01*
X48554684Y-33096197D01*
X48560496Y-33072993D01*
X48568554Y-33050471D01*
X48578782Y-33028847D01*
X48591079Y-33008330D01*
X48605329Y-32989117D01*
X48621393Y-32971393D01*
X48639117Y-32955329D01*
X48658330Y-32941079D01*
X48678847Y-32928782D01*
X48700471Y-32918554D01*
X48722993Y-32910496D01*
X48746197Y-32904684D01*
X48769858Y-32901174D01*
X48793750Y-32900000D01*
X49281250Y-32900000D01*
X49305142Y-32901174D01*
G37*
G36*
X47430142Y-32901174D02*
G01*
X47453803Y-32904684D01*
X47477007Y-32910496D01*
X47499529Y-32918554D01*
X47521153Y-32928782D01*
X47541670Y-32941079D01*
X47560883Y-32955329D01*
X47578607Y-32971393D01*
X47594671Y-32989117D01*
X47608921Y-33008330D01*
X47621218Y-33028847D01*
X47631446Y-33050471D01*
X47639504Y-33072993D01*
X47645316Y-33096197D01*
X47648826Y-33119858D01*
X47650000Y-33143750D01*
X47650000Y-34056250D01*
X47648826Y-34080142D01*
X47645316Y-34103803D01*
X47639504Y-34127007D01*
X47631446Y-34149529D01*
X47621218Y-34171153D01*
X47608921Y-34191670D01*
X47594671Y-34210883D01*
X47578607Y-34228607D01*
X47560883Y-34244671D01*
X47541670Y-34258921D01*
X47521153Y-34271218D01*
X47499529Y-34281446D01*
X47477007Y-34289504D01*
X47453803Y-34295316D01*
X47430142Y-34298826D01*
X47406250Y-34300000D01*
X46918750Y-34300000D01*
X46894858Y-34298826D01*
X46871197Y-34295316D01*
X46847993Y-34289504D01*
X46825471Y-34281446D01*
X46803847Y-34271218D01*
X46783330Y-34258921D01*
X46764117Y-34244671D01*
X46746393Y-34228607D01*
X46730329Y-34210883D01*
X46716079Y-34191670D01*
X46703782Y-34171153D01*
X46693554Y-34149529D01*
X46685496Y-34127007D01*
X46679684Y-34103803D01*
X46676174Y-34080142D01*
X46675000Y-34056250D01*
X46675000Y-33143750D01*
X46676174Y-33119858D01*
X46679684Y-33096197D01*
X46685496Y-33072993D01*
X46693554Y-33050471D01*
X46703782Y-33028847D01*
X46716079Y-33008330D01*
X46730329Y-32989117D01*
X46746393Y-32971393D01*
X46764117Y-32955329D01*
X46783330Y-32941079D01*
X46803847Y-32928782D01*
X46825471Y-32918554D01*
X46847993Y-32910496D01*
X46871197Y-32904684D01*
X46894858Y-32901174D01*
X46918750Y-32900000D01*
X47406250Y-32900000D01*
X47430142Y-32901174D01*
G37*
G36*
X48754390Y-36940510D02*
G01*
X48764680Y-36942037D01*
X48774770Y-36944564D01*
X48784564Y-36948069D01*
X48793968Y-36952516D01*
X48802890Y-36957864D01*
X48811246Y-36964061D01*
X48818953Y-36971047D01*
X48825939Y-36978754D01*
X48832136Y-36987110D01*
X48837484Y-36996032D01*
X48841931Y-37005436D01*
X48845436Y-37015230D01*
X48847963Y-37025320D01*
X48849490Y-37035610D01*
X48850000Y-37046000D01*
X48850000Y-37894000D01*
X48849490Y-37904390D01*
X48847963Y-37914680D01*
X48845436Y-37924770D01*
X48841931Y-37934564D01*
X48837484Y-37943968D01*
X48832136Y-37952890D01*
X48825939Y-37961246D01*
X48818953Y-37968953D01*
X48811246Y-37975939D01*
X48802890Y-37982136D01*
X48793968Y-37987484D01*
X48784564Y-37991931D01*
X48774770Y-37995436D01*
X48764680Y-37997963D01*
X48754390Y-37999490D01*
X48744000Y-38000000D01*
X47456000Y-38000000D01*
X47445610Y-37999490D01*
X47435320Y-37997963D01*
X47425230Y-37995436D01*
X47415436Y-37991931D01*
X47406032Y-37987484D01*
X47397110Y-37982136D01*
X47388754Y-37975939D01*
X47381047Y-37968953D01*
X47374061Y-37961246D01*
X47367864Y-37952890D01*
X47362516Y-37943968D01*
X47358069Y-37934564D01*
X47354564Y-37924770D01*
X47352037Y-37914680D01*
X47350510Y-37904390D01*
X47350000Y-37894000D01*
X47350000Y-37046000D01*
X47350510Y-37035610D01*
X47352037Y-37025320D01*
X47354564Y-37015230D01*
X47358069Y-37005436D01*
X47362516Y-36996032D01*
X47367864Y-36987110D01*
X47374061Y-36978754D01*
X47381047Y-36971047D01*
X47388754Y-36964061D01*
X47397110Y-36957864D01*
X47406032Y-36952516D01*
X47415436Y-36948069D01*
X47425230Y-36944564D01*
X47435320Y-36942037D01*
X47445610Y-36940510D01*
X47456000Y-36940000D01*
X48744000Y-36940000D01*
X48754390Y-36940510D01*
G37*
G36*
X48754390Y-38200510D02*
G01*
X48764680Y-38202037D01*
X48774770Y-38204564D01*
X48784564Y-38208069D01*
X48793968Y-38212516D01*
X48802890Y-38217864D01*
X48811246Y-38224061D01*
X48818953Y-38231047D01*
X48825939Y-38238754D01*
X48832136Y-38247110D01*
X48837484Y-38256032D01*
X48841931Y-38265436D01*
X48845436Y-38275230D01*
X48847963Y-38285320D01*
X48849490Y-38295610D01*
X48850000Y-38306000D01*
X48850000Y-39154000D01*
X48849490Y-39164390D01*
X48847963Y-39174680D01*
X48845436Y-39184770D01*
X48841931Y-39194564D01*
X48837484Y-39203968D01*
X48832136Y-39212890D01*
X48825939Y-39221246D01*
X48818953Y-39228953D01*
X48811246Y-39235939D01*
X48802890Y-39242136D01*
X48793968Y-39247484D01*
X48784564Y-39251931D01*
X48774770Y-39255436D01*
X48764680Y-39257963D01*
X48754390Y-39259490D01*
X48744000Y-39260000D01*
X47456000Y-39260000D01*
X47445610Y-39259490D01*
X47435320Y-39257963D01*
X47425230Y-39255436D01*
X47415436Y-39251931D01*
X47406032Y-39247484D01*
X47397110Y-39242136D01*
X47388754Y-39235939D01*
X47381047Y-39228953D01*
X47374061Y-39221246D01*
X47367864Y-39212890D01*
X47362516Y-39203968D01*
X47358069Y-39194564D01*
X47354564Y-39184770D01*
X47352037Y-39174680D01*
X47350510Y-39164390D01*
X47350000Y-39154000D01*
X47350000Y-38306000D01*
X47350510Y-38295610D01*
X47352037Y-38285320D01*
X47354564Y-38275230D01*
X47358069Y-38265436D01*
X47362516Y-38256032D01*
X47367864Y-38247110D01*
X47374061Y-38238754D01*
X47381047Y-38231047D01*
X47388754Y-38224061D01*
X47397110Y-38217864D01*
X47406032Y-38212516D01*
X47415436Y-38208069D01*
X47425230Y-38204564D01*
X47435320Y-38202037D01*
X47445610Y-38200510D01*
X47456000Y-38200000D01*
X48744000Y-38200000D01*
X48754390Y-38200510D01*
G37*
G36*
X48452450Y-39460120D02*
G01*
X48454877Y-39460480D01*
X48457257Y-39461076D01*
X48459567Y-39461903D01*
X48461785Y-39462952D01*
X48463889Y-39464213D01*
X48465860Y-39465675D01*
X48467678Y-39467322D01*
X48469325Y-39469140D01*
X48470787Y-39471111D01*
X48472048Y-39473215D01*
X48473097Y-39475433D01*
X48473924Y-39477743D01*
X48474520Y-39480123D01*
X48474880Y-39482550D01*
X48475000Y-39485000D01*
X48475000Y-39775000D01*
X48474880Y-39777450D01*
X48474520Y-39779877D01*
X48473924Y-39782257D01*
X48473097Y-39784567D01*
X48472048Y-39786785D01*
X48470787Y-39788889D01*
X48469325Y-39790860D01*
X48467678Y-39792678D01*
X48465860Y-39794325D01*
X48463889Y-39795787D01*
X48461785Y-39797048D01*
X48459567Y-39798097D01*
X48457257Y-39798924D01*
X48454877Y-39799520D01*
X48452450Y-39799880D01*
X48450000Y-39800000D01*
X48250000Y-39800000D01*
X48247550Y-39799880D01*
X48245123Y-39799520D01*
X48242743Y-39798924D01*
X48240433Y-39798097D01*
X48238215Y-39797048D01*
X48236111Y-39795787D01*
X48234140Y-39794325D01*
X48232322Y-39792678D01*
X48230675Y-39790860D01*
X48229213Y-39788889D01*
X48227952Y-39786785D01*
X48226903Y-39784567D01*
X48226076Y-39782257D01*
X48225480Y-39779877D01*
X48225120Y-39777450D01*
X48225000Y-39775000D01*
X48225000Y-39485000D01*
X48225120Y-39482550D01*
X48225480Y-39480123D01*
X48226076Y-39477743D01*
X48226903Y-39475433D01*
X48227952Y-39473215D01*
X48229213Y-39471111D01*
X48230675Y-39469140D01*
X48232322Y-39467322D01*
X48234140Y-39465675D01*
X48236111Y-39464213D01*
X48238215Y-39462952D01*
X48240433Y-39461903D01*
X48242743Y-39461076D01*
X48245123Y-39460480D01*
X48247550Y-39460120D01*
X48250000Y-39460000D01*
X48450000Y-39460000D01*
X48452450Y-39460120D01*
G37*
G36*
X47952450Y-39460120D02*
G01*
X47954877Y-39460480D01*
X47957257Y-39461076D01*
X47959567Y-39461903D01*
X47961785Y-39462952D01*
X47963889Y-39464213D01*
X47965860Y-39465675D01*
X47967678Y-39467322D01*
X47969325Y-39469140D01*
X47970787Y-39471111D01*
X47972048Y-39473215D01*
X47973097Y-39475433D01*
X47973924Y-39477743D01*
X47974520Y-39480123D01*
X47974880Y-39482550D01*
X47975000Y-39485000D01*
X47975000Y-39775000D01*
X47974880Y-39777450D01*
X47974520Y-39779877D01*
X47973924Y-39782257D01*
X47973097Y-39784567D01*
X47972048Y-39786785D01*
X47970787Y-39788889D01*
X47969325Y-39790860D01*
X47967678Y-39792678D01*
X47965860Y-39794325D01*
X47963889Y-39795787D01*
X47961785Y-39797048D01*
X47959567Y-39798097D01*
X47957257Y-39798924D01*
X47954877Y-39799520D01*
X47952450Y-39799880D01*
X47950000Y-39800000D01*
X47750000Y-39800000D01*
X47747550Y-39799880D01*
X47745123Y-39799520D01*
X47742743Y-39798924D01*
X47740433Y-39798097D01*
X47738215Y-39797048D01*
X47736111Y-39795787D01*
X47734140Y-39794325D01*
X47732322Y-39792678D01*
X47730675Y-39790860D01*
X47729213Y-39788889D01*
X47727952Y-39786785D01*
X47726903Y-39784567D01*
X47726076Y-39782257D01*
X47725480Y-39779877D01*
X47725120Y-39777450D01*
X47725000Y-39775000D01*
X47725000Y-39485000D01*
X47725120Y-39482550D01*
X47725480Y-39480123D01*
X47726076Y-39477743D01*
X47726903Y-39475433D01*
X47727952Y-39473215D01*
X47729213Y-39471111D01*
X47730675Y-39469140D01*
X47732322Y-39467322D01*
X47734140Y-39465675D01*
X47736111Y-39464213D01*
X47738215Y-39462952D01*
X47740433Y-39461903D01*
X47742743Y-39461076D01*
X47745123Y-39460480D01*
X47747550Y-39460120D01*
X47750000Y-39460000D01*
X47950000Y-39460000D01*
X47952450Y-39460120D01*
G37*
G36*
X48452450Y-36400120D02*
G01*
X48454877Y-36400480D01*
X48457257Y-36401076D01*
X48459567Y-36401903D01*
X48461785Y-36402952D01*
X48463889Y-36404213D01*
X48465860Y-36405675D01*
X48467678Y-36407322D01*
X48469325Y-36409140D01*
X48470787Y-36411111D01*
X48472048Y-36413215D01*
X48473097Y-36415433D01*
X48473924Y-36417743D01*
X48474520Y-36420123D01*
X48474880Y-36422550D01*
X48475000Y-36425000D01*
X48475000Y-36715000D01*
X48474880Y-36717450D01*
X48474520Y-36719877D01*
X48473924Y-36722257D01*
X48473097Y-36724567D01*
X48472048Y-36726785D01*
X48470787Y-36728889D01*
X48469325Y-36730860D01*
X48467678Y-36732678D01*
X48465860Y-36734325D01*
X48463889Y-36735787D01*
X48461785Y-36737048D01*
X48459567Y-36738097D01*
X48457257Y-36738924D01*
X48454877Y-36739520D01*
X48452450Y-36739880D01*
X48450000Y-36740000D01*
X48250000Y-36740000D01*
X48247550Y-36739880D01*
X48245123Y-36739520D01*
X48242743Y-36738924D01*
X48240433Y-36738097D01*
X48238215Y-36737048D01*
X48236111Y-36735787D01*
X48234140Y-36734325D01*
X48232322Y-36732678D01*
X48230675Y-36730860D01*
X48229213Y-36728889D01*
X48227952Y-36726785D01*
X48226903Y-36724567D01*
X48226076Y-36722257D01*
X48225480Y-36719877D01*
X48225120Y-36717450D01*
X48225000Y-36715000D01*
X48225000Y-36425000D01*
X48225120Y-36422550D01*
X48225480Y-36420123D01*
X48226076Y-36417743D01*
X48226903Y-36415433D01*
X48227952Y-36413215D01*
X48229213Y-36411111D01*
X48230675Y-36409140D01*
X48232322Y-36407322D01*
X48234140Y-36405675D01*
X48236111Y-36404213D01*
X48238215Y-36402952D01*
X48240433Y-36401903D01*
X48242743Y-36401076D01*
X48245123Y-36400480D01*
X48247550Y-36400120D01*
X48250000Y-36400000D01*
X48450000Y-36400000D01*
X48452450Y-36400120D01*
G37*
G36*
X47952450Y-36400120D02*
G01*
X47954877Y-36400480D01*
X47957257Y-36401076D01*
X47959567Y-36401903D01*
X47961785Y-36402952D01*
X47963889Y-36404213D01*
X47965860Y-36405675D01*
X47967678Y-36407322D01*
X47969325Y-36409140D01*
X47970787Y-36411111D01*
X47972048Y-36413215D01*
X47973097Y-36415433D01*
X47973924Y-36417743D01*
X47974520Y-36420123D01*
X47974880Y-36422550D01*
X47975000Y-36425000D01*
X47975000Y-36715000D01*
X47974880Y-36717450D01*
X47974520Y-36719877D01*
X47973924Y-36722257D01*
X47973097Y-36724567D01*
X47972048Y-36726785D01*
X47970787Y-36728889D01*
X47969325Y-36730860D01*
X47967678Y-36732678D01*
X47965860Y-36734325D01*
X47963889Y-36735787D01*
X47961785Y-36737048D01*
X47959567Y-36738097D01*
X47957257Y-36738924D01*
X47954877Y-36739520D01*
X47952450Y-36739880D01*
X47950000Y-36740000D01*
X47750000Y-36740000D01*
X47747550Y-36739880D01*
X47745123Y-36739520D01*
X47742743Y-36738924D01*
X47740433Y-36738097D01*
X47738215Y-36737048D01*
X47736111Y-36735787D01*
X47734140Y-36734325D01*
X47732322Y-36732678D01*
X47730675Y-36730860D01*
X47729213Y-36728889D01*
X47727952Y-36726785D01*
X47726903Y-36724567D01*
X47726076Y-36722257D01*
X47725480Y-36719877D01*
X47725120Y-36717450D01*
X47725000Y-36715000D01*
X47725000Y-36425000D01*
X47725120Y-36422550D01*
X47725480Y-36420123D01*
X47726076Y-36417743D01*
X47726903Y-36415433D01*
X47727952Y-36413215D01*
X47729213Y-36411111D01*
X47730675Y-36409140D01*
X47732322Y-36407322D01*
X47734140Y-36405675D01*
X47736111Y-36404213D01*
X47738215Y-36402952D01*
X47740433Y-36401903D01*
X47742743Y-36401076D01*
X47745123Y-36400480D01*
X47747550Y-36400120D01*
X47750000Y-36400000D01*
X47950000Y-36400000D01*
X47952450Y-36400120D01*
G37*
D16*
X49500000Y-39100000D03*
X49500000Y-38600000D03*
X49500000Y-38100000D03*
X49500000Y-37600000D03*
X49500000Y-37100000D03*
X46700000Y-37100000D03*
X46700000Y-37600000D03*
X46700000Y-38100000D03*
X46700000Y-38600000D03*
X46700000Y-39100000D03*
M02*
