G04 #@! TF.GenerationSoftware,KiCad,Pcbnew,(5.1.5)-3*
G04 #@! TF.CreationDate,2020-12-11T17:28:03+02:00*
G04 #@! TF.ProjectId,led_02,6c65645f-3032-42e6-9b69-6361645f7063,rev?*
G04 #@! TF.SameCoordinates,Original*
G04 #@! TF.FileFunction,Copper,L2,Bot*
G04 #@! TF.FilePolarity,Positive*
%FSLAX46Y46*%
G04 Gerber Fmt 4.6, Leading zero omitted, Abs format (unit mm)*
G04 Created by KiCad (PCBNEW (5.1.5)-3) date 2020-12-11 17:28:03*
%MOMM*%
%LPD*%
G04 APERTURE LIST*
%ADD10O,1.600000X1.600000*%
%ADD11R,1.600000X1.600000*%
%ADD12R,1.700000X1.700000*%
%ADD13O,1.700000X1.700000*%
%ADD14R,1.800000X1.800000*%
%ADD15C,1.800000*%
%ADD16C,0.500000*%
%ADD17C,3.000000*%
%ADD18C,0.800000*%
%ADD19C,1.000000*%
%ADD20C,0.254000*%
G04 APERTURE END LIST*
D10*
X27860000Y-14640000D03*
X30400000Y-14640000D03*
D11*
X37000000Y-62900000D03*
D10*
X67480000Y-14640000D03*
X39540000Y-62900000D03*
X64940000Y-14640000D03*
X42080000Y-62900000D03*
X62400000Y-14640000D03*
X44620000Y-62900000D03*
X59860000Y-14640000D03*
X47160000Y-62900000D03*
X57320000Y-14640000D03*
X49700000Y-62900000D03*
X54780000Y-14640000D03*
X52240000Y-62900000D03*
X50720000Y-14640000D03*
X54780000Y-62900000D03*
X48180000Y-14640000D03*
X59860000Y-62900000D03*
X45640000Y-14640000D03*
X62400000Y-62900000D03*
X43100000Y-14640000D03*
X64940000Y-62900000D03*
X40560000Y-14640000D03*
X67480000Y-62900000D03*
X38020000Y-14640000D03*
X70020000Y-62900000D03*
X35480000Y-14640000D03*
X72560000Y-62900000D03*
X32940000Y-14640000D03*
X72560000Y-14640000D03*
X70020000Y-14640000D03*
D12*
X21500000Y-57000000D03*
D13*
X24040000Y-57000000D03*
D12*
X82000000Y-14000000D03*
D13*
X82000000Y-16540000D03*
X82000000Y-19080000D03*
X82000000Y-21620000D03*
D12*
X82000000Y-27000000D03*
D13*
X82000000Y-29540000D03*
X82000000Y-32080000D03*
X82000000Y-34620000D03*
X82000000Y-37160000D03*
X82000000Y-39700000D03*
X82000000Y-42240000D03*
X82000000Y-44780000D03*
D11*
X19000000Y-63000000D03*
D10*
X26620000Y-63000000D03*
D14*
X12000000Y-63000000D03*
D15*
X14540000Y-63000000D03*
D16*
X48100000Y-37150000D03*
X48675000Y-38100000D03*
X47525000Y-38100000D03*
X48100000Y-39050000D03*
D17*
X69400000Y-45900000D03*
X47000000Y-57700000D03*
X43600000Y-46500000D03*
D18*
X56500000Y-59000000D03*
X52600000Y-43550000D03*
X27500000Y-38650000D03*
D19*
X44620000Y-61768630D02*
X46388630Y-60000000D01*
X44620000Y-62900000D02*
X44620000Y-61768630D01*
X46388630Y-60000000D02*
X55500000Y-60000000D01*
X55500000Y-60000000D02*
X56500000Y-59000000D01*
X56500000Y-59000000D02*
X56500000Y-59000000D01*
X47000000Y-63000000D02*
X47500000Y-63000000D01*
X47000000Y-64500000D02*
X47000000Y-63000000D01*
X48000000Y-65500000D02*
X47000000Y-64500000D01*
X83540000Y-29840000D02*
X84500000Y-30800000D01*
X75500000Y-65500000D02*
X48000000Y-65500000D01*
X83540000Y-29840000D02*
X82140000Y-29840000D01*
X82140000Y-29840000D02*
X82000000Y-29700000D01*
X84500000Y-55300000D02*
X84500000Y-56500000D01*
X84500000Y-56500000D02*
X75500000Y-65500000D01*
X84500000Y-55300000D02*
X84500000Y-55900000D01*
X84500000Y-30900000D02*
X84500000Y-55300000D01*
X80797919Y-37160000D02*
X60637919Y-17000000D01*
X82000000Y-37160000D02*
X80797919Y-37160000D01*
X60637919Y-17000000D02*
X51500000Y-17000000D01*
X51500000Y-17000000D02*
X50700000Y-16200000D01*
X50700000Y-16200000D02*
X50700000Y-14800000D01*
X80797919Y-34620000D02*
X80000000Y-33822081D01*
X82000000Y-34620000D02*
X80797919Y-34620000D01*
X80000000Y-33822081D02*
X80000000Y-33800000D01*
X80000000Y-33800000D02*
X79600000Y-33400000D01*
X79600000Y-33400000D02*
X79600000Y-14400000D01*
X79600000Y-14400000D02*
X77200000Y-12000000D01*
X77200000Y-12000000D02*
X49400000Y-12000000D01*
X49400000Y-12000000D02*
X48200000Y-13200000D01*
X48200000Y-13200000D02*
X48200000Y-14600000D01*
X27500000Y-38650000D02*
X27500000Y-62500000D01*
X27500000Y-62500000D02*
X27000000Y-63000000D01*
X27000000Y-63000000D02*
X26500000Y-63000000D01*
D20*
G36*
X86815001Y-66815000D02*
G01*
X8185000Y-66815000D01*
X8185000Y-62100000D01*
X10461928Y-62100000D01*
X10461928Y-63900000D01*
X10474188Y-64024482D01*
X10510498Y-64144180D01*
X10569463Y-64254494D01*
X10648815Y-64351185D01*
X10745506Y-64430537D01*
X10855820Y-64489502D01*
X10975518Y-64525812D01*
X11100000Y-64538072D01*
X12900000Y-64538072D01*
X13024482Y-64525812D01*
X13144180Y-64489502D01*
X13254494Y-64430537D01*
X13351185Y-64351185D01*
X13430537Y-64254494D01*
X13489502Y-64144180D01*
X13495056Y-64125873D01*
X13561495Y-64192312D01*
X13812905Y-64360299D01*
X14092257Y-64476011D01*
X14388816Y-64535000D01*
X14691184Y-64535000D01*
X14987743Y-64476011D01*
X15267095Y-64360299D01*
X15518505Y-64192312D01*
X15732312Y-63978505D01*
X15900299Y-63727095D01*
X16016011Y-63447743D01*
X16075000Y-63151184D01*
X16075000Y-62848816D01*
X16016011Y-62552257D01*
X15900299Y-62272905D01*
X15851586Y-62200000D01*
X17561928Y-62200000D01*
X17561928Y-63800000D01*
X17574188Y-63924482D01*
X17610498Y-64044180D01*
X17669463Y-64154494D01*
X17748815Y-64251185D01*
X17845506Y-64330537D01*
X17955820Y-64389502D01*
X18075518Y-64425812D01*
X18200000Y-64438072D01*
X19800000Y-64438072D01*
X19924482Y-64425812D01*
X20044180Y-64389502D01*
X20154494Y-64330537D01*
X20251185Y-64251185D01*
X20330537Y-64154494D01*
X20389502Y-64044180D01*
X20425812Y-63924482D01*
X20438072Y-63800000D01*
X20438072Y-62858665D01*
X25185000Y-62858665D01*
X25185000Y-63141335D01*
X25240147Y-63418574D01*
X25348320Y-63679727D01*
X25505363Y-63914759D01*
X25705241Y-64114637D01*
X25940273Y-64271680D01*
X26201426Y-64379853D01*
X26478665Y-64435000D01*
X26761335Y-64435000D01*
X27038574Y-64379853D01*
X27299727Y-64271680D01*
X27534759Y-64114637D01*
X27734637Y-63914759D01*
X27809453Y-63802788D01*
X27841996Y-63763135D01*
X28263135Y-63341996D01*
X28306449Y-63306449D01*
X28448284Y-63133623D01*
X28553676Y-62936447D01*
X28618577Y-62722499D01*
X28635000Y-62555752D01*
X28640491Y-62500000D01*
X28635000Y-62444248D01*
X28635000Y-62100000D01*
X35561928Y-62100000D01*
X35561928Y-63700000D01*
X35574188Y-63824482D01*
X35610498Y-63944180D01*
X35669463Y-64054494D01*
X35748815Y-64151185D01*
X35845506Y-64230537D01*
X35955820Y-64289502D01*
X36075518Y-64325812D01*
X36200000Y-64338072D01*
X37800000Y-64338072D01*
X37924482Y-64325812D01*
X38044180Y-64289502D01*
X38154494Y-64230537D01*
X38251185Y-64151185D01*
X38330537Y-64054494D01*
X38389502Y-63944180D01*
X38425812Y-63824482D01*
X38426643Y-63816039D01*
X38625241Y-64014637D01*
X38860273Y-64171680D01*
X39121426Y-64279853D01*
X39398665Y-64335000D01*
X39681335Y-64335000D01*
X39958574Y-64279853D01*
X40219727Y-64171680D01*
X40454759Y-64014637D01*
X40654637Y-63814759D01*
X40810000Y-63582241D01*
X40965363Y-63814759D01*
X41165241Y-64014637D01*
X41400273Y-64171680D01*
X41661426Y-64279853D01*
X41938665Y-64335000D01*
X42221335Y-64335000D01*
X42498574Y-64279853D01*
X42759727Y-64171680D01*
X42994759Y-64014637D01*
X43194637Y-63814759D01*
X43350000Y-63582241D01*
X43505363Y-63814759D01*
X43705241Y-64014637D01*
X43940273Y-64171680D01*
X44201426Y-64279853D01*
X44478665Y-64335000D01*
X44761335Y-64335000D01*
X45038574Y-64279853D01*
X45299727Y-64171680D01*
X45534759Y-64014637D01*
X45734637Y-63814759D01*
X45865000Y-63619657D01*
X45865000Y-64444249D01*
X45859509Y-64500000D01*
X45865000Y-64555751D01*
X45881423Y-64722498D01*
X45946324Y-64936446D01*
X46051716Y-65133623D01*
X46193551Y-65306449D01*
X46236864Y-65341995D01*
X47158013Y-66263145D01*
X47193551Y-66306449D01*
X47236854Y-66341987D01*
X47236856Y-66341989D01*
X47366377Y-66448284D01*
X47563553Y-66553676D01*
X47777501Y-66618577D01*
X48000000Y-66640491D01*
X48055752Y-66635000D01*
X75444249Y-66635000D01*
X75500000Y-66640491D01*
X75555751Y-66635000D01*
X75555752Y-66635000D01*
X75722499Y-66618577D01*
X75936447Y-66553676D01*
X76133623Y-66448284D01*
X76306449Y-66306449D01*
X76341996Y-66263135D01*
X85263141Y-57341991D01*
X85306449Y-57306449D01*
X85448284Y-57133623D01*
X85553676Y-56936447D01*
X85618577Y-56722499D01*
X85635000Y-56555752D01*
X85640491Y-56500001D01*
X85635000Y-56444249D01*
X85635000Y-30855751D01*
X85640491Y-30799999D01*
X85618577Y-30577501D01*
X85553676Y-30363553D01*
X85448283Y-30166377D01*
X85341988Y-30036856D01*
X84381996Y-29076864D01*
X84346449Y-29033551D01*
X84173623Y-28891716D01*
X83976447Y-28786324D01*
X83762499Y-28721423D01*
X83595752Y-28705000D01*
X83595751Y-28705000D01*
X83540000Y-28699509D01*
X83484249Y-28705000D01*
X83228065Y-28705000D01*
X83153475Y-28593368D01*
X83021620Y-28461513D01*
X83094180Y-28439502D01*
X83204494Y-28380537D01*
X83301185Y-28301185D01*
X83380537Y-28204494D01*
X83439502Y-28094180D01*
X83475812Y-27974482D01*
X83488072Y-27850000D01*
X83485000Y-27285750D01*
X83326250Y-27127000D01*
X82127000Y-27127000D01*
X82127000Y-27147000D01*
X81873000Y-27147000D01*
X81873000Y-27127000D01*
X81853000Y-27127000D01*
X81853000Y-26873000D01*
X81873000Y-26873000D01*
X81873000Y-25673750D01*
X82127000Y-25673750D01*
X82127000Y-26873000D01*
X83326250Y-26873000D01*
X83485000Y-26714250D01*
X83488072Y-26150000D01*
X83475812Y-26025518D01*
X83439502Y-25905820D01*
X83380537Y-25795506D01*
X83301185Y-25698815D01*
X83204494Y-25619463D01*
X83094180Y-25560498D01*
X82974482Y-25524188D01*
X82850000Y-25511928D01*
X82285750Y-25515000D01*
X82127000Y-25673750D01*
X81873000Y-25673750D01*
X81714250Y-25515000D01*
X81150000Y-25511928D01*
X81025518Y-25524188D01*
X80905820Y-25560498D01*
X80795506Y-25619463D01*
X80735000Y-25669119D01*
X80735000Y-22399723D01*
X80846525Y-22566632D01*
X81053368Y-22773475D01*
X81296589Y-22935990D01*
X81566842Y-23047932D01*
X81853740Y-23105000D01*
X82146260Y-23105000D01*
X82433158Y-23047932D01*
X82703411Y-22935990D01*
X82946632Y-22773475D01*
X83153475Y-22566632D01*
X83315990Y-22323411D01*
X83427932Y-22053158D01*
X83485000Y-21766260D01*
X83485000Y-21473740D01*
X83427932Y-21186842D01*
X83315990Y-20916589D01*
X83153475Y-20673368D01*
X82946632Y-20466525D01*
X82764466Y-20344805D01*
X82881355Y-20275178D01*
X83097588Y-20080269D01*
X83271641Y-19846920D01*
X83396825Y-19584099D01*
X83441476Y-19436890D01*
X83320155Y-19207000D01*
X82127000Y-19207000D01*
X82127000Y-19227000D01*
X81873000Y-19227000D01*
X81873000Y-19207000D01*
X81853000Y-19207000D01*
X81853000Y-18953000D01*
X81873000Y-18953000D01*
X81873000Y-18933000D01*
X82127000Y-18933000D01*
X82127000Y-18953000D01*
X83320155Y-18953000D01*
X83441476Y-18723110D01*
X83396825Y-18575901D01*
X83271641Y-18313080D01*
X83097588Y-18079731D01*
X82881355Y-17884822D01*
X82764466Y-17815195D01*
X82946632Y-17693475D01*
X83153475Y-17486632D01*
X83315990Y-17243411D01*
X83427932Y-16973158D01*
X83485000Y-16686260D01*
X83485000Y-16393740D01*
X83427932Y-16106842D01*
X83315990Y-15836589D01*
X83153475Y-15593368D01*
X83021620Y-15461513D01*
X83094180Y-15439502D01*
X83204494Y-15380537D01*
X83301185Y-15301185D01*
X83380537Y-15204494D01*
X83439502Y-15094180D01*
X83475812Y-14974482D01*
X83488072Y-14850000D01*
X83488072Y-13150000D01*
X83475812Y-13025518D01*
X83439502Y-12905820D01*
X83380537Y-12795506D01*
X83301185Y-12698815D01*
X83204494Y-12619463D01*
X83094180Y-12560498D01*
X82974482Y-12524188D01*
X82850000Y-12511928D01*
X81150000Y-12511928D01*
X81025518Y-12524188D01*
X80905820Y-12560498D01*
X80795506Y-12619463D01*
X80698815Y-12698815D01*
X80619463Y-12795506D01*
X80560498Y-12905820D01*
X80524188Y-13025518D01*
X80511928Y-13150000D01*
X80511928Y-13722077D01*
X80441989Y-13636856D01*
X80441987Y-13636854D01*
X80406449Y-13593551D01*
X80363146Y-13558013D01*
X78041996Y-11236864D01*
X78006449Y-11193551D01*
X77833623Y-11051716D01*
X77636447Y-10946324D01*
X77422499Y-10881423D01*
X77255752Y-10865000D01*
X77255751Y-10865000D01*
X77200000Y-10859509D01*
X77144249Y-10865000D01*
X49455741Y-10865000D01*
X49399999Y-10859510D01*
X49344257Y-10865000D01*
X49344248Y-10865000D01*
X49177501Y-10881423D01*
X48963553Y-10946324D01*
X48766377Y-11051716D01*
X48593551Y-11193551D01*
X48558008Y-11236860D01*
X47436865Y-12358004D01*
X47393551Y-12393551D01*
X47251716Y-12566377D01*
X47146544Y-12763143D01*
X47146324Y-12763554D01*
X47081423Y-12977502D01*
X47059509Y-13200000D01*
X47065000Y-13255751D01*
X47065000Y-13725784D01*
X46910000Y-13957759D01*
X46754637Y-13725241D01*
X46554759Y-13525363D01*
X46319727Y-13368320D01*
X46058574Y-13260147D01*
X45781335Y-13205000D01*
X45498665Y-13205000D01*
X45221426Y-13260147D01*
X44960273Y-13368320D01*
X44725241Y-13525363D01*
X44525363Y-13725241D01*
X44370000Y-13957759D01*
X44214637Y-13725241D01*
X44014759Y-13525363D01*
X43779727Y-13368320D01*
X43518574Y-13260147D01*
X43241335Y-13205000D01*
X42958665Y-13205000D01*
X42681426Y-13260147D01*
X42420273Y-13368320D01*
X42185241Y-13525363D01*
X41985363Y-13725241D01*
X41830000Y-13957759D01*
X41674637Y-13725241D01*
X41474759Y-13525363D01*
X41239727Y-13368320D01*
X40978574Y-13260147D01*
X40701335Y-13205000D01*
X40418665Y-13205000D01*
X40141426Y-13260147D01*
X39880273Y-13368320D01*
X39645241Y-13525363D01*
X39445363Y-13725241D01*
X39290000Y-13957759D01*
X39134637Y-13725241D01*
X38934759Y-13525363D01*
X38699727Y-13368320D01*
X38438574Y-13260147D01*
X38161335Y-13205000D01*
X37878665Y-13205000D01*
X37601426Y-13260147D01*
X37340273Y-13368320D01*
X37105241Y-13525363D01*
X36905363Y-13725241D01*
X36748320Y-13960273D01*
X36743933Y-13970865D01*
X36632385Y-13784869D01*
X36443414Y-13576481D01*
X36217420Y-13408963D01*
X35963087Y-13288754D01*
X35829039Y-13248096D01*
X35607000Y-13370085D01*
X35607000Y-14513000D01*
X35627000Y-14513000D01*
X35627000Y-14767000D01*
X35607000Y-14767000D01*
X35607000Y-15909915D01*
X35829039Y-16031904D01*
X35963087Y-15991246D01*
X36217420Y-15871037D01*
X36443414Y-15703519D01*
X36632385Y-15495131D01*
X36743933Y-15309135D01*
X36748320Y-15319727D01*
X36905363Y-15554759D01*
X37105241Y-15754637D01*
X37340273Y-15911680D01*
X37601426Y-16019853D01*
X37878665Y-16075000D01*
X38161335Y-16075000D01*
X38438574Y-16019853D01*
X38699727Y-15911680D01*
X38934759Y-15754637D01*
X39134637Y-15554759D01*
X39290000Y-15322241D01*
X39445363Y-15554759D01*
X39645241Y-15754637D01*
X39880273Y-15911680D01*
X40141426Y-16019853D01*
X40418665Y-16075000D01*
X40701335Y-16075000D01*
X40978574Y-16019853D01*
X41239727Y-15911680D01*
X41474759Y-15754637D01*
X41674637Y-15554759D01*
X41830000Y-15322241D01*
X41985363Y-15554759D01*
X42185241Y-15754637D01*
X42420273Y-15911680D01*
X42681426Y-16019853D01*
X42958665Y-16075000D01*
X43241335Y-16075000D01*
X43518574Y-16019853D01*
X43779727Y-15911680D01*
X44014759Y-15754637D01*
X44214637Y-15554759D01*
X44370000Y-15322241D01*
X44525363Y-15554759D01*
X44725241Y-15754637D01*
X44960273Y-15911680D01*
X45221426Y-16019853D01*
X45498665Y-16075000D01*
X45781335Y-16075000D01*
X46058574Y-16019853D01*
X46319727Y-15911680D01*
X46554759Y-15754637D01*
X46754637Y-15554759D01*
X46910000Y-15322241D01*
X47065363Y-15554759D01*
X47265241Y-15754637D01*
X47500273Y-15911680D01*
X47761426Y-16019853D01*
X48038665Y-16075000D01*
X48321335Y-16075000D01*
X48598574Y-16019853D01*
X48859727Y-15911680D01*
X49094759Y-15754637D01*
X49294637Y-15554759D01*
X49450000Y-15322241D01*
X49565000Y-15494351D01*
X49565000Y-16144249D01*
X49559509Y-16200000D01*
X49565000Y-16255751D01*
X49581423Y-16422498D01*
X49646324Y-16636446D01*
X49751716Y-16833623D01*
X49893551Y-17006449D01*
X49936864Y-17041995D01*
X50658008Y-17763140D01*
X50693551Y-17806449D01*
X50753917Y-17855990D01*
X50866377Y-17948284D01*
X51063553Y-18053676D01*
X51277501Y-18118577D01*
X51500000Y-18140491D01*
X51555752Y-18135000D01*
X60167788Y-18135000D01*
X79955928Y-37923141D01*
X79991470Y-37966449D01*
X80164296Y-38108284D01*
X80361472Y-38213676D01*
X80575420Y-38278577D01*
X80742167Y-38295000D01*
X80742176Y-38295000D01*
X80797918Y-38300490D01*
X80853660Y-38295000D01*
X81034893Y-38295000D01*
X81053368Y-38313475D01*
X81227760Y-38430000D01*
X81053368Y-38546525D01*
X80846525Y-38753368D01*
X80684010Y-38996589D01*
X80572068Y-39266842D01*
X80515000Y-39553740D01*
X80515000Y-39846260D01*
X80572068Y-40133158D01*
X80684010Y-40403411D01*
X80846525Y-40646632D01*
X81053368Y-40853475D01*
X81227760Y-40970000D01*
X81053368Y-41086525D01*
X80846525Y-41293368D01*
X80684010Y-41536589D01*
X80572068Y-41806842D01*
X80515000Y-42093740D01*
X80515000Y-42386260D01*
X80572068Y-42673158D01*
X80684010Y-42943411D01*
X80846525Y-43186632D01*
X81053368Y-43393475D01*
X81227760Y-43510000D01*
X81053368Y-43626525D01*
X80846525Y-43833368D01*
X80684010Y-44076589D01*
X80572068Y-44346842D01*
X80515000Y-44633740D01*
X80515000Y-44926260D01*
X80572068Y-45213158D01*
X80684010Y-45483411D01*
X80846525Y-45726632D01*
X81053368Y-45933475D01*
X81296589Y-46095990D01*
X81566842Y-46207932D01*
X81853740Y-46265000D01*
X82146260Y-46265000D01*
X82433158Y-46207932D01*
X82703411Y-46095990D01*
X82946632Y-45933475D01*
X83153475Y-45726632D01*
X83315990Y-45483411D01*
X83365001Y-45365088D01*
X83365001Y-55244239D01*
X83365000Y-55244249D01*
X83365000Y-56029868D01*
X75029869Y-64365000D01*
X48470132Y-64365000D01*
X48135000Y-64029868D01*
X48135000Y-63954396D01*
X48175387Y-63914009D01*
X48306449Y-63806449D01*
X48448284Y-63633623D01*
X48460753Y-63610295D01*
X48547615Y-63755131D01*
X48736586Y-63963519D01*
X48962580Y-64131037D01*
X49216913Y-64251246D01*
X49350961Y-64291904D01*
X49573000Y-64169915D01*
X49573000Y-63027000D01*
X49827000Y-63027000D01*
X49827000Y-64169915D01*
X50049039Y-64291904D01*
X50183087Y-64251246D01*
X50437420Y-64131037D01*
X50663414Y-63963519D01*
X50852385Y-63755131D01*
X50970000Y-63559018D01*
X51087615Y-63755131D01*
X51276586Y-63963519D01*
X51502580Y-64131037D01*
X51756913Y-64251246D01*
X51890961Y-64291904D01*
X52113000Y-64169915D01*
X52113000Y-63027000D01*
X49827000Y-63027000D01*
X49573000Y-63027000D01*
X49553000Y-63027000D01*
X49553000Y-62773000D01*
X49573000Y-62773000D01*
X49573000Y-61630085D01*
X49827000Y-61630085D01*
X49827000Y-62773000D01*
X52113000Y-62773000D01*
X52113000Y-61630085D01*
X52367000Y-61630085D01*
X52367000Y-62773000D01*
X52387000Y-62773000D01*
X52387000Y-63027000D01*
X52367000Y-63027000D01*
X52367000Y-64169915D01*
X52589039Y-64291904D01*
X52723087Y-64251246D01*
X52977420Y-64131037D01*
X53203414Y-63963519D01*
X53392385Y-63755131D01*
X53503933Y-63569135D01*
X53508320Y-63579727D01*
X53665363Y-63814759D01*
X53865241Y-64014637D01*
X54100273Y-64171680D01*
X54361426Y-64279853D01*
X54638665Y-64335000D01*
X54921335Y-64335000D01*
X55198574Y-64279853D01*
X55459727Y-64171680D01*
X55694759Y-64014637D01*
X55894637Y-63814759D01*
X56051680Y-63579727D01*
X56159853Y-63318574D01*
X56215000Y-63041335D01*
X56215000Y-62758665D01*
X58425000Y-62758665D01*
X58425000Y-63041335D01*
X58480147Y-63318574D01*
X58588320Y-63579727D01*
X58745363Y-63814759D01*
X58945241Y-64014637D01*
X59180273Y-64171680D01*
X59441426Y-64279853D01*
X59718665Y-64335000D01*
X60001335Y-64335000D01*
X60278574Y-64279853D01*
X60539727Y-64171680D01*
X60774759Y-64014637D01*
X60974637Y-63814759D01*
X61130000Y-63582241D01*
X61285363Y-63814759D01*
X61485241Y-64014637D01*
X61720273Y-64171680D01*
X61981426Y-64279853D01*
X62258665Y-64335000D01*
X62541335Y-64335000D01*
X62818574Y-64279853D01*
X63079727Y-64171680D01*
X63314759Y-64014637D01*
X63514637Y-63814759D01*
X63670000Y-63582241D01*
X63825363Y-63814759D01*
X64025241Y-64014637D01*
X64260273Y-64171680D01*
X64521426Y-64279853D01*
X64798665Y-64335000D01*
X65081335Y-64335000D01*
X65358574Y-64279853D01*
X65619727Y-64171680D01*
X65854759Y-64014637D01*
X66054637Y-63814759D01*
X66210000Y-63582241D01*
X66365363Y-63814759D01*
X66565241Y-64014637D01*
X66800273Y-64171680D01*
X67061426Y-64279853D01*
X67338665Y-64335000D01*
X67621335Y-64335000D01*
X67898574Y-64279853D01*
X68159727Y-64171680D01*
X68394759Y-64014637D01*
X68594637Y-63814759D01*
X68750000Y-63582241D01*
X68905363Y-63814759D01*
X69105241Y-64014637D01*
X69340273Y-64171680D01*
X69601426Y-64279853D01*
X69878665Y-64335000D01*
X70161335Y-64335000D01*
X70438574Y-64279853D01*
X70699727Y-64171680D01*
X70934759Y-64014637D01*
X71134637Y-63814759D01*
X71290000Y-63582241D01*
X71445363Y-63814759D01*
X71645241Y-64014637D01*
X71880273Y-64171680D01*
X72141426Y-64279853D01*
X72418665Y-64335000D01*
X72701335Y-64335000D01*
X72978574Y-64279853D01*
X73239727Y-64171680D01*
X73474759Y-64014637D01*
X73674637Y-63814759D01*
X73831680Y-63579727D01*
X73939853Y-63318574D01*
X73995000Y-63041335D01*
X73995000Y-62758665D01*
X73939853Y-62481426D01*
X73831680Y-62220273D01*
X73674637Y-61985241D01*
X73474759Y-61785363D01*
X73239727Y-61628320D01*
X72978574Y-61520147D01*
X72701335Y-61465000D01*
X72418665Y-61465000D01*
X72141426Y-61520147D01*
X71880273Y-61628320D01*
X71645241Y-61785363D01*
X71445363Y-61985241D01*
X71290000Y-62217759D01*
X71134637Y-61985241D01*
X70934759Y-61785363D01*
X70699727Y-61628320D01*
X70438574Y-61520147D01*
X70161335Y-61465000D01*
X69878665Y-61465000D01*
X69601426Y-61520147D01*
X69340273Y-61628320D01*
X69105241Y-61785363D01*
X68905363Y-61985241D01*
X68750000Y-62217759D01*
X68594637Y-61985241D01*
X68394759Y-61785363D01*
X68159727Y-61628320D01*
X67898574Y-61520147D01*
X67621335Y-61465000D01*
X67338665Y-61465000D01*
X67061426Y-61520147D01*
X66800273Y-61628320D01*
X66565241Y-61785363D01*
X66365363Y-61985241D01*
X66210000Y-62217759D01*
X66054637Y-61985241D01*
X65854759Y-61785363D01*
X65619727Y-61628320D01*
X65358574Y-61520147D01*
X65081335Y-61465000D01*
X64798665Y-61465000D01*
X64521426Y-61520147D01*
X64260273Y-61628320D01*
X64025241Y-61785363D01*
X63825363Y-61985241D01*
X63670000Y-62217759D01*
X63514637Y-61985241D01*
X63314759Y-61785363D01*
X63079727Y-61628320D01*
X62818574Y-61520147D01*
X62541335Y-61465000D01*
X62258665Y-61465000D01*
X61981426Y-61520147D01*
X61720273Y-61628320D01*
X61485241Y-61785363D01*
X61285363Y-61985241D01*
X61130000Y-62217759D01*
X60974637Y-61985241D01*
X60774759Y-61785363D01*
X60539727Y-61628320D01*
X60278574Y-61520147D01*
X60001335Y-61465000D01*
X59718665Y-61465000D01*
X59441426Y-61520147D01*
X59180273Y-61628320D01*
X58945241Y-61785363D01*
X58745363Y-61985241D01*
X58588320Y-62220273D01*
X58480147Y-62481426D01*
X58425000Y-62758665D01*
X56215000Y-62758665D01*
X56159853Y-62481426D01*
X56051680Y-62220273D01*
X55894637Y-61985241D01*
X55694759Y-61785363D01*
X55459727Y-61628320D01*
X55198574Y-61520147D01*
X54921335Y-61465000D01*
X54638665Y-61465000D01*
X54361426Y-61520147D01*
X54100273Y-61628320D01*
X53865241Y-61785363D01*
X53665363Y-61985241D01*
X53508320Y-62220273D01*
X53503933Y-62230865D01*
X53392385Y-62044869D01*
X53203414Y-61836481D01*
X52977420Y-61668963D01*
X52723087Y-61548754D01*
X52589039Y-61508096D01*
X52367000Y-61630085D01*
X52113000Y-61630085D01*
X51890961Y-61508096D01*
X51756913Y-61548754D01*
X51502580Y-61668963D01*
X51276586Y-61836481D01*
X51087615Y-62044869D01*
X50970000Y-62240982D01*
X50852385Y-62044869D01*
X50663414Y-61836481D01*
X50437420Y-61668963D01*
X50183087Y-61548754D01*
X50049039Y-61508096D01*
X49827000Y-61630085D01*
X49573000Y-61630085D01*
X49350961Y-61508096D01*
X49216913Y-61548754D01*
X48962580Y-61668963D01*
X48736586Y-61836481D01*
X48547615Y-62044869D01*
X48436067Y-62230865D01*
X48431680Y-62220273D01*
X48274637Y-61985241D01*
X48074759Y-61785363D01*
X47839727Y-61628320D01*
X47578574Y-61520147D01*
X47301335Y-61465000D01*
X47018665Y-61465000D01*
X46741426Y-61520147D01*
X46480273Y-61628320D01*
X46245241Y-61785363D01*
X46045363Y-61985241D01*
X45890000Y-62217759D01*
X45844339Y-62149422D01*
X46858763Y-61135000D01*
X55444249Y-61135000D01*
X55500000Y-61140491D01*
X55555751Y-61135000D01*
X55555752Y-61135000D01*
X55722499Y-61118577D01*
X55936447Y-61053676D01*
X56133623Y-60948284D01*
X56306449Y-60806449D01*
X56341995Y-60763136D01*
X57263145Y-59841987D01*
X57306449Y-59806449D01*
X57350353Y-59752953D01*
X57448284Y-59633623D01*
X57553676Y-59436447D01*
X57618577Y-59222499D01*
X57640491Y-59000000D01*
X57618577Y-58777501D01*
X57553676Y-58563553D01*
X57448284Y-58366377D01*
X57306449Y-58193551D01*
X57133623Y-58051716D01*
X56936447Y-57946324D01*
X56722499Y-57881423D01*
X56500000Y-57859509D01*
X56277501Y-57881423D01*
X56063553Y-57946324D01*
X55866377Y-58051716D01*
X55736856Y-58158011D01*
X55736854Y-58158013D01*
X55693551Y-58193551D01*
X55658013Y-58236855D01*
X55029868Y-58865000D01*
X48789314Y-58865000D01*
X48892012Y-58711302D01*
X49052953Y-58322756D01*
X49135000Y-57910279D01*
X49135000Y-57489721D01*
X49052953Y-57077244D01*
X48892012Y-56688698D01*
X48658363Y-56339017D01*
X48360983Y-56041637D01*
X48011302Y-55807988D01*
X47622756Y-55647047D01*
X47210279Y-55565000D01*
X46789721Y-55565000D01*
X46377244Y-55647047D01*
X45988698Y-55807988D01*
X45639017Y-56041637D01*
X45341637Y-56339017D01*
X45107988Y-56688698D01*
X44947047Y-57077244D01*
X44865000Y-57489721D01*
X44865000Y-57910279D01*
X44947047Y-58322756D01*
X45107988Y-58711302D01*
X45341637Y-59060983D01*
X45532076Y-59251422D01*
X43856860Y-60926639D01*
X43813552Y-60962181D01*
X43671717Y-61135007D01*
X43566324Y-61332183D01*
X43501423Y-61546131D01*
X43494133Y-61620147D01*
X43479509Y-61768630D01*
X43485000Y-61824381D01*
X43485000Y-62015716D01*
X43350000Y-62217759D01*
X43194637Y-61985241D01*
X42994759Y-61785363D01*
X42759727Y-61628320D01*
X42498574Y-61520147D01*
X42221335Y-61465000D01*
X41938665Y-61465000D01*
X41661426Y-61520147D01*
X41400273Y-61628320D01*
X41165241Y-61785363D01*
X40965363Y-61985241D01*
X40810000Y-62217759D01*
X40654637Y-61985241D01*
X40454759Y-61785363D01*
X40219727Y-61628320D01*
X39958574Y-61520147D01*
X39681335Y-61465000D01*
X39398665Y-61465000D01*
X39121426Y-61520147D01*
X38860273Y-61628320D01*
X38625241Y-61785363D01*
X38426643Y-61983961D01*
X38425812Y-61975518D01*
X38389502Y-61855820D01*
X38330537Y-61745506D01*
X38251185Y-61648815D01*
X38154494Y-61569463D01*
X38044180Y-61510498D01*
X37924482Y-61474188D01*
X37800000Y-61461928D01*
X36200000Y-61461928D01*
X36075518Y-61474188D01*
X35955820Y-61510498D01*
X35845506Y-61569463D01*
X35748815Y-61648815D01*
X35669463Y-61745506D01*
X35610498Y-61855820D01*
X35574188Y-61975518D01*
X35561928Y-62100000D01*
X28635000Y-62100000D01*
X28635000Y-46289721D01*
X41465000Y-46289721D01*
X41465000Y-46710279D01*
X41547047Y-47122756D01*
X41707988Y-47511302D01*
X41941637Y-47860983D01*
X42239017Y-48158363D01*
X42588698Y-48392012D01*
X42977244Y-48552953D01*
X43389721Y-48635000D01*
X43810279Y-48635000D01*
X44222756Y-48552953D01*
X44611302Y-48392012D01*
X44960983Y-48158363D01*
X45258363Y-47860983D01*
X45492012Y-47511302D01*
X45652953Y-47122756D01*
X45735000Y-46710279D01*
X45735000Y-46289721D01*
X45652953Y-45877244D01*
X45575279Y-45689721D01*
X67265000Y-45689721D01*
X67265000Y-46110279D01*
X67347047Y-46522756D01*
X67507988Y-46911302D01*
X67741637Y-47260983D01*
X68039017Y-47558363D01*
X68388698Y-47792012D01*
X68777244Y-47952953D01*
X69189721Y-48035000D01*
X69610279Y-48035000D01*
X70022756Y-47952953D01*
X70411302Y-47792012D01*
X70760983Y-47558363D01*
X71058363Y-47260983D01*
X71292012Y-46911302D01*
X71452953Y-46522756D01*
X71535000Y-46110279D01*
X71535000Y-45689721D01*
X71452953Y-45277244D01*
X71292012Y-44888698D01*
X71058363Y-44539017D01*
X70760983Y-44241637D01*
X70411302Y-44007988D01*
X70022756Y-43847047D01*
X69610279Y-43765000D01*
X69189721Y-43765000D01*
X68777244Y-43847047D01*
X68388698Y-44007988D01*
X68039017Y-44241637D01*
X67741637Y-44539017D01*
X67507988Y-44888698D01*
X67347047Y-45277244D01*
X67265000Y-45689721D01*
X45575279Y-45689721D01*
X45492012Y-45488698D01*
X45258363Y-45139017D01*
X44960983Y-44841637D01*
X44611302Y-44607988D01*
X44222756Y-44447047D01*
X43810279Y-44365000D01*
X43389721Y-44365000D01*
X42977244Y-44447047D01*
X42588698Y-44607988D01*
X42239017Y-44841637D01*
X41941637Y-45139017D01*
X41707988Y-45488698D01*
X41547047Y-45877244D01*
X41465000Y-46289721D01*
X28635000Y-46289721D01*
X28635000Y-39646164D01*
X47677784Y-39646164D01*
X47681826Y-39834827D01*
X47842974Y-39901328D01*
X48013998Y-39935113D01*
X48188328Y-39934884D01*
X48359264Y-39900649D01*
X48518174Y-39834827D01*
X48522216Y-39646164D01*
X48100000Y-39223948D01*
X47677784Y-39646164D01*
X28635000Y-39646164D01*
X28635000Y-38594248D01*
X28618577Y-38427501D01*
X28553676Y-38213553D01*
X28448284Y-38016377D01*
X28446332Y-38013998D01*
X46639887Y-38013998D01*
X46640116Y-38188328D01*
X46674351Y-38359264D01*
X46740173Y-38518174D01*
X46928836Y-38522216D01*
X47351052Y-38100000D01*
X46928836Y-37677784D01*
X46740173Y-37681826D01*
X46673672Y-37842974D01*
X46639887Y-38013998D01*
X28446332Y-38013998D01*
X28306449Y-37843551D01*
X28133623Y-37701716D01*
X27936446Y-37596324D01*
X27722498Y-37531423D01*
X27500000Y-37509509D01*
X27277501Y-37531423D01*
X27063553Y-37596324D01*
X26866377Y-37701716D01*
X26693551Y-37843551D01*
X26551716Y-38016377D01*
X26446324Y-38213554D01*
X26381423Y-38427502D01*
X26365000Y-38594249D01*
X26365001Y-61587609D01*
X26201426Y-61620147D01*
X25940273Y-61728320D01*
X25705241Y-61885363D01*
X25505363Y-62085241D01*
X25348320Y-62320273D01*
X25240147Y-62581426D01*
X25185000Y-62858665D01*
X20438072Y-62858665D01*
X20438072Y-62200000D01*
X20425812Y-62075518D01*
X20389502Y-61955820D01*
X20330537Y-61845506D01*
X20251185Y-61748815D01*
X20154494Y-61669463D01*
X20044180Y-61610498D01*
X19924482Y-61574188D01*
X19800000Y-61561928D01*
X18200000Y-61561928D01*
X18075518Y-61574188D01*
X17955820Y-61610498D01*
X17845506Y-61669463D01*
X17748815Y-61748815D01*
X17669463Y-61845506D01*
X17610498Y-61955820D01*
X17574188Y-62075518D01*
X17561928Y-62200000D01*
X15851586Y-62200000D01*
X15732312Y-62021495D01*
X15518505Y-61807688D01*
X15267095Y-61639701D01*
X14987743Y-61523989D01*
X14691184Y-61465000D01*
X14388816Y-61465000D01*
X14092257Y-61523989D01*
X13812905Y-61639701D01*
X13561495Y-61807688D01*
X13495056Y-61874127D01*
X13489502Y-61855820D01*
X13430537Y-61745506D01*
X13351185Y-61648815D01*
X13254494Y-61569463D01*
X13144180Y-61510498D01*
X13024482Y-61474188D01*
X12900000Y-61461928D01*
X11100000Y-61461928D01*
X10975518Y-61474188D01*
X10855820Y-61510498D01*
X10745506Y-61569463D01*
X10648815Y-61648815D01*
X10569463Y-61745506D01*
X10510498Y-61855820D01*
X10474188Y-61975518D01*
X10461928Y-62100000D01*
X8185000Y-62100000D01*
X8185000Y-56150000D01*
X20011928Y-56150000D01*
X20011928Y-57850000D01*
X20024188Y-57974482D01*
X20060498Y-58094180D01*
X20119463Y-58204494D01*
X20198815Y-58301185D01*
X20295506Y-58380537D01*
X20405820Y-58439502D01*
X20525518Y-58475812D01*
X20650000Y-58488072D01*
X22350000Y-58488072D01*
X22474482Y-58475812D01*
X22594180Y-58439502D01*
X22704494Y-58380537D01*
X22801185Y-58301185D01*
X22880537Y-58204494D01*
X22939502Y-58094180D01*
X22963966Y-58013534D01*
X23039731Y-58097588D01*
X23273080Y-58271641D01*
X23535901Y-58396825D01*
X23683110Y-58441476D01*
X23913000Y-58320155D01*
X23913000Y-57127000D01*
X24167000Y-57127000D01*
X24167000Y-58320155D01*
X24396890Y-58441476D01*
X24544099Y-58396825D01*
X24806920Y-58271641D01*
X25040269Y-58097588D01*
X25235178Y-57881355D01*
X25384157Y-57631252D01*
X25481481Y-57356891D01*
X25360814Y-57127000D01*
X24167000Y-57127000D01*
X23913000Y-57127000D01*
X23893000Y-57127000D01*
X23893000Y-56873000D01*
X23913000Y-56873000D01*
X23913000Y-55679845D01*
X24167000Y-55679845D01*
X24167000Y-56873000D01*
X25360814Y-56873000D01*
X25481481Y-56643109D01*
X25384157Y-56368748D01*
X25235178Y-56118645D01*
X25040269Y-55902412D01*
X24806920Y-55728359D01*
X24544099Y-55603175D01*
X24396890Y-55558524D01*
X24167000Y-55679845D01*
X23913000Y-55679845D01*
X23683110Y-55558524D01*
X23535901Y-55603175D01*
X23273080Y-55728359D01*
X23039731Y-55902412D01*
X22963966Y-55986466D01*
X22939502Y-55905820D01*
X22880537Y-55795506D01*
X22801185Y-55698815D01*
X22704494Y-55619463D01*
X22594180Y-55560498D01*
X22474482Y-55524188D01*
X22350000Y-55511928D01*
X20650000Y-55511928D01*
X20525518Y-55524188D01*
X20405820Y-55560498D01*
X20295506Y-55619463D01*
X20198815Y-55698815D01*
X20119463Y-55795506D01*
X20060498Y-55905820D01*
X20024188Y-56025518D01*
X20011928Y-56150000D01*
X8185000Y-56150000D01*
X8185000Y-37503836D01*
X47102784Y-37503836D01*
X47525000Y-37926052D01*
X47541971Y-37909081D01*
X47715919Y-38083029D01*
X47698948Y-38100000D01*
X47715919Y-38116971D01*
X47541971Y-38290919D01*
X47525000Y-38273948D01*
X47102784Y-38696164D01*
X47106826Y-38884827D01*
X47221203Y-38932027D01*
X47214887Y-38963998D01*
X47215116Y-39138328D01*
X47249351Y-39309264D01*
X47315173Y-39468174D01*
X47503836Y-39472216D01*
X47926052Y-39050000D01*
X47909081Y-39033029D01*
X48083029Y-38859081D01*
X48100000Y-38876052D01*
X48116971Y-38859081D01*
X48290919Y-39033029D01*
X48273948Y-39050000D01*
X48696164Y-39472216D01*
X48884827Y-39468174D01*
X48951328Y-39307026D01*
X48985113Y-39136002D01*
X48984884Y-38961672D01*
X48978968Y-38932132D01*
X49093174Y-38884827D01*
X49097216Y-38696164D01*
X48675000Y-38273948D01*
X48658029Y-38290919D01*
X48484081Y-38116971D01*
X48501052Y-38100000D01*
X48848948Y-38100000D01*
X49271164Y-38522216D01*
X49459827Y-38518174D01*
X49526328Y-38357026D01*
X49560113Y-38186002D01*
X49559884Y-38011672D01*
X49525649Y-37840736D01*
X49459827Y-37681826D01*
X49271164Y-37677784D01*
X48848948Y-38100000D01*
X48501052Y-38100000D01*
X48484081Y-38083029D01*
X48658029Y-37909081D01*
X48675000Y-37926052D01*
X49097216Y-37503836D01*
X49093174Y-37315173D01*
X48978797Y-37267973D01*
X48985113Y-37236002D01*
X48984884Y-37061672D01*
X48950649Y-36890736D01*
X48884827Y-36731826D01*
X48696164Y-36727784D01*
X48273948Y-37150000D01*
X48290919Y-37166971D01*
X48116971Y-37340919D01*
X48100000Y-37323948D01*
X48083029Y-37340919D01*
X47909081Y-37166971D01*
X47926052Y-37150000D01*
X47503836Y-36727784D01*
X47315173Y-36731826D01*
X47248672Y-36892974D01*
X47214887Y-37063998D01*
X47215116Y-37238328D01*
X47221032Y-37267868D01*
X47106826Y-37315173D01*
X47102784Y-37503836D01*
X8185000Y-37503836D01*
X8185000Y-36553836D01*
X47677784Y-36553836D01*
X48100000Y-36976052D01*
X48522216Y-36553836D01*
X48518174Y-36365173D01*
X48357026Y-36298672D01*
X48186002Y-36264887D01*
X48011672Y-36265116D01*
X47840736Y-36299351D01*
X47681826Y-36365173D01*
X47677784Y-36553836D01*
X8185000Y-36553836D01*
X8185000Y-14498665D01*
X26425000Y-14498665D01*
X26425000Y-14781335D01*
X26480147Y-15058574D01*
X26588320Y-15319727D01*
X26745363Y-15554759D01*
X26945241Y-15754637D01*
X27180273Y-15911680D01*
X27441426Y-16019853D01*
X27718665Y-16075000D01*
X28001335Y-16075000D01*
X28278574Y-16019853D01*
X28539727Y-15911680D01*
X28774759Y-15754637D01*
X28974637Y-15554759D01*
X29130000Y-15322241D01*
X29285363Y-15554759D01*
X29485241Y-15754637D01*
X29720273Y-15911680D01*
X29981426Y-16019853D01*
X30258665Y-16075000D01*
X30541335Y-16075000D01*
X30818574Y-16019853D01*
X31079727Y-15911680D01*
X31314759Y-15754637D01*
X31514637Y-15554759D01*
X31670000Y-15322241D01*
X31825363Y-15554759D01*
X32025241Y-15754637D01*
X32260273Y-15911680D01*
X32521426Y-16019853D01*
X32798665Y-16075000D01*
X33081335Y-16075000D01*
X33358574Y-16019853D01*
X33619727Y-15911680D01*
X33854759Y-15754637D01*
X34054637Y-15554759D01*
X34211680Y-15319727D01*
X34216067Y-15309135D01*
X34327615Y-15495131D01*
X34516586Y-15703519D01*
X34742580Y-15871037D01*
X34996913Y-15991246D01*
X35130961Y-16031904D01*
X35353000Y-15909915D01*
X35353000Y-14767000D01*
X35333000Y-14767000D01*
X35333000Y-14513000D01*
X35353000Y-14513000D01*
X35353000Y-13370085D01*
X35130961Y-13248096D01*
X34996913Y-13288754D01*
X34742580Y-13408963D01*
X34516586Y-13576481D01*
X34327615Y-13784869D01*
X34216067Y-13970865D01*
X34211680Y-13960273D01*
X34054637Y-13725241D01*
X33854759Y-13525363D01*
X33619727Y-13368320D01*
X33358574Y-13260147D01*
X33081335Y-13205000D01*
X32798665Y-13205000D01*
X32521426Y-13260147D01*
X32260273Y-13368320D01*
X32025241Y-13525363D01*
X31825363Y-13725241D01*
X31670000Y-13957759D01*
X31514637Y-13725241D01*
X31314759Y-13525363D01*
X31079727Y-13368320D01*
X30818574Y-13260147D01*
X30541335Y-13205000D01*
X30258665Y-13205000D01*
X29981426Y-13260147D01*
X29720273Y-13368320D01*
X29485241Y-13525363D01*
X29285363Y-13725241D01*
X29130000Y-13957759D01*
X28974637Y-13725241D01*
X28774759Y-13525363D01*
X28539727Y-13368320D01*
X28278574Y-13260147D01*
X28001335Y-13205000D01*
X27718665Y-13205000D01*
X27441426Y-13260147D01*
X27180273Y-13368320D01*
X26945241Y-13525363D01*
X26745363Y-13725241D01*
X26588320Y-13960273D01*
X26480147Y-14221426D01*
X26425000Y-14498665D01*
X8185000Y-14498665D01*
X8185000Y-10185000D01*
X86815000Y-10185000D01*
X86815001Y-66815000D01*
G37*
X86815001Y-66815000D02*
X8185000Y-66815000D01*
X8185000Y-62100000D01*
X10461928Y-62100000D01*
X10461928Y-63900000D01*
X10474188Y-64024482D01*
X10510498Y-64144180D01*
X10569463Y-64254494D01*
X10648815Y-64351185D01*
X10745506Y-64430537D01*
X10855820Y-64489502D01*
X10975518Y-64525812D01*
X11100000Y-64538072D01*
X12900000Y-64538072D01*
X13024482Y-64525812D01*
X13144180Y-64489502D01*
X13254494Y-64430537D01*
X13351185Y-64351185D01*
X13430537Y-64254494D01*
X13489502Y-64144180D01*
X13495056Y-64125873D01*
X13561495Y-64192312D01*
X13812905Y-64360299D01*
X14092257Y-64476011D01*
X14388816Y-64535000D01*
X14691184Y-64535000D01*
X14987743Y-64476011D01*
X15267095Y-64360299D01*
X15518505Y-64192312D01*
X15732312Y-63978505D01*
X15900299Y-63727095D01*
X16016011Y-63447743D01*
X16075000Y-63151184D01*
X16075000Y-62848816D01*
X16016011Y-62552257D01*
X15900299Y-62272905D01*
X15851586Y-62200000D01*
X17561928Y-62200000D01*
X17561928Y-63800000D01*
X17574188Y-63924482D01*
X17610498Y-64044180D01*
X17669463Y-64154494D01*
X17748815Y-64251185D01*
X17845506Y-64330537D01*
X17955820Y-64389502D01*
X18075518Y-64425812D01*
X18200000Y-64438072D01*
X19800000Y-64438072D01*
X19924482Y-64425812D01*
X20044180Y-64389502D01*
X20154494Y-64330537D01*
X20251185Y-64251185D01*
X20330537Y-64154494D01*
X20389502Y-64044180D01*
X20425812Y-63924482D01*
X20438072Y-63800000D01*
X20438072Y-62858665D01*
X25185000Y-62858665D01*
X25185000Y-63141335D01*
X25240147Y-63418574D01*
X25348320Y-63679727D01*
X25505363Y-63914759D01*
X25705241Y-64114637D01*
X25940273Y-64271680D01*
X26201426Y-64379853D01*
X26478665Y-64435000D01*
X26761335Y-64435000D01*
X27038574Y-64379853D01*
X27299727Y-64271680D01*
X27534759Y-64114637D01*
X27734637Y-63914759D01*
X27809453Y-63802788D01*
X27841996Y-63763135D01*
X28263135Y-63341996D01*
X28306449Y-63306449D01*
X28448284Y-63133623D01*
X28553676Y-62936447D01*
X28618577Y-62722499D01*
X28635000Y-62555752D01*
X28640491Y-62500000D01*
X28635000Y-62444248D01*
X28635000Y-62100000D01*
X35561928Y-62100000D01*
X35561928Y-63700000D01*
X35574188Y-63824482D01*
X35610498Y-63944180D01*
X35669463Y-64054494D01*
X35748815Y-64151185D01*
X35845506Y-64230537D01*
X35955820Y-64289502D01*
X36075518Y-64325812D01*
X36200000Y-64338072D01*
X37800000Y-64338072D01*
X37924482Y-64325812D01*
X38044180Y-64289502D01*
X38154494Y-64230537D01*
X38251185Y-64151185D01*
X38330537Y-64054494D01*
X38389502Y-63944180D01*
X38425812Y-63824482D01*
X38426643Y-63816039D01*
X38625241Y-64014637D01*
X38860273Y-64171680D01*
X39121426Y-64279853D01*
X39398665Y-64335000D01*
X39681335Y-64335000D01*
X39958574Y-64279853D01*
X40219727Y-64171680D01*
X40454759Y-64014637D01*
X40654637Y-63814759D01*
X40810000Y-63582241D01*
X40965363Y-63814759D01*
X41165241Y-64014637D01*
X41400273Y-64171680D01*
X41661426Y-64279853D01*
X41938665Y-64335000D01*
X42221335Y-64335000D01*
X42498574Y-64279853D01*
X42759727Y-64171680D01*
X42994759Y-64014637D01*
X43194637Y-63814759D01*
X43350000Y-63582241D01*
X43505363Y-63814759D01*
X43705241Y-64014637D01*
X43940273Y-64171680D01*
X44201426Y-64279853D01*
X44478665Y-64335000D01*
X44761335Y-64335000D01*
X45038574Y-64279853D01*
X45299727Y-64171680D01*
X45534759Y-64014637D01*
X45734637Y-63814759D01*
X45865000Y-63619657D01*
X45865000Y-64444249D01*
X45859509Y-64500000D01*
X45865000Y-64555751D01*
X45881423Y-64722498D01*
X45946324Y-64936446D01*
X46051716Y-65133623D01*
X46193551Y-65306449D01*
X46236864Y-65341995D01*
X47158013Y-66263145D01*
X47193551Y-66306449D01*
X47236854Y-66341987D01*
X47236856Y-66341989D01*
X47366377Y-66448284D01*
X47563553Y-66553676D01*
X47777501Y-66618577D01*
X48000000Y-66640491D01*
X48055752Y-66635000D01*
X75444249Y-66635000D01*
X75500000Y-66640491D01*
X75555751Y-66635000D01*
X75555752Y-66635000D01*
X75722499Y-66618577D01*
X75936447Y-66553676D01*
X76133623Y-66448284D01*
X76306449Y-66306449D01*
X76341996Y-66263135D01*
X85263141Y-57341991D01*
X85306449Y-57306449D01*
X85448284Y-57133623D01*
X85553676Y-56936447D01*
X85618577Y-56722499D01*
X85635000Y-56555752D01*
X85640491Y-56500001D01*
X85635000Y-56444249D01*
X85635000Y-30855751D01*
X85640491Y-30799999D01*
X85618577Y-30577501D01*
X85553676Y-30363553D01*
X85448283Y-30166377D01*
X85341988Y-30036856D01*
X84381996Y-29076864D01*
X84346449Y-29033551D01*
X84173623Y-28891716D01*
X83976447Y-28786324D01*
X83762499Y-28721423D01*
X83595752Y-28705000D01*
X83595751Y-28705000D01*
X83540000Y-28699509D01*
X83484249Y-28705000D01*
X83228065Y-28705000D01*
X83153475Y-28593368D01*
X83021620Y-28461513D01*
X83094180Y-28439502D01*
X83204494Y-28380537D01*
X83301185Y-28301185D01*
X83380537Y-28204494D01*
X83439502Y-28094180D01*
X83475812Y-27974482D01*
X83488072Y-27850000D01*
X83485000Y-27285750D01*
X83326250Y-27127000D01*
X82127000Y-27127000D01*
X82127000Y-27147000D01*
X81873000Y-27147000D01*
X81873000Y-27127000D01*
X81853000Y-27127000D01*
X81853000Y-26873000D01*
X81873000Y-26873000D01*
X81873000Y-25673750D01*
X82127000Y-25673750D01*
X82127000Y-26873000D01*
X83326250Y-26873000D01*
X83485000Y-26714250D01*
X83488072Y-26150000D01*
X83475812Y-26025518D01*
X83439502Y-25905820D01*
X83380537Y-25795506D01*
X83301185Y-25698815D01*
X83204494Y-25619463D01*
X83094180Y-25560498D01*
X82974482Y-25524188D01*
X82850000Y-25511928D01*
X82285750Y-25515000D01*
X82127000Y-25673750D01*
X81873000Y-25673750D01*
X81714250Y-25515000D01*
X81150000Y-25511928D01*
X81025518Y-25524188D01*
X80905820Y-25560498D01*
X80795506Y-25619463D01*
X80735000Y-25669119D01*
X80735000Y-22399723D01*
X80846525Y-22566632D01*
X81053368Y-22773475D01*
X81296589Y-22935990D01*
X81566842Y-23047932D01*
X81853740Y-23105000D01*
X82146260Y-23105000D01*
X82433158Y-23047932D01*
X82703411Y-22935990D01*
X82946632Y-22773475D01*
X83153475Y-22566632D01*
X83315990Y-22323411D01*
X83427932Y-22053158D01*
X83485000Y-21766260D01*
X83485000Y-21473740D01*
X83427932Y-21186842D01*
X83315990Y-20916589D01*
X83153475Y-20673368D01*
X82946632Y-20466525D01*
X82764466Y-20344805D01*
X82881355Y-20275178D01*
X83097588Y-20080269D01*
X83271641Y-19846920D01*
X83396825Y-19584099D01*
X83441476Y-19436890D01*
X83320155Y-19207000D01*
X82127000Y-19207000D01*
X82127000Y-19227000D01*
X81873000Y-19227000D01*
X81873000Y-19207000D01*
X81853000Y-19207000D01*
X81853000Y-18953000D01*
X81873000Y-18953000D01*
X81873000Y-18933000D01*
X82127000Y-18933000D01*
X82127000Y-18953000D01*
X83320155Y-18953000D01*
X83441476Y-18723110D01*
X83396825Y-18575901D01*
X83271641Y-18313080D01*
X83097588Y-18079731D01*
X82881355Y-17884822D01*
X82764466Y-17815195D01*
X82946632Y-17693475D01*
X83153475Y-17486632D01*
X83315990Y-17243411D01*
X83427932Y-16973158D01*
X83485000Y-16686260D01*
X83485000Y-16393740D01*
X83427932Y-16106842D01*
X83315990Y-15836589D01*
X83153475Y-15593368D01*
X83021620Y-15461513D01*
X83094180Y-15439502D01*
X83204494Y-15380537D01*
X83301185Y-15301185D01*
X83380537Y-15204494D01*
X83439502Y-15094180D01*
X83475812Y-14974482D01*
X83488072Y-14850000D01*
X83488072Y-13150000D01*
X83475812Y-13025518D01*
X83439502Y-12905820D01*
X83380537Y-12795506D01*
X83301185Y-12698815D01*
X83204494Y-12619463D01*
X83094180Y-12560498D01*
X82974482Y-12524188D01*
X82850000Y-12511928D01*
X81150000Y-12511928D01*
X81025518Y-12524188D01*
X80905820Y-12560498D01*
X80795506Y-12619463D01*
X80698815Y-12698815D01*
X80619463Y-12795506D01*
X80560498Y-12905820D01*
X80524188Y-13025518D01*
X80511928Y-13150000D01*
X80511928Y-13722077D01*
X80441989Y-13636856D01*
X80441987Y-13636854D01*
X80406449Y-13593551D01*
X80363146Y-13558013D01*
X78041996Y-11236864D01*
X78006449Y-11193551D01*
X77833623Y-11051716D01*
X77636447Y-10946324D01*
X77422499Y-10881423D01*
X77255752Y-10865000D01*
X77255751Y-10865000D01*
X77200000Y-10859509D01*
X77144249Y-10865000D01*
X49455741Y-10865000D01*
X49399999Y-10859510D01*
X49344257Y-10865000D01*
X49344248Y-10865000D01*
X49177501Y-10881423D01*
X48963553Y-10946324D01*
X48766377Y-11051716D01*
X48593551Y-11193551D01*
X48558008Y-11236860D01*
X47436865Y-12358004D01*
X47393551Y-12393551D01*
X47251716Y-12566377D01*
X47146544Y-12763143D01*
X47146324Y-12763554D01*
X47081423Y-12977502D01*
X47059509Y-13200000D01*
X47065000Y-13255751D01*
X47065000Y-13725784D01*
X46910000Y-13957759D01*
X46754637Y-13725241D01*
X46554759Y-13525363D01*
X46319727Y-13368320D01*
X46058574Y-13260147D01*
X45781335Y-13205000D01*
X45498665Y-13205000D01*
X45221426Y-13260147D01*
X44960273Y-13368320D01*
X44725241Y-13525363D01*
X44525363Y-13725241D01*
X44370000Y-13957759D01*
X44214637Y-13725241D01*
X44014759Y-13525363D01*
X43779727Y-13368320D01*
X43518574Y-13260147D01*
X43241335Y-13205000D01*
X42958665Y-13205000D01*
X42681426Y-13260147D01*
X42420273Y-13368320D01*
X42185241Y-13525363D01*
X41985363Y-13725241D01*
X41830000Y-13957759D01*
X41674637Y-13725241D01*
X41474759Y-13525363D01*
X41239727Y-13368320D01*
X40978574Y-13260147D01*
X40701335Y-13205000D01*
X40418665Y-13205000D01*
X40141426Y-13260147D01*
X39880273Y-13368320D01*
X39645241Y-13525363D01*
X39445363Y-13725241D01*
X39290000Y-13957759D01*
X39134637Y-13725241D01*
X38934759Y-13525363D01*
X38699727Y-13368320D01*
X38438574Y-13260147D01*
X38161335Y-13205000D01*
X37878665Y-13205000D01*
X37601426Y-13260147D01*
X37340273Y-13368320D01*
X37105241Y-13525363D01*
X36905363Y-13725241D01*
X36748320Y-13960273D01*
X36743933Y-13970865D01*
X36632385Y-13784869D01*
X36443414Y-13576481D01*
X36217420Y-13408963D01*
X35963087Y-13288754D01*
X35829039Y-13248096D01*
X35607000Y-13370085D01*
X35607000Y-14513000D01*
X35627000Y-14513000D01*
X35627000Y-14767000D01*
X35607000Y-14767000D01*
X35607000Y-15909915D01*
X35829039Y-16031904D01*
X35963087Y-15991246D01*
X36217420Y-15871037D01*
X36443414Y-15703519D01*
X36632385Y-15495131D01*
X36743933Y-15309135D01*
X36748320Y-15319727D01*
X36905363Y-15554759D01*
X37105241Y-15754637D01*
X37340273Y-15911680D01*
X37601426Y-16019853D01*
X37878665Y-16075000D01*
X38161335Y-16075000D01*
X38438574Y-16019853D01*
X38699727Y-15911680D01*
X38934759Y-15754637D01*
X39134637Y-15554759D01*
X39290000Y-15322241D01*
X39445363Y-15554759D01*
X39645241Y-15754637D01*
X39880273Y-15911680D01*
X40141426Y-16019853D01*
X40418665Y-16075000D01*
X40701335Y-16075000D01*
X40978574Y-16019853D01*
X41239727Y-15911680D01*
X41474759Y-15754637D01*
X41674637Y-15554759D01*
X41830000Y-15322241D01*
X41985363Y-15554759D01*
X42185241Y-15754637D01*
X42420273Y-15911680D01*
X42681426Y-16019853D01*
X42958665Y-16075000D01*
X43241335Y-16075000D01*
X43518574Y-16019853D01*
X43779727Y-15911680D01*
X44014759Y-15754637D01*
X44214637Y-15554759D01*
X44370000Y-15322241D01*
X44525363Y-15554759D01*
X44725241Y-15754637D01*
X44960273Y-15911680D01*
X45221426Y-16019853D01*
X45498665Y-16075000D01*
X45781335Y-16075000D01*
X46058574Y-16019853D01*
X46319727Y-15911680D01*
X46554759Y-15754637D01*
X46754637Y-15554759D01*
X46910000Y-15322241D01*
X47065363Y-15554759D01*
X47265241Y-15754637D01*
X47500273Y-15911680D01*
X47761426Y-16019853D01*
X48038665Y-16075000D01*
X48321335Y-16075000D01*
X48598574Y-16019853D01*
X48859727Y-15911680D01*
X49094759Y-15754637D01*
X49294637Y-15554759D01*
X49450000Y-15322241D01*
X49565000Y-15494351D01*
X49565000Y-16144249D01*
X49559509Y-16200000D01*
X49565000Y-16255751D01*
X49581423Y-16422498D01*
X49646324Y-16636446D01*
X49751716Y-16833623D01*
X49893551Y-17006449D01*
X49936864Y-17041995D01*
X50658008Y-17763140D01*
X50693551Y-17806449D01*
X50753917Y-17855990D01*
X50866377Y-17948284D01*
X51063553Y-18053676D01*
X51277501Y-18118577D01*
X51500000Y-18140491D01*
X51555752Y-18135000D01*
X60167788Y-18135000D01*
X79955928Y-37923141D01*
X79991470Y-37966449D01*
X80164296Y-38108284D01*
X80361472Y-38213676D01*
X80575420Y-38278577D01*
X80742167Y-38295000D01*
X80742176Y-38295000D01*
X80797918Y-38300490D01*
X80853660Y-38295000D01*
X81034893Y-38295000D01*
X81053368Y-38313475D01*
X81227760Y-38430000D01*
X81053368Y-38546525D01*
X80846525Y-38753368D01*
X80684010Y-38996589D01*
X80572068Y-39266842D01*
X80515000Y-39553740D01*
X80515000Y-39846260D01*
X80572068Y-40133158D01*
X80684010Y-40403411D01*
X80846525Y-40646632D01*
X81053368Y-40853475D01*
X81227760Y-40970000D01*
X81053368Y-41086525D01*
X80846525Y-41293368D01*
X80684010Y-41536589D01*
X80572068Y-41806842D01*
X80515000Y-42093740D01*
X80515000Y-42386260D01*
X80572068Y-42673158D01*
X80684010Y-42943411D01*
X80846525Y-43186632D01*
X81053368Y-43393475D01*
X81227760Y-43510000D01*
X81053368Y-43626525D01*
X80846525Y-43833368D01*
X80684010Y-44076589D01*
X80572068Y-44346842D01*
X80515000Y-44633740D01*
X80515000Y-44926260D01*
X80572068Y-45213158D01*
X80684010Y-45483411D01*
X80846525Y-45726632D01*
X81053368Y-45933475D01*
X81296589Y-46095990D01*
X81566842Y-46207932D01*
X81853740Y-46265000D01*
X82146260Y-46265000D01*
X82433158Y-46207932D01*
X82703411Y-46095990D01*
X82946632Y-45933475D01*
X83153475Y-45726632D01*
X83315990Y-45483411D01*
X83365001Y-45365088D01*
X83365001Y-55244239D01*
X83365000Y-55244249D01*
X83365000Y-56029868D01*
X75029869Y-64365000D01*
X48470132Y-64365000D01*
X48135000Y-64029868D01*
X48135000Y-63954396D01*
X48175387Y-63914009D01*
X48306449Y-63806449D01*
X48448284Y-63633623D01*
X48460753Y-63610295D01*
X48547615Y-63755131D01*
X48736586Y-63963519D01*
X48962580Y-64131037D01*
X49216913Y-64251246D01*
X49350961Y-64291904D01*
X49573000Y-64169915D01*
X49573000Y-63027000D01*
X49827000Y-63027000D01*
X49827000Y-64169915D01*
X50049039Y-64291904D01*
X50183087Y-64251246D01*
X50437420Y-64131037D01*
X50663414Y-63963519D01*
X50852385Y-63755131D01*
X50970000Y-63559018D01*
X51087615Y-63755131D01*
X51276586Y-63963519D01*
X51502580Y-64131037D01*
X51756913Y-64251246D01*
X51890961Y-64291904D01*
X52113000Y-64169915D01*
X52113000Y-63027000D01*
X49827000Y-63027000D01*
X49573000Y-63027000D01*
X49553000Y-63027000D01*
X49553000Y-62773000D01*
X49573000Y-62773000D01*
X49573000Y-61630085D01*
X49827000Y-61630085D01*
X49827000Y-62773000D01*
X52113000Y-62773000D01*
X52113000Y-61630085D01*
X52367000Y-61630085D01*
X52367000Y-62773000D01*
X52387000Y-62773000D01*
X52387000Y-63027000D01*
X52367000Y-63027000D01*
X52367000Y-64169915D01*
X52589039Y-64291904D01*
X52723087Y-64251246D01*
X52977420Y-64131037D01*
X53203414Y-63963519D01*
X53392385Y-63755131D01*
X53503933Y-63569135D01*
X53508320Y-63579727D01*
X53665363Y-63814759D01*
X53865241Y-64014637D01*
X54100273Y-64171680D01*
X54361426Y-64279853D01*
X54638665Y-64335000D01*
X54921335Y-64335000D01*
X55198574Y-64279853D01*
X55459727Y-64171680D01*
X55694759Y-64014637D01*
X55894637Y-63814759D01*
X56051680Y-63579727D01*
X56159853Y-63318574D01*
X56215000Y-63041335D01*
X56215000Y-62758665D01*
X58425000Y-62758665D01*
X58425000Y-63041335D01*
X58480147Y-63318574D01*
X58588320Y-63579727D01*
X58745363Y-63814759D01*
X58945241Y-64014637D01*
X59180273Y-64171680D01*
X59441426Y-64279853D01*
X59718665Y-64335000D01*
X60001335Y-64335000D01*
X60278574Y-64279853D01*
X60539727Y-64171680D01*
X60774759Y-64014637D01*
X60974637Y-63814759D01*
X61130000Y-63582241D01*
X61285363Y-63814759D01*
X61485241Y-64014637D01*
X61720273Y-64171680D01*
X61981426Y-64279853D01*
X62258665Y-64335000D01*
X62541335Y-64335000D01*
X62818574Y-64279853D01*
X63079727Y-64171680D01*
X63314759Y-64014637D01*
X63514637Y-63814759D01*
X63670000Y-63582241D01*
X63825363Y-63814759D01*
X64025241Y-64014637D01*
X64260273Y-64171680D01*
X64521426Y-64279853D01*
X64798665Y-64335000D01*
X65081335Y-64335000D01*
X65358574Y-64279853D01*
X65619727Y-64171680D01*
X65854759Y-64014637D01*
X66054637Y-63814759D01*
X66210000Y-63582241D01*
X66365363Y-63814759D01*
X66565241Y-64014637D01*
X66800273Y-64171680D01*
X67061426Y-64279853D01*
X67338665Y-64335000D01*
X67621335Y-64335000D01*
X67898574Y-64279853D01*
X68159727Y-64171680D01*
X68394759Y-64014637D01*
X68594637Y-63814759D01*
X68750000Y-63582241D01*
X68905363Y-63814759D01*
X69105241Y-64014637D01*
X69340273Y-64171680D01*
X69601426Y-64279853D01*
X69878665Y-64335000D01*
X70161335Y-64335000D01*
X70438574Y-64279853D01*
X70699727Y-64171680D01*
X70934759Y-64014637D01*
X71134637Y-63814759D01*
X71290000Y-63582241D01*
X71445363Y-63814759D01*
X71645241Y-64014637D01*
X71880273Y-64171680D01*
X72141426Y-64279853D01*
X72418665Y-64335000D01*
X72701335Y-64335000D01*
X72978574Y-64279853D01*
X73239727Y-64171680D01*
X73474759Y-64014637D01*
X73674637Y-63814759D01*
X73831680Y-63579727D01*
X73939853Y-63318574D01*
X73995000Y-63041335D01*
X73995000Y-62758665D01*
X73939853Y-62481426D01*
X73831680Y-62220273D01*
X73674637Y-61985241D01*
X73474759Y-61785363D01*
X73239727Y-61628320D01*
X72978574Y-61520147D01*
X72701335Y-61465000D01*
X72418665Y-61465000D01*
X72141426Y-61520147D01*
X71880273Y-61628320D01*
X71645241Y-61785363D01*
X71445363Y-61985241D01*
X71290000Y-62217759D01*
X71134637Y-61985241D01*
X70934759Y-61785363D01*
X70699727Y-61628320D01*
X70438574Y-61520147D01*
X70161335Y-61465000D01*
X69878665Y-61465000D01*
X69601426Y-61520147D01*
X69340273Y-61628320D01*
X69105241Y-61785363D01*
X68905363Y-61985241D01*
X68750000Y-62217759D01*
X68594637Y-61985241D01*
X68394759Y-61785363D01*
X68159727Y-61628320D01*
X67898574Y-61520147D01*
X67621335Y-61465000D01*
X67338665Y-61465000D01*
X67061426Y-61520147D01*
X66800273Y-61628320D01*
X66565241Y-61785363D01*
X66365363Y-61985241D01*
X66210000Y-62217759D01*
X66054637Y-61985241D01*
X65854759Y-61785363D01*
X65619727Y-61628320D01*
X65358574Y-61520147D01*
X65081335Y-61465000D01*
X64798665Y-61465000D01*
X64521426Y-61520147D01*
X64260273Y-61628320D01*
X64025241Y-61785363D01*
X63825363Y-61985241D01*
X63670000Y-62217759D01*
X63514637Y-61985241D01*
X63314759Y-61785363D01*
X63079727Y-61628320D01*
X62818574Y-61520147D01*
X62541335Y-61465000D01*
X62258665Y-61465000D01*
X61981426Y-61520147D01*
X61720273Y-61628320D01*
X61485241Y-61785363D01*
X61285363Y-61985241D01*
X61130000Y-62217759D01*
X60974637Y-61985241D01*
X60774759Y-61785363D01*
X60539727Y-61628320D01*
X60278574Y-61520147D01*
X60001335Y-61465000D01*
X59718665Y-61465000D01*
X59441426Y-61520147D01*
X59180273Y-61628320D01*
X58945241Y-61785363D01*
X58745363Y-61985241D01*
X58588320Y-62220273D01*
X58480147Y-62481426D01*
X58425000Y-62758665D01*
X56215000Y-62758665D01*
X56159853Y-62481426D01*
X56051680Y-62220273D01*
X55894637Y-61985241D01*
X55694759Y-61785363D01*
X55459727Y-61628320D01*
X55198574Y-61520147D01*
X54921335Y-61465000D01*
X54638665Y-61465000D01*
X54361426Y-61520147D01*
X54100273Y-61628320D01*
X53865241Y-61785363D01*
X53665363Y-61985241D01*
X53508320Y-62220273D01*
X53503933Y-62230865D01*
X53392385Y-62044869D01*
X53203414Y-61836481D01*
X52977420Y-61668963D01*
X52723087Y-61548754D01*
X52589039Y-61508096D01*
X52367000Y-61630085D01*
X52113000Y-61630085D01*
X51890961Y-61508096D01*
X51756913Y-61548754D01*
X51502580Y-61668963D01*
X51276586Y-61836481D01*
X51087615Y-62044869D01*
X50970000Y-62240982D01*
X50852385Y-62044869D01*
X50663414Y-61836481D01*
X50437420Y-61668963D01*
X50183087Y-61548754D01*
X50049039Y-61508096D01*
X49827000Y-61630085D01*
X49573000Y-61630085D01*
X49350961Y-61508096D01*
X49216913Y-61548754D01*
X48962580Y-61668963D01*
X48736586Y-61836481D01*
X48547615Y-62044869D01*
X48436067Y-62230865D01*
X48431680Y-62220273D01*
X48274637Y-61985241D01*
X48074759Y-61785363D01*
X47839727Y-61628320D01*
X47578574Y-61520147D01*
X47301335Y-61465000D01*
X47018665Y-61465000D01*
X46741426Y-61520147D01*
X46480273Y-61628320D01*
X46245241Y-61785363D01*
X46045363Y-61985241D01*
X45890000Y-62217759D01*
X45844339Y-62149422D01*
X46858763Y-61135000D01*
X55444249Y-61135000D01*
X55500000Y-61140491D01*
X55555751Y-61135000D01*
X55555752Y-61135000D01*
X55722499Y-61118577D01*
X55936447Y-61053676D01*
X56133623Y-60948284D01*
X56306449Y-60806449D01*
X56341995Y-60763136D01*
X57263145Y-59841987D01*
X57306449Y-59806449D01*
X57350353Y-59752953D01*
X57448284Y-59633623D01*
X57553676Y-59436447D01*
X57618577Y-59222499D01*
X57640491Y-59000000D01*
X57618577Y-58777501D01*
X57553676Y-58563553D01*
X57448284Y-58366377D01*
X57306449Y-58193551D01*
X57133623Y-58051716D01*
X56936447Y-57946324D01*
X56722499Y-57881423D01*
X56500000Y-57859509D01*
X56277501Y-57881423D01*
X56063553Y-57946324D01*
X55866377Y-58051716D01*
X55736856Y-58158011D01*
X55736854Y-58158013D01*
X55693551Y-58193551D01*
X55658013Y-58236855D01*
X55029868Y-58865000D01*
X48789314Y-58865000D01*
X48892012Y-58711302D01*
X49052953Y-58322756D01*
X49135000Y-57910279D01*
X49135000Y-57489721D01*
X49052953Y-57077244D01*
X48892012Y-56688698D01*
X48658363Y-56339017D01*
X48360983Y-56041637D01*
X48011302Y-55807988D01*
X47622756Y-55647047D01*
X47210279Y-55565000D01*
X46789721Y-55565000D01*
X46377244Y-55647047D01*
X45988698Y-55807988D01*
X45639017Y-56041637D01*
X45341637Y-56339017D01*
X45107988Y-56688698D01*
X44947047Y-57077244D01*
X44865000Y-57489721D01*
X44865000Y-57910279D01*
X44947047Y-58322756D01*
X45107988Y-58711302D01*
X45341637Y-59060983D01*
X45532076Y-59251422D01*
X43856860Y-60926639D01*
X43813552Y-60962181D01*
X43671717Y-61135007D01*
X43566324Y-61332183D01*
X43501423Y-61546131D01*
X43494133Y-61620147D01*
X43479509Y-61768630D01*
X43485000Y-61824381D01*
X43485000Y-62015716D01*
X43350000Y-62217759D01*
X43194637Y-61985241D01*
X42994759Y-61785363D01*
X42759727Y-61628320D01*
X42498574Y-61520147D01*
X42221335Y-61465000D01*
X41938665Y-61465000D01*
X41661426Y-61520147D01*
X41400273Y-61628320D01*
X41165241Y-61785363D01*
X40965363Y-61985241D01*
X40810000Y-62217759D01*
X40654637Y-61985241D01*
X40454759Y-61785363D01*
X40219727Y-61628320D01*
X39958574Y-61520147D01*
X39681335Y-61465000D01*
X39398665Y-61465000D01*
X39121426Y-61520147D01*
X38860273Y-61628320D01*
X38625241Y-61785363D01*
X38426643Y-61983961D01*
X38425812Y-61975518D01*
X38389502Y-61855820D01*
X38330537Y-61745506D01*
X38251185Y-61648815D01*
X38154494Y-61569463D01*
X38044180Y-61510498D01*
X37924482Y-61474188D01*
X37800000Y-61461928D01*
X36200000Y-61461928D01*
X36075518Y-61474188D01*
X35955820Y-61510498D01*
X35845506Y-61569463D01*
X35748815Y-61648815D01*
X35669463Y-61745506D01*
X35610498Y-61855820D01*
X35574188Y-61975518D01*
X35561928Y-62100000D01*
X28635000Y-62100000D01*
X28635000Y-46289721D01*
X41465000Y-46289721D01*
X41465000Y-46710279D01*
X41547047Y-47122756D01*
X41707988Y-47511302D01*
X41941637Y-47860983D01*
X42239017Y-48158363D01*
X42588698Y-48392012D01*
X42977244Y-48552953D01*
X43389721Y-48635000D01*
X43810279Y-48635000D01*
X44222756Y-48552953D01*
X44611302Y-48392012D01*
X44960983Y-48158363D01*
X45258363Y-47860983D01*
X45492012Y-47511302D01*
X45652953Y-47122756D01*
X45735000Y-46710279D01*
X45735000Y-46289721D01*
X45652953Y-45877244D01*
X45575279Y-45689721D01*
X67265000Y-45689721D01*
X67265000Y-46110279D01*
X67347047Y-46522756D01*
X67507988Y-46911302D01*
X67741637Y-47260983D01*
X68039017Y-47558363D01*
X68388698Y-47792012D01*
X68777244Y-47952953D01*
X69189721Y-48035000D01*
X69610279Y-48035000D01*
X70022756Y-47952953D01*
X70411302Y-47792012D01*
X70760983Y-47558363D01*
X71058363Y-47260983D01*
X71292012Y-46911302D01*
X71452953Y-46522756D01*
X71535000Y-46110279D01*
X71535000Y-45689721D01*
X71452953Y-45277244D01*
X71292012Y-44888698D01*
X71058363Y-44539017D01*
X70760983Y-44241637D01*
X70411302Y-44007988D01*
X70022756Y-43847047D01*
X69610279Y-43765000D01*
X69189721Y-43765000D01*
X68777244Y-43847047D01*
X68388698Y-44007988D01*
X68039017Y-44241637D01*
X67741637Y-44539017D01*
X67507988Y-44888698D01*
X67347047Y-45277244D01*
X67265000Y-45689721D01*
X45575279Y-45689721D01*
X45492012Y-45488698D01*
X45258363Y-45139017D01*
X44960983Y-44841637D01*
X44611302Y-44607988D01*
X44222756Y-44447047D01*
X43810279Y-44365000D01*
X43389721Y-44365000D01*
X42977244Y-44447047D01*
X42588698Y-44607988D01*
X42239017Y-44841637D01*
X41941637Y-45139017D01*
X41707988Y-45488698D01*
X41547047Y-45877244D01*
X41465000Y-46289721D01*
X28635000Y-46289721D01*
X28635000Y-39646164D01*
X47677784Y-39646164D01*
X47681826Y-39834827D01*
X47842974Y-39901328D01*
X48013998Y-39935113D01*
X48188328Y-39934884D01*
X48359264Y-39900649D01*
X48518174Y-39834827D01*
X48522216Y-39646164D01*
X48100000Y-39223948D01*
X47677784Y-39646164D01*
X28635000Y-39646164D01*
X28635000Y-38594248D01*
X28618577Y-38427501D01*
X28553676Y-38213553D01*
X28448284Y-38016377D01*
X28446332Y-38013998D01*
X46639887Y-38013998D01*
X46640116Y-38188328D01*
X46674351Y-38359264D01*
X46740173Y-38518174D01*
X46928836Y-38522216D01*
X47351052Y-38100000D01*
X46928836Y-37677784D01*
X46740173Y-37681826D01*
X46673672Y-37842974D01*
X46639887Y-38013998D01*
X28446332Y-38013998D01*
X28306449Y-37843551D01*
X28133623Y-37701716D01*
X27936446Y-37596324D01*
X27722498Y-37531423D01*
X27500000Y-37509509D01*
X27277501Y-37531423D01*
X27063553Y-37596324D01*
X26866377Y-37701716D01*
X26693551Y-37843551D01*
X26551716Y-38016377D01*
X26446324Y-38213554D01*
X26381423Y-38427502D01*
X26365000Y-38594249D01*
X26365001Y-61587609D01*
X26201426Y-61620147D01*
X25940273Y-61728320D01*
X25705241Y-61885363D01*
X25505363Y-62085241D01*
X25348320Y-62320273D01*
X25240147Y-62581426D01*
X25185000Y-62858665D01*
X20438072Y-62858665D01*
X20438072Y-62200000D01*
X20425812Y-62075518D01*
X20389502Y-61955820D01*
X20330537Y-61845506D01*
X20251185Y-61748815D01*
X20154494Y-61669463D01*
X20044180Y-61610498D01*
X19924482Y-61574188D01*
X19800000Y-61561928D01*
X18200000Y-61561928D01*
X18075518Y-61574188D01*
X17955820Y-61610498D01*
X17845506Y-61669463D01*
X17748815Y-61748815D01*
X17669463Y-61845506D01*
X17610498Y-61955820D01*
X17574188Y-62075518D01*
X17561928Y-62200000D01*
X15851586Y-62200000D01*
X15732312Y-62021495D01*
X15518505Y-61807688D01*
X15267095Y-61639701D01*
X14987743Y-61523989D01*
X14691184Y-61465000D01*
X14388816Y-61465000D01*
X14092257Y-61523989D01*
X13812905Y-61639701D01*
X13561495Y-61807688D01*
X13495056Y-61874127D01*
X13489502Y-61855820D01*
X13430537Y-61745506D01*
X13351185Y-61648815D01*
X13254494Y-61569463D01*
X13144180Y-61510498D01*
X13024482Y-61474188D01*
X12900000Y-61461928D01*
X11100000Y-61461928D01*
X10975518Y-61474188D01*
X10855820Y-61510498D01*
X10745506Y-61569463D01*
X10648815Y-61648815D01*
X10569463Y-61745506D01*
X10510498Y-61855820D01*
X10474188Y-61975518D01*
X10461928Y-62100000D01*
X8185000Y-62100000D01*
X8185000Y-56150000D01*
X20011928Y-56150000D01*
X20011928Y-57850000D01*
X20024188Y-57974482D01*
X20060498Y-58094180D01*
X20119463Y-58204494D01*
X20198815Y-58301185D01*
X20295506Y-58380537D01*
X20405820Y-58439502D01*
X20525518Y-58475812D01*
X20650000Y-58488072D01*
X22350000Y-58488072D01*
X22474482Y-58475812D01*
X22594180Y-58439502D01*
X22704494Y-58380537D01*
X22801185Y-58301185D01*
X22880537Y-58204494D01*
X22939502Y-58094180D01*
X22963966Y-58013534D01*
X23039731Y-58097588D01*
X23273080Y-58271641D01*
X23535901Y-58396825D01*
X23683110Y-58441476D01*
X23913000Y-58320155D01*
X23913000Y-57127000D01*
X24167000Y-57127000D01*
X24167000Y-58320155D01*
X24396890Y-58441476D01*
X24544099Y-58396825D01*
X24806920Y-58271641D01*
X25040269Y-58097588D01*
X25235178Y-57881355D01*
X25384157Y-57631252D01*
X25481481Y-57356891D01*
X25360814Y-57127000D01*
X24167000Y-57127000D01*
X23913000Y-57127000D01*
X23893000Y-57127000D01*
X23893000Y-56873000D01*
X23913000Y-56873000D01*
X23913000Y-55679845D01*
X24167000Y-55679845D01*
X24167000Y-56873000D01*
X25360814Y-56873000D01*
X25481481Y-56643109D01*
X25384157Y-56368748D01*
X25235178Y-56118645D01*
X25040269Y-55902412D01*
X24806920Y-55728359D01*
X24544099Y-55603175D01*
X24396890Y-55558524D01*
X24167000Y-55679845D01*
X23913000Y-55679845D01*
X23683110Y-55558524D01*
X23535901Y-55603175D01*
X23273080Y-55728359D01*
X23039731Y-55902412D01*
X22963966Y-55986466D01*
X22939502Y-55905820D01*
X22880537Y-55795506D01*
X22801185Y-55698815D01*
X22704494Y-55619463D01*
X22594180Y-55560498D01*
X22474482Y-55524188D01*
X22350000Y-55511928D01*
X20650000Y-55511928D01*
X20525518Y-55524188D01*
X20405820Y-55560498D01*
X20295506Y-55619463D01*
X20198815Y-55698815D01*
X20119463Y-55795506D01*
X20060498Y-55905820D01*
X20024188Y-56025518D01*
X20011928Y-56150000D01*
X8185000Y-56150000D01*
X8185000Y-37503836D01*
X47102784Y-37503836D01*
X47525000Y-37926052D01*
X47541971Y-37909081D01*
X47715919Y-38083029D01*
X47698948Y-38100000D01*
X47715919Y-38116971D01*
X47541971Y-38290919D01*
X47525000Y-38273948D01*
X47102784Y-38696164D01*
X47106826Y-38884827D01*
X47221203Y-38932027D01*
X47214887Y-38963998D01*
X47215116Y-39138328D01*
X47249351Y-39309264D01*
X47315173Y-39468174D01*
X47503836Y-39472216D01*
X47926052Y-39050000D01*
X47909081Y-39033029D01*
X48083029Y-38859081D01*
X48100000Y-38876052D01*
X48116971Y-38859081D01*
X48290919Y-39033029D01*
X48273948Y-39050000D01*
X48696164Y-39472216D01*
X48884827Y-39468174D01*
X48951328Y-39307026D01*
X48985113Y-39136002D01*
X48984884Y-38961672D01*
X48978968Y-38932132D01*
X49093174Y-38884827D01*
X49097216Y-38696164D01*
X48675000Y-38273948D01*
X48658029Y-38290919D01*
X48484081Y-38116971D01*
X48501052Y-38100000D01*
X48848948Y-38100000D01*
X49271164Y-38522216D01*
X49459827Y-38518174D01*
X49526328Y-38357026D01*
X49560113Y-38186002D01*
X49559884Y-38011672D01*
X49525649Y-37840736D01*
X49459827Y-37681826D01*
X49271164Y-37677784D01*
X48848948Y-38100000D01*
X48501052Y-38100000D01*
X48484081Y-38083029D01*
X48658029Y-37909081D01*
X48675000Y-37926052D01*
X49097216Y-37503836D01*
X49093174Y-37315173D01*
X48978797Y-37267973D01*
X48985113Y-37236002D01*
X48984884Y-37061672D01*
X48950649Y-36890736D01*
X48884827Y-36731826D01*
X48696164Y-36727784D01*
X48273948Y-37150000D01*
X48290919Y-37166971D01*
X48116971Y-37340919D01*
X48100000Y-37323948D01*
X48083029Y-37340919D01*
X47909081Y-37166971D01*
X47926052Y-37150000D01*
X47503836Y-36727784D01*
X47315173Y-36731826D01*
X47248672Y-36892974D01*
X47214887Y-37063998D01*
X47215116Y-37238328D01*
X47221032Y-37267868D01*
X47106826Y-37315173D01*
X47102784Y-37503836D01*
X8185000Y-37503836D01*
X8185000Y-36553836D01*
X47677784Y-36553836D01*
X48100000Y-36976052D01*
X48522216Y-36553836D01*
X48518174Y-36365173D01*
X48357026Y-36298672D01*
X48186002Y-36264887D01*
X48011672Y-36265116D01*
X47840736Y-36299351D01*
X47681826Y-36365173D01*
X47677784Y-36553836D01*
X8185000Y-36553836D01*
X8185000Y-14498665D01*
X26425000Y-14498665D01*
X26425000Y-14781335D01*
X26480147Y-15058574D01*
X26588320Y-15319727D01*
X26745363Y-15554759D01*
X26945241Y-15754637D01*
X27180273Y-15911680D01*
X27441426Y-16019853D01*
X27718665Y-16075000D01*
X28001335Y-16075000D01*
X28278574Y-16019853D01*
X28539727Y-15911680D01*
X28774759Y-15754637D01*
X28974637Y-15554759D01*
X29130000Y-15322241D01*
X29285363Y-15554759D01*
X29485241Y-15754637D01*
X29720273Y-15911680D01*
X29981426Y-16019853D01*
X30258665Y-16075000D01*
X30541335Y-16075000D01*
X30818574Y-16019853D01*
X31079727Y-15911680D01*
X31314759Y-15754637D01*
X31514637Y-15554759D01*
X31670000Y-15322241D01*
X31825363Y-15554759D01*
X32025241Y-15754637D01*
X32260273Y-15911680D01*
X32521426Y-16019853D01*
X32798665Y-16075000D01*
X33081335Y-16075000D01*
X33358574Y-16019853D01*
X33619727Y-15911680D01*
X33854759Y-15754637D01*
X34054637Y-15554759D01*
X34211680Y-15319727D01*
X34216067Y-15309135D01*
X34327615Y-15495131D01*
X34516586Y-15703519D01*
X34742580Y-15871037D01*
X34996913Y-15991246D01*
X35130961Y-16031904D01*
X35353000Y-15909915D01*
X35353000Y-14767000D01*
X35333000Y-14767000D01*
X35333000Y-14513000D01*
X35353000Y-14513000D01*
X35353000Y-13370085D01*
X35130961Y-13248096D01*
X34996913Y-13288754D01*
X34742580Y-13408963D01*
X34516586Y-13576481D01*
X34327615Y-13784869D01*
X34216067Y-13970865D01*
X34211680Y-13960273D01*
X34054637Y-13725241D01*
X33854759Y-13525363D01*
X33619727Y-13368320D01*
X33358574Y-13260147D01*
X33081335Y-13205000D01*
X32798665Y-13205000D01*
X32521426Y-13260147D01*
X32260273Y-13368320D01*
X32025241Y-13525363D01*
X31825363Y-13725241D01*
X31670000Y-13957759D01*
X31514637Y-13725241D01*
X31314759Y-13525363D01*
X31079727Y-13368320D01*
X30818574Y-13260147D01*
X30541335Y-13205000D01*
X30258665Y-13205000D01*
X29981426Y-13260147D01*
X29720273Y-13368320D01*
X29485241Y-13525363D01*
X29285363Y-13725241D01*
X29130000Y-13957759D01*
X28974637Y-13725241D01*
X28774759Y-13525363D01*
X28539727Y-13368320D01*
X28278574Y-13260147D01*
X28001335Y-13205000D01*
X27718665Y-13205000D01*
X27441426Y-13260147D01*
X27180273Y-13368320D01*
X26945241Y-13525363D01*
X26745363Y-13725241D01*
X26588320Y-13960273D01*
X26480147Y-14221426D01*
X26425000Y-14498665D01*
X8185000Y-14498665D01*
X8185000Y-10185000D01*
X86815000Y-10185000D01*
X86815001Y-66815000D01*
M02*
